<?xml version="1.0" ?><!-- Created with Inkscape (http://www.inkscape.org/) --><svg enable-background="new" height="1536" id="svg2" inkscape:export-filename="C:\Users\Michael\Desktop\GFX\stone_restore.png" inkscape:export-xdpi="90" inkscape:export-ydpi="90" inkscape:version="0.91 r13725" sodipodi:docname="wood_parquet_0.svg" version="1.1" viewBox="0 0 1536 1536" width="1536" xmlns="http://www.w3.org/2000/svg" xmlns:cc="http://creativecommons.org/ns#" xmlns:dc="http://purl.org/dc/elements/1.1/" xmlns:inkscape="http://www.inkscape.org/namespaces/inkscape" xmlns:rdf="http://www.w3.org/1999/02/22-rdf-syntax-ns#" xmlns:sodipodi="http://sodipodi.sourceforge.net/DTD/sodipodi-0.dtd" xmlns:svg="http://www.w3.org/2000/svg">
  <defs id="defs4">
    <inkscape:perspective id="perspective5076" inkscape:persp3d-origin="768 : 512 : 1" inkscape:vp_x="0 : 768 : 1" inkscape:vp_y="0 : 1000 : 0" inkscape:vp_z="1536 : 768 : 1" sodipodi:type="inkscape:persp3d"/>
    <clipPath clipPathUnits="userSpaceOnUse" id="clipPath26486">
      <rect height="336.00974" id="rect26488" rx="50.000019" ry="50.000015" style="display:inline;opacity:1;fill:#000000;fill-opacity:1;fill-rule:evenodd;stroke:none;stroke-width:0;stroke-linecap:butt;stroke-linejoin:miter;stroke-miterlimit:4;stroke-dasharray:none;stroke-opacity:1" width="337.27936" x="24.091404" y="481.89062"/>
    </clipPath>
    <clipPath clipPathUnits="userSpaceOnUse" id="clipPath26600">
      <rect height="448.00012" id="rect26602" rx="50.000011" ry="50.000011" style="display:inline;opacity:1;fill:#b7975b;fill-opacity:1;fill-rule:nonzero;stroke:none;stroke-width:0;stroke-linecap:butt;stroke-linejoin:miter;stroke-miterlimit:4;stroke-dasharray:none;stroke-opacity:1" width="448.00012" x="544" y="544.00006"/>
    </clipPath>
    <clipPath clipPathUnits="userSpaceOnUse" id="clipPath5016-9">
      <path d="m -1669.7648,-115.91059 0,-512.00018 -30.6133,30.6133 c 9.0375,9.0375 14.6133,21.5367 14.6133,35.3867 l 0,380.00014 c 0,13.85003 -5.5758,26.34926 -14.6133,35.38676 l 30.6133,30.61328 z m -512.0001,0 30.6133,-30.61328 c -9.0375,-9.0375 -14.6133,-21.53673 -14.6133,-35.38676 l 0,-380.00014 c 0,-13.85 5.5758,-26.3492 14.6133,-35.3867 l -30.6133,-30.6133 0,512.00018 z" id="path5018-9" inkscape:connector-curvature="0" style="display:inline;opacity:1;fill:#c27b65;fill-opacity:1;fill-rule:nonzero;stroke:none;stroke-width:0;stroke-linecap:butt;stroke-linejoin:miter;stroke-miterlimit:4;stroke-dasharray:none;stroke-opacity:1"/>
    </clipPath>
    <clipPath clipPathUnits="userSpaceOnUse" id="clipPath5069-1">
      <path d="m 768.00033,1792 0,512.0002 30.6133,-30.6133 c -9.0375,-9.0375 -14.6133,-21.5367 -14.6133,-35.3867 l 0,-380.0001 c 0,-13.85 5.5758,-26.3493 14.6133,-35.3868 L 768.00033,1792 Z m 512.00017,0 -30.6133,30.6133 c 9.0375,9.0375 14.6133,21.5368 14.6133,35.3868 l 0,380.0001 c 0,13.85 -5.5758,26.3492 -14.6133,35.3867 l 30.6133,30.6133 0,-512.0002 z" id="path5071-9" inkscape:connector-curvature="0" style="display:inline;opacity:1;fill:#c27b65;fill-opacity:1;fill-rule:nonzero;stroke:none;stroke-width:0;stroke-linecap:butt;stroke-linejoin:miter;stroke-miterlimit:4;stroke-dasharray:none;stroke-opacity:1"/>
    </clipPath>
    <clipPath clipPathUnits="userSpaceOnUse" id="clipPath26486-8">
      <rect height="336.00974" id="rect26488-3" rx="50.000019" ry="50.000015" style="display:inline;opacity:1;fill:#000000;fill-opacity:1;fill-rule:evenodd;stroke:none;stroke-width:0;stroke-linecap:butt;stroke-linejoin:miter;stroke-miterlimit:4;stroke-dasharray:none;stroke-opacity:1" width="337.27936" x="24.091404" y="481.89062"/>
    </clipPath>
    <clipPath clipPathUnits="userSpaceOnUse" id="clipPath26600-2">
      <rect height="448.00012" id="rect26602-8" rx="50.000011" ry="50.000011" style="display:inline;opacity:1;fill:#b7975b;fill-opacity:1;fill-rule:nonzero;stroke:none;stroke-width:0;stroke-linecap:butt;stroke-linejoin:miter;stroke-miterlimit:4;stroke-dasharray:none;stroke-opacity:1" width="448.00012" x="544" y="544.00006"/>
    </clipPath>
    <clipPath clipPathUnits="userSpaceOnUse" id="clipPath4949-9">
      <path d="m 2816.0001,1792.0002 0,-512.0001 -30.6133,30.6133 c 9.0375,9.0375 14.6133,21.5367 14.6133,35.3867 l 0,380 c 0,13.8501 -5.5758,26.3493 -14.6133,35.3868 l 30.6133,30.6133 z m -512.0001,0 30.6133,-30.6133 C 2325.5758,1752.3494 2320,1739.8502 2320,1726.0001 l 0,-380 c 0,-13.85 5.5758,-26.3492 14.6133,-35.3867 L 2304,1280.0001 l 0,512.0001 z" id="path4951-6" inkscape:connector-curvature="0" style="display:inline;opacity:1;fill:#dbab70;fill-opacity:1;fill-rule:nonzero;stroke:none;stroke-width:0;stroke-linecap:butt;stroke-linejoin:miter;stroke-miterlimit:4;stroke-dasharray:none;stroke-opacity:1"/>
    </clipPath>
    <clipPath clipPathUnits="userSpaceOnUse" id="clipPath5004-4">
      <path d="m -256.00009,3328.0002 0,-512.0001 -30.61329,30.6133 c 9.03751,9.0375 14.61329,21.5367 14.61329,35.3867 l 0,380.0001 c 0,13.85 -5.57578,26.3492 -14.61329,35.3867 l 30.61329,30.6133 z m -512.00007,0 30.6132,-30.6133 c -9.0374,-9.0375 -14.6132,-21.5367 -14.6132,-35.3867 l 0,-380.0001 c 0,-13.85 5.5758,-26.3492 14.6132,-35.3867 l -30.6132,-30.6133 0,512.0001 z" id="path5006-5" inkscape:connector-curvature="0" style="display:inline;opacity:1;fill:#dbab70;fill-opacity:1;fill-rule:nonzero;stroke:none;stroke-width:0;stroke-linecap:butt;stroke-linejoin:miter;stroke-miterlimit:4;stroke-dasharray:none;stroke-opacity:1"/>
    </clipPath>
    <clipPath clipPathUnits="userSpaceOnUse" id="clipPath26486-89">
      <rect height="336.00974" id="rect26488-8" rx="50.000019" ry="50.000015" style="display:inline;opacity:1;fill:#000000;fill-opacity:1;fill-rule:evenodd;stroke:none;stroke-width:0;stroke-linecap:butt;stroke-linejoin:miter;stroke-miterlimit:4;stroke-dasharray:none;stroke-opacity:1" width="337.27936" x="24.091404" y="481.89062"/>
    </clipPath>
    <clipPath clipPathUnits="userSpaceOnUse" id="clipPath26600-3">
      <rect height="448.00012" id="rect26602-3" rx="50.000011" ry="50.000011" style="display:inline;opacity:1;fill:#b7975b;fill-opacity:1;fill-rule:nonzero;stroke:none;stroke-width:0;stroke-linecap:butt;stroke-linejoin:miter;stroke-miterlimit:4;stroke-dasharray:none;stroke-opacity:1" width="448.00012" x="544" y="544.00006"/>
    </clipPath>
    <clipPath clipPathUnits="userSpaceOnUse" id="clipPath4940-4">
      <path d="m -1160,2104.0001 0,-512.0001 -30.6133,30.6133 c 9.0375,9.0375 14.6133,21.5367 14.6133,35.3867 l 0,380 c 0,13.8501 -5.5758,26.3493 -14.6133,35.3868 l 30.6133,30.6133 z m -512.0001,0 30.6133,-30.6133 c -9.0375,-9.0375 -14.6133,-21.5367 -14.6133,-35.3868 l 0,-380 c 0,-13.85 5.5758,-26.3492 14.6133,-35.3867 l -30.6133,-30.6133 0,512.0001 z" id="path4942-6" inkscape:connector-curvature="0" style="display:inline;opacity:1;fill:#e8af3e;fill-opacity:1;fill-rule:nonzero;stroke:none;stroke-width:0;stroke-linecap:butt;stroke-linejoin:miter;stroke-miterlimit:4;stroke-dasharray:none;stroke-opacity:1"/>
    </clipPath>
    <clipPath clipPathUnits="userSpaceOnUse" id="clipPath4995-9">
      <path d="m 2355.0292,1634.0002 0,-512.0001 -30.6132,30.6133 c 9.0375,9.0375 14.6132,21.5367 14.6132,35.3867 l 0,380 c 0,13.8501 -5.5757,26.3493 -14.6132,35.3868 l 30.6132,30.6133 z m -512.0001,0 30.6133,-30.6133 c -9.0375,-9.0375 -14.6133,-21.5367 -14.6133,-35.3868 l 0,-380 c 0,-13.85 5.5758,-26.3492 14.6133,-35.3867 l -30.6133,-30.6133 0,512.0001 z" id="path4997-8" inkscape:connector-curvature="0" style="display:inline;opacity:1;fill:#e8af3e;fill-opacity:1;fill-rule:nonzero;stroke:none;stroke-width:0;stroke-linecap:butt;stroke-linejoin:miter;stroke-miterlimit:4;stroke-dasharray:none;stroke-opacity:1"/>
    </clipPath>
    <clipPath clipPathUnits="userSpaceOnUse" id="clipPath26486-5">
      <rect height="336.00974" id="rect26488-7" rx="50.000019" ry="50.000015" style="display:inline;opacity:1;fill:#000000;fill-opacity:1;fill-rule:evenodd;stroke:none;stroke-width:0;stroke-linecap:butt;stroke-linejoin:miter;stroke-miterlimit:4;stroke-dasharray:none;stroke-opacity:1" width="337.27936" x="24.091404" y="481.89062"/>
    </clipPath>
    <clipPath clipPathUnits="userSpaceOnUse" id="clipPath26600-4">
      <rect height="448.00012" id="rect26602-1" rx="50.000011" ry="50.000011" style="display:inline;opacity:1;fill:#b7975b;fill-opacity:1;fill-rule:nonzero;stroke:none;stroke-width:0;stroke-linecap:butt;stroke-linejoin:miter;stroke-miterlimit:4;stroke-dasharray:none;stroke-opacity:1" width="448.00012" x="544" y="544.00006"/>
    </clipPath>
    <clipPath clipPathUnits="userSpaceOnUse" id="clipPath4940-6">
      <path d="m 1536,-255.9999 -512.0001,0 30.6133,30.61329 c 9.0375,-9.03751 21.5367,-14.61329 35.3867,-14.61329 l 380.0001,0 c 13.85,0 26.3492,5.57578 35.3867,14.61329 L 1536,-255.9999 Z m 0,512.0001 -30.6133,-30.61328 C 1496.3492,234.4244 1483.85,240.0002 1470,240.0002 l -380.0001,0 c -13.85,0 -26.3492,-5.5758 -35.3867,-14.61328 l -30.6133,30.61328 512.0001,0 z" id="path4942-1" inkscape:connector-curvature="0" style="display:inline;opacity:1;fill:#724132;fill-opacity:1;fill-rule:nonzero;stroke:none;stroke-width:0;stroke-linecap:butt;stroke-linejoin:miter;stroke-miterlimit:4;stroke-dasharray:none;stroke-opacity:1"/>
    </clipPath>
    <clipPath clipPathUnits="userSpaceOnUse" id="clipPath4995-5">
      <path d="m 1280.0002,-2560.0002 -512.00014,0 30.6133,30.6133 c 9.0375,-9.0375 21.5367,-14.6133 35.3867,-14.6133 l 380.00004,0 c 13.8501,0 26.3493,5.5758 35.3868,14.6133 l 30.6133,-30.6133 z m 0,512.0001 -30.6133,-30.6133 c -9.0375,9.0375 -21.5367,14.6133 -35.3868,14.6133 l -380.00004,0 c -13.85,0 -26.3492,-5.5758 -35.3867,-14.6133 l -30.6133,30.6133 512.00014,0 z" id="path4997-3" inkscape:connector-curvature="0" style="display:inline;opacity:1;fill:#724132;fill-opacity:1;fill-rule:nonzero;stroke:none;stroke-width:0;stroke-linecap:butt;stroke-linejoin:miter;stroke-miterlimit:4;stroke-dasharray:none;stroke-opacity:1"/>
    </clipPath>
    <clipPath clipPathUnits="userSpaceOnUse" id="clipPath26486-9">
      <rect height="336.00974" id="rect26488-9" rx="50.000019" ry="50.000015" style="display:inline;opacity:1;fill:#000000;fill-opacity:1;fill-rule:evenodd;stroke:none;stroke-width:0;stroke-linecap:butt;stroke-linejoin:miter;stroke-miterlimit:4;stroke-dasharray:none;stroke-opacity:1" width="337.27936" x="24.091404" y="481.89062"/>
    </clipPath>
    <clipPath clipPathUnits="userSpaceOnUse" id="clipPath26600-0">
      <rect height="448.00012" id="rect26602-0" rx="50.000011" ry="50.000011" style="display:inline;opacity:1;fill:#b7975b;fill-opacity:1;fill-rule:nonzero;stroke:none;stroke-width:0;stroke-linecap:butt;stroke-linejoin:miter;stroke-miterlimit:4;stroke-dasharray:none;stroke-opacity:1" width="448.00012" x="544" y="544.00006"/>
    </clipPath>
    <clipPath clipPathUnits="userSpaceOnUse" id="clipPath4928-2">
      <path d="m 511.99995,1611.3178 -512.00010241536,0 L 30.613148,1641.9311 c 9.0375,-9.0376 21.5367,-14.6133 35.3867,-14.6133 l 380.000082,0 c 13.85001,0 26.34924,5.5757 35.38674,14.6133 l 30.61328,-30.6133 z m 0,512.0001 -30.61328,-30.6133 c -9.0375,9.0375 -21.53673,14.6133 -35.38674,14.6133 l -380.000082,0 c -13.85,0 -26.3492,-5.5758 -35.3867,-14.6133 l -30.61330041536,30.6133 512.00010241536,0 z" id="path4930-8" inkscape:connector-curvature="0" style="display:inline;opacity:1;fill:#212121;fill-opacity:1;fill-rule:nonzero;stroke:none;stroke-width:0;stroke-linecap:butt;stroke-linejoin:miter;stroke-miterlimit:4;stroke-dasharray:none;stroke-opacity:1"/>
    </clipPath>
    <clipPath clipPathUnits="userSpaceOnUse" id="clipPath4983-3">
      <path d="m 1962.2024,-1221.9353 -512.0001,0 30.6133,30.6133 c 9.0375,-9.0375 21.5367,-14.6133 35.3867,-14.6133 l 380.0001,0 c 13.85,0 26.3492,5.5758 35.3867,14.6133 l 30.6133,-30.6133 z m 0,512.00012 -30.6133,-30.6133 c -9.0375,9.0375 -21.5367,14.6133 -35.3867,14.6133 l -380.0001,0 c -13.85,0 -26.3492,-5.5758 -35.3867,-14.6133 l -30.6133,30.6133 512.0001,0 z" id="path4985-1" inkscape:connector-curvature="0" style="display:inline;opacity:1;fill:#212121;fill-opacity:1;fill-rule:nonzero;stroke:none;stroke-width:0;stroke-linecap:butt;stroke-linejoin:miter;stroke-miterlimit:4;stroke-dasharray:none;stroke-opacity:1"/>
    </clipPath>
    <clipPath clipPathUnits="userSpaceOnUse" id="clipPath26486-57">
      <rect height="336.00974" id="rect26488-80" rx="50.000019" ry="50.000015" style="display:inline;opacity:1;fill:#000000;fill-opacity:1;fill-rule:evenodd;stroke:none;stroke-width:0;stroke-linecap:butt;stroke-linejoin:miter;stroke-miterlimit:4;stroke-dasharray:none;stroke-opacity:1" width="337.27936" x="24.091404" y="481.89062"/>
    </clipPath>
    <clipPath clipPathUnits="userSpaceOnUse" id="clipPath26600-31">
      <rect height="448.00012" id="rect26602-17" rx="50.000011" ry="50.000011" style="display:inline;opacity:1;fill:#b7975b;fill-opacity:1;fill-rule:nonzero;stroke:none;stroke-width:0;stroke-linecap:butt;stroke-linejoin:miter;stroke-miterlimit:4;stroke-dasharray:none;stroke-opacity:1" width="448.00012" x="544" y="544.00006"/>
    </clipPath>
    <clipPath clipPathUnits="userSpaceOnUse" id="clipPath26815-5-4">
      <path d="m 511.99996,1.2974121e-4 -512.00003025879,0 L 30.61321,30.613419 c 9.0375,-9.03751 21.53672,-14.61329 35.38672,-14.61329 l 380.00002,0 c 13.85,0 26.34923,5.57578 35.38673,14.61329 L 511.99996,1.2974121e-4 Z m 0,512.00003025879 -30.61328,-30.61328 c -9.0375,9.03748 -21.53673,14.61328 -35.38673,14.61328 l -380.00002,0 c -13.85,0 -26.34922,-5.5758 -35.38672,-14.61328 l -30.61328025879,30.61328 512.00003025879,0 z" id="path26817-6-0" inkscape:connector-curvature="0" style="display:inline;opacity:1;fill:#b49664;fill-opacity:1;fill-rule:nonzero;stroke:none;stroke-width:0;stroke-linecap:butt;stroke-linejoin:miter;stroke-miterlimit:4;stroke-dasharray:none;stroke-opacity:1"/>
    </clipPath>
    <clipPath clipPathUnits="userSpaceOnUse" id="clipPath26796-3">
      <path d="m 2.7701819e-5,1535.9999 -511.999997701819,0 30.61328,30.6133 c 9.0375,-9.0375 21.53672,-14.6133 35.38672,-14.6133 l 379.999998,0 c 13.849999,0 26.349219,5.5758 35.386719,14.6133 L 2.7701819e-5,1535.9999 Z m 0,512 L -30.613253,2017.3867 c -9.0375,9.0374 -21.53672,14.6132 -35.386719,14.6132 l -379.999998,0 c -13.85,0 -26.34922,-5.5758 -35.38672,-14.6132 l -30.61328,30.6132 511.999997701819,0 z" id="path26798-8" inkscape:connector-curvature="0" style="display:inline;opacity:1;fill:#b49664;fill-opacity:1;fill-rule:nonzero;stroke:none;stroke-width:0;stroke-linecap:butt;stroke-linejoin:miter;stroke-miterlimit:4;stroke-dasharray:none;stroke-opacity:1"/>
    </clipPath>
    <filter id="filter4549-6" inkscape:collect="always" inkscape:label="dark" style="color-interpolation-filters:sRGB">
      <feBlend id="feBlend4551-7" in2="BackgroundImage" inkscape:collect="always" mode="multiply"/>
    </filter>
    <filter id="filter4758-9-9" inkscape:label="bright" style="color-interpolation-filters:sRGB">
      <feBlend id="feBlend4760-8-3" in2="BackgroundImage" mode="lighten"/>
    </filter>
  </defs>
  <sodipodi:namedview bordercolor="#666666" borderopacity="1.0" gridtolerance="10" id="base" inkscape:current-layer="layer2" inkscape:cx="698.55904" inkscape:cy="797.82978" inkscape:document-units="px" inkscape:guide-bbox="true" inkscape:object-nodes="true" inkscape:object-paths="true" inkscape:pageopacity="0.0" inkscape:pageshadow="2" inkscape:showpageshadow="false" inkscape:snap-bbox="true" inkscape:snap-global="true" inkscape:snap-grids="true" inkscape:snap-intersection-paths="true" inkscape:snap-smooth-nodes="true" inkscape:window-height="937" inkscape:window-maximized="1" inkscape:window-width="1680" inkscape:window-x="-4" inkscape:window-y="-4" inkscape:zoom="0.70710678" pagecolor="#ffffff" showborder="true" showgrid="true" showguides="true" units="px">
    <inkscape:grid empspacing="1" id="grid4264" snapvisiblegridlinesonly="true" spacingx="512" spacingy="512" type="xygrid"/>
    <sodipodi:guide id="guide4438" orientation="1,0" position="768.00634,1566.8271"/>
    <sodipodi:guide id="guide4432" orientation="0,1" position="-327.28125,768"/>
  </sodipodi:namedview>
  <metadata id="metadata7">
    <rdf:RDF>
      <cc:Work rdf:about="">
        <dc:format>image/svg+xml</dc:format>
        <dc:type rdf:resource="http://purl.org/dc/dcmitype/StillImage"/>
        <dc:title/>
      </cc:Work>
    </rdf:RDF>
  </metadata>
  <g id="layer1" inkscape:groupmode="layer" inkscape:label="BG" sodipodi:insensitive="true" style="display:inline">
    <path d="m 0,1536 1536,0 L 1536,0.00263469 0,0 Z" id="path4463-2-3-5" inkscape:connector-curvature="0" sodipodi:nodetypes="ccccc" style="opacity:1;stroke-linejoin:miter;stroke-opacity:1;fill-rule:evenodd;fill-opacity:1;stroke:none;stroke-linecap:butt;stroke-width:0.96879596px;display:inline;fill:#bb4e13"/>
  </g>
  <g id="layer5" inkscape:groupmode="layer" inkscape:label="Shade" sodipodi:insensitive="true" style="display:inline">
    <path d="m 694.8245,825.5488 29.663,51.67015 -58.9618,-54.08385 z m -7.71,87.7797 12.1936,2.85731 17.0815,15.24583 -18.5545,-3.41794 -4.364,49.86734 z m 18.3875,102.3246 -31.2793,0.3324 17.0213,-16.91583 -19.8977,9.84443 -1.7483,-32.36472 -9.0091,31.20992 -5.5826,9.3343 0,6.9064 112.9937,0 0,-142.5503 0,-24.50338 0.01,-26.92966 -0.01,-19.28866 0,-42.72801 -107.7174,0 -5.2763,0 3.5053,33.5644 12.6043,7.79799 7.8873,-28.39028 -11.1886,17.45665 3.6917,-30.42876 60.4649,11.82811 23.6465,5.42735 2.1143,23.18498 -9.6575,5.48856 2.9012,15.54393 -8.1819,4.38931 8.9765,6.73505 0.3534,8.89219 5.1109,53.85292 -30.1524,11.92645 22.5919,3.53539 1.5771,44.4972 -25.5095,-39.97398 24.2255,63.31094 -15.1676,28.46461 z m -149.6919,-105.25659 -16.4283,-13.8533 1.6563,-9.89166 -8.9767,-60.07914 z m 11.3044,54.43201 34.3253,-64.4564 -6.5,38.5136 -16.1047,26.128 -6.6275,17.9445 z M 543.5063,1024 l 0.4268,-8.9555 -9.5868,-3.1304 -4.7574,-20.6548 -2.5826,25.8343 0,6.9064 112.9937,0 0,-142.55028 -18.1701,-25.0433 18.1701,-5.14673 0,-40.53167 0,-42.72801 -107.7174,0 -5.2763,0 5.1684,49.48371 2.8285,-32.0116 14.5031,-11.76991 54.4649,6.12591 23.0362,3.16991 -7.9531,13.21019 8.5496,13.47384 -27.8623,16.16956 -2.525,10.39972 23.7252,-14.74592 -7.0711,26.2163 -12.9203,-4.48339 18.9706,32.97849 3.2133,25.66378 c 0.029,2.21045 -48.0182,-60.26465 0.9806,7.83188 l 1.4482,11.56664 -18.7635,93.82388 -41.9307,-12.1423 6.5838,17.1181 z m 360.0819,-188.5951 79.8015,-15.50096 -10.5577,8.88924 -27.8024,8.94527 z m -32.1754,-5.91086 -75.4955,10.46642 29.4658,-18.43334 z M 768,896 l 256.0063,0 0,-39.10722 0,-61.89278 0,-11.5 -25.2597,10.71764 19.529,-3.63636 -14.1512,18.4856 19.8819,-11.28265 0,32.21577 -13.1599,37.04964 -54.4492,16.26345 L 922.6514,867.12071 914.2939,896 899.289,867.49271 l -2.8202,8.85845 -44.0957,-4.57969 1.5422,11.09188 -66.8994,-2.8995 L 768,830 l 0,-14.27626 0,-11.4332 0,-9.29054 0,0 14.966,-3.61079 17.5882,-13.22182 -21.2176,8.02153 L 768,783.5 l 0,11.5 0,49.52273 z m 219.5238,57.84611 -56.6467,-13.42829 -40.5293,10.67955 z m -163.4158,14.14949 42.4564,10.82535 -60.0136,0 -13.1279,8.89521 10.0555,-27.62741 z M 768,927.5 l 11.6049,-11.65999 6.6548,12.24264 12.7589,-9.00897 54.1276,10.22689 L 810.3437,910.51452 774.9254,911 768,911 l 0,113 142.5693,0 25.0434,-18.1763 33.4309,9.8647 12.2474,8.3116 42.7153,0 0,-107.7237 0,-5.2763 -10.4711,7.66844 -18.0808,-5.29714 -20.9075,8.12556 21.4103,-1.64408 7.3621,5.13633 20.687,2.51089 -11.8154,60.4649 -16.8801,10.0831 0.8229,-12.64542 -26.6108,8.59919 15.7596,4.91993 -14.7688,6.0138 -26.2164,-7.0711 -9.409,-0.92231 6.9122,-18.17843 -17.8187,17.10934 -8.242,2.83201 -39.0444,-9.31724 26.7718,13.53423 -10.165,3.4927 -85.5623,2.6421 -30.8239,-18.26348 z m 159.1972,-305.4634 24.7996,-24.44747 -37.9417,70.44136 z m 24.911,37.2792 27.6936,-81.14269 17.0815,15.24583 -13.0545,-7.91794 -9.864,54.36734 z M 941.9957,747.14035 929.2164,731.97278 942.2377,699.05697 938.34,681.4014 925.5917,720.53668 921.5826,747.2466 911,761.0809 911,768 l 113,0 0,-142.563 -6.0322,-28.22447 -2.2795,-30.24983 L 1024,554.7153 1024,512 916.2763,512 911,512 l 3.5053,33.55169 36.6042,7.79799 -16.6126,-6.39028 -10.6886,-4.54335 L 927.5,512 l 60.4649,11.8154 23.6465,5.42735 2.1143,23.18498 -12.486,-13.60332 2.9012,15.54393 -23.3847,-5.15663 24.1793,16.28099 3.1819,27.98407 5.1109,53.85292 -21.3136,-18.12559 17.6421,36.0623 -2.3119,42.02233 -23.7418,31.7974 22.4578,-8.46044 -15.1676,28.46461 z m -130.1919,-92.75654 12.0717,-30.3533 -11.8437,-6.39166 -23.9767,-47.07914 z m 11.3044,54.43201 23.8253,-42.9564 4,17.0136 -8.1047,1.628 -14.6275,42.4445 z m -23.6082,59.1842 4.34,-91.0986 -10.2574,70.3452 -10.5826,13.8343 0,6.9191 113,0 0,-142.563 -18.1764,-25.0433 9.8647,-33.431 8.3117,-12.2474 0,-42.7153 -107.7237,0 -5.2763,0 5.1684,49.471 5.3285,-0.0116 6.0031,-49.4594 60.4649,11.8154 8.0831,30.3801 -8.9505,13.97384 -13.3622,3.16956 -16.3136,18.885 47.5138,-24.7312 -7.0711,26.2163 -19.9914,15.3156 26.0417,13.1795 5.6421,45.0623 -18.7635,93.8239 -41.9307,-12.14228 6.5838,17.11801 z M 670.0818,587.4049 l 59.8015,-10.50096 9.4424,3.88924 -27.8025,8.94527 z m -46.6753,-10.91086 -75.3182,-1.90812 -8.1613,-15.92276 z M 512,640 l 256,0 0,-39.10722 0,-61.89278 0,-11.5 -25.2597,10.71764 5.3777,14.84924 L 768,541.78423 768,574 l -13.1598,37.04964 -54.4494,16.26345 -33.7458,-16.19238 -11.1859,2.11197 -31.1765,-16.73997 16.1798,23.85845 -22.0957,-1.07969 -36.9577,3.09188 -48.3994,-9.8995 L 512,574 l 0,-14.27626 0,-11.4332 0,-9.29054 0,0 14.9596,-3.61079 51.0883,7.77818 L 512,527.5 l 0,11.5 0,49.52273 z m 105.5174,49.84611 57.3533,-5.42829 26.4708,-18.32045 z m -49.4157,22.14949 83.4564,14.82535 -60.0136,0 -13.128,8.89521 -30.9445,-31.62741 z M 512,671.5 523.5986,659.84001 582.7534,664.08265 518.9191,655 512,655 l 0,113 142.563,0 25.0433,-18.17635 33.431,9.8647 L 725.2847,768 768,768 768,660.2763 768,655 757.529,662.66844 718.5406,665.49686 768,671.5 l -11.8154,60.4649 -16.8801,10.08309 -30.6434,-24.31267 20.615,25.18642 -14.7688,6.01372 -26.2163,-7.07106 -20.3156,-1.99139 -30.6795,10.54164 -85.5623,2.64213 -30.8239,-18.26346 z" id="path4557-4-7-0" inkscape:connector-curvature="0" inkscape:label="#front" style="opacity:1;stroke-linejoin:miter;stroke-opacity:1;fill-rule:evenodd;fill-opacity:0.44881891;filter:url(#filter4549-6);stroke:none;stroke-linecap:butt;stroke-width:1px;display:inline;fill:#bb4e13"/>
  </g>
  <g id="layer2" inkscape:groupmode="layer" inkscape:label="Light" sodipodi:insensitive="true" style="display:inline;opacity:1">
    <g id="g4577">
      <g id="g4593" style="filter:url(#filter4549-6)"/>
    </g>
    <g id="g4585"/>
    <g id="g4589">
      <g id="g4647" style="filter:url(#filter4549-6)"/>
    </g>
    <path d="m 520,520 0,112 -8,8 0,-127.99996 L 768.00634,512 760,520 Z m 128,496.0031 -8,8 0,-256.0031 128,0 -8,8 -112,0 z m -128,0 -8,8 0,-256.0031 128,0 -8,8 -112,0 z M 904,760 l -8,8 0,-256.0031 128,0 -8,8 -112,0 z m -128,0 -8,8 0,-256.0031 128,0 -8,8 -112,0 z m 0,144 0,112 -8,8 0,-127.99996 256.0063,-4e-5 -8.0063,8 z m 0,-128 0,112 -8,8 0,-127.99996 256.0063,-4e-5 -8.0063,8 z m -256,-128 0,112 -8,8 0,-127.99996 L 768.00634,640 760,648 Z" id="path4531-6" inkscape:connector-curvature="0" style="display:inline;fill:#ffffff;fill-opacity:0.19907406;fill-rule:evenodd;stroke:none;stroke-width:1px;stroke-linecap:butt;stroke-linejoin:miter;stroke-opacity:1;filter:url(#filter4758-9-9)"/>
  </g>
  <g id="layer6" inkscape:groupmode="layer" inkscape:label="Dark" sodipodi:insensitive="true" style="display:inline">
    <path d="m 1016.0032,631.99684 -240,0 L 776,520 l -7.9968,-7.99682 0,127.99366 256,0 z m 0,-128 -240,0 L 776,392 l -7.9968,-7.99682 0,127.99366 256,0 z m 256.0031,384 -240,0 0,-111.99684 -7.9968,-7.99682 0,127.99366 256,0 z m 0,-128 -240,0 0,-111.99684 -7.9968,-7.99682 0,127.99366 256,0 z m -376,136.0063 -8,-8.0063 -112,0 0,-240 -8,-8 0,256 z m 128,0 -8,-8.0063 -112,0 0,-240 -8,-8 0,256 z m 128,-255.99996 -8,-8.00634 -112,0 0,-240 -8,-8 0,256 z m 128,0 -8,-8.00634 -112,0 0,-240 -8,-8 0,256 z" id="path4495-6-7-2-4-7" inkscape:connector-curvature="0" style="display:inline;opacity:1;fill:#000000;fill-opacity:0.25;fill-rule:evenodd;stroke:none;stroke-width:1px;stroke-linecap:butt;stroke-linejoin:miter;stroke-opacity:1;filter:url(#filter4549-6)" transform="matrix(0,-1,1,0,128.00316,1792.0063)"/>
  </g>
<g id="layer5" inkscape:groupmode="layer" inkscape:label="Shade_copy_1" sodipodi:insensitive="true" style="display:inline" transform="translate(-512, -512)">
    <path d="m 694.8245,825.5488 29.663,51.67015 -58.9618,-54.08385 z m -7.71,87.7797 12.1936,2.85731 17.0815,15.24583 -18.5545,-3.41794 -4.364,49.86734 z m 18.3875,102.3246 -31.2793,0.3324 17.0213,-16.91583 -19.8977,9.84443 -1.7483,-32.36472 -9.0091,31.20992 -5.5826,9.3343 0,6.9064 112.9937,0 0,-142.5503 0,-24.50338 0.01,-26.92966 -0.01,-19.28866 0,-42.72801 -107.7174,0 -5.2763,0 3.5053,33.5644 12.6043,7.79799 7.8873,-28.39028 -11.1886,17.45665 3.6917,-30.42876 60.4649,11.82811 23.6465,5.42735 2.1143,23.18498 -9.6575,5.48856 2.9012,15.54393 -8.1819,4.38931 8.9765,6.73505 0.3534,8.89219 5.1109,53.85292 -30.1524,11.92645 22.5919,3.53539 1.5771,44.4972 -25.5095,-39.97398 24.2255,63.31094 -15.1676,28.46461 z m -149.6919,-105.25659 -16.4283,-13.8533 1.6563,-9.89166 -8.9767,-60.07914 z m 11.3044,54.43201 34.3253,-64.4564 -6.5,38.5136 -16.1047,26.128 -6.6275,17.9445 z M 543.5063,1024 l 0.4268,-8.9555 -9.5868,-3.1304 -4.7574,-20.6548 -2.5826,25.8343 0,6.9064 112.9937,0 0,-142.55028 -18.1701,-25.0433 18.1701,-5.14673 0,-40.53167 0,-42.72801 -107.7174,0 -5.2763,0 5.1684,49.48371 2.8285,-32.0116 14.5031,-11.76991 54.4649,6.12591 23.0362,3.16991 -7.9531,13.21019 8.5496,13.47384 -27.8623,16.16956 -2.525,10.39972 23.7252,-14.74592 -7.0711,26.2163 -12.9203,-4.48339 18.9706,32.97849 3.2133,25.66378 c 0.029,2.21045 -48.0182,-60.26465 0.9806,7.83188 l 1.4482,11.56664 -18.7635,93.82388 -41.9307,-12.1423 6.5838,17.1181 z m 360.0819,-188.5951 79.8015,-15.50096 -10.5577,8.88924 -27.8024,8.94527 z m -32.1754,-5.91086 -75.4955,10.46642 29.4658,-18.43334 z M 768,896 l 256.0063,0 0,-39.10722 0,-61.89278 0,-11.5 -25.2597,10.71764 19.529,-3.63636 -14.1512,18.4856 19.8819,-11.28265 0,32.21577 -13.1599,37.04964 -54.4492,16.26345 L 922.6514,867.12071 914.2939,896 899.289,867.49271 l -2.8202,8.85845 -44.0957,-4.57969 1.5422,11.09188 -66.8994,-2.8995 L 768,830 l 0,-14.27626 0,-11.4332 0,-9.29054 0,0 14.966,-3.61079 17.5882,-13.22182 -21.2176,8.02153 L 768,783.5 l 0,11.5 0,49.52273 z m 219.5238,57.84611 -56.6467,-13.42829 -40.5293,10.67955 z m -163.4158,14.14949 42.4564,10.82535 -60.0136,0 -13.1279,8.89521 10.0555,-27.62741 z M 768,927.5 l 11.6049,-11.65999 6.6548,12.24264 12.7589,-9.00897 54.1276,10.22689 L 810.3437,910.51452 774.9254,911 768,911 l 0,113 142.5693,0 25.0434,-18.1763 33.4309,9.8647 12.2474,8.3116 42.7153,0 0,-107.7237 0,-5.2763 -10.4711,7.66844 -18.0808,-5.29714 -20.9075,8.12556 21.4103,-1.64408 7.3621,5.13633 20.687,2.51089 -11.8154,60.4649 -16.8801,10.0831 0.8229,-12.64542 -26.6108,8.59919 15.7596,4.91993 -14.7688,6.0138 -26.2164,-7.0711 -9.409,-0.92231 6.9122,-18.17843 -17.8187,17.10934 -8.242,2.83201 -39.0444,-9.31724 26.7718,13.53423 -10.165,3.4927 -85.5623,2.6421 -30.8239,-18.26348 z m 159.1972,-305.4634 24.7996,-24.44747 -37.9417,70.44136 z m 24.911,37.2792 27.6936,-81.14269 17.0815,15.24583 -13.0545,-7.91794 -9.864,54.36734 z M 941.9957,747.14035 929.2164,731.97278 942.2377,699.05697 938.34,681.4014 925.5917,720.53668 921.5826,747.2466 911,761.0809 911,768 l 113,0 0,-142.563 -6.0322,-28.22447 -2.2795,-30.24983 L 1024,554.7153 1024,512 916.2763,512 911,512 l 3.5053,33.55169 36.6042,7.79799 -16.6126,-6.39028 -10.6886,-4.54335 L 927.5,512 l 60.4649,11.8154 23.6465,5.42735 2.1143,23.18498 -12.486,-13.60332 2.9012,15.54393 -23.3847,-5.15663 24.1793,16.28099 3.1819,27.98407 5.1109,53.85292 -21.3136,-18.12559 17.6421,36.0623 -2.3119,42.02233 -23.7418,31.7974 22.4578,-8.46044 -15.1676,28.46461 z m -130.1919,-92.75654 12.0717,-30.3533 -11.8437,-6.39166 -23.9767,-47.07914 z m 11.3044,54.43201 23.8253,-42.9564 4,17.0136 -8.1047,1.628 -14.6275,42.4445 z m -23.6082,59.1842 4.34,-91.0986 -10.2574,70.3452 -10.5826,13.8343 0,6.9191 113,0 0,-142.563 -18.1764,-25.0433 9.8647,-33.431 8.3117,-12.2474 0,-42.7153 -107.7237,0 -5.2763,0 5.1684,49.471 5.3285,-0.0116 6.0031,-49.4594 60.4649,11.8154 8.0831,30.3801 -8.9505,13.97384 -13.3622,3.16956 -16.3136,18.885 47.5138,-24.7312 -7.0711,26.2163 -19.9914,15.3156 26.0417,13.1795 5.6421,45.0623 -18.7635,93.8239 -41.9307,-12.14228 6.5838,17.11801 z M 670.0818,587.4049 l 59.8015,-10.50096 9.4424,3.88924 -27.8025,8.94527 z m -46.6753,-10.91086 -75.3182,-1.90812 -8.1613,-15.92276 z M 512,640 l 256,0 0,-39.10722 0,-61.89278 0,-11.5 -25.2597,10.71764 5.3777,14.84924 L 768,541.78423 768,574 l -13.1598,37.04964 -54.4494,16.26345 -33.7458,-16.19238 -11.1859,2.11197 -31.1765,-16.73997 16.1798,23.85845 -22.0957,-1.07969 -36.9577,3.09188 -48.3994,-9.8995 L 512,574 l 0,-14.27626 0,-11.4332 0,-9.29054 0,0 14.9596,-3.61079 51.0883,7.77818 L 512,527.5 l 0,11.5 0,49.52273 z m 105.5174,49.84611 57.3533,-5.42829 26.4708,-18.32045 z m -49.4157,22.14949 83.4564,14.82535 -60.0136,0 -13.128,8.89521 -30.9445,-31.62741 z M 512,671.5 523.5986,659.84001 582.7534,664.08265 518.9191,655 512,655 l 0,113 142.563,0 25.0433,-18.17635 33.431,9.8647 L 725.2847,768 768,768 768,660.2763 768,655 757.529,662.66844 718.5406,665.49686 768,671.5 l -11.8154,60.4649 -16.8801,10.08309 -30.6434,-24.31267 20.615,25.18642 -14.7688,6.01372 -26.2163,-7.07106 -20.3156,-1.99139 -30.6795,10.54164 -85.5623,2.64213 -30.8239,-18.26346 z" id="path4557-4-7-0" inkscape:connector-curvature="0" inkscape:label="#front" style="opacity:1;stroke-linejoin:miter;stroke-opacity:1;fill-rule:evenodd;fill-opacity:0.44881891;filter:url(#filter4549-6);stroke:none;stroke-linecap:butt;stroke-width:1px;display:inline;fill:#bb4e13"/>
  </g><g id="layer5" inkscape:groupmode="layer" inkscape:label="Shade_copy_2" sodipodi:insensitive="true" style="display:inline" transform="translate(-512, 0)">
    <path d="m 694.8245,825.5488 29.663,51.67015 -58.9618,-54.08385 z m -7.71,87.7797 12.1936,2.85731 17.0815,15.24583 -18.5545,-3.41794 -4.364,49.86734 z m 18.3875,102.3246 -31.2793,0.3324 17.0213,-16.91583 -19.8977,9.84443 -1.7483,-32.36472 -9.0091,31.20992 -5.5826,9.3343 0,6.9064 112.9937,0 0,-142.5503 0,-24.50338 0.01,-26.92966 -0.01,-19.28866 0,-42.72801 -107.7174,0 -5.2763,0 3.5053,33.5644 12.6043,7.79799 7.8873,-28.39028 -11.1886,17.45665 3.6917,-30.42876 60.4649,11.82811 23.6465,5.42735 2.1143,23.18498 -9.6575,5.48856 2.9012,15.54393 -8.1819,4.38931 8.9765,6.73505 0.3534,8.89219 5.1109,53.85292 -30.1524,11.92645 22.5919,3.53539 1.5771,44.4972 -25.5095,-39.97398 24.2255,63.31094 -15.1676,28.46461 z m -149.6919,-105.25659 -16.4283,-13.8533 1.6563,-9.89166 -8.9767,-60.07914 z m 11.3044,54.43201 34.3253,-64.4564 -6.5,38.5136 -16.1047,26.128 -6.6275,17.9445 z M 543.5063,1024 l 0.4268,-8.9555 -9.5868,-3.1304 -4.7574,-20.6548 -2.5826,25.8343 0,6.9064 112.9937,0 0,-142.55028 -18.1701,-25.0433 18.1701,-5.14673 0,-40.53167 0,-42.72801 -107.7174,0 -5.2763,0 5.1684,49.48371 2.8285,-32.0116 14.5031,-11.76991 54.4649,6.12591 23.0362,3.16991 -7.9531,13.21019 8.5496,13.47384 -27.8623,16.16956 -2.525,10.39972 23.7252,-14.74592 -7.0711,26.2163 -12.9203,-4.48339 18.9706,32.97849 3.2133,25.66378 c 0.029,2.21045 -48.0182,-60.26465 0.9806,7.83188 l 1.4482,11.56664 -18.7635,93.82388 -41.9307,-12.1423 6.5838,17.1181 z m 360.0819,-188.5951 79.8015,-15.50096 -10.5577,8.88924 -27.8024,8.94527 z m -32.1754,-5.91086 -75.4955,10.46642 29.4658,-18.43334 z M 768,896 l 256.0063,0 0,-39.10722 0,-61.89278 0,-11.5 -25.2597,10.71764 19.529,-3.63636 -14.1512,18.4856 19.8819,-11.28265 0,32.21577 -13.1599,37.04964 -54.4492,16.26345 L 922.6514,867.12071 914.2939,896 899.289,867.49271 l -2.8202,8.85845 -44.0957,-4.57969 1.5422,11.09188 -66.8994,-2.8995 L 768,830 l 0,-14.27626 0,-11.4332 0,-9.29054 0,0 14.966,-3.61079 17.5882,-13.22182 -21.2176,8.02153 L 768,783.5 l 0,11.5 0,49.52273 z m 219.5238,57.84611 -56.6467,-13.42829 -40.5293,10.67955 z m -163.4158,14.14949 42.4564,10.82535 -60.0136,0 -13.1279,8.89521 10.0555,-27.62741 z M 768,927.5 l 11.6049,-11.65999 6.6548,12.24264 12.7589,-9.00897 54.1276,10.22689 L 810.3437,910.51452 774.9254,911 768,911 l 0,113 142.5693,0 25.0434,-18.1763 33.4309,9.8647 12.2474,8.3116 42.7153,0 0,-107.7237 0,-5.2763 -10.4711,7.66844 -18.0808,-5.29714 -20.9075,8.12556 21.4103,-1.64408 7.3621,5.13633 20.687,2.51089 -11.8154,60.4649 -16.8801,10.0831 0.8229,-12.64542 -26.6108,8.59919 15.7596,4.91993 -14.7688,6.0138 -26.2164,-7.0711 -9.409,-0.92231 6.9122,-18.17843 -17.8187,17.10934 -8.242,2.83201 -39.0444,-9.31724 26.7718,13.53423 -10.165,3.4927 -85.5623,2.6421 -30.8239,-18.26348 z m 159.1972,-305.4634 24.7996,-24.44747 -37.9417,70.44136 z m 24.911,37.2792 27.6936,-81.14269 17.0815,15.24583 -13.0545,-7.91794 -9.864,54.36734 z M 941.9957,747.14035 929.2164,731.97278 942.2377,699.05697 938.34,681.4014 925.5917,720.53668 921.5826,747.2466 911,761.0809 911,768 l 113,0 0,-142.563 -6.0322,-28.22447 -2.2795,-30.24983 L 1024,554.7153 1024,512 916.2763,512 911,512 l 3.5053,33.55169 36.6042,7.79799 -16.6126,-6.39028 -10.6886,-4.54335 L 927.5,512 l 60.4649,11.8154 23.6465,5.42735 2.1143,23.18498 -12.486,-13.60332 2.9012,15.54393 -23.3847,-5.15663 24.1793,16.28099 3.1819,27.98407 5.1109,53.85292 -21.3136,-18.12559 17.6421,36.0623 -2.3119,42.02233 -23.7418,31.7974 22.4578,-8.46044 -15.1676,28.46461 z m -130.1919,-92.75654 12.0717,-30.3533 -11.8437,-6.39166 -23.9767,-47.07914 z m 11.3044,54.43201 23.8253,-42.9564 4,17.0136 -8.1047,1.628 -14.6275,42.4445 z m -23.6082,59.1842 4.34,-91.0986 -10.2574,70.3452 -10.5826,13.8343 0,6.9191 113,0 0,-142.563 -18.1764,-25.0433 9.8647,-33.431 8.3117,-12.2474 0,-42.7153 -107.7237,0 -5.2763,0 5.1684,49.471 5.3285,-0.0116 6.0031,-49.4594 60.4649,11.8154 8.0831,30.3801 -8.9505,13.97384 -13.3622,3.16956 -16.3136,18.885 47.5138,-24.7312 -7.0711,26.2163 -19.9914,15.3156 26.0417,13.1795 5.6421,45.0623 -18.7635,93.8239 -41.9307,-12.14228 6.5838,17.11801 z M 670.0818,587.4049 l 59.8015,-10.50096 9.4424,3.88924 -27.8025,8.94527 z m -46.6753,-10.91086 -75.3182,-1.90812 -8.1613,-15.92276 z M 512,640 l 256,0 0,-39.10722 0,-61.89278 0,-11.5 -25.2597,10.71764 5.3777,14.84924 L 768,541.78423 768,574 l -13.1598,37.04964 -54.4494,16.26345 -33.7458,-16.19238 -11.1859,2.11197 -31.1765,-16.73997 16.1798,23.85845 -22.0957,-1.07969 -36.9577,3.09188 -48.3994,-9.8995 L 512,574 l 0,-14.27626 0,-11.4332 0,-9.29054 0,0 14.9596,-3.61079 51.0883,7.77818 L 512,527.5 l 0,11.5 0,49.52273 z m 105.5174,49.84611 57.3533,-5.42829 26.4708,-18.32045 z m -49.4157,22.14949 83.4564,14.82535 -60.0136,0 -13.128,8.89521 -30.9445,-31.62741 z M 512,671.5 523.5986,659.84001 582.7534,664.08265 518.9191,655 512,655 l 0,113 142.563,0 25.0433,-18.17635 33.431,9.8647 L 725.2847,768 768,768 768,660.2763 768,655 757.529,662.66844 718.5406,665.49686 768,671.5 l -11.8154,60.4649 -16.8801,10.08309 -30.6434,-24.31267 20.615,25.18642 -14.7688,6.01372 -26.2163,-7.07106 -20.3156,-1.99139 -30.6795,10.54164 -85.5623,2.64213 -30.8239,-18.26346 z" id="path4557-4-7-0" inkscape:connector-curvature="0" inkscape:label="#front" style="opacity:1;stroke-linejoin:miter;stroke-opacity:1;fill-rule:evenodd;fill-opacity:0.44881891;filter:url(#filter4549-6);stroke:none;stroke-linecap:butt;stroke-width:1px;display:inline;fill:#bb4e13"/>
  </g><g id="layer5" inkscape:groupmode="layer" inkscape:label="Shade_copy_3" sodipodi:insensitive="true" style="display:inline" transform="translate(-512, 512)">
    <path d="m 694.8245,825.5488 29.663,51.67015 -58.9618,-54.08385 z m -7.71,87.7797 12.1936,2.85731 17.0815,15.24583 -18.5545,-3.41794 -4.364,49.86734 z m 18.3875,102.3246 -31.2793,0.3324 17.0213,-16.91583 -19.8977,9.84443 -1.7483,-32.36472 -9.0091,31.20992 -5.5826,9.3343 0,6.9064 112.9937,0 0,-142.5503 0,-24.50338 0.01,-26.92966 -0.01,-19.28866 0,-42.72801 -107.7174,0 -5.2763,0 3.5053,33.5644 12.6043,7.79799 7.8873,-28.39028 -11.1886,17.45665 3.6917,-30.42876 60.4649,11.82811 23.6465,5.42735 2.1143,23.18498 -9.6575,5.48856 2.9012,15.54393 -8.1819,4.38931 8.9765,6.73505 0.3534,8.89219 5.1109,53.85292 -30.1524,11.92645 22.5919,3.53539 1.5771,44.4972 -25.5095,-39.97398 24.2255,63.31094 -15.1676,28.46461 z m -149.6919,-105.25659 -16.4283,-13.8533 1.6563,-9.89166 -8.9767,-60.07914 z m 11.3044,54.43201 34.3253,-64.4564 -6.5,38.5136 -16.1047,26.128 -6.6275,17.9445 z M 543.5063,1024 l 0.4268,-8.9555 -9.5868,-3.1304 -4.7574,-20.6548 -2.5826,25.8343 0,6.9064 112.9937,0 0,-142.55028 -18.1701,-25.0433 18.1701,-5.14673 0,-40.53167 0,-42.72801 -107.7174,0 -5.2763,0 5.1684,49.48371 2.8285,-32.0116 14.5031,-11.76991 54.4649,6.12591 23.0362,3.16991 -7.9531,13.21019 8.5496,13.47384 -27.8623,16.16956 -2.525,10.39972 23.7252,-14.74592 -7.0711,26.2163 -12.9203,-4.48339 18.9706,32.97849 3.2133,25.66378 c 0.029,2.21045 -48.0182,-60.26465 0.9806,7.83188 l 1.4482,11.56664 -18.7635,93.82388 -41.9307,-12.1423 6.5838,17.1181 z m 360.0819,-188.5951 79.8015,-15.50096 -10.5577,8.88924 -27.8024,8.94527 z m -32.1754,-5.91086 -75.4955,10.46642 29.4658,-18.43334 z M 768,896 l 256.0063,0 0,-39.10722 0,-61.89278 0,-11.5 -25.2597,10.71764 19.529,-3.63636 -14.1512,18.4856 19.8819,-11.28265 0,32.21577 -13.1599,37.04964 -54.4492,16.26345 L 922.6514,867.12071 914.2939,896 899.289,867.49271 l -2.8202,8.85845 -44.0957,-4.57969 1.5422,11.09188 -66.8994,-2.8995 L 768,830 l 0,-14.27626 0,-11.4332 0,-9.29054 0,0 14.966,-3.61079 17.5882,-13.22182 -21.2176,8.02153 L 768,783.5 l 0,11.5 0,49.52273 z m 219.5238,57.84611 -56.6467,-13.42829 -40.5293,10.67955 z m -163.4158,14.14949 42.4564,10.82535 -60.0136,0 -13.1279,8.89521 10.0555,-27.62741 z M 768,927.5 l 11.6049,-11.65999 6.6548,12.24264 12.7589,-9.00897 54.1276,10.22689 L 810.3437,910.51452 774.9254,911 768,911 l 0,113 142.5693,0 25.0434,-18.1763 33.4309,9.8647 12.2474,8.3116 42.7153,0 0,-107.7237 0,-5.2763 -10.4711,7.66844 -18.0808,-5.29714 -20.9075,8.12556 21.4103,-1.64408 7.3621,5.13633 20.687,2.51089 -11.8154,60.4649 -16.8801,10.0831 0.8229,-12.64542 -26.6108,8.59919 15.7596,4.91993 -14.7688,6.0138 -26.2164,-7.0711 -9.409,-0.92231 6.9122,-18.17843 -17.8187,17.10934 -8.242,2.83201 -39.0444,-9.31724 26.7718,13.53423 -10.165,3.4927 -85.5623,2.6421 -30.8239,-18.26348 z m 159.1972,-305.4634 24.7996,-24.44747 -37.9417,70.44136 z m 24.911,37.2792 27.6936,-81.14269 17.0815,15.24583 -13.0545,-7.91794 -9.864,54.36734 z M 941.9957,747.14035 929.2164,731.97278 942.2377,699.05697 938.34,681.4014 925.5917,720.53668 921.5826,747.2466 911,761.0809 911,768 l 113,0 0,-142.563 -6.0322,-28.22447 -2.2795,-30.24983 L 1024,554.7153 1024,512 916.2763,512 911,512 l 3.5053,33.55169 36.6042,7.79799 -16.6126,-6.39028 -10.6886,-4.54335 L 927.5,512 l 60.4649,11.8154 23.6465,5.42735 2.1143,23.18498 -12.486,-13.60332 2.9012,15.54393 -23.3847,-5.15663 24.1793,16.28099 3.1819,27.98407 5.1109,53.85292 -21.3136,-18.12559 17.6421,36.0623 -2.3119,42.02233 -23.7418,31.7974 22.4578,-8.46044 -15.1676,28.46461 z m -130.1919,-92.75654 12.0717,-30.3533 -11.8437,-6.39166 -23.9767,-47.07914 z m 11.3044,54.43201 23.8253,-42.9564 4,17.0136 -8.1047,1.628 -14.6275,42.4445 z m -23.6082,59.1842 4.34,-91.0986 -10.2574,70.3452 -10.5826,13.8343 0,6.9191 113,0 0,-142.563 -18.1764,-25.0433 9.8647,-33.431 8.3117,-12.2474 0,-42.7153 -107.7237,0 -5.2763,0 5.1684,49.471 5.3285,-0.0116 6.0031,-49.4594 60.4649,11.8154 8.0831,30.3801 -8.9505,13.97384 -13.3622,3.16956 -16.3136,18.885 47.5138,-24.7312 -7.0711,26.2163 -19.9914,15.3156 26.0417,13.1795 5.6421,45.0623 -18.7635,93.8239 -41.9307,-12.14228 6.5838,17.11801 z M 670.0818,587.4049 l 59.8015,-10.50096 9.4424,3.88924 -27.8025,8.94527 z m -46.6753,-10.91086 -75.3182,-1.90812 -8.1613,-15.92276 z M 512,640 l 256,0 0,-39.10722 0,-61.89278 0,-11.5 -25.2597,10.71764 5.3777,14.84924 L 768,541.78423 768,574 l -13.1598,37.04964 -54.4494,16.26345 -33.7458,-16.19238 -11.1859,2.11197 -31.1765,-16.73997 16.1798,23.85845 -22.0957,-1.07969 -36.9577,3.09188 -48.3994,-9.8995 L 512,574 l 0,-14.27626 0,-11.4332 0,-9.29054 0,0 14.9596,-3.61079 51.0883,7.77818 L 512,527.5 l 0,11.5 0,49.52273 z m 105.5174,49.84611 57.3533,-5.42829 26.4708,-18.32045 z m -49.4157,22.14949 83.4564,14.82535 -60.0136,0 -13.128,8.89521 -30.9445,-31.62741 z M 512,671.5 523.5986,659.84001 582.7534,664.08265 518.9191,655 512,655 l 0,113 142.563,0 25.0433,-18.17635 33.431,9.8647 L 725.2847,768 768,768 768,660.2763 768,655 757.529,662.66844 718.5406,665.49686 768,671.5 l -11.8154,60.4649 -16.8801,10.08309 -30.6434,-24.31267 20.615,25.18642 -14.7688,6.01372 -26.2163,-7.07106 -20.3156,-1.99139 -30.6795,10.54164 -85.5623,2.64213 -30.8239,-18.26346 z" id="path4557-4-7-0" inkscape:connector-curvature="0" inkscape:label="#front" style="opacity:1;stroke-linejoin:miter;stroke-opacity:1;fill-rule:evenodd;fill-opacity:0.44881891;filter:url(#filter4549-6);stroke:none;stroke-linecap:butt;stroke-width:1px;display:inline;fill:#bb4e13"/>
  </g><g id="layer5" inkscape:groupmode="layer" inkscape:label="Shade_copy_4" sodipodi:insensitive="true" style="display:inline" transform="translate(0, -512)">
    <path d="m 694.8245,825.5488 29.663,51.67015 -58.9618,-54.08385 z m -7.71,87.7797 12.1936,2.85731 17.0815,15.24583 -18.5545,-3.41794 -4.364,49.86734 z m 18.3875,102.3246 -31.2793,0.3324 17.0213,-16.91583 -19.8977,9.84443 -1.7483,-32.36472 -9.0091,31.20992 -5.5826,9.3343 0,6.9064 112.9937,0 0,-142.5503 0,-24.50338 0.01,-26.92966 -0.01,-19.28866 0,-42.72801 -107.7174,0 -5.2763,0 3.5053,33.5644 12.6043,7.79799 7.8873,-28.39028 -11.1886,17.45665 3.6917,-30.42876 60.4649,11.82811 23.6465,5.42735 2.1143,23.18498 -9.6575,5.48856 2.9012,15.54393 -8.1819,4.38931 8.9765,6.73505 0.3534,8.89219 5.1109,53.85292 -30.1524,11.92645 22.5919,3.53539 1.5771,44.4972 -25.5095,-39.97398 24.2255,63.31094 -15.1676,28.46461 z m -149.6919,-105.25659 -16.4283,-13.8533 1.6563,-9.89166 -8.9767,-60.07914 z m 11.3044,54.43201 34.3253,-64.4564 -6.5,38.5136 -16.1047,26.128 -6.6275,17.9445 z M 543.5063,1024 l 0.4268,-8.9555 -9.5868,-3.1304 -4.7574,-20.6548 -2.5826,25.8343 0,6.9064 112.9937,0 0,-142.55028 -18.1701,-25.0433 18.1701,-5.14673 0,-40.53167 0,-42.72801 -107.7174,0 -5.2763,0 5.1684,49.48371 2.8285,-32.0116 14.5031,-11.76991 54.4649,6.12591 23.0362,3.16991 -7.9531,13.21019 8.5496,13.47384 -27.8623,16.16956 -2.525,10.39972 23.7252,-14.74592 -7.0711,26.2163 -12.9203,-4.48339 18.9706,32.97849 3.2133,25.66378 c 0.029,2.21045 -48.0182,-60.26465 0.9806,7.83188 l 1.4482,11.56664 -18.7635,93.82388 -41.9307,-12.1423 6.5838,17.1181 z m 360.0819,-188.5951 79.8015,-15.50096 -10.5577,8.88924 -27.8024,8.94527 z m -32.1754,-5.91086 -75.4955,10.46642 29.4658,-18.43334 z M 768,896 l 256.0063,0 0,-39.10722 0,-61.89278 0,-11.5 -25.2597,10.71764 19.529,-3.63636 -14.1512,18.4856 19.8819,-11.28265 0,32.21577 -13.1599,37.04964 -54.4492,16.26345 L 922.6514,867.12071 914.2939,896 899.289,867.49271 l -2.8202,8.85845 -44.0957,-4.57969 1.5422,11.09188 -66.8994,-2.8995 L 768,830 l 0,-14.27626 0,-11.4332 0,-9.29054 0,0 14.966,-3.61079 17.5882,-13.22182 -21.2176,8.02153 L 768,783.5 l 0,11.5 0,49.52273 z m 219.5238,57.84611 -56.6467,-13.42829 -40.5293,10.67955 z m -163.4158,14.14949 42.4564,10.82535 -60.0136,0 -13.1279,8.89521 10.0555,-27.62741 z M 768,927.5 l 11.6049,-11.65999 6.6548,12.24264 12.7589,-9.00897 54.1276,10.22689 L 810.3437,910.51452 774.9254,911 768,911 l 0,113 142.5693,0 25.0434,-18.1763 33.4309,9.8647 12.2474,8.3116 42.7153,0 0,-107.7237 0,-5.2763 -10.4711,7.66844 -18.0808,-5.29714 -20.9075,8.12556 21.4103,-1.64408 7.3621,5.13633 20.687,2.51089 -11.8154,60.4649 -16.8801,10.0831 0.8229,-12.64542 -26.6108,8.59919 15.7596,4.91993 -14.7688,6.0138 -26.2164,-7.0711 -9.409,-0.92231 6.9122,-18.17843 -17.8187,17.10934 -8.242,2.83201 -39.0444,-9.31724 26.7718,13.53423 -10.165,3.4927 -85.5623,2.6421 -30.8239,-18.26348 z m 159.1972,-305.4634 24.7996,-24.44747 -37.9417,70.44136 z m 24.911,37.2792 27.6936,-81.14269 17.0815,15.24583 -13.0545,-7.91794 -9.864,54.36734 z M 941.9957,747.14035 929.2164,731.97278 942.2377,699.05697 938.34,681.4014 925.5917,720.53668 921.5826,747.2466 911,761.0809 911,768 l 113,0 0,-142.563 -6.0322,-28.22447 -2.2795,-30.24983 L 1024,554.7153 1024,512 916.2763,512 911,512 l 3.5053,33.55169 36.6042,7.79799 -16.6126,-6.39028 -10.6886,-4.54335 L 927.5,512 l 60.4649,11.8154 23.6465,5.42735 2.1143,23.18498 -12.486,-13.60332 2.9012,15.54393 -23.3847,-5.15663 24.1793,16.28099 3.1819,27.98407 5.1109,53.85292 -21.3136,-18.12559 17.6421,36.0623 -2.3119,42.02233 -23.7418,31.7974 22.4578,-8.46044 -15.1676,28.46461 z m -130.1919,-92.75654 12.0717,-30.3533 -11.8437,-6.39166 -23.9767,-47.07914 z m 11.3044,54.43201 23.8253,-42.9564 4,17.0136 -8.1047,1.628 -14.6275,42.4445 z m -23.6082,59.1842 4.34,-91.0986 -10.2574,70.3452 -10.5826,13.8343 0,6.9191 113,0 0,-142.563 -18.1764,-25.0433 9.8647,-33.431 8.3117,-12.2474 0,-42.7153 -107.7237,0 -5.2763,0 5.1684,49.471 5.3285,-0.0116 6.0031,-49.4594 60.4649,11.8154 8.0831,30.3801 -8.9505,13.97384 -13.3622,3.16956 -16.3136,18.885 47.5138,-24.7312 -7.0711,26.2163 -19.9914,15.3156 26.0417,13.1795 5.6421,45.0623 -18.7635,93.8239 -41.9307,-12.14228 6.5838,17.11801 z M 670.0818,587.4049 l 59.8015,-10.50096 9.4424,3.88924 -27.8025,8.94527 z m -46.6753,-10.91086 -75.3182,-1.90812 -8.1613,-15.92276 z M 512,640 l 256,0 0,-39.10722 0,-61.89278 0,-11.5 -25.2597,10.71764 5.3777,14.84924 L 768,541.78423 768,574 l -13.1598,37.04964 -54.4494,16.26345 -33.7458,-16.19238 -11.1859,2.11197 -31.1765,-16.73997 16.1798,23.85845 -22.0957,-1.07969 -36.9577,3.09188 -48.3994,-9.8995 L 512,574 l 0,-14.27626 0,-11.4332 0,-9.29054 0,0 14.9596,-3.61079 51.0883,7.77818 L 512,527.5 l 0,11.5 0,49.52273 z m 105.5174,49.84611 57.3533,-5.42829 26.4708,-18.32045 z m -49.4157,22.14949 83.4564,14.82535 -60.0136,0 -13.128,8.89521 -30.9445,-31.62741 z M 512,671.5 523.5986,659.84001 582.7534,664.08265 518.9191,655 512,655 l 0,113 142.563,0 25.0433,-18.17635 33.431,9.8647 L 725.2847,768 768,768 768,660.2763 768,655 757.529,662.66844 718.5406,665.49686 768,671.5 l -11.8154,60.4649 -16.8801,10.08309 -30.6434,-24.31267 20.615,25.18642 -14.7688,6.01372 -26.2163,-7.07106 -20.3156,-1.99139 -30.6795,10.54164 -85.5623,2.64213 -30.8239,-18.26346 z" id="path4557-4-7-0" inkscape:connector-curvature="0" inkscape:label="#front" style="opacity:1;stroke-linejoin:miter;stroke-opacity:1;fill-rule:evenodd;fill-opacity:0.44881891;filter:url(#filter4549-6);stroke:none;stroke-linecap:butt;stroke-width:1px;display:inline;fill:#bb4e13"/>
  </g><g id="layer5" inkscape:groupmode="layer" inkscape:label="Shade_copy_5" sodipodi:insensitive="true" style="display:inline" transform="translate(0, 512)">
    <path d="m 694.8245,825.5488 29.663,51.67015 -58.9618,-54.08385 z m -7.71,87.7797 12.1936,2.85731 17.0815,15.24583 -18.5545,-3.41794 -4.364,49.86734 z m 18.3875,102.3246 -31.2793,0.3324 17.0213,-16.91583 -19.8977,9.84443 -1.7483,-32.36472 -9.0091,31.20992 -5.5826,9.3343 0,6.9064 112.9937,0 0,-142.5503 0,-24.50338 0.01,-26.92966 -0.01,-19.28866 0,-42.72801 -107.7174,0 -5.2763,0 3.5053,33.5644 12.6043,7.79799 7.8873,-28.39028 -11.1886,17.45665 3.6917,-30.42876 60.4649,11.82811 23.6465,5.42735 2.1143,23.18498 -9.6575,5.48856 2.9012,15.54393 -8.1819,4.38931 8.9765,6.73505 0.3534,8.89219 5.1109,53.85292 -30.1524,11.92645 22.5919,3.53539 1.5771,44.4972 -25.5095,-39.97398 24.2255,63.31094 -15.1676,28.46461 z m -149.6919,-105.25659 -16.4283,-13.8533 1.6563,-9.89166 -8.9767,-60.07914 z m 11.3044,54.43201 34.3253,-64.4564 -6.5,38.5136 -16.1047,26.128 -6.6275,17.9445 z M 543.5063,1024 l 0.4268,-8.9555 -9.5868,-3.1304 -4.7574,-20.6548 -2.5826,25.8343 0,6.9064 112.9937,0 0,-142.55028 -18.1701,-25.0433 18.1701,-5.14673 0,-40.53167 0,-42.72801 -107.7174,0 -5.2763,0 5.1684,49.48371 2.8285,-32.0116 14.5031,-11.76991 54.4649,6.12591 23.0362,3.16991 -7.9531,13.21019 8.5496,13.47384 -27.8623,16.16956 -2.525,10.39972 23.7252,-14.74592 -7.0711,26.2163 -12.9203,-4.48339 18.9706,32.97849 3.2133,25.66378 c 0.029,2.21045 -48.0182,-60.26465 0.9806,7.83188 l 1.4482,11.56664 -18.7635,93.82388 -41.9307,-12.1423 6.5838,17.1181 z m 360.0819,-188.5951 79.8015,-15.50096 -10.5577,8.88924 -27.8024,8.94527 z m -32.1754,-5.91086 -75.4955,10.46642 29.4658,-18.43334 z M 768,896 l 256.0063,0 0,-39.10722 0,-61.89278 0,-11.5 -25.2597,10.71764 19.529,-3.63636 -14.1512,18.4856 19.8819,-11.28265 0,32.21577 -13.1599,37.04964 -54.4492,16.26345 L 922.6514,867.12071 914.2939,896 899.289,867.49271 l -2.8202,8.85845 -44.0957,-4.57969 1.5422,11.09188 -66.8994,-2.8995 L 768,830 l 0,-14.27626 0,-11.4332 0,-9.29054 0,0 14.966,-3.61079 17.5882,-13.22182 -21.2176,8.02153 L 768,783.5 l 0,11.5 0,49.52273 z m 219.5238,57.84611 -56.6467,-13.42829 -40.5293,10.67955 z m -163.4158,14.14949 42.4564,10.82535 -60.0136,0 -13.1279,8.89521 10.0555,-27.62741 z M 768,927.5 l 11.6049,-11.65999 6.6548,12.24264 12.7589,-9.00897 54.1276,10.22689 L 810.3437,910.51452 774.9254,911 768,911 l 0,113 142.5693,0 25.0434,-18.1763 33.4309,9.8647 12.2474,8.3116 42.7153,0 0,-107.7237 0,-5.2763 -10.4711,7.66844 -18.0808,-5.29714 -20.9075,8.12556 21.4103,-1.64408 7.3621,5.13633 20.687,2.51089 -11.8154,60.4649 -16.8801,10.0831 0.8229,-12.64542 -26.6108,8.59919 15.7596,4.91993 -14.7688,6.0138 -26.2164,-7.0711 -9.409,-0.92231 6.9122,-18.17843 -17.8187,17.10934 -8.242,2.83201 -39.0444,-9.31724 26.7718,13.53423 -10.165,3.4927 -85.5623,2.6421 -30.8239,-18.26348 z m 159.1972,-305.4634 24.7996,-24.44747 -37.9417,70.44136 z m 24.911,37.2792 27.6936,-81.14269 17.0815,15.24583 -13.0545,-7.91794 -9.864,54.36734 z M 941.9957,747.14035 929.2164,731.97278 942.2377,699.05697 938.34,681.4014 925.5917,720.53668 921.5826,747.2466 911,761.0809 911,768 l 113,0 0,-142.563 -6.0322,-28.22447 -2.2795,-30.24983 L 1024,554.7153 1024,512 916.2763,512 911,512 l 3.5053,33.55169 36.6042,7.79799 -16.6126,-6.39028 -10.6886,-4.54335 L 927.5,512 l 60.4649,11.8154 23.6465,5.42735 2.1143,23.18498 -12.486,-13.60332 2.9012,15.54393 -23.3847,-5.15663 24.1793,16.28099 3.1819,27.98407 5.1109,53.85292 -21.3136,-18.12559 17.6421,36.0623 -2.3119,42.02233 -23.7418,31.7974 22.4578,-8.46044 -15.1676,28.46461 z m -130.1919,-92.75654 12.0717,-30.3533 -11.8437,-6.39166 -23.9767,-47.07914 z m 11.3044,54.43201 23.8253,-42.9564 4,17.0136 -8.1047,1.628 -14.6275,42.4445 z m -23.6082,59.1842 4.34,-91.0986 -10.2574,70.3452 -10.5826,13.8343 0,6.9191 113,0 0,-142.563 -18.1764,-25.0433 9.8647,-33.431 8.3117,-12.2474 0,-42.7153 -107.7237,0 -5.2763,0 5.1684,49.471 5.3285,-0.0116 6.0031,-49.4594 60.4649,11.8154 8.0831,30.3801 -8.9505,13.97384 -13.3622,3.16956 -16.3136,18.885 47.5138,-24.7312 -7.0711,26.2163 -19.9914,15.3156 26.0417,13.1795 5.6421,45.0623 -18.7635,93.8239 -41.9307,-12.14228 6.5838,17.11801 z M 670.0818,587.4049 l 59.8015,-10.50096 9.4424,3.88924 -27.8025,8.94527 z m -46.6753,-10.91086 -75.3182,-1.90812 -8.1613,-15.92276 z M 512,640 l 256,0 0,-39.10722 0,-61.89278 0,-11.5 -25.2597,10.71764 5.3777,14.84924 L 768,541.78423 768,574 l -13.1598,37.04964 -54.4494,16.26345 -33.7458,-16.19238 -11.1859,2.11197 -31.1765,-16.73997 16.1798,23.85845 -22.0957,-1.07969 -36.9577,3.09188 -48.3994,-9.8995 L 512,574 l 0,-14.27626 0,-11.4332 0,-9.29054 0,0 14.9596,-3.61079 51.0883,7.77818 L 512,527.5 l 0,11.5 0,49.52273 z m 105.5174,49.84611 57.3533,-5.42829 26.4708,-18.32045 z m -49.4157,22.14949 83.4564,14.82535 -60.0136,0 -13.128,8.89521 -30.9445,-31.62741 z M 512,671.5 523.5986,659.84001 582.7534,664.08265 518.9191,655 512,655 l 0,113 142.563,0 25.0433,-18.17635 33.431,9.8647 L 725.2847,768 768,768 768,660.2763 768,655 757.529,662.66844 718.5406,665.49686 768,671.5 l -11.8154,60.4649 -16.8801,10.08309 -30.6434,-24.31267 20.615,25.18642 -14.7688,6.01372 -26.2163,-7.07106 -20.3156,-1.99139 -30.6795,10.54164 -85.5623,2.64213 -30.8239,-18.26346 z" id="path4557-4-7-0" inkscape:connector-curvature="0" inkscape:label="#front" style="opacity:1;stroke-linejoin:miter;stroke-opacity:1;fill-rule:evenodd;fill-opacity:0.44881891;filter:url(#filter4549-6);stroke:none;stroke-linecap:butt;stroke-width:1px;display:inline;fill:#bb4e13"/>
  </g><g id="layer5" inkscape:groupmode="layer" inkscape:label="Shade_copy_6" sodipodi:insensitive="true" style="display:inline" transform="translate(512, -512)">
    <path d="m 694.8245,825.5488 29.663,51.67015 -58.9618,-54.08385 z m -7.71,87.7797 12.1936,2.85731 17.0815,15.24583 -18.5545,-3.41794 -4.364,49.86734 z m 18.3875,102.3246 -31.2793,0.3324 17.0213,-16.91583 -19.8977,9.84443 -1.7483,-32.36472 -9.0091,31.20992 -5.5826,9.3343 0,6.9064 112.9937,0 0,-142.5503 0,-24.50338 0.01,-26.92966 -0.01,-19.28866 0,-42.72801 -107.7174,0 -5.2763,0 3.5053,33.5644 12.6043,7.79799 7.8873,-28.39028 -11.1886,17.45665 3.6917,-30.42876 60.4649,11.82811 23.6465,5.42735 2.1143,23.18498 -9.6575,5.48856 2.9012,15.54393 -8.1819,4.38931 8.9765,6.73505 0.3534,8.89219 5.1109,53.85292 -30.1524,11.92645 22.5919,3.53539 1.5771,44.4972 -25.5095,-39.97398 24.2255,63.31094 -15.1676,28.46461 z m -149.6919,-105.25659 -16.4283,-13.8533 1.6563,-9.89166 -8.9767,-60.07914 z m 11.3044,54.43201 34.3253,-64.4564 -6.5,38.5136 -16.1047,26.128 -6.6275,17.9445 z M 543.5063,1024 l 0.4268,-8.9555 -9.5868,-3.1304 -4.7574,-20.6548 -2.5826,25.8343 0,6.9064 112.9937,0 0,-142.55028 -18.1701,-25.0433 18.1701,-5.14673 0,-40.53167 0,-42.72801 -107.7174,0 -5.2763,0 5.1684,49.48371 2.8285,-32.0116 14.5031,-11.76991 54.4649,6.12591 23.0362,3.16991 -7.9531,13.21019 8.5496,13.47384 -27.8623,16.16956 -2.525,10.39972 23.7252,-14.74592 -7.0711,26.2163 -12.9203,-4.48339 18.9706,32.97849 3.2133,25.66378 c 0.029,2.21045 -48.0182,-60.26465 0.9806,7.83188 l 1.4482,11.56664 -18.7635,93.82388 -41.9307,-12.1423 6.5838,17.1181 z m 360.0819,-188.5951 79.8015,-15.50096 -10.5577,8.88924 -27.8024,8.94527 z m -32.1754,-5.91086 -75.4955,10.46642 29.4658,-18.43334 z M 768,896 l 256.0063,0 0,-39.10722 0,-61.89278 0,-11.5 -25.2597,10.71764 19.529,-3.63636 -14.1512,18.4856 19.8819,-11.28265 0,32.21577 -13.1599,37.04964 -54.4492,16.26345 L 922.6514,867.12071 914.2939,896 899.289,867.49271 l -2.8202,8.85845 -44.0957,-4.57969 1.5422,11.09188 -66.8994,-2.8995 L 768,830 l 0,-14.27626 0,-11.4332 0,-9.29054 0,0 14.966,-3.61079 17.5882,-13.22182 -21.2176,8.02153 L 768,783.5 l 0,11.5 0,49.52273 z m 219.5238,57.84611 -56.6467,-13.42829 -40.5293,10.67955 z m -163.4158,14.14949 42.4564,10.82535 -60.0136,0 -13.1279,8.89521 10.0555,-27.62741 z M 768,927.5 l 11.6049,-11.65999 6.6548,12.24264 12.7589,-9.00897 54.1276,10.22689 L 810.3437,910.51452 774.9254,911 768,911 l 0,113 142.5693,0 25.0434,-18.1763 33.4309,9.8647 12.2474,8.3116 42.7153,0 0,-107.7237 0,-5.2763 -10.4711,7.66844 -18.0808,-5.29714 -20.9075,8.12556 21.4103,-1.64408 7.3621,5.13633 20.687,2.51089 -11.8154,60.4649 -16.8801,10.0831 0.8229,-12.64542 -26.6108,8.59919 15.7596,4.91993 -14.7688,6.0138 -26.2164,-7.0711 -9.409,-0.92231 6.9122,-18.17843 -17.8187,17.10934 -8.242,2.83201 -39.0444,-9.31724 26.7718,13.53423 -10.165,3.4927 -85.5623,2.6421 -30.8239,-18.26348 z m 159.1972,-305.4634 24.7996,-24.44747 -37.9417,70.44136 z m 24.911,37.2792 27.6936,-81.14269 17.0815,15.24583 -13.0545,-7.91794 -9.864,54.36734 z M 941.9957,747.14035 929.2164,731.97278 942.2377,699.05697 938.34,681.4014 925.5917,720.53668 921.5826,747.2466 911,761.0809 911,768 l 113,0 0,-142.563 -6.0322,-28.22447 -2.2795,-30.24983 L 1024,554.7153 1024,512 916.2763,512 911,512 l 3.5053,33.55169 36.6042,7.79799 -16.6126,-6.39028 -10.6886,-4.54335 L 927.5,512 l 60.4649,11.8154 23.6465,5.42735 2.1143,23.18498 -12.486,-13.60332 2.9012,15.54393 -23.3847,-5.15663 24.1793,16.28099 3.1819,27.98407 5.1109,53.85292 -21.3136,-18.12559 17.6421,36.0623 -2.3119,42.02233 -23.7418,31.7974 22.4578,-8.46044 -15.1676,28.46461 z m -130.1919,-92.75654 12.0717,-30.3533 -11.8437,-6.39166 -23.9767,-47.07914 z m 11.3044,54.43201 23.8253,-42.9564 4,17.0136 -8.1047,1.628 -14.6275,42.4445 z m -23.6082,59.1842 4.34,-91.0986 -10.2574,70.3452 -10.5826,13.8343 0,6.9191 113,0 0,-142.563 -18.1764,-25.0433 9.8647,-33.431 8.3117,-12.2474 0,-42.7153 -107.7237,0 -5.2763,0 5.1684,49.471 5.3285,-0.0116 6.0031,-49.4594 60.4649,11.8154 8.0831,30.3801 -8.9505,13.97384 -13.3622,3.16956 -16.3136,18.885 47.5138,-24.7312 -7.0711,26.2163 -19.9914,15.3156 26.0417,13.1795 5.6421,45.0623 -18.7635,93.8239 -41.9307,-12.14228 6.5838,17.11801 z M 670.0818,587.4049 l 59.8015,-10.50096 9.4424,3.88924 -27.8025,8.94527 z m -46.6753,-10.91086 -75.3182,-1.90812 -8.1613,-15.92276 z M 512,640 l 256,0 0,-39.10722 0,-61.89278 0,-11.5 -25.2597,10.71764 5.3777,14.84924 L 768,541.78423 768,574 l -13.1598,37.04964 -54.4494,16.26345 -33.7458,-16.19238 -11.1859,2.11197 -31.1765,-16.73997 16.1798,23.85845 -22.0957,-1.07969 -36.9577,3.09188 -48.3994,-9.8995 L 512,574 l 0,-14.27626 0,-11.4332 0,-9.29054 0,0 14.9596,-3.61079 51.0883,7.77818 L 512,527.5 l 0,11.5 0,49.52273 z m 105.5174,49.84611 57.3533,-5.42829 26.4708,-18.32045 z m -49.4157,22.14949 83.4564,14.82535 -60.0136,0 -13.128,8.89521 -30.9445,-31.62741 z M 512,671.5 523.5986,659.84001 582.7534,664.08265 518.9191,655 512,655 l 0,113 142.563,0 25.0433,-18.17635 33.431,9.8647 L 725.2847,768 768,768 768,660.2763 768,655 757.529,662.66844 718.5406,665.49686 768,671.5 l -11.8154,60.4649 -16.8801,10.08309 -30.6434,-24.31267 20.615,25.18642 -14.7688,6.01372 -26.2163,-7.07106 -20.3156,-1.99139 -30.6795,10.54164 -85.5623,2.64213 -30.8239,-18.26346 z" id="path4557-4-7-0" inkscape:connector-curvature="0" inkscape:label="#front" style="opacity:1;stroke-linejoin:miter;stroke-opacity:1;fill-rule:evenodd;fill-opacity:0.44881891;filter:url(#filter4549-6);stroke:none;stroke-linecap:butt;stroke-width:1px;display:inline;fill:#bb4e13"/>
  </g><g id="layer5" inkscape:groupmode="layer" inkscape:label="Shade_copy_7" sodipodi:insensitive="true" style="display:inline" transform="translate(512, 0)">
    <path d="m 694.8245,825.5488 29.663,51.67015 -58.9618,-54.08385 z m -7.71,87.7797 12.1936,2.85731 17.0815,15.24583 -18.5545,-3.41794 -4.364,49.86734 z m 18.3875,102.3246 -31.2793,0.3324 17.0213,-16.91583 -19.8977,9.84443 -1.7483,-32.36472 -9.0091,31.20992 -5.5826,9.3343 0,6.9064 112.9937,0 0,-142.5503 0,-24.50338 0.01,-26.92966 -0.01,-19.28866 0,-42.72801 -107.7174,0 -5.2763,0 3.5053,33.5644 12.6043,7.79799 7.8873,-28.39028 -11.1886,17.45665 3.6917,-30.42876 60.4649,11.82811 23.6465,5.42735 2.1143,23.18498 -9.6575,5.48856 2.9012,15.54393 -8.1819,4.38931 8.9765,6.73505 0.3534,8.89219 5.1109,53.85292 -30.1524,11.92645 22.5919,3.53539 1.5771,44.4972 -25.5095,-39.97398 24.2255,63.31094 -15.1676,28.46461 z m -149.6919,-105.25659 -16.4283,-13.8533 1.6563,-9.89166 -8.9767,-60.07914 z m 11.3044,54.43201 34.3253,-64.4564 -6.5,38.5136 -16.1047,26.128 -6.6275,17.9445 z M 543.5063,1024 l 0.4268,-8.9555 -9.5868,-3.1304 -4.7574,-20.6548 -2.5826,25.8343 0,6.9064 112.9937,0 0,-142.55028 -18.1701,-25.0433 18.1701,-5.14673 0,-40.53167 0,-42.72801 -107.7174,0 -5.2763,0 5.1684,49.48371 2.8285,-32.0116 14.5031,-11.76991 54.4649,6.12591 23.0362,3.16991 -7.9531,13.21019 8.5496,13.47384 -27.8623,16.16956 -2.525,10.39972 23.7252,-14.74592 -7.0711,26.2163 -12.9203,-4.48339 18.9706,32.97849 3.2133,25.66378 c 0.029,2.21045 -48.0182,-60.26465 0.9806,7.83188 l 1.4482,11.56664 -18.7635,93.82388 -41.9307,-12.1423 6.5838,17.1181 z m 360.0819,-188.5951 79.8015,-15.50096 -10.5577,8.88924 -27.8024,8.94527 z m -32.1754,-5.91086 -75.4955,10.46642 29.4658,-18.43334 z M 768,896 l 256.0063,0 0,-39.10722 0,-61.89278 0,-11.5 -25.2597,10.71764 19.529,-3.63636 -14.1512,18.4856 19.8819,-11.28265 0,32.21577 -13.1599,37.04964 -54.4492,16.26345 L 922.6514,867.12071 914.2939,896 899.289,867.49271 l -2.8202,8.85845 -44.0957,-4.57969 1.5422,11.09188 -66.8994,-2.8995 L 768,830 l 0,-14.27626 0,-11.4332 0,-9.29054 0,0 14.966,-3.61079 17.5882,-13.22182 -21.2176,8.02153 L 768,783.5 l 0,11.5 0,49.52273 z m 219.5238,57.84611 -56.6467,-13.42829 -40.5293,10.67955 z m -163.4158,14.14949 42.4564,10.82535 -60.0136,0 -13.1279,8.89521 10.0555,-27.62741 z M 768,927.5 l 11.6049,-11.65999 6.6548,12.24264 12.7589,-9.00897 54.1276,10.22689 L 810.3437,910.51452 774.9254,911 768,911 l 0,113 142.5693,0 25.0434,-18.1763 33.4309,9.8647 12.2474,8.3116 42.7153,0 0,-107.7237 0,-5.2763 -10.4711,7.66844 -18.0808,-5.29714 -20.9075,8.12556 21.4103,-1.64408 7.3621,5.13633 20.687,2.51089 -11.8154,60.4649 -16.8801,10.0831 0.8229,-12.64542 -26.6108,8.59919 15.7596,4.91993 -14.7688,6.0138 -26.2164,-7.0711 -9.409,-0.92231 6.9122,-18.17843 -17.8187,17.10934 -8.242,2.83201 -39.0444,-9.31724 26.7718,13.53423 -10.165,3.4927 -85.5623,2.6421 -30.8239,-18.26348 z m 159.1972,-305.4634 24.7996,-24.44747 -37.9417,70.44136 z m 24.911,37.2792 27.6936,-81.14269 17.0815,15.24583 -13.0545,-7.91794 -9.864,54.36734 z M 941.9957,747.14035 929.2164,731.97278 942.2377,699.05697 938.34,681.4014 925.5917,720.53668 921.5826,747.2466 911,761.0809 911,768 l 113,0 0,-142.563 -6.0322,-28.22447 -2.2795,-30.24983 L 1024,554.7153 1024,512 916.2763,512 911,512 l 3.5053,33.55169 36.6042,7.79799 -16.6126,-6.39028 -10.6886,-4.54335 L 927.5,512 l 60.4649,11.8154 23.6465,5.42735 2.1143,23.18498 -12.486,-13.60332 2.9012,15.54393 -23.3847,-5.15663 24.1793,16.28099 3.1819,27.98407 5.1109,53.85292 -21.3136,-18.12559 17.6421,36.0623 -2.3119,42.02233 -23.7418,31.7974 22.4578,-8.46044 -15.1676,28.46461 z m -130.1919,-92.75654 12.0717,-30.3533 -11.8437,-6.39166 -23.9767,-47.07914 z m 11.3044,54.43201 23.8253,-42.9564 4,17.0136 -8.1047,1.628 -14.6275,42.4445 z m -23.6082,59.1842 4.34,-91.0986 -10.2574,70.3452 -10.5826,13.8343 0,6.9191 113,0 0,-142.563 -18.1764,-25.0433 9.8647,-33.431 8.3117,-12.2474 0,-42.7153 -107.7237,0 -5.2763,0 5.1684,49.471 5.3285,-0.0116 6.0031,-49.4594 60.4649,11.8154 8.0831,30.3801 -8.9505,13.97384 -13.3622,3.16956 -16.3136,18.885 47.5138,-24.7312 -7.0711,26.2163 -19.9914,15.3156 26.0417,13.1795 5.6421,45.0623 -18.7635,93.8239 -41.9307,-12.14228 6.5838,17.11801 z M 670.0818,587.4049 l 59.8015,-10.50096 9.4424,3.88924 -27.8025,8.94527 z m -46.6753,-10.91086 -75.3182,-1.90812 -8.1613,-15.92276 z M 512,640 l 256,0 0,-39.10722 0,-61.89278 0,-11.5 -25.2597,10.71764 5.3777,14.84924 L 768,541.78423 768,574 l -13.1598,37.04964 -54.4494,16.26345 -33.7458,-16.19238 -11.1859,2.11197 -31.1765,-16.73997 16.1798,23.85845 -22.0957,-1.07969 -36.9577,3.09188 -48.3994,-9.8995 L 512,574 l 0,-14.27626 0,-11.4332 0,-9.29054 0,0 14.9596,-3.61079 51.0883,7.77818 L 512,527.5 l 0,11.5 0,49.52273 z m 105.5174,49.84611 57.3533,-5.42829 26.4708,-18.32045 z m -49.4157,22.14949 83.4564,14.82535 -60.0136,0 -13.128,8.89521 -30.9445,-31.62741 z M 512,671.5 523.5986,659.84001 582.7534,664.08265 518.9191,655 512,655 l 0,113 142.563,0 25.0433,-18.17635 33.431,9.8647 L 725.2847,768 768,768 768,660.2763 768,655 757.529,662.66844 718.5406,665.49686 768,671.5 l -11.8154,60.4649 -16.8801,10.08309 -30.6434,-24.31267 20.615,25.18642 -14.7688,6.01372 -26.2163,-7.07106 -20.3156,-1.99139 -30.6795,10.54164 -85.5623,2.64213 -30.8239,-18.26346 z" id="path4557-4-7-0" inkscape:connector-curvature="0" inkscape:label="#front" style="opacity:1;stroke-linejoin:miter;stroke-opacity:1;fill-rule:evenodd;fill-opacity:0.44881891;filter:url(#filter4549-6);stroke:none;stroke-linecap:butt;stroke-width:1px;display:inline;fill:#bb4e13"/>
  </g><g id="layer5" inkscape:groupmode="layer" inkscape:label="Shade_copy_8" sodipodi:insensitive="true" style="display:inline" transform="translate(512, 512)">
    <path d="m 694.8245,825.5488 29.663,51.67015 -58.9618,-54.08385 z m -7.71,87.7797 12.1936,2.85731 17.0815,15.24583 -18.5545,-3.41794 -4.364,49.86734 z m 18.3875,102.3246 -31.2793,0.3324 17.0213,-16.91583 -19.8977,9.84443 -1.7483,-32.36472 -9.0091,31.20992 -5.5826,9.3343 0,6.9064 112.9937,0 0,-142.5503 0,-24.50338 0.01,-26.92966 -0.01,-19.28866 0,-42.72801 -107.7174,0 -5.2763,0 3.5053,33.5644 12.6043,7.79799 7.8873,-28.39028 -11.1886,17.45665 3.6917,-30.42876 60.4649,11.82811 23.6465,5.42735 2.1143,23.18498 -9.6575,5.48856 2.9012,15.54393 -8.1819,4.38931 8.9765,6.73505 0.3534,8.89219 5.1109,53.85292 -30.1524,11.92645 22.5919,3.53539 1.5771,44.4972 -25.5095,-39.97398 24.2255,63.31094 -15.1676,28.46461 z m -149.6919,-105.25659 -16.4283,-13.8533 1.6563,-9.89166 -8.9767,-60.07914 z m 11.3044,54.43201 34.3253,-64.4564 -6.5,38.5136 -16.1047,26.128 -6.6275,17.9445 z M 543.5063,1024 l 0.4268,-8.9555 -9.5868,-3.1304 -4.7574,-20.6548 -2.5826,25.8343 0,6.9064 112.9937,0 0,-142.55028 -18.1701,-25.0433 18.1701,-5.14673 0,-40.53167 0,-42.72801 -107.7174,0 -5.2763,0 5.1684,49.48371 2.8285,-32.0116 14.5031,-11.76991 54.4649,6.12591 23.0362,3.16991 -7.9531,13.21019 8.5496,13.47384 -27.8623,16.16956 -2.525,10.39972 23.7252,-14.74592 -7.0711,26.2163 -12.9203,-4.48339 18.9706,32.97849 3.2133,25.66378 c 0.029,2.21045 -48.0182,-60.26465 0.9806,7.83188 l 1.4482,11.56664 -18.7635,93.82388 -41.9307,-12.1423 6.5838,17.1181 z m 360.0819,-188.5951 79.8015,-15.50096 -10.5577,8.88924 -27.8024,8.94527 z m -32.1754,-5.91086 -75.4955,10.46642 29.4658,-18.43334 z M 768,896 l 256.0063,0 0,-39.10722 0,-61.89278 0,-11.5 -25.2597,10.71764 19.529,-3.63636 -14.1512,18.4856 19.8819,-11.28265 0,32.21577 -13.1599,37.04964 -54.4492,16.26345 L 922.6514,867.12071 914.2939,896 899.289,867.49271 l -2.8202,8.85845 -44.0957,-4.57969 1.5422,11.09188 -66.8994,-2.8995 L 768,830 l 0,-14.27626 0,-11.4332 0,-9.29054 0,0 14.966,-3.61079 17.5882,-13.22182 -21.2176,8.02153 L 768,783.5 l 0,11.5 0,49.52273 z m 219.5238,57.84611 -56.6467,-13.42829 -40.5293,10.67955 z m -163.4158,14.14949 42.4564,10.82535 -60.0136,0 -13.1279,8.89521 10.0555,-27.62741 z M 768,927.5 l 11.6049,-11.65999 6.6548,12.24264 12.7589,-9.00897 54.1276,10.22689 L 810.3437,910.51452 774.9254,911 768,911 l 0,113 142.5693,0 25.0434,-18.1763 33.4309,9.8647 12.2474,8.3116 42.7153,0 0,-107.7237 0,-5.2763 -10.4711,7.66844 -18.0808,-5.29714 -20.9075,8.12556 21.4103,-1.64408 7.3621,5.13633 20.687,2.51089 -11.8154,60.4649 -16.8801,10.0831 0.8229,-12.64542 -26.6108,8.59919 15.7596,4.91993 -14.7688,6.0138 -26.2164,-7.0711 -9.409,-0.92231 6.9122,-18.17843 -17.8187,17.10934 -8.242,2.83201 -39.0444,-9.31724 26.7718,13.53423 -10.165,3.4927 -85.5623,2.6421 -30.8239,-18.26348 z m 159.1972,-305.4634 24.7996,-24.44747 -37.9417,70.44136 z m 24.911,37.2792 27.6936,-81.14269 17.0815,15.24583 -13.0545,-7.91794 -9.864,54.36734 z M 941.9957,747.14035 929.2164,731.97278 942.2377,699.05697 938.34,681.4014 925.5917,720.53668 921.5826,747.2466 911,761.0809 911,768 l 113,0 0,-142.563 -6.0322,-28.22447 -2.2795,-30.24983 L 1024,554.7153 1024,512 916.2763,512 911,512 l 3.5053,33.55169 36.6042,7.79799 -16.6126,-6.39028 -10.6886,-4.54335 L 927.5,512 l 60.4649,11.8154 23.6465,5.42735 2.1143,23.18498 -12.486,-13.60332 2.9012,15.54393 -23.3847,-5.15663 24.1793,16.28099 3.1819,27.98407 5.1109,53.85292 -21.3136,-18.12559 17.6421,36.0623 -2.3119,42.02233 -23.7418,31.7974 22.4578,-8.46044 -15.1676,28.46461 z m -130.1919,-92.75654 12.0717,-30.3533 -11.8437,-6.39166 -23.9767,-47.07914 z m 11.3044,54.43201 23.8253,-42.9564 4,17.0136 -8.1047,1.628 -14.6275,42.4445 z m -23.6082,59.1842 4.34,-91.0986 -10.2574,70.3452 -10.5826,13.8343 0,6.9191 113,0 0,-142.563 -18.1764,-25.0433 9.8647,-33.431 8.3117,-12.2474 0,-42.7153 -107.7237,0 -5.2763,0 5.1684,49.471 5.3285,-0.0116 6.0031,-49.4594 60.4649,11.8154 8.0831,30.3801 -8.9505,13.97384 -13.3622,3.16956 -16.3136,18.885 47.5138,-24.7312 -7.0711,26.2163 -19.9914,15.3156 26.0417,13.1795 5.6421,45.0623 -18.7635,93.8239 -41.9307,-12.14228 6.5838,17.11801 z M 670.0818,587.4049 l 59.8015,-10.50096 9.4424,3.88924 -27.8025,8.94527 z m -46.6753,-10.91086 -75.3182,-1.90812 -8.1613,-15.92276 z M 512,640 l 256,0 0,-39.10722 0,-61.89278 0,-11.5 -25.2597,10.71764 5.3777,14.84924 L 768,541.78423 768,574 l -13.1598,37.04964 -54.4494,16.26345 -33.7458,-16.19238 -11.1859,2.11197 -31.1765,-16.73997 16.1798,23.85845 -22.0957,-1.07969 -36.9577,3.09188 -48.3994,-9.8995 L 512,574 l 0,-14.27626 0,-11.4332 0,-9.29054 0,0 14.9596,-3.61079 51.0883,7.77818 L 512,527.5 l 0,11.5 0,49.52273 z m 105.5174,49.84611 57.3533,-5.42829 26.4708,-18.32045 z m -49.4157,22.14949 83.4564,14.82535 -60.0136,0 -13.128,8.89521 -30.9445,-31.62741 z M 512,671.5 523.5986,659.84001 582.7534,664.08265 518.9191,655 512,655 l 0,113 142.563,0 25.0433,-18.17635 33.431,9.8647 L 725.2847,768 768,768 768,660.2763 768,655 757.529,662.66844 718.5406,665.49686 768,671.5 l -11.8154,60.4649 -16.8801,10.08309 -30.6434,-24.31267 20.615,25.18642 -14.7688,6.01372 -26.2163,-7.07106 -20.3156,-1.99139 -30.6795,10.54164 -85.5623,2.64213 -30.8239,-18.26346 z" id="path4557-4-7-0" inkscape:connector-curvature="0" inkscape:label="#front" style="opacity:1;stroke-linejoin:miter;stroke-opacity:1;fill-rule:evenodd;fill-opacity:0.44881891;filter:url(#filter4549-6);stroke:none;stroke-linecap:butt;stroke-width:1px;display:inline;fill:#bb4e13"/>
  </g><g id="layer2" inkscape:groupmode="layer" inkscape:label="Light_copy_1" sodipodi:insensitive="true" style="display:inline;opacity:1" transform="translate(-512, -512)">
    <g id="g4577">
      <g id="g4593" style="filter:url(#filter4549-6)"/>
    </g>
    <g id="g4585"/>
    <g id="g4589">
      <g id="g4647" style="filter:url(#filter4549-6)"/>
    </g>
    <path d="m 520,520 0,112 -8,8 0,-127.99996 L 768.00634,512 760,520 Z m 128,496.0031 -8,8 0,-256.0031 128,0 -8,8 -112,0 z m -128,0 -8,8 0,-256.0031 128,0 -8,8 -112,0 z M 904,760 l -8,8 0,-256.0031 128,0 -8,8 -112,0 z m -128,0 -8,8 0,-256.0031 128,0 -8,8 -112,0 z m 0,144 0,112 -8,8 0,-127.99996 256.0063,-4e-5 -8.0063,8 z m 0,-128 0,112 -8,8 0,-127.99996 256.0063,-4e-5 -8.0063,8 z m -256,-128 0,112 -8,8 0,-127.99996 L 768.00634,640 760,648 Z" id="path4531-6" inkscape:connector-curvature="0" style="display:inline;fill:#ffffff;fill-opacity:0.19907406;fill-rule:evenodd;stroke:none;stroke-width:1px;stroke-linecap:butt;stroke-linejoin:miter;stroke-opacity:1;filter:url(#filter4758-9-9)"/>
  </g><g id="layer2" inkscape:groupmode="layer" inkscape:label="Light_copy_2" sodipodi:insensitive="true" style="display:inline;opacity:1" transform="translate(-512, 0)">
    <g id="g4577">
      <g id="g4593" style="filter:url(#filter4549-6)"/>
    </g>
    <g id="g4585"/>
    <g id="g4589">
      <g id="g4647" style="filter:url(#filter4549-6)"/>
    </g>
    <path d="m 520,520 0,112 -8,8 0,-127.99996 L 768.00634,512 760,520 Z m 128,496.0031 -8,8 0,-256.0031 128,0 -8,8 -112,0 z m -128,0 -8,8 0,-256.0031 128,0 -8,8 -112,0 z M 904,760 l -8,8 0,-256.0031 128,0 -8,8 -112,0 z m -128,0 -8,8 0,-256.0031 128,0 -8,8 -112,0 z m 0,144 0,112 -8,8 0,-127.99996 256.0063,-4e-5 -8.0063,8 z m 0,-128 0,112 -8,8 0,-127.99996 256.0063,-4e-5 -8.0063,8 z m -256,-128 0,112 -8,8 0,-127.99996 L 768.00634,640 760,648 Z" id="path4531-6" inkscape:connector-curvature="0" style="display:inline;fill:#ffffff;fill-opacity:0.19907406;fill-rule:evenodd;stroke:none;stroke-width:1px;stroke-linecap:butt;stroke-linejoin:miter;stroke-opacity:1;filter:url(#filter4758-9-9)"/>
  </g><g id="layer2" inkscape:groupmode="layer" inkscape:label="Light_copy_3" sodipodi:insensitive="true" style="display:inline;opacity:1" transform="translate(-512, 512)">
    <g id="g4577">
      <g id="g4593" style="filter:url(#filter4549-6)"/>
    </g>
    <g id="g4585"/>
    <g id="g4589">
      <g id="g4647" style="filter:url(#filter4549-6)"/>
    </g>
    <path d="m 520,520 0,112 -8,8 0,-127.99996 L 768.00634,512 760,520 Z m 128,496.0031 -8,8 0,-256.0031 128,0 -8,8 -112,0 z m -128,0 -8,8 0,-256.0031 128,0 -8,8 -112,0 z M 904,760 l -8,8 0,-256.0031 128,0 -8,8 -112,0 z m -128,0 -8,8 0,-256.0031 128,0 -8,8 -112,0 z m 0,144 0,112 -8,8 0,-127.99996 256.0063,-4e-5 -8.0063,8 z m 0,-128 0,112 -8,8 0,-127.99996 256.0063,-4e-5 -8.0063,8 z m -256,-128 0,112 -8,8 0,-127.99996 L 768.00634,640 760,648 Z" id="path4531-6" inkscape:connector-curvature="0" style="display:inline;fill:#ffffff;fill-opacity:0.19907406;fill-rule:evenodd;stroke:none;stroke-width:1px;stroke-linecap:butt;stroke-linejoin:miter;stroke-opacity:1;filter:url(#filter4758-9-9)"/>
  </g><g id="layer2" inkscape:groupmode="layer" inkscape:label="Light_copy_4" sodipodi:insensitive="true" style="display:inline;opacity:1" transform="translate(0, -512)">
    <g id="g4577">
      <g id="g4593" style="filter:url(#filter4549-6)"/>
    </g>
    <g id="g4585"/>
    <g id="g4589">
      <g id="g4647" style="filter:url(#filter4549-6)"/>
    </g>
    <path d="m 520,520 0,112 -8,8 0,-127.99996 L 768.00634,512 760,520 Z m 128,496.0031 -8,8 0,-256.0031 128,0 -8,8 -112,0 z m -128,0 -8,8 0,-256.0031 128,0 -8,8 -112,0 z M 904,760 l -8,8 0,-256.0031 128,0 -8,8 -112,0 z m -128,0 -8,8 0,-256.0031 128,0 -8,8 -112,0 z m 0,144 0,112 -8,8 0,-127.99996 256.0063,-4e-5 -8.0063,8 z m 0,-128 0,112 -8,8 0,-127.99996 256.0063,-4e-5 -8.0063,8 z m -256,-128 0,112 -8,8 0,-127.99996 L 768.00634,640 760,648 Z" id="path4531-6" inkscape:connector-curvature="0" style="display:inline;fill:#ffffff;fill-opacity:0.19907406;fill-rule:evenodd;stroke:none;stroke-width:1px;stroke-linecap:butt;stroke-linejoin:miter;stroke-opacity:1;filter:url(#filter4758-9-9)"/>
  </g><g id="layer2" inkscape:groupmode="layer" inkscape:label="Light_copy_5" sodipodi:insensitive="true" style="display:inline;opacity:1" transform="translate(0, 512)">
    <g id="g4577">
      <g id="g4593" style="filter:url(#filter4549-6)"/>
    </g>
    <g id="g4585"/>
    <g id="g4589">
      <g id="g4647" style="filter:url(#filter4549-6)"/>
    </g>
    <path d="m 520,520 0,112 -8,8 0,-127.99996 L 768.00634,512 760,520 Z m 128,496.0031 -8,8 0,-256.0031 128,0 -8,8 -112,0 z m -128,0 -8,8 0,-256.0031 128,0 -8,8 -112,0 z M 904,760 l -8,8 0,-256.0031 128,0 -8,8 -112,0 z m -128,0 -8,8 0,-256.0031 128,0 -8,8 -112,0 z m 0,144 0,112 -8,8 0,-127.99996 256.0063,-4e-5 -8.0063,8 z m 0,-128 0,112 -8,8 0,-127.99996 256.0063,-4e-5 -8.0063,8 z m -256,-128 0,112 -8,8 0,-127.99996 L 768.00634,640 760,648 Z" id="path4531-6" inkscape:connector-curvature="0" style="display:inline;fill:#ffffff;fill-opacity:0.19907406;fill-rule:evenodd;stroke:none;stroke-width:1px;stroke-linecap:butt;stroke-linejoin:miter;stroke-opacity:1;filter:url(#filter4758-9-9)"/>
  </g><g id="layer2" inkscape:groupmode="layer" inkscape:label="Light_copy_6" sodipodi:insensitive="true" style="display:inline;opacity:1" transform="translate(512, -512)">
    <g id="g4577">
      <g id="g4593" style="filter:url(#filter4549-6)"/>
    </g>
    <g id="g4585"/>
    <g id="g4589">
      <g id="g4647" style="filter:url(#filter4549-6)"/>
    </g>
    <path d="m 520,520 0,112 -8,8 0,-127.99996 L 768.00634,512 760,520 Z m 128,496.0031 -8,8 0,-256.0031 128,0 -8,8 -112,0 z m -128,0 -8,8 0,-256.0031 128,0 -8,8 -112,0 z M 904,760 l -8,8 0,-256.0031 128,0 -8,8 -112,0 z m -128,0 -8,8 0,-256.0031 128,0 -8,8 -112,0 z m 0,144 0,112 -8,8 0,-127.99996 256.0063,-4e-5 -8.0063,8 z m 0,-128 0,112 -8,8 0,-127.99996 256.0063,-4e-5 -8.0063,8 z m -256,-128 0,112 -8,8 0,-127.99996 L 768.00634,640 760,648 Z" id="path4531-6" inkscape:connector-curvature="0" style="display:inline;fill:#ffffff;fill-opacity:0.19907406;fill-rule:evenodd;stroke:none;stroke-width:1px;stroke-linecap:butt;stroke-linejoin:miter;stroke-opacity:1;filter:url(#filter4758-9-9)"/>
  </g><g id="layer2" inkscape:groupmode="layer" inkscape:label="Light_copy_7" sodipodi:insensitive="true" style="display:inline;opacity:1" transform="translate(512, 0)">
    <g id="g4577">
      <g id="g4593" style="filter:url(#filter4549-6)"/>
    </g>
    <g id="g4585"/>
    <g id="g4589">
      <g id="g4647" style="filter:url(#filter4549-6)"/>
    </g>
    <path d="m 520,520 0,112 -8,8 0,-127.99996 L 768.00634,512 760,520 Z m 128,496.0031 -8,8 0,-256.0031 128,0 -8,8 -112,0 z m -128,0 -8,8 0,-256.0031 128,0 -8,8 -112,0 z M 904,760 l -8,8 0,-256.0031 128,0 -8,8 -112,0 z m -128,0 -8,8 0,-256.0031 128,0 -8,8 -112,0 z m 0,144 0,112 -8,8 0,-127.99996 256.0063,-4e-5 -8.0063,8 z m 0,-128 0,112 -8,8 0,-127.99996 256.0063,-4e-5 -8.0063,8 z m -256,-128 0,112 -8,8 0,-127.99996 L 768.00634,640 760,648 Z" id="path4531-6" inkscape:connector-curvature="0" style="display:inline;fill:#ffffff;fill-opacity:0.19907406;fill-rule:evenodd;stroke:none;stroke-width:1px;stroke-linecap:butt;stroke-linejoin:miter;stroke-opacity:1;filter:url(#filter4758-9-9)"/>
  </g><g id="layer2" inkscape:groupmode="layer" inkscape:label="Light_copy_8" sodipodi:insensitive="true" style="display:inline;opacity:1" transform="translate(512, 512)">
    <g id="g4577">
      <g id="g4593" style="filter:url(#filter4549-6)"/>
    </g>
    <g id="g4585"/>
    <g id="g4589">
      <g id="g4647" style="filter:url(#filter4549-6)"/>
    </g>
    <path d="m 520,520 0,112 -8,8 0,-127.99996 L 768.00634,512 760,520 Z m 128,496.0031 -8,8 0,-256.0031 128,0 -8,8 -112,0 z m -128,0 -8,8 0,-256.0031 128,0 -8,8 -112,0 z M 904,760 l -8,8 0,-256.0031 128,0 -8,8 -112,0 z m -128,0 -8,8 0,-256.0031 128,0 -8,8 -112,0 z m 0,144 0,112 -8,8 0,-127.99996 256.0063,-4e-5 -8.0063,8 z m 0,-128 0,112 -8,8 0,-127.99996 256.0063,-4e-5 -8.0063,8 z m -256,-128 0,112 -8,8 0,-127.99996 L 768.00634,640 760,648 Z" id="path4531-6" inkscape:connector-curvature="0" style="display:inline;fill:#ffffff;fill-opacity:0.19907406;fill-rule:evenodd;stroke:none;stroke-width:1px;stroke-linecap:butt;stroke-linejoin:miter;stroke-opacity:1;filter:url(#filter4758-9-9)"/>
  </g><g id="layer6" inkscape:groupmode="layer" inkscape:label="Dark_copy_1" sodipodi:insensitive="true" style="display:inline" transform="translate(-512, -512)">
    <path d="m 1016.0032,631.99684 -240,0 L 776,520 l -7.9968,-7.99682 0,127.99366 256,0 z m 0,-128 -240,0 L 776,392 l -7.9968,-7.99682 0,127.99366 256,0 z m 256.0031,384 -240,0 0,-111.99684 -7.9968,-7.99682 0,127.99366 256,0 z m 0,-128 -240,0 0,-111.99684 -7.9968,-7.99682 0,127.99366 256,0 z m -376,136.0063 -8,-8.0063 -112,0 0,-240 -8,-8 0,256 z m 128,0 -8,-8.0063 -112,0 0,-240 -8,-8 0,256 z m 128,-255.99996 -8,-8.00634 -112,0 0,-240 -8,-8 0,256 z m 128,0 -8,-8.00634 -112,0 0,-240 -8,-8 0,256 z" id="path4495-6-7-2-4-7" inkscape:connector-curvature="0" style="display:inline;opacity:1;fill:#000000;fill-opacity:0.25;fill-rule:evenodd;stroke:none;stroke-width:1px;stroke-linecap:butt;stroke-linejoin:miter;stroke-opacity:1;filter:url(#filter4549-6)" transform="matrix(0,-1,1,0,128.00316,1792.0063)"/>
  </g><g id="layer6" inkscape:groupmode="layer" inkscape:label="Dark_copy_2" sodipodi:insensitive="true" style="display:inline" transform="translate(-512, 0)">
    <path d="m 1016.0032,631.99684 -240,0 L 776,520 l -7.9968,-7.99682 0,127.99366 256,0 z m 0,-128 -240,0 L 776,392 l -7.9968,-7.99682 0,127.99366 256,0 z m 256.0031,384 -240,0 0,-111.99684 -7.9968,-7.99682 0,127.99366 256,0 z m 0,-128 -240,0 0,-111.99684 -7.9968,-7.99682 0,127.99366 256,0 z m -376,136.0063 -8,-8.0063 -112,0 0,-240 -8,-8 0,256 z m 128,0 -8,-8.0063 -112,0 0,-240 -8,-8 0,256 z m 128,-255.99996 -8,-8.00634 -112,0 0,-240 -8,-8 0,256 z m 128,0 -8,-8.00634 -112,0 0,-240 -8,-8 0,256 z" id="path4495-6-7-2-4-7" inkscape:connector-curvature="0" style="display:inline;opacity:1;fill:#000000;fill-opacity:0.25;fill-rule:evenodd;stroke:none;stroke-width:1px;stroke-linecap:butt;stroke-linejoin:miter;stroke-opacity:1;filter:url(#filter4549-6)" transform="matrix(0,-1,1,0,128.00316,1792.0063)"/>
  </g><g id="layer6" inkscape:groupmode="layer" inkscape:label="Dark_copy_3" sodipodi:insensitive="true" style="display:inline" transform="translate(-512, 512)">
    <path d="m 1016.0032,631.99684 -240,0 L 776,520 l -7.9968,-7.99682 0,127.99366 256,0 z m 0,-128 -240,0 L 776,392 l -7.9968,-7.99682 0,127.99366 256,0 z m 256.0031,384 -240,0 0,-111.99684 -7.9968,-7.99682 0,127.99366 256,0 z m 0,-128 -240,0 0,-111.99684 -7.9968,-7.99682 0,127.99366 256,0 z m -376,136.0063 -8,-8.0063 -112,0 0,-240 -8,-8 0,256 z m 128,0 -8,-8.0063 -112,0 0,-240 -8,-8 0,256 z m 128,-255.99996 -8,-8.00634 -112,0 0,-240 -8,-8 0,256 z m 128,0 -8,-8.00634 -112,0 0,-240 -8,-8 0,256 z" id="path4495-6-7-2-4-7" inkscape:connector-curvature="0" style="display:inline;opacity:1;fill:#000000;fill-opacity:0.25;fill-rule:evenodd;stroke:none;stroke-width:1px;stroke-linecap:butt;stroke-linejoin:miter;stroke-opacity:1;filter:url(#filter4549-6)" transform="matrix(0,-1,1,0,128.00316,1792.0063)"/>
  </g><g id="layer6" inkscape:groupmode="layer" inkscape:label="Dark_copy_4" sodipodi:insensitive="true" style="display:inline" transform="translate(0, -512)">
    <path d="m 1016.0032,631.99684 -240,0 L 776,520 l -7.9968,-7.99682 0,127.99366 256,0 z m 0,-128 -240,0 L 776,392 l -7.9968,-7.99682 0,127.99366 256,0 z m 256.0031,384 -240,0 0,-111.99684 -7.9968,-7.99682 0,127.99366 256,0 z m 0,-128 -240,0 0,-111.99684 -7.9968,-7.99682 0,127.99366 256,0 z m -376,136.0063 -8,-8.0063 -112,0 0,-240 -8,-8 0,256 z m 128,0 -8,-8.0063 -112,0 0,-240 -8,-8 0,256 z m 128,-255.99996 -8,-8.00634 -112,0 0,-240 -8,-8 0,256 z m 128,0 -8,-8.00634 -112,0 0,-240 -8,-8 0,256 z" id="path4495-6-7-2-4-7" inkscape:connector-curvature="0" style="display:inline;opacity:1;fill:#000000;fill-opacity:0.25;fill-rule:evenodd;stroke:none;stroke-width:1px;stroke-linecap:butt;stroke-linejoin:miter;stroke-opacity:1;filter:url(#filter4549-6)" transform="matrix(0,-1,1,0,128.00316,1792.0063)"/>
  </g><g id="layer6" inkscape:groupmode="layer" inkscape:label="Dark_copy_5" sodipodi:insensitive="true" style="display:inline" transform="translate(0, 512)">
    <path d="m 1016.0032,631.99684 -240,0 L 776,520 l -7.9968,-7.99682 0,127.99366 256,0 z m 0,-128 -240,0 L 776,392 l -7.9968,-7.99682 0,127.99366 256,0 z m 256.0031,384 -240,0 0,-111.99684 -7.9968,-7.99682 0,127.99366 256,0 z m 0,-128 -240,0 0,-111.99684 -7.9968,-7.99682 0,127.99366 256,0 z m -376,136.0063 -8,-8.0063 -112,0 0,-240 -8,-8 0,256 z m 128,0 -8,-8.0063 -112,0 0,-240 -8,-8 0,256 z m 128,-255.99996 -8,-8.00634 -112,0 0,-240 -8,-8 0,256 z m 128,0 -8,-8.00634 -112,0 0,-240 -8,-8 0,256 z" id="path4495-6-7-2-4-7" inkscape:connector-curvature="0" style="display:inline;opacity:1;fill:#000000;fill-opacity:0.25;fill-rule:evenodd;stroke:none;stroke-width:1px;stroke-linecap:butt;stroke-linejoin:miter;stroke-opacity:1;filter:url(#filter4549-6)" transform="matrix(0,-1,1,0,128.00316,1792.0063)"/>
  </g><g id="layer6" inkscape:groupmode="layer" inkscape:label="Dark_copy_6" sodipodi:insensitive="true" style="display:inline" transform="translate(512, -512)">
    <path d="m 1016.0032,631.99684 -240,0 L 776,520 l -7.9968,-7.99682 0,127.99366 256,0 z m 0,-128 -240,0 L 776,392 l -7.9968,-7.99682 0,127.99366 256,0 z m 256.0031,384 -240,0 0,-111.99684 -7.9968,-7.99682 0,127.99366 256,0 z m 0,-128 -240,0 0,-111.99684 -7.9968,-7.99682 0,127.99366 256,0 z m -376,136.0063 -8,-8.0063 -112,0 0,-240 -8,-8 0,256 z m 128,0 -8,-8.0063 -112,0 0,-240 -8,-8 0,256 z m 128,-255.99996 -8,-8.00634 -112,0 0,-240 -8,-8 0,256 z m 128,0 -8,-8.00634 -112,0 0,-240 -8,-8 0,256 z" id="path4495-6-7-2-4-7" inkscape:connector-curvature="0" style="display:inline;opacity:1;fill:#000000;fill-opacity:0.25;fill-rule:evenodd;stroke:none;stroke-width:1px;stroke-linecap:butt;stroke-linejoin:miter;stroke-opacity:1;filter:url(#filter4549-6)" transform="matrix(0,-1,1,0,128.00316,1792.0063)"/>
  </g><g id="layer6" inkscape:groupmode="layer" inkscape:label="Dark_copy_7" sodipodi:insensitive="true" style="display:inline" transform="translate(512, 0)">
    <path d="m 1016.0032,631.99684 -240,0 L 776,520 l -7.9968,-7.99682 0,127.99366 256,0 z m 0,-128 -240,0 L 776,392 l -7.9968,-7.99682 0,127.99366 256,0 z m 256.0031,384 -240,0 0,-111.99684 -7.9968,-7.99682 0,127.99366 256,0 z m 0,-128 -240,0 0,-111.99684 -7.9968,-7.99682 0,127.99366 256,0 z m -376,136.0063 -8,-8.0063 -112,0 0,-240 -8,-8 0,256 z m 128,0 -8,-8.0063 -112,0 0,-240 -8,-8 0,256 z m 128,-255.99996 -8,-8.00634 -112,0 0,-240 -8,-8 0,256 z m 128,0 -8,-8.00634 -112,0 0,-240 -8,-8 0,256 z" id="path4495-6-7-2-4-7" inkscape:connector-curvature="0" style="display:inline;opacity:1;fill:#000000;fill-opacity:0.25;fill-rule:evenodd;stroke:none;stroke-width:1px;stroke-linecap:butt;stroke-linejoin:miter;stroke-opacity:1;filter:url(#filter4549-6)" transform="matrix(0,-1,1,0,128.00316,1792.0063)"/>
  </g><g id="layer6" inkscape:groupmode="layer" inkscape:label="Dark_copy_8" sodipodi:insensitive="true" style="display:inline" transform="translate(512, 512)">
    <path d="m 1016.0032,631.99684 -240,0 L 776,520 l -7.9968,-7.99682 0,127.99366 256,0 z m 0,-128 -240,0 L 776,392 l -7.9968,-7.99682 0,127.99366 256,0 z m 256.0031,384 -240,0 0,-111.99684 -7.9968,-7.99682 0,127.99366 256,0 z m 0,-128 -240,0 0,-111.99684 -7.9968,-7.99682 0,127.99366 256,0 z m -376,136.0063 -8,-8.0063 -112,0 0,-240 -8,-8 0,256 z m 128,0 -8,-8.0063 -112,0 0,-240 -8,-8 0,256 z m 128,-255.99996 -8,-8.00634 -112,0 0,-240 -8,-8 0,256 z m 128,0 -8,-8.00634 -112,0 0,-240 -8,-8 0,256 z" id="path4495-6-7-2-4-7" inkscape:connector-curvature="0" style="display:inline;opacity:1;fill:#000000;fill-opacity:0.25;fill-rule:evenodd;stroke:none;stroke-width:1px;stroke-linecap:butt;stroke-linejoin:miter;stroke-opacity:1;filter:url(#filter4549-6)" transform="matrix(0,-1,1,0,128.00316,1792.0063)"/>
  </g></svg>