<?xml version="1.0" encoding="UTF-8" standalone="no"?>
<!-- Created with Inkscape (http://www.inkscape.org/) -->

<svg
   xmlns:dc="http://purl.org/dc/elements/1.1/"
   xmlns:cc="http://creativecommons.org/ns#"
   xmlns:rdf="http://www.w3.org/1999/02/22-rdf-syntax-ns#"
   xmlns:svg="http://www.w3.org/2000/svg"
   xmlns="http://www.w3.org/2000/svg"
   xmlns:sodipodi="http://sodipodi.sourceforge.net/DTD/sodipodi-0.dtd"
   xmlns:inkscape="http://www.inkscape.org/namespaces/inkscape"
   width="1536"
   height="1536"
   viewBox="0 0 1536 1536"
   id="svg2"
   version="1.1"
   inkscape:version="0.91 r13725"
   sodipodi:docname="compositae_tigerteeth.svg"
   inkscape:export-filename="C:\Users\Michael\Desktop\GFX\stone_restore.png"
   inkscape:export-xdpi="90"
   inkscape:export-ydpi="90"
   enable-background="new">
  <defs
     id="defs4">
    <inkscape:perspective
       sodipodi:type="inkscape:persp3d"
       inkscape:vp_x="0 : 768 : 1"
       inkscape:vp_y="0 : 1000 : 0"
       inkscape:vp_z="1536 : 768 : 1"
       inkscape:persp3d-origin="768 : 512 : 1"
       id="perspective5076" />
    <filter
       inkscape:collect="always"
       style="color-interpolation-filters:sRGB"
       id="filter5156">
      <feBlend
         inkscape:collect="always"
         mode="multiply"
         in2="BackgroundImage"
         id="feBlend5158" />
    </filter>
    <filter
       inkscape:collect="always"
       style="color-interpolation-filters:sRGB"
       id="filter5160">
      <feBlend
         inkscape:collect="always"
         mode="screen"
         in2="BackgroundImage"
         id="feBlend5162" />
    </filter>
  </defs>
  <sodipodi:namedview
     id="base"
     pagecolor="#ffffff"
     bordercolor="#666666"
     borderopacity="1.0"
     inkscape:pageopacity="0.0"
     inkscape:pageshadow="2"
     inkscape:zoom="1.4142136"
     inkscape:cx="926.14113"
     inkscape:cy="982.80766"
     inkscape:document-units="px"
     inkscape:current-layer="layer11"
     showgrid="true"
     inkscape:snap-bbox="true"
     inkscape:snap-intersection-paths="true"
     inkscape:object-paths="true"
     inkscape:object-nodes="true"
     inkscape:snap-smooth-nodes="true"
     inkscape:snap-global="true"
     inkscape:window-width="1680"
     inkscape:window-height="937"
     inkscape:window-x="-4"
     inkscape:window-y="-4"
     inkscape:window-maximized="1"
     units="px"
     showborder="true"
     inkscape:showpageshadow="false"
     inkscape:snap-grids="true"
     gridtolerance="10"
     showguides="false">
    <inkscape:grid
       type="xygrid"
       id="grid4264"
       spacingx="512"
       spacingy="512"
       empspacing="1"
       snapvisiblegridlinesonly="true" />
  </sodipodi:namedview>
  <metadata
     id="metadata7">
    <rdf:RDF>
      <cc:Work
         rdf:about="">
        <dc:format>image/svg+xml</dc:format>
        <dc:type
           rdf:resource="http://purl.org/dc/dcmitype/StillImage" />
        <dc:title></dc:title>
      </cc:Work>
    </rdf:RDF>
  </metadata>
  <g
     inkscape:groupmode="layer"
     id="layer3"
     inkscape:label="BG"
     transform="translate(0,483.63784)"
     style="display:inline"
     sodipodi:insensitive="true" />
  <g
     inkscape:groupmode="layer"
     id="layer1"
     inkscape:label="origin"
     style="display:none" />
  <g
     inkscape:groupmode="layer"
     id="layer5"
     inkscape:label="leaves"
     style="display:none"
     sodipodi:insensitive="true">
    <path
       style="fill:#417824;fill-opacity:1;fill-rule:evenodd;stroke:none;stroke-width:1px;stroke-linecap:butt;stroke-linejoin:miter;stroke-opacity:1"
       d="m 748.89604,967.97803 -20.19487,-43.72833 -53.59721,-16.22773 25.93743,45.46702 z"
       id="path4459"
       inkscape:connector-curvature="0"
       inkscape:transform-center-x="22"
       inkscape:transform-center-y="4" />
    <path
       style="fill:#417824;fill-opacity:1;fill-rule:evenodd;stroke:none;stroke-width:1px;stroke-linecap:butt;stroke-linejoin:miter;stroke-opacity:1"
       d="M 750,967.07692 794.68966,909.84615 846,908 827.7931,948.61538 750,980 Z"
       id="path4461"
       inkscape:connector-curvature="0" />
    <path
       style="fill:#417824;fill-opacity:1;fill-rule:evenodd;stroke:none;stroke-width:1px;stroke-linecap:butt;stroke-linejoin:miter;stroke-opacity:1"
       d="m 776,840 38,-24 14,-52 -44,22 -16,42 z"
       id="path4463"
       inkscape:connector-curvature="0" />
  </g>
  <g
     inkscape:groupmode="layer"
     id="layer8"
     inkscape:label="leaves multiply"
     style="display:none;opacity:0.475;filter:url(#filter4585)"
     sodipodi:insensitive="true">
    <path
       inkscape:connector-curvature="0"
       style="display:inline;fill:#417824;fill-opacity:1;fill-rule:evenodd;stroke:none;stroke-width:1px;stroke-linecap:butt;stroke-linejoin:miter;stroke-opacity:1"
       d="m 833.95937,908.43322 -39.26992,1.41248 -26.58751,34.04939 -3.0281,15.41046 50.21913,-21.69032 z"
       id="path4461-2"
       sodipodi:nodetypes="cccccc" />
    <path
       inkscape:connector-curvature="0"
       style="display:inline;fill:#417824;fill-opacity:1;fill-rule:evenodd;stroke:none;stroke-width:1px;stroke-linecap:butt;stroke-linejoin:miter;stroke-opacity:1"
       d="m 683.72656,910.63281 19.31446,33.85547 40.69726,12.32227 L 728.70117,924.25 683.72656,910.63281 Z"
       id="path4459-2" />
    <path
       inkscape:connector-curvature="0"
       style="display:inline;fill:#417824;fill-opacity:1;fill-rule:evenodd;stroke:none;stroke-width:1px;stroke-linecap:butt;stroke-linejoin:miter;stroke-opacity:1"
       d="M 814.40039,770.80078 784,786 769.00391,825.36719 806,802 l 8.40039,-31.19922 z"
       id="path4463-0" />
  </g>
  <g
     inkscape:groupmode="layer"
     id="layer2"
     inkscape:label="stem"
     sodipodi:insensitive="true"
     style="display:none">
    <path
       style="fill:#30591b;fill-opacity:1;fill-rule:evenodd;stroke:none;stroke-width:1px;stroke-linecap:butt;stroke-linejoin:miter;stroke-opacity:1"
       d="m 724.07734,1024 31.1127,-161.16566 -19.79899,-158.39192 25.45585,0 22.62741,161.22035 L 752.36162,1024 Z"
       id="path4411"
       inkscape:connector-curvature="0" />
  </g>
  <g
     inkscape:groupmode="layer"
     id="layer6"
     inkscape:label="multiply"
     style="display:none;opacity:0.62099998;filter:url(#filter4535)"
     sodipodi:insensitive="true">
    <path
       inkscape:connector-curvature="0"
       style="fill:#30591b;fill-opacity:1;fill-rule:evenodd;stroke:none;stroke-width:1px;stroke-linecap:butt;stroke-linejoin:miter;stroke-opacity:1"
       d="M 735.39062,704.44336 755.18945,862.83398 724.07812,1024 l 12.69532,0 31.11133,-158.33789 -22.62696,-161.21875 -9.86719,0 z"
       id="path4411-9-7" />
  </g>
  <g
     inkscape:groupmode="layer"
     id="layer11"
     inkscape:label="flower bck"
     style="display:inline">
    <path
       style="display:inline;opacity:1;fill:#64530f;fill-opacity:1;fill-rule:evenodd;stroke:none;stroke-width:3;stroke-linecap:butt;stroke-linejoin:round;stroke-miterlimit:4;stroke-dasharray:none;stroke-opacity:1"
       d="m 776.59971,520.982 -31.60242,41.72051 0,0 -21.21751,-4.66084 -6.66503,14.0581 -31.83018,3.86983 -4.29023,35.47647 -41.03613,12.24726 16.20322,20.32324 -29.58047,20.78057 24.1582,15.66797 -31.29287,38.94843 32.77969,2.75421 -14.77383,39.91845 52.18008,-12.69023 0.26865,-0.36709 12.44824,51.59355 25.25743,-16.22373 22.06435,32.07627 35.88662,-49.79912 63.4081,20.48525 4.8624,-34.29931 22.78419,0.76493 -9.74736,-53.09677 7.13877,3.57246 72.13212,-29.4205 -40.25274,-34.42237 27.25694,-24.10489 -26.50839,-10.74404 16.76308,-34.20702 -49.33565,3.58886 -1.79443,-0.9372 6.52148,-48.64454 -45.62168,19.021 -5.35048,-9.41514 -23.77061,14.24883 -1.25682,0.65378 z"
       id="path4603-5-8"
       inkscape:connector-curvature="0"
       sodipodi:nodetypes="cccccccccccccccccccccccccccccccccccccc" />
    <path
       sodipodi:nodetypes="cccccc"
       style="display:inline;fill:#967d17;fill-opacity:1;fill-rule:evenodd;stroke:none;stroke-width:3;stroke-linecap:butt;stroke-linejoin:round;stroke-miterlimit:4;stroke-dasharray:none;stroke-opacity:1"
       d="m 706.17946,794.34138 -12.81777,-53.12534 60.75601,-92.34473 8.69195,26.26348 -6.60091,87.0744 z"
       id="path4603-5"
       inkscape:connector-curvature="0" />
    <path
       style="display:inline;fill:#967d17;fill-opacity:1;fill-rule:evenodd;stroke:none;stroke-width:3;stroke-linecap:butt;stroke-linejoin:round;stroke-miterlimit:4;stroke-dasharray:none;stroke-opacity:1"
       d="m 678.18914,721.28238 -50.96427,-4.28204 33.62986,-41.85745 78.2125,-18.47071 9.86932,9.66763 z"
       id="path4605-2"
       inkscape:connector-curvature="0" />
    <path
       style="display:inline;fill:#967d17;fill-opacity:1;fill-rule:evenodd;stroke:none;stroke-width:3;stroke-linecap:butt;stroke-linejoin:round;stroke-miterlimit:4;stroke-dasharray:none;stroke-opacity:1"
       d="m 665.22294,648.99469 -18.46232,-23.1562 43.64762,-13.02748 66.82446,28.69268 -9.72091,9.49472 z"
       id="path4607-2"
       inkscape:connector-curvature="0" />
    <path
       style="display:inline;fill:#967d17;fill-opacity:1;fill-rule:evenodd;stroke:none;stroke-width:3;stroke-linecap:butt;stroke-linejoin:round;stroke-miterlimit:4;stroke-dasharray:none;stroke-opacity:1"
       d="m 711.81402,594.4776 53.9622,54.1272 9.03326,-13.97169 -15.51886,-64.64581 -32.69986,-6.67563 z"
       id="path4609-8"
       inkscape:connector-curvature="0" />
    <path
       sodipodi:nodetypes="cccccc"
       style="display:inline;fill:#967d17;fill-opacity:1;fill-rule:evenodd;stroke:none;stroke-width:3;stroke-linecap:butt;stroke-linejoin:round;stroke-miterlimit:4;stroke-dasharray:none;stroke-opacity:1"
       d="m 774.36998,634.44444 10.35331,-68.70357 40.94652,-24.54793 17.87364,31.45411 -61.3176,64.42153 z"
       id="path4611-7"
       inkscape:connector-curvature="0" />
    <path
       sodipodi:nodetypes="cccccc"
       style="display:inline;fill:#967d17;fill-opacity:1;fill-rule:evenodd;stroke:none;stroke-width:3;stroke-linecap:butt;stroke-linejoin:round;stroke-miterlimit:4;stroke-dasharray:none;stroke-opacity:1"
       d="m 787.182,630.27141 82.53122,-51.00635 46.98688,-3.41749 -20.56972,41.97273 -106.88546,25.88205 z"
       id="path4613-0"
       inkscape:connector-curvature="0" />
    <path
       sodipodi:nodetypes="cccccc"
       style="display:inline;fill:#967d17;fill-opacity:1;fill-rule:evenodd;stroke:none;stroke-width:3;stroke-linecap:butt;stroke-linejoin:round;stroke-miterlimit:4;stroke-dasharray:none;stroke-opacity:1"
       d="m 897.6046,639.54915 -101.42844,4.11525 -4.41768,19.76075 77.90118,38.99284 68.69858,-28.01926 z"
       id="path4615-4"
       inkscape:connector-curvature="0" />
    <path
       sodipodi:nodetypes="cccccc"
       style="display:inline;fill:#967d17;fill-opacity:1;fill-rule:evenodd;stroke:none;stroke-width:3;stroke-linecap:butt;stroke-linejoin:round;stroke-miterlimit:4;stroke-dasharray:none;stroke-opacity:1"
       d="m 845.81426,781.52242 8.04878,-56.77338 -53.32404,-56.03766 -22.78106,9.37944 3.25406,82.49608 z"
       id="path4617-9"
       inkscape:connector-curvature="0" />
  </g>
  <g
     inkscape:groupmode="layer"
     id="layer12"
     inkscape:label="multiply bck"
     style="display:inline;opacity:0.182;filter:url(#filter5156)">
    <path
       sodipodi:nodetypes="ccccccc"
       inkscape:connector-curvature="0"
       style="display:inline;opacity:1;fill:#707070;fill-opacity:1;fill-rule:evenodd;stroke:none;stroke-width:3;stroke-linecap:butt;stroke-linejoin:round;stroke-miterlimit:4;stroke-dasharray:none;stroke-opacity:1"
       d="m 794.0785,622.42297 -9.42188,12.60352 19.43733,85.10472 -24.18164,38.64258 13.57617,16.87695 28.99023,-46.32812 z"
       id="path4603-1-5"
       transform="matrix(-0.95002909,-0.31216136,-0.31216136,0.95002909,1702.4067,305.08441)" />
    <path
       inkscape:connector-curvature="0"
       style="display:inline;opacity:1;fill:#707070;fill-opacity:1;fill-rule:evenodd;stroke:none;stroke-width:3;stroke-linecap:butt;stroke-linejoin:round;stroke-miterlimit:4;stroke-dasharray:none;stroke-opacity:1"
       d="m 805.91231,634.6527 -8.95508,4.35546 62.4375,38.65235 16.88086,45.61133 16.60351,4.0371 -18.63476,-50.35546 -68.33203,-42.30078 z"
       id="path4605-5-1"
       transform="matrix(-0.95002909,-0.31216136,-0.31216136,0.95002909,1702.731,304.92269)" />
    <path
       inkscape:connector-curvature="0"
       style="display:inline;opacity:1;fill:#707070;fill-opacity:1;fill-rule:evenodd;stroke:none;stroke-width:3;stroke-linecap:butt;stroke-linejoin:round;stroke-miterlimit:4;stroke-dasharray:none;stroke-opacity:1"
       d="m 865.96113,608.4691 -72.47265,6.04297 4.99609,9.7168 61.82031,-5.1543 32.13477,22.57813 0.002,0 10.79102,-7 -37.27149,-26.1836 z"
       id="path4607-25-3"
       transform="matrix(-0.95002909,-0.31216136,-0.31216136,0.95002909,1702.972,304.8543)" />
    <path
       inkscape:connector-curvature="0"
       style="display:inline;opacity:1;fill:#707070;fill-opacity:1;fill-rule:evenodd;stroke:none;stroke-width:3;stroke-linecap:butt;stroke-linejoin:round;stroke-miterlimit:4;stroke-dasharray:none;stroke-opacity:1"
       d="m 814.19552,546.02771 -1.23047,1.97265 17.14844,2.08399 4.14062,34.24218 -53.07618,26.59766 1.95703,7.61523 68.33204,-34.24218 -4.14062,-34.24219 -33.13086,-4.02734 z"
       id="path4609-6-5"
       transform="matrix(-0.95002909,-0.31216136,-0.31216136,0.95002909,1703.2814,305.24593)" />
    <path
       sodipodi:nodetypes="cccccccc"
       inkscape:connector-curvature="0"
       style="display:inline;opacity:1;fill:#707070;fill-opacity:1;fill-rule:evenodd;stroke:none;stroke-width:3;stroke-linecap:butt;stroke-linejoin:round;stroke-miterlimit:4;stroke-dasharray:none;stroke-opacity:1"
       d="m 760.35957,497.68586 -5.08398,4.56445 19.8789,23.20508 -9.47462,61.93267 5.54883,14.94531 8.28125,0 11.90822,-68.39165 z"
       id="path4611-3-4"
       transform="matrix(-0.95002909,-0.31216136,-0.31216136,0.95002909,1703.3918,305.73178)" />
    <path
       sodipodi:nodetypes="ccccccccc"
       inkscape:connector-curvature="0"
       style="display:inline;opacity:1;fill:#707070;fill-opacity:1;fill-rule:evenodd;stroke:none;stroke-width:3;stroke-linecap:butt;stroke-linejoin:round;stroke-miterlimit:4;stroke-dasharray:none;stroke-opacity:1"
       d="m 663.03926,501.71323 1.4082,10.50586 35.07422,14.62305 62.13912,74.45524 -1.72265,3.3496 2.51171,1.73633 6.21094,-12.08593 -62.13912,-74.45524 z"
       id="path4613-1-7"
       transform="matrix(-0.95002909,-0.31216136,-0.31216136,0.95002909,1703.2222,306.18065)" />
    <path
       sodipodi:nodetypes="ccccccccc"
       inkscape:connector-curvature="0"
       style="display:inline;opacity:1;fill:#707070;fill-opacity:1;fill-rule:evenodd;stroke:none;stroke-width:3;stroke-linecap:butt;stroke-linejoin:round;stroke-miterlimit:4;stroke-dasharray:none;stroke-opacity:1"
       d="m 617.61691,584.31127 -9.98317,4.10359 56.51912,48.06416 89.65231,-12.17319 2.07032,-20.14258 -0.45704,-0.18945 -1.11328,10.83203 -86.21129,12.30965 z"
       id="path4615-0-1"
       transform="matrix(-0.95002909,-0.31216136,-0.31216136,0.95002909,1699.3083,305.06727)" />
    <path
       sodipodi:nodetypes="ccccccc"
       inkscape:connector-curvature="0"
       style="display:inline;opacity:1;fill:#707070;fill-opacity:1;fill-rule:evenodd;stroke:none;stroke-width:3;stroke-linecap:butt;stroke-linejoin:round;stroke-miterlimit:4;stroke-dasharray:none;stroke-opacity:1"
       d="m 751.56856,633.31871 -25.42117,69.59605 -61.04433,-0.59017 -2.98973,16.74955 71.10633,0.81132 29.21022,-77.17417 z"
       id="path4617-8-7"
       transform="matrix(-0.95002909,-0.31216136,-0.31216136,0.95002909,1699.3083,305.06727)" />
  </g>
  <g
     inkscape:groupmode="layer"
     id="layer4"
     inkscape:label="flower"
     style="display:inline">
    <path
       style="fill:#000000;fill-opacity:1;fill-rule:evenodd;stroke:none;stroke-width:3;stroke-linecap:butt;stroke-linejoin:round;stroke-miterlimit:4;stroke-dasharray:none;stroke-opacity:1"
       d="m 748.29987,823.86141 -34.14582,-49.64162 40.79831,-112.91088 27.10134,15.03705 4.30428,94.70502 z"
       id="path4603"
       inkscape:connector-curvature="0"
       sodipodi:nodetypes="cccccc" />
    <path
       style="fill:#000000;fill-opacity:1;fill-rule:evenodd;stroke:none;stroke-width:3;stroke-linecap:butt;stroke-linejoin:round;stroke-miterlimit:4;stroke-dasharray:none;stroke-opacity:1"
       d="m 685.2611,753.42947 -54.78921,13.3242 20.54593,-55.51744 83.55531,-52.99861 11.71385,11.46688 z"
       id="path4605"
       inkscape:connector-curvature="0"
       sodipodi:nodetypes="cccccc" />
    <path
       style="fill:#000000;fill-opacity:1;fill-rule:evenodd;stroke:none;stroke-width:3;stroke-linecap:butt;stroke-linejoin:round;stroke-miterlimit:4;stroke-dasharray:none;stroke-opacity:1"
       d="m 646.45207,682.36715 -27.39462,-17.76557 41.09192,-28.86908 84.49713,7.01566 -3.75506,15.18034 z"
       id="path4607"
       inkscape:connector-curvature="0"
       sodipodi:nodetypes="cccccc" />
    <path
       style="fill:#000000;fill-opacity:1;fill-rule:evenodd;stroke:none;stroke-width:3;stroke-linecap:butt;stroke-linejoin:round;stroke-miterlimit:4;stroke-dasharray:none;stroke-opacity:1"
       d="m 676.12956,609.08413 75.33517,37.75186 4.56576,-17.76557 -38.80902,-62.17954 -36.52615,4.44141 z"
       id="path4609"
       inkscape:connector-curvature="0" />
    <path
       style="fill:#000000;fill-opacity:1;fill-rule:evenodd;stroke:none;stroke-width:3;stroke-linecap:butt;stroke-linejoin:round;stroke-miterlimit:4;stroke-dasharray:none;stroke-opacity:1"
       d="m 761.98782,620.96722 -19.65462,-67.40052 34.24325,-39.97255 29.67749,26.64836 -24.9275,89.66784 z"
       id="path4611"
       inkscape:connector-curvature="0"
       sodipodi:nodetypes="cccccc" />
    <path
       style="fill:#000000;fill-opacity:1;fill-rule:evenodd;stroke:none;stroke-width:3;stroke-linecap:butt;stroke-linejoin:round;stroke-miterlimit:4;stroke-dasharray:none;stroke-opacity:1"
       d="m 773.39064,628.72274 62.5408,-90.70092 47.94056,-19.98628 -6.84865,51.07605 -89.48224,70.71955 z"
       id="path4613"
       inkscape:connector-curvature="0"
       sodipodi:nodetypes="cccccc" />
    <path
       style="fill:#000000;fill-opacity:1;fill-rule:evenodd;stroke:none;stroke-width:3;stroke-linecap:butt;stroke-linejoin:round;stroke-miterlimit:4;stroke-dasharray:none;stroke-opacity:1"
       d="m 886.15489,591.31856 -95.99994,40.4919 6.96746,19.46694 93.59824,6.66208 50.22345,-44.41395 z"
       id="path4615"
       inkscape:connector-curvature="0"
       sodipodi:nodetypes="cccccc" />
    <path
       style="fill:#000000;fill-opacity:1;fill-rule:evenodd;stroke:none;stroke-width:3;stroke-linecap:butt;stroke-linejoin:round;stroke-miterlimit:4;stroke-dasharray:none;stroke-opacity:1"
       d="m 881.58911,757.87088 -11.41441,-62.17954 -75.33517,-39.97255 -20.54596,17.76558 41.09191,82.16581 z"
       id="path4617"
       inkscape:connector-curvature="0" />
  </g>
  <g
     inkscape:groupmode="layer"
     id="layer7"
     inkscape:label="multiply flower"
     style="display:inline;opacity:0.324;filter:url(#filter5160)">
    <path
       inkscape:connector-curvature="0"
       style="display:inline;opacity:1;fill:#707070;fill-opacity:1;fill-rule:evenodd;stroke:none;stroke-width:3;stroke-linecap:butt;stroke-linejoin:round;stroke-miterlimit:4;stroke-dasharray:none;stroke-opacity:1"
       d="m 754.95153,661.30982 10.98058,13.43173 -31.96971,88.47493 28.48319,41.4069 -14.14654,19.23858 -34.1472,-49.64227 40.79968,-112.90987 z"
       id="path4603-1" />
    <path
       inkscape:connector-curvature="0"
       style="display:inline;opacity:1;fill:#707070;fill-opacity:1;fill-rule:evenodd;stroke:none;stroke-width:3;stroke-linecap:butt;stroke-linejoin:round;stroke-miterlimit:4;stroke-dasharray:none;stroke-opacity:1"
       d="m 734.57232,658.2367 4.3045,8.42581 -71.48899,45.35426 -18.61115,50.28648 -18.30537,4.45091 20.54482,-55.51689 z"
       id="path4605-5"
       sodipodi:nodetypes="ccccccc" />
    <path
       inkscape:connector-curvature="0"
       style="display:inline;opacity:1;fill:#707070;fill-opacity:1;fill-rule:evenodd;stroke:none;stroke-width:3;stroke-linecap:butt;stroke-linejoin:round;stroke-miterlimit:4;stroke-dasharray:none;stroke-opacity:1"
       d="m 660.14837,635.73324 84.49813,7.01492 -4.80192,8.76923 -73.46019,-4.09162 -35.42859,24.89239 -0.002,0 -11.8971,-7.7175 41.09183,-28.86742 z"
       id="path4607-25"
       sodipodi:nodetypes="ccccccccc" />
    <path
       inkscape:connector-curvature="0"
       style="display:inline;opacity:1;fill:#707070;fill-opacity:1;fill-rule:evenodd;stroke:none;stroke-width:3;stroke-linecap:butt;stroke-linejoin:round;stroke-miterlimit:4;stroke-dasharray:none;stroke-opacity:1"
       d="m 717.21996,566.89161 1.35659,2.17484 -18.90616,2.2976 -4.56503,37.752 58.51649,29.32392 -2.15762,8.39579 -75.33609,-37.752 4.56505,-37.75202 36.52677,-4.44013 z"
       id="path4609-6" />
    <path
       inkscape:connector-curvature="0"
       style="display:inline;opacity:1;fill:#707070;fill-opacity:1;fill-rule:evenodd;stroke:none;stroke-width:3;stroke-linecap:butt;stroke-linejoin:round;stroke-miterlimit:4;stroke-dasharray:none;stroke-opacity:1"
       d="m 776.5741,513.59471 5.60508,5.03231 -21.91649,25.5836 22.42899,59.50055 -1.3676,26.19992 -19.33716,-8.94313 -19.65493,-67.40116 z"
       id="path4611-3"
       sodipodi:nodetypes="cccccccc" />
    <path
       inkscape:connector-curvature="0"
       style="display:inline;opacity:1;fill:#707070;fill-opacity:1;fill-rule:evenodd;stroke:none;stroke-width:3;stroke-linecap:butt;stroke-linejoin:round;stroke-miterlimit:4;stroke-dasharray:none;stroke-opacity:1"
       d="m 883.86973,518.03488 -1.55254,11.58272 -38.66933,16.12191 -55.2392,88.48483 1.89921,3.69293 -2.76915,1.9143 -14.14938,-11.10896 62.54102,-90.7006 z"
       id="path4613-1"
       sodipodi:nodetypes="ccccccccc" />
    <path
       inkscape:connector-curvature="0"
       style="display:inline;opacity:1;fill:#707070;fill-opacity:1;fill-rule:evenodd;stroke:none;stroke-width:3;stroke-linecap:butt;stroke-linejoin:round;stroke-miterlimit:4;stroke-dasharray:none;stroke-opacity:1"
       d="m 932.44433,610.08073 8.49916,3.44531 -50.22404,44.41439 -93.59838,-6.66237 -0.55125,-10.47375 93.59838,6.66237 z"
       id="path4615-0"
       sodipodi:nodetypes="ccccccc" />
    <path
       inkscape:connector-curvature="0"
       style="display:inline;opacity:1;fill:#707070;fill-opacity:1;fill-rule:evenodd;stroke:none;stroke-width:3;stroke-linecap:butt;stroke-linejoin:round;stroke-miterlimit:4;stroke-dasharray:none;stroke-opacity:1"
       d="m 786.26618,663.12993 36.91438,73.80936 54.9032,1.84324 3.50346,19.08919 -66.20384,-2.22222 -41.09181,-82.16425 11.97461,-10.35532 z"
       id="path4617-8" />
  </g>
  <g
     inkscape:groupmode="layer"
     id="layer9"
     inkscape:label="flowercore">
    <path
       sodipodi:type="star"
       style="opacity:1;fill:#9b7b07;fill-opacity:1;fill-rule:evenodd;stroke:none;stroke-width:3;stroke-linejoin:round;stroke-miterlimit:4;stroke-dasharray:none;stroke-opacity:1"
       id="path5538"
       sodipodi:sides="5"
       sodipodi:cx="752.41394"
       sodipodi:cy="612.88177"
       sodipodi:r1="46.402439"
       sodipodi:r2="37.540363"
       sodipodi:arg1="0.73094961"
       sodipodi:arg2="1.3592681"
       inkscape:flatsided="true"
       inkscape:rounded="-3.46945e-018"
       inkscape:randomized="0"
       d="m 786.96245,643.85897 -53.3335,11.45287 -27.37328,-47.18404 36.41588,-40.61421 49.87953,22.08308 z"
       inkscape:transform-center-x="2.7865726"
       inkscape:transform-center-y="-1.4712524"
       transform="matrix(-0.66864591,0.58726789,-0.50855877,-0.80866757,1585.451,714.33003)" />
    <path
       sodipodi:type="star"
       style="opacity:1;fill:#5d1c1c;fill-opacity:1;fill-rule:evenodd;stroke:none;stroke-width:3;stroke-linejoin:round;stroke-miterlimit:4;stroke-dasharray:none;stroke-opacity:1"
       id="path5538-8"
       sodipodi:sides="5"
       sodipodi:cx="752.41394"
       sodipodi:cy="612.88177"
       sodipodi:r1="46.402439"
       sodipodi:r2="37.540363"
       sodipodi:arg1="0.73094961"
       sodipodi:arg2="1.3592681"
       inkscape:flatsided="true"
       inkscape:rounded="-3.46945e-018"
       inkscape:randomized="0"
       d="m 786.96245,643.85897 -53.3335,11.45287 -27.37328,-47.18404 36.41588,-40.61421 49.87953,22.08308 z"
       inkscape:transform-center-x="1.4809017"
       inkscape:transform-center-y="-0.78186794"
       transform="matrix(-0.35534585,0.31209824,-0.27026897,-0.4297591,1203.0475,687.80908)" />
  </g>
  <g
     inkscape:groupmode="layer"
     id="layer10"
     inkscape:label="multiply core"
     style="opacity:0.469">
    <path
       inkscape:connector-curvature="0"
       style="opacity:1;fill:#0a0a0a;fill-opacity:1;fill-rule:evenodd;stroke:none;stroke-width:3;stroke-linejoin:round;stroke-miterlimit:4;stroke-dasharray:none;stroke-opacity:1"
       d="m 783.04053,626.40437 -1.06533,44.24076 -38.41003,8.40829 12.10589,23.92902 44.58163,-11.43509 3.69462,-54.22927 z"
       id="path5538-1"
       sodipodi:nodetypes="ccccccc" />
  </g>
</svg>
