<?xml version="1.0" encoding="UTF-8" standalone="no"?>
<!-- Created with Inkscape (http://www.inkscape.org/) -->

<svg
   xmlns:dc="http://purl.org/dc/elements/1.1/"
   xmlns:cc="http://creativecommons.org/ns#"
   xmlns:rdf="http://www.w3.org/1999/02/22-rdf-syntax-ns#"
   xmlns:svg="http://www.w3.org/2000/svg"
   xmlns="http://www.w3.org/2000/svg"
   xmlns:sodipodi="http://sodipodi.sourceforge.net/DTD/sodipodi-0.dtd"
   xmlns:inkscape="http://www.inkscape.org/namespaces/inkscape"
   width="1536"
   height="1536"
   viewBox="0 0 1536 1536"
   id="svg2"
   version="1.1"
   inkscape:version="0.91 r13725"
   sodipodi:docname="stonepath.svg"
   inkscape:export-filename="C:\Users\Michael\Desktop\GFX\stone_restore.png"
   inkscape:export-xdpi="90"
   inkscape:export-ydpi="90">
  <defs
     id="defs4">
    <filter
       style="color-interpolation-filters:sRGB"
       id="filter4180"
       inkscape:label="filter1">
      <feBlend
         mode="multiply"
         id="feBlend4182"
         in2="BackgroundImage" />
    </filter>
    <filter
       style="color-interpolation-filters:sRGB"
       id="filter4180-3"
       inkscape:label="filter1">
      <feBlend
         mode="multiply"
         id="feBlend4182-9"
         in2="BackgroundImage" />
    </filter>
  </defs>
  <sodipodi:namedview
     id="base"
     pagecolor="#ffffff"
     bordercolor="#666666"
     borderopacity="1.0"
     inkscape:pageopacity="0.0"
     inkscape:pageshadow="2"
     inkscape:zoom="0.95037792"
     inkscape:cx="556.06988"
     inkscape:cy="876.51162"
     inkscape:document-units="px"
     inkscape:current-layer="layer1"
     showgrid="true"
     inkscape:snap-bbox="true"
     inkscape:snap-intersection-paths="true"
     inkscape:object-paths="true"
     inkscape:object-nodes="true"
     inkscape:snap-smooth-nodes="true"
     inkscape:snap-global="true"
     inkscape:window-width="1680"
     inkscape:window-height="937"
     inkscape:window-x="-4"
     inkscape:window-y="-4"
     inkscape:window-maximized="1"
     units="px"
     showborder="true"
     inkscape:showpageshadow="false"
     inkscape:snap-grids="true"
     gridtolerance="10">
    <inkscape:grid
       type="xygrid"
       id="grid4264"
       spacingx="512"
       spacingy="512"
       empspacing="1"
       snapvisiblegridlinesonly="true" />
  </sodipodi:namedview>
  <metadata
     id="metadata7">
    <rdf:RDF>
      <cc:Work
         rdf:about="">
        <dc:format>image/svg+xml</dc:format>
        <dc:type
           rdf:resource="http://purl.org/dc/dcmitype/StillImage" />
        <dc:title></dc:title>
      </cc:Work>
    </rdf:RDF>
  </metadata>
  <g
     inkscape:groupmode="layer"
     id="layer3"
     inkscape:label="BG"
     transform="translate(0,483.63784)"
     style="display:inline">
    <path
       style="display:inline;fill:#67615f;fill-opacity:1;fill-rule:evenodd;stroke:none;stroke-width:0;stroke-linecap:butt;stroke-linejoin:miter;stroke-opacity:1"
       d="m 0,-483.63784 1536,0 0,1536.00004 -1536,0 z"
       id="path5842"
       inkscape:connector-curvature="0"
       sodipodi:nodetypes="ccccc" />
  </g>
  <g
     inkscape:groupmode="layer"
     id="layer1"
     inkscape:label="Center"
     style="display:inline">
    <path
       inkscape:connector-curvature="0"
       style="display:inline;fill:#000000;fill-opacity:0.18431373;fill-rule:evenodd;stroke:none;stroke-width:1px;stroke-linecap:butt;stroke-linejoin:miter;stroke-opacity:1;filter:url(#filter4180-3)"
       d="m 811.85352,626.94727 11.22265,47.63085 96.91992,12.32227 46.19922,-34.07422 52.74609,-8.66406 -207.08788,-17.21484 z m -1.66016,50.40234 -224.0625,38.17383 43.32812,71.36718 87.69727,-45.20312 12.90234,-3.04688 19.42969,-4.15429 20.85547,-10.60547 39.84961,-46.53125 z m 66.14844,11.5957 -81.88868,132.63477 163.33985,7.08789 19.04492,-7.70899 -53.11328,-74.21484 -5.0918,-50.20117 -42.29101,-7.59766 z m 208.5566,23.11524 -33.6406,116.41406 -33.7656,30.74219 23.2695,3.70117 56.2539,-1.16797 39.6856,-57.82031 -51.8028,-91.86914 z m -348.79293,28.99609 -59.19336,24.9668 -41.93555,29.12304 -7.15625,29.94141 15.10938,60.59766 0.64648,3.51757 6.83594,50 28.10742,4.72266 14.58789,-0.65625 75.83594,-45.17187 12.48633,-69.58985 -45.32422,-87.45117 z m 240.33008,90.16406 -178.42188,186.3457 134.22852,-44.93749 89.75981,-16.61133 -1.3243,-78.98047 -44.24215,-45.81641 z m -429.54688,60.18946 -29.67969,46.28906 11.19727,10.70508 106.68945,-4.17969 9.66797,-7.24805 -97.875,-45.5664 z m 221.68555,14.88672 -78.14063,222.08012 64.95508,-4.8008 15.08985,-14.7285 -2.85938,-115.40239 0.95508,-87.14843 z m 254.03318,137.82812 -235.30467,74.9727 18.26954,7.8125 121.14453,-35.543 16.81054,-16.1817 70.70506,-16.4589 8.375,-14.6016 z m -347.74021,51.3965 -161.11133,63.6973 30.75,26.1289 16.05859,10.0996 90.22461,-63.2969 24.07813,-36.6289 z"
       id="path4256" />
    <path
       inkscape:connector-curvature="0"
       style="display:inline;fill:#6e6c6c;fill-opacity:1;fill-rule:evenodd;stroke:none;stroke-width:0;stroke-linecap:butt;stroke-linejoin:miter;stroke-miterlimit:4;stroke-dasharray:none;stroke-opacity:1"
       d="m 1020.5586,542.43945 -44.49805,21.56836 -105.98243,44.27539 -58.18945,18.65821 12.20899,40.61523 98.17968,13.02734 46.36328,-35.98632 50.99028,-0.40235 z m -348.30079,68.83985 -9.1289,6.35351 -52.16407,37.20899 -44.79296,35.5332 19.9082,25.1582 42.71875,66.16211 90.95898,-47.53515 20.13672,-1.98047 20.89258,-8.84766 33.55664,-30.76953 15.96289,-15.14844 -5.25586,-49.46484 -32.84766,-6.5332 -73.00781,1.5957 z m 324.25,42.20117 -28.98633,4.40234 -38.46484,32.96875 4.93359,54.85547 83.50197,113.50977 72.9512,-2.69532 43.9453,-53.54101 -49.4903,-90.91992 -56.6445,-56.10547 z m -179.34375,28 -33.73437,39.60547 -38.45117,19.98047 2.44726,11.71875 9.2461,18.92187 37.78124,49.87305 163.75196,1.36133 12.54883,-7.36329 -53.87696,-70.23437 1.75586,-48.80078 -42.23242,-10.51758 -34.6875,-3.10742 z m -81.15234,58.56055 -59.58399,23.66992 -44.38476,29.8457 -5.35547,28.44141 15.86133,62.88867 7.80859,54.47461 37.73438,0.56445 74.21484,-49.99805 14.10547,-63.75 z m -117.10938,80.02343 -34.42382,38.45313 -58.25782,8.05078 -13.20508,7.03711 4.19336,64.09375 11.19727,10.70508 89.84961,-8.16211 26.50781,-3.26563 -15.88281,-72.33008 z m 171.16602,11.02149 -10.02734,29.3164 -2.79493,140.65236 20.95118,17.6933 118.77929,-49.94917 98.68364,-18.6836 -2.0118,-74.83203 -36.11715,-44.16015 z m -21.49414,75.21094 -74.79688,42.57031 -9.83007,28.04297 -0.99805,134.54294 7.48437,16.9239 63.70899,-10.7696 11.38672,-14.3496 -1.9668,-111.10546 z m -179.07031,40.98632 -56.38086,6.01368 -13.51563,33.49218 0.38477,91.93554 -6.33789,80.6621 40.92187,29.1055 88.34766,-60.7734 31.94336,-32.1973 -3.58399,-142.57228 z m 432.37699,15.62696 -69.66801,11.95703 -164.5625,56.96291 -13.08594,30.0176 12.73828,57.25 19.01368,5.75 111.32031,-36.7637 22,-16.9004 74.86918,-17.6719 8.3554,-9.0058 z"
       id="path4234-7"
       sodipodi:nodetypes="cccccccccccccccccccccccccccccccccccccccccccccccccccccccccccccccccccccccccccccccccccccccccccccccccccccccccc"
       inkscape:label="#dark_-20" />
    <path
       inkscape:connector-curvature="0"
       style="display:inline;opacity:1;fill:#7b7878;fill-opacity:1;fill-rule:evenodd;stroke:none;stroke-width:0;stroke-linecap:butt;stroke-linejoin:miter;stroke-miterlimit:4;stroke-dasharray:none;stroke-opacity:1"
       d="m 1014.0312,552.11914 -37.19917,19.16406 -102.2207,38.42188 -54.1543,17.15039 9.92188,36.27539 98.45507,9.2168 44.85547,-37.11133 45.51175,6.01953 z m -340.21089,67.56055 -10.98242,5.07812 -49.13477,33.75391 -38.47265,33.94922 17.3418,20.93554 38.37109,62.77344 89.61523,-48.56445 17.40821,-0.20313 18.94922,-9.93359 43.28125,-39.94531 1.44726,-44.85156 -35.26562,-2.88477 -67.98243,-2.13477 z m 320.79102,45.26367 -26.18555,4.59766 -29.87695,26.50586 6.45703,49.86328 79.70504,100.60351 62.1582,-1.10937 35.8418,-43.43946 -54.4902,-84.5039 -50.2637,-51.13867 z m -169.92383,28.23828 -34.98438,32.83984 -33.49023,17.84375 1.90234,15.07422 13.43555,12.45508 25.7207,40.38867 147.58204,-2.35937 -36.01758,-66.86328 3.88281,-42.18164 -40.72461,-6.10743 z m -91.38867,55.11524 -43.50781,15.51953 -48.97461,32.31836 -7.22657,27.88476 15.64649,58.29297 5.40039,49.36719 32.8164,-1.6836 68.09961,-48.98437 13.74415,-53.63086 z m -117.17188,78.50585 -31.58203,37.33204 -55.31445,5.59179 -7.62891,7.68164 2.32422,58.81446 16.92578,3.01953 85.5,-3.71289 9.19727,-1.51172 -17.76172,-64.19336 z m 184.39453,13.06055 -7.61523,23.75391 -4.52148,131.78125 22.86523,10.22266 103.06055,-47.44141 88.33785,-20.72071 -7.56637,-73.23437 -24.62695,-22.37695 z m -34.47656,76.69336 -66.14062,44.97656 -8.16992,17.38477 -4.80665,127.12503 8.16993,9.7793 58.09375,-8.3731 7.68945,-16.2988 -3.95117,-109.57618 z m -162.02148,40.91211 -62.04688,5.82422 -15.40429,31.34961 1.27929,88.65042 -7.46484,69.1758 36.17773,22.4433 81.41602,-64.0293 28.81641,-19.123 -0.69727,-129.95902 z m 407.72456,17.89648 -58.3398,8.85938 -158.71875,49.43359 -5.66601,27.4805 8.03515,52.2636 19.43946,0.8497 94.9375,-31.4668 22.36328,-15.754 77.77737,-20.5566 z"
       id="path4240-1"
       sodipodi:nodetypes="cccccccccccccccccccccccccccccccccccccccccccccccccccccccccccccccccccccccccccccccccccccccccccccccccccccc"
       inkscape:label="#front" />
    <path
       style="fill:#8f8c8c;fill-opacity:1;fill-rule:evenodd;stroke:none;stroke-width:1px;stroke-linecap:butt;stroke-linejoin:miter;stroke-opacity:1"
       d="m 1008.0078,565.75195 -30.02342,8.05664 -38.5,17.77539 -109.77735,41.17774 18.68555,-2.16406 18.76758,14.66601 7.8457,-20.27344 4.69336,30.98243 17.7793,-41.72461 36.44726,-10.75977 51.55274,-12.56055 15.59178,25.17774 z m -275.58592,71.41211 -69.67969,8.18164 -69.39844,43.6875 47.18359,-7.4082 -5.93359,44.90234 31.56055,-37.07031 66.8789,-39.14844 38.17188,-3.01757 22.66406,28.27734 -11.97852,-34.95703 z m 249.38476,45.21485 -18.08594,10.07226 -9.12304,26.08203 68.05274,103.78516 -41.07423,-98.13672 9.52735,5.60938 36.05468,43.80664 15.8574,19.33789 -54.74216,-85.91602 -10.16797,-12.51172 59.36723,3.00977 z m -157.39453,19.18554 -45.28906,51.06641 26.92578,50.26367 -8.89844,-48.49023 20.23633,-21.10938 34.25976,33.80469 -20.05468,-56.49805 27.50976,-2.31445 33.57813,36.79492 -24.38672,-37.99805 6.28125,-4.03906 c -3.03262,-0.24668 -50.16211,-1.48047 -50.16211,-1.48047 z m -95.36719,57.83985 -35.89062,19.97461 -43.81055,19.3789 -7.73633,23.26758 22.6582,97.36719 -4.32812,-89.59961 5.14844,-14.18945 7.65039,-7.02149 10.22265,11.41211 -1.7207,-17.17969 17.4375,-15.48437 z m 205.05078,87.6289 -62.77539,11.2461 -45.65429,20.88281 -15.2168,16.0625 -11.41406,73.89453 38.04492,-69.07422 34.24023,-24.0957 3.80469,35.33984 20.92578,-35.33984 z m -325.03906,-2.29101 -19.75781,23.82422 -30,2.6289 -24.61524,3.30664 -0.91015,18.54688 8.36133,-12.75977 14.82812,2.03125 8.36328,25.79297 1.46875,-29.625 27.10938,-3.70508 z m 143.24024,93.55273 -33.58985,30.84375 -16.31445,19.97656 -5.4375,15.36527 19.73047,91.5175 -10.21485,-86.9062 12.23633,-23.05078 14.00781,69.51948 8.22071,-45.7089 z m -103.54493,26.73438 -45.27539,15.49414 -52.92578,-7.36328 -14.71289,24.87695 1.73242,103.43559 16.12305,-79.4122 9.43945,-14.8476 46.00196,-7.72071 8.04296,37.46291 17.5,-44.99612 14.75,53.70902 z m 359.20895,16.84961 -51.89254,22.30469 -10.00195,-12.79102 -141.04493,48.91602 12.67383,35.1211 3.00196,-27.1582 39.95507,-8.4844 4.02149,34.4453 25.97265,-45.5586 25.55079,-13.8418 58.80468,0.082 z"
       id="path4301"
       inkscape:connector-curvature="0"
       sodipodi:nodetypes="ccccccccccccccccccccccccccccccccccccccccccccccccccccccccccccccccccccccccccccccccccccccccccccccccccccccccccccccccccc"
       inkscape:label="#light" />
  </g>
</svg>
