<?xml version="1.0" encoding="UTF-8" standalone="no"?>
<!-- Created with Inkscape (http://www.inkscape.org/) -->

<svg
   xmlns:dc="http://purl.org/dc/elements/1.1/"
   xmlns:cc="http://creativecommons.org/ns#"
   xmlns:rdf="http://www.w3.org/1999/02/22-rdf-syntax-ns#"
   xmlns:svg="http://www.w3.org/2000/svg"
   xmlns="http://www.w3.org/2000/svg"
   xmlns:sodipodi="http://sodipodi.sourceforge.net/DTD/sodipodi-0.dtd"
   xmlns:inkscape="http://www.inkscape.org/namespaces/inkscape"
   width="1536"
   height="1536"
   viewBox="0 0 1536 1536"
   id="svg2"
   version="1.1"
   inkscape:version="0.91 r13725"
   sodipodi:docname="wood.svg"
   inkscape:export-filename="C:\Users\Michael\Desktop\GFX\stone_restore.png"
   inkscape:export-xdpi="90"
   inkscape:export-ydpi="90"
   enable-background="new">
  <defs
     id="defs4">
    <inkscape:perspective
       sodipodi:type="inkscape:persp3d"
       inkscape:vp_x="0 : 768 : 1"
       inkscape:vp_y="0 : 1000 : 0"
       inkscape:vp_z="1536 : 768 : 1"
       inkscape:persp3d-origin="768 : 512 : 1"
       id="perspective5076" />
    <clipPath
       clipPathUnits="userSpaceOnUse"
       id="clipPath26486">
      <rect
         rx="50.000019"
         ry="50.000015"
         y="481.89062"
         x="24.091404"
         height="336.00974"
         width="337.27936"
         id="rect26488"
         style="display:inline;opacity:1;fill:#000000;fill-opacity:1;fill-rule:evenodd;stroke:none;stroke-width:0;stroke-linecap:butt;stroke-linejoin:miter;stroke-miterlimit:4;stroke-dasharray:none;stroke-opacity:1" />
    </clipPath>
    <clipPath
       clipPathUnits="userSpaceOnUse"
       id="clipPath26600">
      <rect
         rx="50.000011"
         ry="50.000011"
         y="544.00006"
         x="544"
         height="448.00012"
         width="448.00012"
         id="rect26602"
         style="display:inline;opacity:1;fill:#b7975b;fill-opacity:1;fill-rule:nonzero;stroke:none;stroke-width:0;stroke-linecap:butt;stroke-linejoin:miter;stroke-miterlimit:4;stroke-dasharray:none;stroke-opacity:1" />
    </clipPath>
    <clipPath
       clipPathUnits="userSpaceOnUse"
       id="clipPath5016-9">
      <path
         inkscape:connector-curvature="0"
         style="display:inline;opacity:1;fill:#c27b65;fill-opacity:1;fill-rule:nonzero;stroke:none;stroke-width:0;stroke-linecap:butt;stroke-linejoin:miter;stroke-miterlimit:4;stroke-dasharray:none;stroke-opacity:1"
         d="m -1669.7648,-115.91059 0,-512.00018 -30.6133,30.6133 c 9.0375,9.0375 14.6133,21.5367 14.6133,35.3867 l 0,380.00014 c 0,13.85003 -5.5758,26.34926 -14.6133,35.38676 l 30.6133,30.61328 z m -512.0001,0 30.6133,-30.61328 c -9.0375,-9.0375 -14.6133,-21.53673 -14.6133,-35.38676 l 0,-380.00014 c 0,-13.85 5.5758,-26.3492 14.6133,-35.3867 l -30.6133,-30.6133 0,512.00018 z"
         id="path5018-9" />
    </clipPath>
    <clipPath
       clipPathUnits="userSpaceOnUse"
       id="clipPath5069-1">
      <path
         inkscape:connector-curvature="0"
         style="display:inline;opacity:1;fill:#c27b65;fill-opacity:1;fill-rule:nonzero;stroke:none;stroke-width:0;stroke-linecap:butt;stroke-linejoin:miter;stroke-miterlimit:4;stroke-dasharray:none;stroke-opacity:1"
         d="m 768.00033,1792 0,512.0002 30.6133,-30.6133 c -9.0375,-9.0375 -14.6133,-21.5367 -14.6133,-35.3867 l 0,-380.0001 c 0,-13.85 5.5758,-26.3493 14.6133,-35.3868 L 768.00033,1792 Z m 512.00017,0 -30.6133,30.6133 c 9.0375,9.0375 14.6133,21.5368 14.6133,35.3868 l 0,380.0001 c 0,13.85 -5.5758,26.3492 -14.6133,35.3867 l 30.6133,30.6133 0,-512.0002 z"
         id="path5071-9" />
    </clipPath>
    <filter
       style="color-interpolation-filters:sRGB"
       id="filter4758"
       inkscape:label="filter2">
      <feBlend
         mode="screen"
         id="feBlend4760"
         in2="BackgroundImage" />
    </filter>
    <filter
       style="color-interpolation-filters:sRGB"
       id="filter4623-5-4-3-1"
       inkscape:label="filter1">
      <feBlend
         mode="multiply"
         id="feBlend4625-1-9-5-7"
         in2="BackgroundImage" />
    </filter>
  </defs>
  <sodipodi:namedview
     id="base"
     pagecolor="#ffffff"
     bordercolor="#666666"
     borderopacity="1.0"
     inkscape:pageopacity="0.0"
     inkscape:pageshadow="2"
     inkscape:zoom="0.70710678"
     inkscape:cx="746.50949"
     inkscape:cy="769.2505"
     inkscape:document-units="px"
     inkscape:current-layer="layer1"
     showgrid="false"
     inkscape:snap-bbox="true"
     inkscape:snap-intersection-paths="true"
     inkscape:object-paths="true"
     inkscape:object-nodes="true"
     inkscape:snap-smooth-nodes="true"
     inkscape:snap-global="true"
     inkscape:window-width="1680"
     inkscape:window-height="937"
     inkscape:window-x="-4"
     inkscape:window-y="-4"
     inkscape:window-maximized="1"
     units="px"
     showborder="true"
     inkscape:showpageshadow="false"
     inkscape:snap-grids="true"
     gridtolerance="10"
     showguides="false"
     inkscape:guide-bbox="true">
    <inkscape:grid
       type="xygrid"
       id="grid4264"
       spacingx="512"
       spacingy="512"
       empspacing="1"
       snapvisiblegridlinesonly="true" />
    <sodipodi:guide
       position="768.00634,1566.8271"
       orientation="1,0"
       id="guide4438" />
    <sodipodi:guide
       position="1536,1705.5416"
       orientation="0,1"
       id="guide4432" />
  </sodipodi:namedview>
  <metadata
     id="metadata7">
    <rdf:RDF>
      <cc:Work
         rdf:about="">
        <dc:format>image/svg+xml</dc:format>
        <dc:type
           rdf:resource="http://purl.org/dc/dcmitype/StillImage" />
        <dc:title />
      </cc:Work>
    </rdf:RDF>
  </metadata>
  <g
     inkscape:groupmode="layer"
     id="layer1"
     inkscape:label="BG"
     style="display:inline">
    <path
       style="opacity:1;fill:#b36254;fill-opacity:1;fill-rule:evenodd;stroke:none;stroke-width:2;stroke-linejoin:round;stroke-miterlimit:4;stroke-dasharray:none;stroke-opacity:1"
       d="m 0,0 1536,0 0,1536 -1536,0 z"
       id="rect4436"
       inkscape:connector-curvature="0" />
  </g>
  <g
     inkscape:groupmode="layer"
     id="layer2"
     inkscape:label="Fixed"
     style="display:inline">
    <path
       style="fill:#000000;fill-opacity:0.19607843;fill-rule:evenodd;stroke:none;stroke-width:1px;stroke-linecap:butt;stroke-linejoin:miter;stroke-opacity:1;filter:url(#filter4623-5-4-3-1)"
       d="m 512,1011.9792 0,12.0208 512,0 0,-12.0208 z"
       id="path4495"
       inkscape:connector-curvature="0" />
    <path
       style="fill:#ffffff;fill-opacity:0.12941176;fill-rule:evenodd;stroke:none;stroke-width:1px;stroke-linecap:butt;stroke-linejoin:miter;stroke-opacity:1;filter:url(#filter4758)"
       d="M 512,781.09205 512,768 l 512,0 0,13.09205 z"
       id="path4529"
       inkscape:connector-curvature="0" />
    <path
       style="fill:#ffffff;fill-opacity:0.12941176;fill-rule:evenodd;stroke:none;stroke-width:1px;stroke-linecap:butt;stroke-linejoin:miter;stroke-opacity:1;filter:url(#filter4758)"
       d="M 512,526.55642 512,512 l 512,0 0,14.55642 z"
       id="path4531"
       inkscape:connector-curvature="0" />
    <path
       style="fill:#000000;fill-opacity:0.19607843;fill-rule:evenodd;stroke:none;stroke-width:1px;stroke-linecap:butt;stroke-linejoin:miter;stroke-opacity:1;"
       d="m 512,757.4436 0,10.5564 512,0 0,-10.5564 z"
       id="path4527"
       inkscape:connector-curvature="0" />
    <path
       style="display:inline;opacity:1;fill:#b36254;fill-opacity:0.17040358;fill-rule:evenodd;stroke:none;stroke-width:1px;stroke-linecap:butt;stroke-linejoin:miter;stroke-opacity:1;filter:url(#filter4623-5-4-3-1)"
       d="M 494.97461 537.56445 L 465.27539 645.04492 L 512 768 L 1024 768 L 1129.957 698.78516 L 1043.6895 540.39453 L 1024 543 L 982.87891 564.43555 L 994.19141 594.13477 L 1024 566 L 1024 636 L 1008.334 710.09961 L 893.7832 742.62695 L 794.78711 724.24219 L 746.70508 650.70312 L 738.21875 694.54297 L 643.4668 732.72656 L 541.64453 712.92773 L 512 636 L 497.80273 605.44727 L 504.875 570.0918 L 512 566 L 528.91602 558.7793 L 636.39648 574.33398 L 512 543 L 494.97461 537.56445 z M 1032.375 785.05273 L 1024 798 L 1013.9902 813.33789 L 931.9668 818.99414 L 1024 831 L 1011.1621 951.92969 L 923.48242 985.87109 L 868.32617 971.72852 L 814.58789 913.74609 L 840.04297 961.83008 L 700.03516 990.11328 L 516.1875 957.58594 L 512 831 L 521.8457 807.67969 L 646.29492 816.16602 L 512 798 L 502.04492 794.95117 L 452.54883 1104.6641 L 793.36914 1039.5312 L 850.05664 987.64648 L 920.38867 1007.377 L 954.1543 1050.7383 L 1094.6016 1072.1387 L 1032.375 785.05273 z "
       id="path4553"
       inkscape:label="#front" />
  </g>
  <g
     inkscape:groupmode="layer"
     id="layer6"
     inkscape:label="Fixed_Border 1"
     style="display:none">
    <path
       style="display:inline;opacity:1;fill:#000000;fill-opacity:0.04234529;fill-rule:evenodd;stroke:none;stroke-width:1px;stroke-linecap:butt;stroke-linejoin:miter;stroke-opacity:1;filter:url(#filter4623-5-4-3-1)"
       d="m 552,512 0,512 31,0 0,-512 -31,0 z m 401,0 0,512 35,0 0,-512 -35,0 z"
       id="path4401-8-6"
       inkscape:connector-curvature="0" />
  </g>
  <g
     inkscape:groupmode="layer"
     id="layer5"
     inkscape:label="Fixed_Border"
     style="display:none">
    <path
       style="display:inline;fill:#b36254;fill-opacity:1;fill-rule:evenodd;stroke:none;stroke-width:1px;stroke-linecap:butt;stroke-linejoin:miter;stroke-opacity:1"
       d="m 512,512 0,512 58,0 0,-512 -58,0 z m 454,0 0,512 58,0 0,-512 -58,0 z"
       id="path4384"
       inkscape:label="#front"
       inkscape:connector-curvature="0" />
  </g>
  <g
     inkscape:groupmode="layer"
     id="layer7"
     inkscape:label="Fixed_Border 2"
     style="display:none">
    <path
       style="display:inline;fill:#000000;fill-opacity:0.12703582;fill-rule:evenodd;stroke:none;stroke-width:1px;stroke-linecap:butt;stroke-linejoin:miter;stroke-opacity:1;filter:url(#filter4623-5-4-3-1)"
       d="m 512,512 0,512 13,0 0,-512 -13,0 z"
       id="path5176"
       inkscape:connector-curvature="0" />
    <path
       style="display:inline;fill:#000000;fill-opacity:0.14657982;fill-rule:evenodd;stroke:none;stroke-width:1px;stroke-linecap:butt;stroke-linejoin:miter;stroke-opacity:1;filter:url(#filter4623-5-4-3-1)"
       d="m 557,512 0,512 13,0 0,-512 -13,0 z"
       id="path5174"
       inkscape:connector-curvature="0" />
    <path
       style="display:inline;fill:#000000;fill-opacity:0.14657982;fill-rule:evenodd;stroke:none;stroke-width:1px;stroke-linecap:butt;stroke-linejoin:miter;stroke-opacity:1;filter:url(#filter4623-5-4-3-1)"
       d="m 966,512 0,512 13,0 0,-512 -13,0 z"
       id="path5172"
       inkscape:connector-curvature="0" />
    <path
       style="display:inline;fill:#000000;fill-opacity:0.12703582;fill-rule:evenodd;stroke:none;stroke-width:1px;stroke-linecap:butt;stroke-linejoin:miter;stroke-opacity:1;filter:url(#filter4623-5-4-3-1)"
       d="m 1011,512 0,512 13,0 0,-512 -13,0 z"
       id="path4401"
       inkscape:connector-curvature="0" />
  </g>
</svg>
