<?xml version="1.0" encoding="UTF-8" standalone="no"?>
<!-- Created with Inkscape (http://www.inkscape.org/) -->

<svg
   xmlns:dc="http://purl.org/dc/elements/1.1/"
   xmlns:cc="http://creativecommons.org/ns#"
   xmlns:rdf="http://www.w3.org/1999/02/22-rdf-syntax-ns#"
   xmlns:svg="http://www.w3.org/2000/svg"
   xmlns="http://www.w3.org/2000/svg"
   xmlns:sodipodi="http://sodipodi.sourceforge.net/DTD/sodipodi-0.dtd"
   xmlns:inkscape="http://www.inkscape.org/namespaces/inkscape"
   width="1536"
   height="1536"
   viewBox="0 0 1536 1536"
   id="svg2"
   version="1.1"
   inkscape:version="0.91 r13725"
   sodipodi:docname="wood_parquet_3.svg"
   inkscape:export-filename="C:\Users\Michael\Desktop\GFX\stone_restore.png"
   inkscape:export-xdpi="90"
   inkscape:export-ydpi="90"
   enable-background="new">
  <defs
     id="defs4">
    <inkscape:perspective
       sodipodi:type="inkscape:persp3d"
       inkscape:vp_x="0 : 768 : 1"
       inkscape:vp_y="0 : 1000 : 0"
       inkscape:vp_z="1536 : 768 : 1"
       inkscape:persp3d-origin="768 : 512 : 1"
       id="perspective5076" />
    <clipPath
       clipPathUnits="userSpaceOnUse"
       id="clipPath26486">
      <rect
         rx="50.000019"
         ry="50.000015"
         y="481.89062"
         x="24.091404"
         height="336.00974"
         width="337.27936"
         id="rect26488"
         style="display:inline;opacity:1;fill:#000000;fill-opacity:1;fill-rule:evenodd;stroke:none;stroke-width:0;stroke-linecap:butt;stroke-linejoin:miter;stroke-miterlimit:4;stroke-dasharray:none;stroke-opacity:1" />
    </clipPath>
    <clipPath
       clipPathUnits="userSpaceOnUse"
       id="clipPath26600">
      <rect
         rx="50.000011"
         ry="50.000011"
         y="544.00006"
         x="544"
         height="448.00012"
         width="448.00012"
         id="rect26602"
         style="display:inline;opacity:1;fill:#b7975b;fill-opacity:1;fill-rule:nonzero;stroke:none;stroke-width:0;stroke-linecap:butt;stroke-linejoin:miter;stroke-miterlimit:4;stroke-dasharray:none;stroke-opacity:1" />
    </clipPath>
    <clipPath
       clipPathUnits="userSpaceOnUse"
       id="clipPath5016-9">
      <path
         inkscape:connector-curvature="0"
         style="display:inline;opacity:1;fill:#c27b65;fill-opacity:1;fill-rule:nonzero;stroke:none;stroke-width:0;stroke-linecap:butt;stroke-linejoin:miter;stroke-miterlimit:4;stroke-dasharray:none;stroke-opacity:1"
         d="m -1669.7648,-115.91059 0,-512.00018 -30.6133,30.6133 c 9.0375,9.0375 14.6133,21.5367 14.6133,35.3867 l 0,380.00014 c 0,13.85003 -5.5758,26.34926 -14.6133,35.38676 l 30.6133,30.61328 z m -512.0001,0 30.6133,-30.61328 c -9.0375,-9.0375 -14.6133,-21.53673 -14.6133,-35.38676 l 0,-380.00014 c 0,-13.85 5.5758,-26.3492 14.6133,-35.3867 l -30.6133,-30.6133 0,512.00018 z"
         id="path5018-9" />
    </clipPath>
    <clipPath
       clipPathUnits="userSpaceOnUse"
       id="clipPath5069-1">
      <path
         inkscape:connector-curvature="0"
         style="display:inline;opacity:1;fill:#c27b65;fill-opacity:1;fill-rule:nonzero;stroke:none;stroke-width:0;stroke-linecap:butt;stroke-linejoin:miter;stroke-miterlimit:4;stroke-dasharray:none;stroke-opacity:1"
         d="m 768.00033,1792 0,512.0002 30.6133,-30.6133 c -9.0375,-9.0375 -14.6133,-21.5367 -14.6133,-35.3867 l 0,-380.0001 c 0,-13.85 5.5758,-26.3493 14.6133,-35.3868 L 768.00033,1792 Z m 512.00017,0 -30.6133,30.6133 c 9.0375,9.0375 14.6133,21.5368 14.6133,35.3868 l 0,380.0001 c 0,13.85 -5.5758,26.3492 -14.6133,35.3867 l 30.6133,30.6133 0,-512.0002 z"
         id="path5071-9" />
    </clipPath>
    <clipPath
       clipPathUnits="userSpaceOnUse"
       id="clipPath26486-8">
      <rect
         rx="50.000019"
         ry="50.000015"
         y="481.89062"
         x="24.091404"
         height="336.00974"
         width="337.27936"
         id="rect26488-3"
         style="display:inline;opacity:1;fill:#000000;fill-opacity:1;fill-rule:evenodd;stroke:none;stroke-width:0;stroke-linecap:butt;stroke-linejoin:miter;stroke-miterlimit:4;stroke-dasharray:none;stroke-opacity:1" />
    </clipPath>
    <clipPath
       clipPathUnits="userSpaceOnUse"
       id="clipPath26600-2">
      <rect
         rx="50.000011"
         ry="50.000011"
         y="544.00006"
         x="544"
         height="448.00012"
         width="448.00012"
         id="rect26602-8"
         style="display:inline;opacity:1;fill:#b7975b;fill-opacity:1;fill-rule:nonzero;stroke:none;stroke-width:0;stroke-linecap:butt;stroke-linejoin:miter;stroke-miterlimit:4;stroke-dasharray:none;stroke-opacity:1" />
    </clipPath>
    <clipPath
       clipPathUnits="userSpaceOnUse"
       id="clipPath4949-9">
      <path
         inkscape:connector-curvature="0"
         style="display:inline;opacity:1;fill:#dbab70;fill-opacity:1;fill-rule:nonzero;stroke:none;stroke-width:0;stroke-linecap:butt;stroke-linejoin:miter;stroke-miterlimit:4;stroke-dasharray:none;stroke-opacity:1"
         d="m 2816.0001,1792.0002 0,-512.0001 -30.6133,30.6133 c 9.0375,9.0375 14.6133,21.5367 14.6133,35.3867 l 0,380 c 0,13.8501 -5.5758,26.3493 -14.6133,35.3868 l 30.6133,30.6133 z m -512.0001,0 30.6133,-30.6133 C 2325.5758,1752.3494 2320,1739.8502 2320,1726.0001 l 0,-380 c 0,-13.85 5.5758,-26.3492 14.6133,-35.3867 L 2304,1280.0001 l 0,512.0001 z"
         id="path4951-6" />
    </clipPath>
    <clipPath
       clipPathUnits="userSpaceOnUse"
       id="clipPath5004-4">
      <path
         inkscape:connector-curvature="0"
         style="display:inline;opacity:1;fill:#dbab70;fill-opacity:1;fill-rule:nonzero;stroke:none;stroke-width:0;stroke-linecap:butt;stroke-linejoin:miter;stroke-miterlimit:4;stroke-dasharray:none;stroke-opacity:1"
         d="m -256.00009,3328.0002 0,-512.0001 -30.61329,30.6133 c 9.03751,9.0375 14.61329,21.5367 14.61329,35.3867 l 0,380.0001 c 0,13.85 -5.57578,26.3492 -14.61329,35.3867 l 30.61329,30.6133 z m -512.00007,0 30.6132,-30.6133 c -9.0374,-9.0375 -14.6132,-21.5367 -14.6132,-35.3867 l 0,-380.0001 c 0,-13.85 5.5758,-26.3492 14.6132,-35.3867 l -30.6132,-30.6133 0,512.0001 z"
         id="path5006-5" />
    </clipPath>
    <clipPath
       clipPathUnits="userSpaceOnUse"
       id="clipPath26486-89">
      <rect
         rx="50.000019"
         ry="50.000015"
         y="481.89062"
         x="24.091404"
         height="336.00974"
         width="337.27936"
         id="rect26488-8"
         style="display:inline;opacity:1;fill:#000000;fill-opacity:1;fill-rule:evenodd;stroke:none;stroke-width:0;stroke-linecap:butt;stroke-linejoin:miter;stroke-miterlimit:4;stroke-dasharray:none;stroke-opacity:1" />
    </clipPath>
    <clipPath
       clipPathUnits="userSpaceOnUse"
       id="clipPath26600-3">
      <rect
         rx="50.000011"
         ry="50.000011"
         y="544.00006"
         x="544"
         height="448.00012"
         width="448.00012"
         id="rect26602-3"
         style="display:inline;opacity:1;fill:#b7975b;fill-opacity:1;fill-rule:nonzero;stroke:none;stroke-width:0;stroke-linecap:butt;stroke-linejoin:miter;stroke-miterlimit:4;stroke-dasharray:none;stroke-opacity:1" />
    </clipPath>
    <clipPath
       clipPathUnits="userSpaceOnUse"
       id="clipPath4940-4">
      <path
         inkscape:connector-curvature="0"
         style="display:inline;opacity:1;fill:#e8af3e;fill-opacity:1;fill-rule:nonzero;stroke:none;stroke-width:0;stroke-linecap:butt;stroke-linejoin:miter;stroke-miterlimit:4;stroke-dasharray:none;stroke-opacity:1"
         d="m -1160,2104.0001 0,-512.0001 -30.6133,30.6133 c 9.0375,9.0375 14.6133,21.5367 14.6133,35.3867 l 0,380 c 0,13.8501 -5.5758,26.3493 -14.6133,35.3868 l 30.6133,30.6133 z m -512.0001,0 30.6133,-30.6133 c -9.0375,-9.0375 -14.6133,-21.5367 -14.6133,-35.3868 l 0,-380 c 0,-13.85 5.5758,-26.3492 14.6133,-35.3867 l -30.6133,-30.6133 0,512.0001 z"
         id="path4942-6" />
    </clipPath>
    <clipPath
       clipPathUnits="userSpaceOnUse"
       id="clipPath4995-9">
      <path
         inkscape:connector-curvature="0"
         style="display:inline;opacity:1;fill:#e8af3e;fill-opacity:1;fill-rule:nonzero;stroke:none;stroke-width:0;stroke-linecap:butt;stroke-linejoin:miter;stroke-miterlimit:4;stroke-dasharray:none;stroke-opacity:1"
         d="m 2355.0292,1634.0002 0,-512.0001 -30.6132,30.6133 c 9.0375,9.0375 14.6132,21.5367 14.6132,35.3867 l 0,380 c 0,13.8501 -5.5757,26.3493 -14.6132,35.3868 l 30.6132,30.6133 z m -512.0001,0 30.6133,-30.6133 c -9.0375,-9.0375 -14.6133,-21.5367 -14.6133,-35.3868 l 0,-380 c 0,-13.85 5.5758,-26.3492 14.6133,-35.3867 l -30.6133,-30.6133 0,512.0001 z"
         id="path4997-8" />
    </clipPath>
    <clipPath
       clipPathUnits="userSpaceOnUse"
       id="clipPath26486-5">
      <rect
         rx="50.000019"
         ry="50.000015"
         y="481.89062"
         x="24.091404"
         height="336.00974"
         width="337.27936"
         id="rect26488-7"
         style="display:inline;opacity:1;fill:#000000;fill-opacity:1;fill-rule:evenodd;stroke:none;stroke-width:0;stroke-linecap:butt;stroke-linejoin:miter;stroke-miterlimit:4;stroke-dasharray:none;stroke-opacity:1" />
    </clipPath>
    <clipPath
       clipPathUnits="userSpaceOnUse"
       id="clipPath26600-4">
      <rect
         rx="50.000011"
         ry="50.000011"
         y="544.00006"
         x="544"
         height="448.00012"
         width="448.00012"
         id="rect26602-1"
         style="display:inline;opacity:1;fill:#b7975b;fill-opacity:1;fill-rule:nonzero;stroke:none;stroke-width:0;stroke-linecap:butt;stroke-linejoin:miter;stroke-miterlimit:4;stroke-dasharray:none;stroke-opacity:1" />
    </clipPath>
    <clipPath
       clipPathUnits="userSpaceOnUse"
       id="clipPath4940-6">
      <path
         inkscape:connector-curvature="0"
         style="display:inline;opacity:1;fill:#724132;fill-opacity:1;fill-rule:nonzero;stroke:none;stroke-width:0;stroke-linecap:butt;stroke-linejoin:miter;stroke-miterlimit:4;stroke-dasharray:none;stroke-opacity:1"
         d="m 1536,-255.9999 -512.0001,0 30.6133,30.61329 c 9.0375,-9.03751 21.5367,-14.61329 35.3867,-14.61329 l 380.0001,0 c 13.85,0 26.3492,5.57578 35.3867,14.61329 L 1536,-255.9999 Z m 0,512.0001 -30.6133,-30.61328 C 1496.3492,234.4244 1483.85,240.0002 1470,240.0002 l -380.0001,0 c -13.85,0 -26.3492,-5.5758 -35.3867,-14.61328 l -30.6133,30.61328 512.0001,0 z"
         id="path4942-1" />
    </clipPath>
    <clipPath
       clipPathUnits="userSpaceOnUse"
       id="clipPath4995-5">
      <path
         inkscape:connector-curvature="0"
         style="display:inline;opacity:1;fill:#724132;fill-opacity:1;fill-rule:nonzero;stroke:none;stroke-width:0;stroke-linecap:butt;stroke-linejoin:miter;stroke-miterlimit:4;stroke-dasharray:none;stroke-opacity:1"
         d="m 1280.0002,-2560.0002 -512.00014,0 30.6133,30.6133 c 9.0375,-9.0375 21.5367,-14.6133 35.3867,-14.6133 l 380.00004,0 c 13.8501,0 26.3493,5.5758 35.3868,14.6133 l 30.6133,-30.6133 z m 0,512.0001 -30.6133,-30.6133 c -9.0375,9.0375 -21.5367,14.6133 -35.3868,14.6133 l -380.00004,0 c -13.85,0 -26.3492,-5.5758 -35.3867,-14.6133 l -30.6133,30.6133 512.00014,0 z"
         id="path4997-3" />
    </clipPath>
    <clipPath
       clipPathUnits="userSpaceOnUse"
       id="clipPath26486-9">
      <rect
         rx="50.000019"
         ry="50.000015"
         y="481.89062"
         x="24.091404"
         height="336.00974"
         width="337.27936"
         id="rect26488-9"
         style="display:inline;opacity:1;fill:#000000;fill-opacity:1;fill-rule:evenodd;stroke:none;stroke-width:0;stroke-linecap:butt;stroke-linejoin:miter;stroke-miterlimit:4;stroke-dasharray:none;stroke-opacity:1" />
    </clipPath>
    <clipPath
       clipPathUnits="userSpaceOnUse"
       id="clipPath26600-0">
      <rect
         rx="50.000011"
         ry="50.000011"
         y="544.00006"
         x="544"
         height="448.00012"
         width="448.00012"
         id="rect26602-0"
         style="display:inline;opacity:1;fill:#b7975b;fill-opacity:1;fill-rule:nonzero;stroke:none;stroke-width:0;stroke-linecap:butt;stroke-linejoin:miter;stroke-miterlimit:4;stroke-dasharray:none;stroke-opacity:1" />
    </clipPath>
    <clipPath
       clipPathUnits="userSpaceOnUse"
       id="clipPath4928-2">
      <path
         inkscape:connector-curvature="0"
         style="display:inline;opacity:1;fill:#212121;fill-opacity:1;fill-rule:nonzero;stroke:none;stroke-width:0;stroke-linecap:butt;stroke-linejoin:miter;stroke-miterlimit:4;stroke-dasharray:none;stroke-opacity:1"
         d="m 511.99995,1611.3178 -512.00010241536,0 L 30.613148,1641.9311 c 9.0375,-9.0376 21.5367,-14.6133 35.3867,-14.6133 l 380.000082,0 c 13.85001,0 26.34924,5.5757 35.38674,14.6133 l 30.61328,-30.6133 z m 0,512.0001 -30.61328,-30.6133 c -9.0375,9.0375 -21.53673,14.6133 -35.38674,14.6133 l -380.000082,0 c -13.85,0 -26.3492,-5.5758 -35.3867,-14.6133 l -30.61330041536,30.6133 512.00010241536,0 z"
         id="path4930-8" />
    </clipPath>
    <clipPath
       clipPathUnits="userSpaceOnUse"
       id="clipPath4983-3">
      <path
         inkscape:connector-curvature="0"
         style="display:inline;opacity:1;fill:#212121;fill-opacity:1;fill-rule:nonzero;stroke:none;stroke-width:0;stroke-linecap:butt;stroke-linejoin:miter;stroke-miterlimit:4;stroke-dasharray:none;stroke-opacity:1"
         d="m 1962.2024,-1221.9353 -512.0001,0 30.6133,30.6133 c 9.0375,-9.0375 21.5367,-14.6133 35.3867,-14.6133 l 380.0001,0 c 13.85,0 26.3492,5.5758 35.3867,14.6133 l 30.6133,-30.6133 z m 0,512.00012 -30.6133,-30.6133 c -9.0375,9.0375 -21.5367,14.6133 -35.3867,14.6133 l -380.0001,0 c -13.85,0 -26.3492,-5.5758 -35.3867,-14.6133 l -30.6133,30.6133 512.0001,0 z"
         id="path4985-1" />
    </clipPath>
    <clipPath
       clipPathUnits="userSpaceOnUse"
       id="clipPath26486-57">
      <rect
         rx="50.000019"
         ry="50.000015"
         y="481.89062"
         x="24.091404"
         height="336.00974"
         width="337.27936"
         id="rect26488-80"
         style="display:inline;opacity:1;fill:#000000;fill-opacity:1;fill-rule:evenodd;stroke:none;stroke-width:0;stroke-linecap:butt;stroke-linejoin:miter;stroke-miterlimit:4;stroke-dasharray:none;stroke-opacity:1" />
    </clipPath>
    <clipPath
       clipPathUnits="userSpaceOnUse"
       id="clipPath26600-31">
      <rect
         rx="50.000011"
         ry="50.000011"
         y="544.00006"
         x="544"
         height="448.00012"
         width="448.00012"
         id="rect26602-17"
         style="display:inline;opacity:1;fill:#b7975b;fill-opacity:1;fill-rule:nonzero;stroke:none;stroke-width:0;stroke-linecap:butt;stroke-linejoin:miter;stroke-miterlimit:4;stroke-dasharray:none;stroke-opacity:1" />
    </clipPath>
    <clipPath
       clipPathUnits="userSpaceOnUse"
       id="clipPath26815-5-4">
      <path
         inkscape:connector-curvature="0"
         style="display:inline;opacity:1;fill:#b49664;fill-opacity:1;fill-rule:nonzero;stroke:none;stroke-width:0;stroke-linecap:butt;stroke-linejoin:miter;stroke-miterlimit:4;stroke-dasharray:none;stroke-opacity:1"
         d="m 511.99996,1.2974121e-4 -512.00003025879,0 L 30.61321,30.613419 c 9.0375,-9.03751 21.53672,-14.61329 35.38672,-14.61329 l 380.00002,0 c 13.85,0 26.34923,5.57578 35.38673,14.61329 L 511.99996,1.2974121e-4 Z m 0,512.00003025879 -30.61328,-30.61328 c -9.0375,9.03748 -21.53673,14.61328 -35.38673,14.61328 l -380.00002,0 c -13.85,0 -26.34922,-5.5758 -35.38672,-14.61328 l -30.61328025879,30.61328 512.00003025879,0 z"
         id="path26817-6-0" />
    </clipPath>
    <clipPath
       clipPathUnits="userSpaceOnUse"
       id="clipPath26796-3">
      <path
         style="display:inline;opacity:1;fill:#b49664;fill-opacity:1;fill-rule:nonzero;stroke:none;stroke-width:0;stroke-linecap:butt;stroke-linejoin:miter;stroke-miterlimit:4;stroke-dasharray:none;stroke-opacity:1"
         d="m 2.7701819e-5,1535.9999 -511.999997701819,0 30.61328,30.6133 c 9.0375,-9.0375 21.53672,-14.6133 35.38672,-14.6133 l 379.999998,0 c 13.849999,0 26.349219,5.5758 35.386719,14.6133 L 2.7701819e-5,1535.9999 Z m 0,512 L -30.613253,2017.3867 c -9.0375,9.0374 -21.53672,14.6132 -35.386719,14.6132 l -379.999998,0 c -13.85,0 -26.34922,-5.5758 -35.38672,-14.6132 l -30.61328,30.6132 511.999997701819,0 z"
         id="path26798-8"
         inkscape:connector-curvature="0" />
    </clipPath>
    <pattern
       y="0"
       x="0"
       height="6"
       width="6"
       patternUnits="userSpaceOnUse"
       id="EMFhbasepattern" />
    <filter
       style="color-interpolation-filters:sRGB"
       id="filter3779"
       inkscape:label="dark">
      <feBlend
         mode="multiply"
         id="feBlend3783"
         in2="BackgroundImage" />
    </filter>
    <filter
       style="color-interpolation-filters:sRGB"
       id="filter3781"
       inkscape:label="bright">
      <feBlend
         mode="screen"
         id="feBlend3785"
         in2="BackgroundImage" />
    </filter>
  </defs>
  <sodipodi:namedview
     id="base"
     pagecolor="#ffffff"
     bordercolor="#666666"
     borderopacity="1.0"
     inkscape:pageopacity="0.0"
     inkscape:pageshadow="2"
     inkscape:zoom="1.28"
     inkscape:cx="581.54681"
     inkscape:cy="836.56351"
     inkscape:document-units="px"
     inkscape:current-layer="layer2"
     showgrid="true"
     inkscape:snap-bbox="true"
     inkscape:snap-intersection-paths="true"
     inkscape:object-paths="true"
     inkscape:object-nodes="true"
     inkscape:snap-smooth-nodes="true"
     inkscape:snap-global="true"
     inkscape:window-width="1680"
     inkscape:window-height="937"
     inkscape:window-x="-4"
     inkscape:window-y="-4"
     inkscape:window-maximized="1"
     units="px"
     showborder="true"
     inkscape:showpageshadow="false"
     inkscape:snap-grids="true"
     gridtolerance="10"
     showguides="true"
     inkscape:guide-bbox="true">
    <inkscape:grid
       type="xygrid"
       id="grid4264"
       spacingx="512"
       spacingy="512"
       empspacing="1"
       snapvisiblegridlinesonly="true" />
    <sodipodi:guide
       position="768.00634,1566.8271"
       orientation="1,0"
       id="guide4438" />
    <sodipodi:guide
       position="-327.28125,768"
       orientation="0,1"
       id="guide4432" />
  </sodipodi:namedview>
  <metadata
     id="metadata7">
    <rdf:RDF>
      <cc:Work
         rdf:about="">
        <dc:format>image/svg+xml</dc:format>
        <dc:type
           rdf:resource="http://purl.org/dc/dcmitype/StillImage" />
        <dc:title />
      </cc:Work>
    </rdf:RDF>
  </metadata>
  <g
     inkscape:groupmode="layer"
     id="layer1"
     inkscape:label="BG"
     style="display:inline"
     sodipodi:insensitive="true">
    <path
       inkscape:connector-curvature="0"
       id="path3715"
       d="m 0,1536 1536,0 L 1536,0 0,0 Z"
       style="fill:#a2865a;fill-opacity:1;fill-rule:evenodd;stroke:none" />
  </g>
  <g
     inkscape:groupmode="layer"
     id="layer3"
     inkscape:label="Shade"
     style="display:inline;opacity:1">
    <path
       id="path4557-4-2"
       style="opacity:1;fill:#000000;fill-opacity:0.44705882;fill-rule:evenodd;stroke:none;stroke-width:1px;stroke-linecap:butt;stroke-linejoin:miter;stroke-opacity:1;filter:url(#filter3779)"
       d="m 511.99366,574.99995 23.20978,-23.31998 13.30966,24.48528 25.51776,-18.01794 108.25514,20.45378 -85.60496,-37.5721 -70.8366,0.97096 -13.85078,0 0,226 285.13868,0 50.08664,-36.3526 66.86192,19.7294 24.49482,16.6232 85.41798,0 0,-215.4474 0,-10.5526 -20.9297,15.33688 -36.16156,-10.59428 -41.8149,16.25112 42.82048,-3.28816 14.72424,10.27266 41.36144,5.02178 -23.6183,120.9298 -33.76016,20.1662 1.64588,-25.29084 -53.22172,17.19838 31.51922,9.83986 -29.53764,12.0276 -52.4327,-14.1422 -18.81812,-1.84462 13.82442,-36.35686 -35.63736,34.21868 -16.48404,5.66402 -78.08872,-18.63448 53.5435,27.06846 -20.3299,6.9854 -171.12456,5.2842 -61.64778,-36.52696 z m 112.21608,80.9912 84.91274,21.6507 -120.02714,0 -26.25594,17.79042 20.11102,-55.25482 z M 951.04116,627.69217 837.74778,600.83559 756.6893,622.19469 Z M 768,1023.9999 l 512.0063,0 0,-78.21439 0,-123.78556 0,-23 -50.5195,21.43528 39.0581,-7.27272 -28.3024,36.9712 39.7638,-22.5653 0,64.43154 -26.3198,74.09928 -108.8985,32.5269 -67.4916,-32.38476 -13.4877,46.60663 -3.2273,11.1519 -30.0098,-57.01453 -5.6404,17.7169 -88.1914,-9.15938 3.08444,22.18376 -133.7988,-5.799 L 768,891.99995 l 0,-28.55252 0,-22.8664 -0.006,-18.58108 0,0 29.93192,-7.22158 35.17652,-26.44364 -42.43526,16.04306 L 768,798.99995 l 0.003,23 -0.003,99.04546 z m 242.8193,-161.01187 -150.99098,20.93284 58.93154,-36.86668 z m 28.3507,39.82172 159.6031,-31.00192 -21.1155,17.77848 -55.6048,17.89054 z"
       inkscape:label="#front" />
  </g>
  <g
     inkscape:groupmode="layer"
     id="layer2"
     inkscape:label="Light"
     style="display:inline;opacity:1">
    <g
       id="g4577">
      <g
         id="g4593" />
    </g>
    <g
       transform="matrix(2,0,0,2,-255.99366,-512.00005)"
       style="opacity:1"
       id="g4647-8-9-9-5">
      <path
         sodipodi:nodetypes="ccccc"
         inkscape:connector-curvature="0"
         id="path4529-2-4-8-4"
         d="M 518.91905,646.546 511.99366,640 768,640 l 0,6.54602 z"
         style="opacity:1;fill:#ffffff;fill-opacity:0.15;fill-rule:evenodd;stroke:none;stroke-width:1px;stroke-linecap:butt;stroke-linejoin:miter;stroke-opacity:1;filter:url(#filter3781)" />
      <path
         sodipodi:nodetypes="ccccc"
         inkscape:connector-curvature="0"
         id="path4531-0-4-5-4-7"
         d="m 518.91905,761.9896 -6.92222,6.0104 0,-128 6.92222,6.546 z"
         style="opacity:1;fill:#ffffff;fill-opacity:0.125;fill-rule:evenodd;stroke:none;stroke-width:1px;stroke-linecap:butt;stroke-linejoin:miter;stroke-opacity:1;filter:url(#filter3781)" />
    </g>
    <g
       transform="matrix(2,0,0,2,-511.99366,-768.00005)"
       style="opacity:1"
       id="g4647-8-9-9-3-6">
      <path
         sodipodi:nodetypes="ccccc"
         inkscape:connector-curvature="0"
         id="path4529-2-4-8-3-8"
         d="M 518.91905,646.546 511.994,640 l 256,0 0.006,6.54602 z"
         style="opacity:1;fill:#ffffff;fill-opacity:0.14901961;fill-rule:evenodd;stroke:none;stroke-width:1px;stroke-linecap:butt;stroke-linejoin:miter;stroke-opacity:1;filter:url(#filter3781)" />
      <path
         sodipodi:nodetypes="ccccc"
         inkscape:connector-curvature="0"
         id="path4531-0-4-5-4-8-1"
         d="m 518.91905,761.9896 -6.92539,6.0104 0,-128 6.92539,6.546 z"
         style="opacity:1;fill:#ffffff;fill-opacity:0.125;fill-rule:evenodd;stroke:none;stroke-width:1px;stroke-linecap:butt;stroke-linejoin:miter;stroke-opacity:1;filter:url(#filter3781)" />
    </g>
    <g
       transform="matrix(2,0,0,2,-767.78098,-512.00009)"
       style="opacity:1"
       id="g4647-8-0-6-6-3" />
  </g>
  <g
     inkscape:groupmode="layer"
     id="layer4"
     inkscape:label="Dark"
     style="display:inline">
    <path
       style="opacity:1;fill:#000000;fill-opacity:0.29642856;fill-rule:evenodd;stroke:none;stroke-width:1px;stroke-linecap:butt;stroke-linejoin:miter;stroke-opacity:1;filter:url(#filter3779)"
       d="M 781.84444,1011.9791 768,1023.9999 l 512.0063,0 -11.427,-12.2 z"
       id="path4495-7-2-2-1"
       inkscape:connector-curvature="0"
       sodipodi:nodetypes="ccccc" />
    <path
       style="opacity:1;fill:#000000;fill-opacity:0.25098039;fill-rule:evenodd;stroke:none;stroke-width:1px;stroke-linecap:butt;stroke-linejoin:miter;stroke-opacity:1;filter:url(#filter3779)"
       d="m 1280.0063,767.9999 -11.427,13.09204 0,230.70796 11.428,12.2 z"
       id="path4495-6-2-5-8-7-5"
       inkscape:connector-curvature="0"
       sodipodi:nodetypes="ccccc" />
    <path
       style="opacity:1;fill:#000000;fill-opacity:0.29803923;fill-rule:evenodd;stroke:none;stroke-width:1px;stroke-linecap:butt;stroke-linejoin:miter;stroke-opacity:1;filter:url(#filter3779)"
       d="m 525.84444,755.9791 -13.85712,12.0208 512.00318,0 -11.4121,-12.2 z"
       id="path4495-7-2-2-5-5"
       inkscape:connector-curvature="0"
       sodipodi:nodetypes="ccccc" />
    <path
       style="opacity:1;fill:#000000;fill-opacity:0.25098039;fill-rule:evenodd;stroke:none;stroke-width:1px;stroke-linecap:butt;stroke-linejoin:miter;stroke-opacity:1;filter:url(#filter3779)"
       d="m 1023.9937,511.9999 -11.4144,13.09204 -9e-4,230.70796 11.4153,12.2 z"
       id="path4495-6-2-5-8-7-3-8"
       inkscape:connector-curvature="0"
       sodipodi:nodetypes="ccccc" />
  </g>
</svg>
