<?xml version="1.0" encoding="UTF-8" standalone="no"?>
<!-- Created with Inkscape (http://www.inkscape.org/) -->

<svg
   xmlns:dc="http://purl.org/dc/elements/1.1/"
   xmlns:cc="http://creativecommons.org/ns#"
   xmlns:rdf="http://www.w3.org/1999/02/22-rdf-syntax-ns#"
   xmlns:svg="http://www.w3.org/2000/svg"
   xmlns="http://www.w3.org/2000/svg"
   xmlns:sodipodi="http://sodipodi.sourceforge.net/DTD/sodipodi-0.dtd"
   xmlns:inkscape="http://www.inkscape.org/namespaces/inkscape"
   width="1536"
   height="1536"
   viewBox="0 0 1536 1536"
   id="svg2"
   version="1.1"
   inkscape:version="0.91 r13725"
   sodipodi:docname="brick_obsidian.svg"
   inkscape:export-filename="C:\Users\Michael\Desktop\GFX\stone_restore.png"
   inkscape:export-xdpi="90"
   inkscape:export-ydpi="90">
  <defs
     id="defs4" />
  <sodipodi:namedview
     id="base"
     pagecolor="#ffffff"
     bordercolor="#666666"
     borderopacity="1.0"
     inkscape:pageopacity="0.0"
     inkscape:pageshadow="2"
     inkscape:zoom="0.23357707"
     inkscape:cx="-505.9452"
     inkscape:cy="883.93394"
     inkscape:document-units="px"
     inkscape:current-layer="layer4"
     showgrid="true"
     inkscape:snap-bbox="true"
     inkscape:snap-intersection-paths="true"
     inkscape:object-paths="true"
     inkscape:object-nodes="true"
     inkscape:snap-smooth-nodes="true"
     inkscape:snap-global="false"
     inkscape:window-width="1600"
     inkscape:window-height="878"
     inkscape:window-x="-8"
     inkscape:window-y="-8"
     inkscape:window-maximized="1"
     units="px"
     showborder="true"
     inkscape:showpageshadow="false"
     inkscape:snap-grids="true">
    <inkscape:grid
       type="xygrid"
       id="grid4264"
       spacingx="512"
       spacingy="512"
       empspacing="1"
       snapvisiblegridlinesonly="true" />
  </sodipodi:namedview>
  <metadata
     id="metadata7">
    <rdf:RDF>
      <cc:Work
         rdf:about="">
        <dc:format>image/svg+xml</dc:format>
        <dc:type
           rdf:resource="http://purl.org/dc/dcmitype/StillImage" />
        <dc:title />
      </cc:Work>
    </rdf:RDF>
  </metadata>
  <g
     inkscape:groupmode="layer"
     id="layer1"
     inkscape:label="origin" />
  <g
     inkscape:groupmode="layer"
     id="layer3"
     inkscape:label="BG"
     transform="translate(0,483.63784)"
     style="display:inline">
    <path
       style="display:inline;fill:#101019;fill-opacity:1;fill-rule:evenodd;stroke:none;stroke-width:0;stroke-linecap:butt;stroke-linejoin:miter;stroke-opacity:1"
       d="m 0,-483.63784 1536,0 0,1536.00004 -1536,0 z"
       id="path5842"
       inkscape:connector-curvature="0" />
  </g>
  <g
     inkscape:groupmode="layer"
     id="layer2"
     inkscape:label="center"
     style="display:inline">
    <path
       style="display:inline;fill:#08080c;fill-opacity:1;fill-rule:evenodd;stroke:none;stroke-width:1px;stroke-linecap:butt;stroke-linejoin:miter;stroke-opacity:1"
       d="m 531.07341,1010.5348 233.80226,11.2652 0,-168.13784 -33.05397,50.87504 -178.50636,60.70806 z"
       id="path4193-4"
       inkscape:connector-curvature="0"
       sodipodi:nodetypes="cccccc" />
    <path
       style="display:inline;fill:#3e3151;fill-opacity:1;fill-rule:evenodd;stroke:none;stroke-width:1px;stroke-linecap:butt;stroke-linejoin:miter;stroke-opacity:1"
       d="m 531.20352,1010.1895 -9.31884,-156.52735 243.0143,0.2381 -31.15793,48.15133 -133.77319,53.64604 -55.87708,29.23883 z"
       id="path4195-0"
       inkscape:connector-curvature="0"
       sodipodi:nodetypes="ccccccc" />
    <path
       style="display:inline;fill:#2c233a;fill-opacity:1;fill-rule:evenodd;stroke:none;stroke-width:1px;stroke-linecap:butt;stroke-linejoin:miter;stroke-opacity:1"
       d="m 543.32505,985.77047 83.7196,2.66885 9.18867,-44.03609 16.33557,48.03937 93.92926,5.33771 0,-116.09519 -208.27794,-5.33769 z"
       id="path4191-0"
       inkscape:connector-curvature="0" />
    <path
       style="display:inline;fill:#08080c;fill-opacity:1;fill-rule:evenodd;stroke:none;stroke-width:1px;stroke-linecap:butt;stroke-linejoin:miter;stroke-opacity:1"
       d="m 957.28766,677.01117 0.85257,163.29666 -261.28477,-6.60837 37.91321,-38.11619 198.64723,-95.68976 z"
       id="path4210-6"
       inkscape:connector-curvature="0"
       sodipodi:nodetypes="cccccc" />
    <path
       style="display:inline;fill:#3e3151;fill-opacity:1;fill-rule:evenodd;stroke:none;stroke-width:1px;stroke-linecap:butt;stroke-linejoin:miter;stroke-opacity:1"
       d="m 696.82961,833.80717 -1.69167,-144.54681 262.27511,-12.1658 -19.44199,21.05271 -220.29953,103.22316 1.08701,11.23375 z"
       id="path4212-8"
       inkscape:connector-curvature="0"
       sodipodi:nodetypes="ccccccc" />
    <path
       style="display:inline;fill:#2c233a;fill-opacity:1;fill-rule:evenodd;stroke:none;stroke-width:1px;stroke-linecap:butt;stroke-linejoin:miter;stroke-opacity:1"
       d="m 718.56997,814.30518 218.25618,8.32085 1.70513,-95.68977 -34.10253,-2.08021 34.10253,-27.04276 -225.92926,11.44117 z"
       id="path4208-2"
       inkscape:connector-curvature="0"
       sodipodi:nodetypes="ccccccc" />
    <path
       style="display:inline;fill:#08080c;fill-opacity:1;fill-rule:evenodd;stroke:none;stroke-width:1px;stroke-linecap:butt;stroke-linejoin:miter;stroke-opacity:1"
       d="m 869.35561,662.18393 253.12159,12.24809 21.8722,-152.57992 -27.9964,33.90664 -223.09607,76.28997 z"
       id="path4216-4"
       inkscape:connector-curvature="0"
       sodipodi:nodetypes="cccccc" />
    <path
       style="display:inline;fill:#3e3151;fill-opacity:1;fill-rule:evenodd;stroke:none;stroke-width:1px;stroke-linecap:butt;stroke-linejoin:miter;stroke-opacity:1"
       d="m 869.20096,661.62199 3.05867,-139.76989 87.72629,0.13287 8.3515,13.12384 8.0431,-13.09902 167.65058,0.2539 -30.1586,38.21115 -228.27083,82.03725 z"
       id="path4218-9"
       inkscape:connector-curvature="0"
       sodipodi:nodetypes="ccccccccc" />
    <path
       style="display:inline;fill:#2c233a;fill-opacity:1;fill-rule:evenodd;stroke:none;stroke-width:1px;stroke-linecap:butt;stroke-linejoin:miter;stroke-opacity:1"
       d="m 888.00761,550.46084 -2.62466,92.1837 227.47055,13.77459 15.7479,-114.43496 -154.37628,-5.01443 -5.579,19.98793 -8.6892,-20.45138 -59.7009,-1.9392 z"
       id="path4214-4"
       inkscape:connector-curvature="0"
       sodipodi:nodetypes="ccccccccc" />
    <path
       style="fill:#3e3151;fill-opacity:1;fill-rule:evenodd;stroke:none;stroke-width:1px;stroke-linecap:butt;stroke-linejoin:miter;stroke-opacity:1"
       d="m 787.31242,862.61392 1.0172,154.61428 34.58478,-31.53314 145.45953,-71.20396 15.258,-21.36119 25.42997,-28.48159 -73.25085,-0.67203 -13.21306,17.16184 -19.34391,-17.46052 z"
       id="path4542"
       inkscape:connector-curvature="0"
       sodipodi:nodetypes="cccccccccc" />
    <path
       style="fill:#08080c;fill-rule:evenodd;stroke:none;stroke-width:1px;stroke-linecap:butt;stroke-linejoin:miter;stroke-opacity:1;fill-opacity:1"
       d="m 788.32962,1016.211 233.95588,4.0688 -14.2408,-156.64868 -34.58477,44.75678 -155.63152,84.42756 z"
       id="path4544"
       inkscape:connector-curvature="0" />
    <path
       style="fill:#2c233a;fill-rule:evenodd;stroke:none;stroke-width:1px;stroke-linecap:butt;stroke-linejoin:miter;stroke-opacity:1;fill-opacity:1"
       d="m 809.69081,887.02671 1.0172,110.87475 80.35876,-2.0344 103.75435,8.13764 -7.12039,-113.92639 -50.85998,-3.0516 -11.1892,40.68798 -16.27519,-34.58478 z"
       id="path4540"
       inkscape:connector-curvature="0" />
    <path
       style="fill:#08080c;fill-opacity:1;fill-rule:evenodd;stroke:none;stroke-width:1px;stroke-linecap:butt;stroke-linejoin:miter;stroke-opacity:1"
       d="m 976.46725,836.87085 205.61215,4.4602 9.2283,-152.40764 -36.7039,41.194 -136.8659,67.91293 z"
       id="path4548"
       inkscape:connector-curvature="0"
       sodipodi:nodetypes="cccccc" />
    <path
       style="fill:#3e3151;fill-opacity:1;fill-rule:evenodd;stroke:none;stroke-width:1px;stroke-linecap:butt;stroke-linejoin:miter;stroke-opacity:1"
       d="m 976.43278,836.95811 2.7745,-149.69514 212.53982,1.43853 -70.8465,83.43517 -103.1627,28.77075 z"
       id="path4550"
       inkscape:connector-curvature="0"
       sodipodi:nodetypes="cccccc" />
    <path
       style="fill:#2c233a;fill-opacity:1;fill-rule:evenodd;stroke:none;stroke-width:1px;stroke-linecap:butt;stroke-linejoin:miter;stroke-opacity:1"
       d="m 989.15066,703.08688 -2.03212,96.42989 28.13356,-1.48643 -7.291,24.01584 152.9887,-6.60881 10.9105,-103.71927 z"
       id="path4546"
       inkscape:connector-curvature="0"
       sodipodi:nodetypes="ccccccc" />
    <path
       style="display:inline;fill:#08080c;fill-opacity:1;fill-rule:evenodd;stroke:none;stroke-width:1px;stroke-linecap:butt;stroke-linejoin:miter;stroke-opacity:1"
       d="m 636.76689,672.90622 170.38092,-4.57739 -11.18919,-23.39559 21.36119,24.92139 33.05898,-1.5258 2.0344,-143.42513 -27.46439,28.99018 -171.67314,94.4788 z"
       id="path4816"
       inkscape:connector-curvature="0"
       sodipodi:nodetypes="ccccccccc" />
    <path
       style="display:inline;fill:#3e3151;fill-opacity:1;fill-rule:evenodd;stroke:none;stroke-width:1px;stroke-linecap:butt;stroke-linejoin:miter;stroke-opacity:1"
       d="m 636.63974,672.77907 16.40235,-149.90977 99.68555,4.0688 99.93985,-2.03441 -20.43855,21.2654 -22.33242,22.41456 -155.72166,79.5691 z"
       id="path4818"
       inkscape:connector-curvature="0"
       sodipodi:nodetypes="cccccccc" />
    <path
       style="display:inline;fill:#2c233a;fill-opacity:1;fill-rule:evenodd;stroke:none;stroke-width:1px;stroke-linecap:butt;stroke-linejoin:miter;stroke-opacity:1"
       d="m 670.33448,542.19609 -20.34399,111.89194 143.42513,0 -13.2236,-32.55038 33.56759,34.58478 20.34399,-1.0172 -1.0172,-109.85754 -84.42756,2.0344 z"
       id="path4814"
       inkscape:connector-curvature="0" />
  </g>
  <g
     inkscape:groupmode="layer"
     id="layer4"
     inkscape:label="upper"
     style="display:inline">
    <path
       style="display:inline;fill:#08080c;fill-opacity:1;fill-rule:evenodd;stroke:none;stroke-width:1px;stroke-linecap:butt;stroke-linejoin:miter;stroke-opacity:1"
       d="m 531.07341,498.5348 233.80226,11.2652 0,-168.13784 -33.05397,50.87504 -178.50636,60.70806 z"
       id="path4193-4-1-3-4"
       inkscape:connector-curvature="0"
       sodipodi:nodetypes="cccccc" />
    <path
       style="display:inline;fill:#3e3151;fill-opacity:1;fill-rule:evenodd;stroke:none;stroke-width:1px;stroke-linecap:butt;stroke-linejoin:miter;stroke-opacity:1"
       d="m 531.20352,498.1895 -9.31884,-156.52735 243.0143,0.2381 -31.15793,48.15133 -133.77319,53.64604 -55.87708,29.23883 z"
       id="path4195-0-7-8-1"
       inkscape:connector-curvature="0"
       sodipodi:nodetypes="ccccccc" />
    <path
       style="display:inline;fill:#2c233a;fill-opacity:1;fill-rule:evenodd;stroke:none;stroke-width:1px;stroke-linecap:butt;stroke-linejoin:miter;stroke-opacity:1"
       d="m 543.32505,473.77047 83.7196,2.66885 9.18867,-44.03609 16.33557,48.03937 93.92926,5.33771 0,-116.09519 -208.27794,-5.33769 z"
       id="path4191-0-1-9-4"
       inkscape:connector-curvature="0" />
    <path
       style="display:inline;fill:#08080c;fill-opacity:1;fill-rule:evenodd;stroke:none;stroke-width:1px;stroke-linecap:butt;stroke-linejoin:miter;stroke-opacity:1"
       d="m 957.28766,165.01117 0.85257,163.29666 -261.28477,-6.60837 37.91321,-38.11619 198.64723,-95.68976 z"
       id="path4210-6-9-6-5"
       inkscape:connector-curvature="0"
       sodipodi:nodetypes="cccccc" />
    <path
       style="display:inline;fill:#3e3151;fill-opacity:1;fill-rule:evenodd;stroke:none;stroke-width:1px;stroke-linecap:butt;stroke-linejoin:miter;stroke-opacity:1"
       d="m 696.82961,321.80717 -1.69167,-144.54681 262.27511,-12.1658 -19.44199,21.05271 -220.29953,103.22316 1.08701,11.23375 z"
       id="path4212-8-5-1-3"
       inkscape:connector-curvature="0"
       sodipodi:nodetypes="ccccccc" />
    <path
       style="display:inline;fill:#2c233a;fill-opacity:1;fill-rule:evenodd;stroke:none;stroke-width:1px;stroke-linecap:butt;stroke-linejoin:miter;stroke-opacity:1"
       d="m 718.56997,302.30518 218.25618,8.32085 1.70513,-95.68977 -34.10253,-2.08021 34.10253,-27.04276 -225.92926,11.44117 z"
       id="path4208-2-9-7-0"
       inkscape:connector-curvature="0"
       sodipodi:nodetypes="ccccccc" />
    <path
       style="display:inline;fill:#08080c;fill-opacity:1;fill-rule:evenodd;stroke:none;stroke-width:1px;stroke-linecap:butt;stroke-linejoin:miter;stroke-opacity:1"
       d="M 869.35561,150.18393 1122.4772,162.43202 1144.3494,9.8521 1116.353,43.75874 893.25693,120.04871 Z"
       id="path4216-4-1-6-1"
       inkscape:connector-curvature="0"
       sodipodi:nodetypes="cccccc" />
    <path
       style="display:inline;fill:#3e3151;fill-opacity:1;fill-rule:evenodd;stroke:none;stroke-width:1px;stroke-linecap:butt;stroke-linejoin:miter;stroke-opacity:1"
       d="m 869.20096,149.62199 3.05867,-139.76989 87.72629,0.13287 8.3515,13.12384 8.0431,-13.09902 167.65058,0.2539 -30.1586,38.21115 -228.27083,82.03725 z"
       id="path4218-9-5-2-8"
       inkscape:connector-curvature="0"
       sodipodi:nodetypes="ccccccccc" />
    <path
       style="display:inline;fill:#2c233a;fill-opacity:1;fill-rule:evenodd;stroke:none;stroke-width:1px;stroke-linecap:butt;stroke-linejoin:miter;stroke-opacity:1"
       d="m 888.00761,38.46084 -2.62466,92.1837 227.47055,13.77459 15.7479,-114.43496 -154.37628,-5.01443 -5.579,19.98793 -8.6892,-20.45138 -59.7009,-1.9392 z"
       id="path4214-4-9-5-9"
       inkscape:connector-curvature="0"
       sodipodi:nodetypes="ccccccccc" />
    <path
       style="display:inline;fill:#3e3151;fill-opacity:1;fill-rule:evenodd;stroke:none;stroke-width:1px;stroke-linecap:butt;stroke-linejoin:miter;stroke-opacity:1"
       d="m 787.31242,350.61392 1.0172,154.61428 34.58478,-31.53314 145.45953,-71.20396 15.258,-21.36119 25.42997,-28.48159 -73.25085,-0.67203 -13.21306,17.16184 -19.34391,-17.46052 z"
       id="path4542-4-2-4"
       inkscape:connector-curvature="0"
       sodipodi:nodetypes="cccccccccc" />
    <path
       style="display:inline;fill:#08080c;fill-opacity:1;fill-rule:evenodd;stroke:none;stroke-width:1px;stroke-linecap:butt;stroke-linejoin:miter;stroke-opacity:1"
       d="m 788.32962,504.211 233.95588,4.0688 -14.2408,-156.64868 -34.58477,44.75678 -155.63152,84.42756 z"
       id="path4544-9-1-2"
       inkscape:connector-curvature="0" />
    <path
       style="display:inline;fill:#2c233a;fill-opacity:1;fill-rule:evenodd;stroke:none;stroke-width:1px;stroke-linecap:butt;stroke-linejoin:miter;stroke-opacity:1"
       d="m 809.69081,375.02671 1.0172,110.87475 80.35876,-2.0344 103.75435,8.13764 -7.12039,-113.92639 -50.85998,-3.0516 -11.1892,40.68798 -16.27519,-34.58478 z"
       id="path4540-0-4-5"
       inkscape:connector-curvature="0" />
    <path
       style="display:inline;fill:#08080c;fill-opacity:1;fill-rule:evenodd;stroke:none;stroke-width:1px;stroke-linecap:butt;stroke-linejoin:miter;stroke-opacity:1"
       d="m 976.46725,324.87085 205.61215,4.4602 9.2283,-152.40764 -36.7039,41.194 -136.8659,67.91293 z"
       id="path4548-1-3-9"
       inkscape:connector-curvature="0"
       sodipodi:nodetypes="cccccc" />
    <path
       style="display:inline;fill:#3e3151;fill-opacity:1;fill-rule:evenodd;stroke:none;stroke-width:1px;stroke-linecap:butt;stroke-linejoin:miter;stroke-opacity:1"
       d="m 976.43278,324.95811 2.7745,-149.69514 212.53982,1.43853 -70.8465,83.43517 -103.1627,28.77075 z"
       id="path4550-2-2-6"
       inkscape:connector-curvature="0"
       sodipodi:nodetypes="cccccc" />
    <path
       style="display:inline;fill:#2c233a;fill-opacity:1;fill-rule:evenodd;stroke:none;stroke-width:1px;stroke-linecap:butt;stroke-linejoin:miter;stroke-opacity:1"
       d="m 989.15066,191.08688 -2.03212,96.42989 28.13356,-1.48643 -7.291,24.01584 152.9887,-6.60881 10.9105,-103.71927 z"
       id="path4546-9-4-9"
       inkscape:connector-curvature="0"
       sodipodi:nodetypes="ccccccc" />
    <path
       style="display:inline;fill:#08080c;fill-opacity:1;fill-rule:evenodd;stroke:none;stroke-width:1px;stroke-linecap:butt;stroke-linejoin:miter;stroke-opacity:1"
       d="m 636.76689,160.90622 170.38092,-4.57739 -11.18919,-23.39559 21.36119,24.92139 33.05898,-1.5258 2.0344,-143.42513 -27.46439,28.99018 -171.67314,94.4788 z"
       id="path4816-9-9-9"
       inkscape:connector-curvature="0"
       sodipodi:nodetypes="ccccccccc" />
    <path
       style="display:inline;fill:#3e3151;fill-opacity:1;fill-rule:evenodd;stroke:none;stroke-width:1px;stroke-linecap:butt;stroke-linejoin:miter;stroke-opacity:1"
       d="m 636.63974,160.77907 16.40235,-149.90977 99.68555,4.0688 99.93985,-2.03441 -20.43855,21.2654 -22.33242,22.41456 -155.72166,79.5691 z"
       id="path4818-0-9-7"
       inkscape:connector-curvature="0"
       sodipodi:nodetypes="cccccccc" />
    <path
       style="display:inline;fill:#2c233a;fill-opacity:1;fill-rule:evenodd;stroke:none;stroke-width:1px;stroke-linecap:butt;stroke-linejoin:miter;stroke-opacity:1"
       d="m 670.33448,30.19609 -20.34399,111.89194 143.42513,0 -13.2236,-32.55038 33.56759,34.58478 20.34399,-1.0172 -1.0172,-109.85754 -84.42756,2.0344 z"
       id="path4814-5-0-6"
       inkscape:connector-curvature="0" />
  </g>
  <g
     inkscape:groupmode="layer"
     id="layer5"
     inkscape:label="leftupper">
    <path
       style="display:inline;fill:#08080c;fill-opacity:1;fill-rule:evenodd;stroke:none;stroke-width:1px;stroke-linecap:butt;stroke-linejoin:miter;stroke-opacity:1"
       d="m 19.07341,498.5348 233.80226,11.2652 0,-168.13784 -33.05397,50.87504 -178.50636,60.70806 z"
       id="path4193-4-1-3"
       inkscape:connector-curvature="0"
       sodipodi:nodetypes="cccccc" />
    <path
       style="display:inline;fill:#3e3151;fill-opacity:1;fill-rule:evenodd;stroke:none;stroke-width:1px;stroke-linecap:butt;stroke-linejoin:miter;stroke-opacity:1"
       d="m 19.20352,498.1895 -9.31884,-156.52735 243.0143,0.2381 -31.15793,48.15133 -133.77319,53.64604 -55.87708,29.23883 z"
       id="path4195-0-7-8"
       inkscape:connector-curvature="0"
       sodipodi:nodetypes="ccccccc" />
    <path
       style="display:inline;fill:#2c233a;fill-opacity:1;fill-rule:evenodd;stroke:none;stroke-width:1px;stroke-linecap:butt;stroke-linejoin:miter;stroke-opacity:1"
       d="m 31.32505,473.77047 83.7196,2.66885 9.18867,-44.03609 16.33557,48.03937 93.92926,5.33771 0,-116.09519 -208.27794,-5.33769 z"
       id="path4191-0-1-9"
       inkscape:connector-curvature="0" />
    <path
       style="display:inline;fill:#08080c;fill-opacity:1;fill-rule:evenodd;stroke:none;stroke-width:1px;stroke-linecap:butt;stroke-linejoin:miter;stroke-opacity:1"
       d="m 445.28766,165.01117 0.85257,163.29666 -261.28477,-6.60837 37.91321,-38.11619 198.64723,-95.68976 z"
       id="path4210-6-9-6"
       inkscape:connector-curvature="0"
       sodipodi:nodetypes="cccccc" />
    <path
       style="display:inline;fill:#3e3151;fill-opacity:1;fill-rule:evenodd;stroke:none;stroke-width:1px;stroke-linecap:butt;stroke-linejoin:miter;stroke-opacity:1"
       d="m 184.82961,321.80717 -1.69167,-144.54681 262.27511,-12.1658 -19.44199,21.05271 -220.29953,103.22316 1.08701,11.23375 z"
       id="path4212-8-5-1"
       inkscape:connector-curvature="0"
       sodipodi:nodetypes="ccccccc" />
    <path
       style="display:inline;fill:#2c233a;fill-opacity:1;fill-rule:evenodd;stroke:none;stroke-width:1px;stroke-linecap:butt;stroke-linejoin:miter;stroke-opacity:1"
       d="m 206.56997,302.30518 218.25618,8.32085 1.70513,-95.68977 -34.10253,-2.08021 34.10253,-27.04276 -225.92926,11.44117 z"
       id="path4208-2-9-7"
       inkscape:connector-curvature="0"
       sodipodi:nodetypes="ccccccc" />
    <path
       style="display:inline;fill:#08080c;fill-opacity:1;fill-rule:evenodd;stroke:none;stroke-width:1px;stroke-linecap:butt;stroke-linejoin:miter;stroke-opacity:1"
       d="M 357.35561,150.18393 610.4772,162.43202 632.3494,9.8521 604.353,43.75874 381.25693,120.04871 Z"
       id="path4216-4-1-6"
       inkscape:connector-curvature="0"
       sodipodi:nodetypes="cccccc" />
    <path
       style="display:inline;fill:#3e3151;fill-opacity:1;fill-rule:evenodd;stroke:none;stroke-width:1px;stroke-linecap:butt;stroke-linejoin:miter;stroke-opacity:1"
       d="m 357.20096,149.62199 3.05867,-139.76989 87.72629,0.13287 8.3515,13.12384 8.0431,-13.09902 167.65058,0.2539 -30.1586,38.21115 -228.27083,82.03725 z"
       id="path4218-9-5-2"
       inkscape:connector-curvature="0"
       sodipodi:nodetypes="ccccccccc" />
    <path
       style="display:inline;fill:#2c233a;fill-opacity:1;fill-rule:evenodd;stroke:none;stroke-width:1px;stroke-linecap:butt;stroke-linejoin:miter;stroke-opacity:1"
       d="m 376.00761,38.46084 -2.62466,92.1837 227.47055,13.77459 15.7479,-114.43496 -154.37628,-5.01443 -5.579,19.98793 -8.6892,-20.45138 -59.7009,-1.9392 z"
       id="path4214-4-9-5"
       inkscape:connector-curvature="0"
       sodipodi:nodetypes="ccccccccc" />
    <path
       style="display:inline;fill:#3e3151;fill-opacity:1;fill-rule:evenodd;stroke:none;stroke-width:1px;stroke-linecap:butt;stroke-linejoin:miter;stroke-opacity:1"
       d="m 275.31242,350.61392 1.0172,154.61428 34.58478,-31.53314 145.45953,-71.20396 15.258,-21.36119 25.42997,-28.48159 -73.25085,-0.67203 -13.21306,17.16184 -19.34391,-17.46052 z"
       id="path4542-4-2"
       inkscape:connector-curvature="0"
       sodipodi:nodetypes="cccccccccc" />
    <path
       style="display:inline;fill:#08080c;fill-opacity:1;fill-rule:evenodd;stroke:none;stroke-width:1px;stroke-linecap:butt;stroke-linejoin:miter;stroke-opacity:1"
       d="M 276.32962,504.211 510.2855,508.2798 496.0447,351.63112 461.45993,396.3879 305.82841,480.81546 Z"
       id="path4544-9-1"
       inkscape:connector-curvature="0" />
    <path
       style="display:inline;fill:#2c233a;fill-opacity:1;fill-rule:evenodd;stroke:none;stroke-width:1px;stroke-linecap:butt;stroke-linejoin:miter;stroke-opacity:1"
       d="m 297.69081,375.02671 1.0172,110.87475 80.35876,-2.0344 103.75435,8.13764 -7.12039,-113.92639 -50.85998,-3.0516 -11.1892,40.68798 -16.27519,-34.58478 z"
       id="path4540-0-4"
       inkscape:connector-curvature="0" />
    <path
       style="display:inline;fill:#08080c;fill-opacity:1;fill-rule:evenodd;stroke:none;stroke-width:1px;stroke-linecap:butt;stroke-linejoin:miter;stroke-opacity:1"
       d="m 464.46725,324.87085 205.61215,4.4602 9.2283,-152.40764 -36.7039,41.194 -136.8659,67.91293 z"
       id="path4548-1-3"
       inkscape:connector-curvature="0"
       sodipodi:nodetypes="cccccc" />
    <path
       style="display:inline;fill:#3e3151;fill-opacity:1;fill-rule:evenodd;stroke:none;stroke-width:1px;stroke-linecap:butt;stroke-linejoin:miter;stroke-opacity:1"
       d="m 464.43278,324.95811 2.7745,-149.69514 212.53982,1.43853 -70.8465,83.43517 -103.1627,28.77075 z"
       id="path4550-2-2"
       inkscape:connector-curvature="0"
       sodipodi:nodetypes="cccccc" />
    <path
       style="display:inline;fill:#2c233a;fill-opacity:1;fill-rule:evenodd;stroke:none;stroke-width:1px;stroke-linecap:butt;stroke-linejoin:miter;stroke-opacity:1"
       d="m 477.15066,191.08688 -2.03212,96.42989 28.13356,-1.48643 -7.291,24.01584 152.9887,-6.60881 10.9105,-103.71927 z"
       id="path4546-9-4"
       inkscape:connector-curvature="0"
       sodipodi:nodetypes="ccccccc" />
    <path
       style="display:inline;fill:#08080c;fill-opacity:1;fill-rule:evenodd;stroke:none;stroke-width:1px;stroke-linecap:butt;stroke-linejoin:miter;stroke-opacity:1"
       d="m 124.76689,160.90622 170.38092,-4.57739 -11.18919,-23.39559 21.36119,24.92139 33.05898,-1.5258 2.0344,-143.42513 -27.46439,28.99018 -171.67314,94.4788 z"
       id="path4816-9-9"
       inkscape:connector-curvature="0"
       sodipodi:nodetypes="ccccccccc" />
    <path
       style="display:inline;fill:#3e3151;fill-opacity:1;fill-rule:evenodd;stroke:none;stroke-width:1px;stroke-linecap:butt;stroke-linejoin:miter;stroke-opacity:1"
       d="m 124.63974,160.77907 16.40235,-149.90977 99.68555,4.0688 99.93985,-2.03441 -20.43855,21.2654 -22.33242,22.41456 -155.72166,79.5691 z"
       id="path4818-0-9"
       inkscape:connector-curvature="0"
       sodipodi:nodetypes="cccccccc" />
    <path
       style="display:inline;fill:#2c233a;fill-opacity:1;fill-rule:evenodd;stroke:none;stroke-width:1px;stroke-linecap:butt;stroke-linejoin:miter;stroke-opacity:1"
       d="m 158.33448,30.19609 -20.34399,111.89194 143.42513,0 -13.2236,-32.55038 33.56759,34.58478 20.34399,-1.0172 -1.0172,-109.85754 -84.42756,2.0344 z"
       id="path4814-5-0"
       inkscape:connector-curvature="0" />
  </g>
  <g
     inkscape:groupmode="layer"
     id="layer6"
     inkscape:label="left">
    <path
       style="display:inline;fill:#08080c;fill-opacity:1;fill-rule:evenodd;stroke:none;stroke-width:1px;stroke-linecap:butt;stroke-linejoin:miter;stroke-opacity:1"
       d="m 19.07341,1010.5348 233.80226,11.2652 0,-168.13784 -33.05397,50.87504 -178.50636,60.70806 z"
       id="path4193-4-1"
       inkscape:connector-curvature="0"
       sodipodi:nodetypes="cccccc" />
    <path
       style="display:inline;fill:#3e3151;fill-opacity:1;fill-rule:evenodd;stroke:none;stroke-width:1px;stroke-linecap:butt;stroke-linejoin:miter;stroke-opacity:1"
       d="m 19.20352,1010.1895 -9.31884,-156.52735 243.0143,0.2381 -31.15793,48.15133 -133.77319,53.64604 -55.87708,29.23883 z"
       id="path4195-0-7"
       inkscape:connector-curvature="0"
       sodipodi:nodetypes="ccccccc" />
    <path
       style="display:inline;fill:#2c233a;fill-opacity:1;fill-rule:evenodd;stroke:none;stroke-width:1px;stroke-linecap:butt;stroke-linejoin:miter;stroke-opacity:1"
       d="m 31.32505,985.77047 83.7196,2.66885 9.18867,-44.03609 16.33557,48.03937 93.92926,5.33771 0,-116.09519 -208.27794,-5.33769 z"
       id="path4191-0-1"
       inkscape:connector-curvature="0" />
    <path
       style="display:inline;fill:#08080c;fill-opacity:1;fill-rule:evenodd;stroke:none;stroke-width:1px;stroke-linecap:butt;stroke-linejoin:miter;stroke-opacity:1"
       d="m 445.28766,677.01117 0.85257,163.29666 -261.28477,-6.60837 37.91321,-38.11619 198.64723,-95.68976 z"
       id="path4210-6-9"
       inkscape:connector-curvature="0"
       sodipodi:nodetypes="cccccc" />
    <path
       style="display:inline;fill:#3e3151;fill-opacity:1;fill-rule:evenodd;stroke:none;stroke-width:1px;stroke-linecap:butt;stroke-linejoin:miter;stroke-opacity:1"
       d="m 184.82961,833.80717 -1.69167,-144.54681 262.27511,-12.1658 -19.44199,21.05271 -220.29953,103.22316 1.08701,11.23375 z"
       id="path4212-8-5"
       inkscape:connector-curvature="0"
       sodipodi:nodetypes="ccccccc" />
    <path
       style="display:inline;fill:#2c233a;fill-opacity:1;fill-rule:evenodd;stroke:none;stroke-width:1px;stroke-linecap:butt;stroke-linejoin:miter;stroke-opacity:1"
       d="m 206.56997,814.30518 218.25618,8.32085 1.70513,-95.68977 -34.10253,-2.08021 34.10253,-27.04276 -225.92926,11.44117 z"
       id="path4208-2-9"
       inkscape:connector-curvature="0"
       sodipodi:nodetypes="ccccccc" />
    <path
       style="display:inline;fill:#08080c;fill-opacity:1;fill-rule:evenodd;stroke:none;stroke-width:1px;stroke-linecap:butt;stroke-linejoin:miter;stroke-opacity:1"
       d="M 357.35561,662.18393 610.4772,674.43202 632.3494,521.8521 604.353,555.75874 381.25693,632.04871 Z"
       id="path4216-4-1"
       inkscape:connector-curvature="0"
       sodipodi:nodetypes="cccccc" />
    <path
       style="display:inline;fill:#3e3151;fill-opacity:1;fill-rule:evenodd;stroke:none;stroke-width:1px;stroke-linecap:butt;stroke-linejoin:miter;stroke-opacity:1"
       d="m 357.20096,661.62199 3.05867,-139.76989 87.72629,0.13287 8.3515,13.12384 8.0431,-13.09902 167.65058,0.2539 -30.1586,38.21115 -228.27083,82.03725 z"
       id="path4218-9-5"
       inkscape:connector-curvature="0"
       sodipodi:nodetypes="ccccccccc" />
    <path
       style="display:inline;fill:#2c233a;fill-opacity:1;fill-rule:evenodd;stroke:none;stroke-width:1px;stroke-linecap:butt;stroke-linejoin:miter;stroke-opacity:1"
       d="m 376.00761,550.46084 -2.62466,92.1837 227.47055,13.77459 15.7479,-114.43496 -154.37628,-5.01443 -5.579,19.98793 -8.6892,-20.45138 -59.7009,-1.9392 z"
       id="path4214-4-9"
       inkscape:connector-curvature="0"
       sodipodi:nodetypes="ccccccccc" />
    <path
       style="display:inline;fill:#3e3151;fill-opacity:1;fill-rule:evenodd;stroke:none;stroke-width:1px;stroke-linecap:butt;stroke-linejoin:miter;stroke-opacity:1"
       d="m 275.31242,862.61392 1.0172,154.61428 34.58478,-31.53314 145.45953,-71.20396 15.258,-21.36119 25.42997,-28.48159 -73.25085,-0.67203 -13.21306,17.16184 -19.34391,-17.46052 z"
       id="path4542-4"
       inkscape:connector-curvature="0"
       sodipodi:nodetypes="cccccccccc" />
    <path
       style="display:inline;fill:#08080c;fill-opacity:1;fill-rule:evenodd;stroke:none;stroke-width:1px;stroke-linecap:butt;stroke-linejoin:miter;stroke-opacity:1"
       d="m 276.32962,1016.211 233.95588,4.0688 -14.2408,-156.64868 -34.58477,44.75678 -155.63152,84.42756 z"
       id="path4544-9"
       inkscape:connector-curvature="0" />
    <path
       style="display:inline;fill:#2c233a;fill-opacity:1;fill-rule:evenodd;stroke:none;stroke-width:1px;stroke-linecap:butt;stroke-linejoin:miter;stroke-opacity:1"
       d="m 297.69081,887.02671 1.0172,110.87475 80.35876,-2.0344 103.75435,8.13764 -7.12039,-113.92639 -50.85998,-3.0516 -11.1892,40.68798 -16.27519,-34.58478 z"
       id="path4540-0"
       inkscape:connector-curvature="0" />
    <path
       style="display:inline;fill:#08080c;fill-opacity:1;fill-rule:evenodd;stroke:none;stroke-width:1px;stroke-linecap:butt;stroke-linejoin:miter;stroke-opacity:1"
       d="m 464.46725,836.87085 205.61215,4.4602 9.2283,-152.40764 -36.7039,41.194 -136.8659,67.91293 z"
       id="path4548-1"
       inkscape:connector-curvature="0"
       sodipodi:nodetypes="cccccc" />
    <path
       style="display:inline;fill:#3e3151;fill-opacity:1;fill-rule:evenodd;stroke:none;stroke-width:1px;stroke-linecap:butt;stroke-linejoin:miter;stroke-opacity:1"
       d="m 464.43278,836.95811 2.7745,-149.69514 212.53982,1.43853 -70.8465,83.43517 -103.1627,28.77075 z"
       id="path4550-2"
       inkscape:connector-curvature="0"
       sodipodi:nodetypes="cccccc" />
    <path
       style="display:inline;fill:#2c233a;fill-opacity:1;fill-rule:evenodd;stroke:none;stroke-width:1px;stroke-linecap:butt;stroke-linejoin:miter;stroke-opacity:1"
       d="m 477.15066,703.08688 -2.03212,96.42989 28.13356,-1.48643 -7.291,24.01584 152.9887,-6.60881 10.9105,-103.71927 z"
       id="path4546-9"
       inkscape:connector-curvature="0"
       sodipodi:nodetypes="ccccccc" />
    <path
       style="display:inline;fill:#08080c;fill-opacity:1;fill-rule:evenodd;stroke:none;stroke-width:1px;stroke-linecap:butt;stroke-linejoin:miter;stroke-opacity:1"
       d="m 124.76689,672.90622 170.38092,-4.57739 -11.18919,-23.39559 21.36119,24.92139 33.05898,-1.5258 2.0344,-143.42513 -27.46439,28.99018 -171.67314,94.4788 z"
       id="path4816-9"
       inkscape:connector-curvature="0"
       sodipodi:nodetypes="ccccccccc" />
    <path
       style="display:inline;fill:#3e3151;fill-opacity:1;fill-rule:evenodd;stroke:none;stroke-width:1px;stroke-linecap:butt;stroke-linejoin:miter;stroke-opacity:1"
       d="m 124.63974,672.77907 16.40235,-149.90977 99.68555,4.0688 99.93985,-2.03441 -20.43855,21.2654 -22.33242,22.41456 -155.72166,79.5691 z"
       id="path4818-0"
       inkscape:connector-curvature="0"
       sodipodi:nodetypes="cccccccc" />
    <path
       style="display:inline;fill:#2c233a;fill-opacity:1;fill-rule:evenodd;stroke:none;stroke-width:1px;stroke-linecap:butt;stroke-linejoin:miter;stroke-opacity:1"
       d="m 158.33448,542.19609 -20.34399,111.89194 143.42513,0 -13.2236,-32.55038 33.56759,34.58478 20.34399,-1.0172 -1.0172,-109.85754 -84.42756,2.0344 z"
       id="path4814-5"
       inkscape:connector-curvature="0" />
  </g>
</svg>
