<?xml version="1.0" ?><!-- Created with Inkscape (http://www.inkscape.org/) --><svg enable-background="new" height="1536" id="svg3383" inkscape:version="0.91 r13725" sodipodi:docname="rock2_union.svg" version="1.1" viewBox="0 0 1536 1536.0001" width="1536" xmlns="http://www.w3.org/2000/svg" xmlns:cc="http://creativecommons.org/ns#" xmlns:dc="http://purl.org/dc/elements/1.1/" xmlns:inkscape="http://www.inkscape.org/namespaces/inkscape" xmlns:rdf="http://www.w3.org/1999/02/22-rdf-syntax-ns#" xmlns:sodipodi="http://sodipodi.sourceforge.net/DTD/sodipodi-0.dtd" xmlns:svg="http://www.w3.org/2000/svg">
  <defs id="defs3385">
    <inkscape:perspective id="perspective3412" inkscape:persp3d-origin="768 : 512.00003 : 1" inkscape:vp_x="0 : 768.00005 : 1" inkscape:vp_y="0 : 1000 : 0" inkscape:vp_z="1536 : 768.00005 : 1" sodipodi:type="inkscape:persp3d"/>
    <filter id="filter4291-5" inkscape:label="SCREEN" style="color-interpolation-filters:sRGB">
      <feBlend id="feBlend4297-4" in2="BackgroundImage" mode="screen"/>
    </filter>
    <filter id="filter4293-6" inkscape:label="MULT" style="color-interpolation-filters:sRGB">
      <feBlend id="feBlend4295-6" in2="BackgroundImage" mode="multiply"/>
    </filter>
  </defs>
  <sodipodi:namedview bordercolor="#666666" borderopacity="1.0" gridtolerance="10" id="base" inkscape:bbox-nodes="true" inkscape:bbox-paths="true" inkscape:current-layer="layer3" inkscape:cx="821.9056" inkscape:cy="710.75081" inkscape:document-units="px" inkscape:object-nodes="true" inkscape:object-paths="true" inkscape:pageopacity="0" inkscape:pageshadow="2" inkscape:showpageshadow="false" inkscape:snap-bbox="true" inkscape:snap-bbox-edge-midpoints="true" inkscape:snap-bbox-midpoints="true" inkscape:snap-global="true" inkscape:snap-intersection-paths="true" inkscape:snap-smooth-nodes="true" inkscape:window-height="937" inkscape:window-maximized="1" inkscape:window-width="1680" inkscape:window-x="-4" inkscape:window-y="-4" inkscape:zoom="0.90509668" pagecolor="#ffffff" showborder="true" showgrid="true" units="px">
    <inkscape:grid dotted="false" empspacing="1" enabled="true" id="grid3391" snapvisiblegridlinesonly="true" spacingx="511.99999" spacingy="511.99999" type="xygrid" visible="true"/>
  </sodipodi:namedview>
  <metadata id="metadata3388">
    <rdf:RDF>
      <cc:Work rdf:about="">
        <dc:format>image/svg+xml</dc:format>
        <dc:type rdf:resource="http://purl.org/dc/dcmitype/StillImage"/>
        <dc:title/>
        <dc:creator>
          <cc:Agent>
            <dc:title>Michael Hept</dc:title>
          </cc:Agent>
        </dc:creator>
        <dc:rights>
          <cc:Agent>
            <dc:title>Michael Hept</dc:title>
          </cc:Agent>
        </dc:rights>
      </cc:Work>
    </rdf:RDF>
  </metadata>
  <g id="layer2" inkscape:groupmode="layer" inkscape:label="BG" sodipodi:insensitive="true" style="display:inline">
    <path d="m 0,0 1536.0002,0 0,1536.0002 -1536.0002,0 z" id="rect4836-8" inkscape:connector-curvature="0" style="display:inline;fill:#003254;fill-opacity:1;stroke:none;stroke-width:0.60000002;stroke-miterlimit:4;stroke-dasharray:none;stroke-opacity:1"/>
  </g>
  <g id="layer3" inkscape:groupmode="layer" inkscape:label="center">
    <path d="M 1008.4102 539.25977 L 889.94922 635.10352 L 837.875 738.0918 L 878.48242 775.85938 L 942.07422 760.21484 L 1062.6895 661.72656 L 1049.041 548.16992 L 1008.4102 539.25977 z M 860.62695 540.29688 L 804.18164 622.78516 L 854.11914 645.23242 L 919.80469 575.99414 L 860.62695 540.29688 z M 668.94727 602.04492 L 598.83789 715.25195 L 602.59766 715.99219 L 598.54883 715.49609 L 631.29688 777.35156 L 754.97852 616.67773 L 668.94727 602.04492 z M 771.79297 626.51953 L 708.86719 703.00977 L 709.49023 702.82227 L 828.69141 715.95117 L 857.97461 663.66016 L 771.79297 626.51953 z M 612.66602 664.51758 L 576.16406 669.74414 L 561.53125 671.03125 L 522.77734 710.75 L 522.29492 714.12695 L 581.95312 723.85547 L 612.66602 664.51758 z M 714.5293 720.5 L 625.64258 809.04883 L 745.16992 837.14258 L 865.45117 791.79492 L 801.17383 727.86133 L 714.5293 720.5 z M 1014.8711 721.67578 L 943.50195 789.47656 L 964.37695 890.64258 L 1078.3906 908.66406 L 1130.4902 843.71875 L 1106.1348 740.41016 L 1014.8711 721.67578 z M 919.45898 790.10156 L 750.80469 856.92188 L 746.32422 940.0625 L 879.61719 954.88672 L 950.26953 896.85156 L 919.48438 790.11719 L 918.82617 791.35742 L 919.45898 790.10156 z M 642.57617 829.10156 C 642.57617 829.10156 568.8728 945.18316 568.41797 945.29688 C 567.96315 945.41056 583.99414 972.92773 583.99414 972.92773 L 680.6875 984.76172 L 724.2832 950.54688 L 736.0957 854.7207 L 642.57617 829.10156 z M 971.69336 911.875 L 886.76367 965.04492 L 860.53516 1027.627 C 860.91366 1028.1317 909.26563 1063.6406 909.26562 1063.6406 L 982.56836 1055.5859 L 1071.3867 970.2793 L 1058.2031 921.92773 L 1046.7383 925.42188 L 1046.6641 925.42188 L 1058.2031 921.92773 L 971.69336 911.875 z M 768.24609 957.19531 L 670.66797 1008.5801 L 658.51758 1089.8047 L 791.92969 1119.332 L 830.54883 1074.7441 L 863.46875 971.79297 L 768.24609 957.19531 z M 611.81836 989.62305 L 545.94531 1007.168 L 562.74414 1104.6074 L 583.74023 1168.5293 L 629.37891 1152.9238 L 655.49609 1035.7988 L 645.41797 1003.793 L 611.81836 989.62305 z " id="path4188-8" inkscape:label="#front" style="display:inline;fill:#0099ff;fill-opacity:1;fill-rule:evenodd;stroke:none;stroke-width:1px;stroke-linecap:butt;stroke-linejoin:miter;stroke-opacity:1" transform="translate(-6.103516e-5,0)"/>
  </g>
  
<g id="layer3" inkscape:groupmode="layer" inkscape:label="center_copy_1" transform="translate(-512, -512)">
    <path d="M 1008.4102 539.25977 L 889.94922 635.10352 L 837.875 738.0918 L 878.48242 775.85938 L 942.07422 760.21484 L 1062.6895 661.72656 L 1049.041 548.16992 L 1008.4102 539.25977 z M 860.62695 540.29688 L 804.18164 622.78516 L 854.11914 645.23242 L 919.80469 575.99414 L 860.62695 540.29688 z M 668.94727 602.04492 L 598.83789 715.25195 L 602.59766 715.99219 L 598.54883 715.49609 L 631.29688 777.35156 L 754.97852 616.67773 L 668.94727 602.04492 z M 771.79297 626.51953 L 708.86719 703.00977 L 709.49023 702.82227 L 828.69141 715.95117 L 857.97461 663.66016 L 771.79297 626.51953 z M 612.66602 664.51758 L 576.16406 669.74414 L 561.53125 671.03125 L 522.77734 710.75 L 522.29492 714.12695 L 581.95312 723.85547 L 612.66602 664.51758 z M 714.5293 720.5 L 625.64258 809.04883 L 745.16992 837.14258 L 865.45117 791.79492 L 801.17383 727.86133 L 714.5293 720.5 z M 1014.8711 721.67578 L 943.50195 789.47656 L 964.37695 890.64258 L 1078.3906 908.66406 L 1130.4902 843.71875 L 1106.1348 740.41016 L 1014.8711 721.67578 z M 919.45898 790.10156 L 750.80469 856.92188 L 746.32422 940.0625 L 879.61719 954.88672 L 950.26953 896.85156 L 919.48438 790.11719 L 918.82617 791.35742 L 919.45898 790.10156 z M 642.57617 829.10156 C 642.57617 829.10156 568.8728 945.18316 568.41797 945.29688 C 567.96315 945.41056 583.99414 972.92773 583.99414 972.92773 L 680.6875 984.76172 L 724.2832 950.54688 L 736.0957 854.7207 L 642.57617 829.10156 z M 971.69336 911.875 L 886.76367 965.04492 L 860.53516 1027.627 C 860.91366 1028.1317 909.26563 1063.6406 909.26562 1063.6406 L 982.56836 1055.5859 L 1071.3867 970.2793 L 1058.2031 921.92773 L 1046.7383 925.42188 L 1046.6641 925.42188 L 1058.2031 921.92773 L 971.69336 911.875 z M 768.24609 957.19531 L 670.66797 1008.5801 L 658.51758 1089.8047 L 791.92969 1119.332 L 830.54883 1074.7441 L 863.46875 971.79297 L 768.24609 957.19531 z M 611.81836 989.62305 L 545.94531 1007.168 L 562.74414 1104.6074 L 583.74023 1168.5293 L 629.37891 1152.9238 L 655.49609 1035.7988 L 645.41797 1003.793 L 611.81836 989.62305 z " id="path4188-8" inkscape:label="#front" style="display:inline;fill:#0099ff;fill-opacity:1;fill-rule:evenodd;stroke:none;stroke-width:1px;stroke-linecap:butt;stroke-linejoin:miter;stroke-opacity:1" transform="translate(-6.103516e-5,0)"/>
  </g><g id="layer3" inkscape:groupmode="layer" inkscape:label="center_copy_2" transform="translate(-512, 0)">
    <path d="M 1008.4102 539.25977 L 889.94922 635.10352 L 837.875 738.0918 L 878.48242 775.85938 L 942.07422 760.21484 L 1062.6895 661.72656 L 1049.041 548.16992 L 1008.4102 539.25977 z M 860.62695 540.29688 L 804.18164 622.78516 L 854.11914 645.23242 L 919.80469 575.99414 L 860.62695 540.29688 z M 668.94727 602.04492 L 598.83789 715.25195 L 602.59766 715.99219 L 598.54883 715.49609 L 631.29688 777.35156 L 754.97852 616.67773 L 668.94727 602.04492 z M 771.79297 626.51953 L 708.86719 703.00977 L 709.49023 702.82227 L 828.69141 715.95117 L 857.97461 663.66016 L 771.79297 626.51953 z M 612.66602 664.51758 L 576.16406 669.74414 L 561.53125 671.03125 L 522.77734 710.75 L 522.29492 714.12695 L 581.95312 723.85547 L 612.66602 664.51758 z M 714.5293 720.5 L 625.64258 809.04883 L 745.16992 837.14258 L 865.45117 791.79492 L 801.17383 727.86133 L 714.5293 720.5 z M 1014.8711 721.67578 L 943.50195 789.47656 L 964.37695 890.64258 L 1078.3906 908.66406 L 1130.4902 843.71875 L 1106.1348 740.41016 L 1014.8711 721.67578 z M 919.45898 790.10156 L 750.80469 856.92188 L 746.32422 940.0625 L 879.61719 954.88672 L 950.26953 896.85156 L 919.48438 790.11719 L 918.82617 791.35742 L 919.45898 790.10156 z M 642.57617 829.10156 C 642.57617 829.10156 568.8728 945.18316 568.41797 945.29688 C 567.96315 945.41056 583.99414 972.92773 583.99414 972.92773 L 680.6875 984.76172 L 724.2832 950.54688 L 736.0957 854.7207 L 642.57617 829.10156 z M 971.69336 911.875 L 886.76367 965.04492 L 860.53516 1027.627 C 860.91366 1028.1317 909.26563 1063.6406 909.26562 1063.6406 L 982.56836 1055.5859 L 1071.3867 970.2793 L 1058.2031 921.92773 L 1046.7383 925.42188 L 1046.6641 925.42188 L 1058.2031 921.92773 L 971.69336 911.875 z M 768.24609 957.19531 L 670.66797 1008.5801 L 658.51758 1089.8047 L 791.92969 1119.332 L 830.54883 1074.7441 L 863.46875 971.79297 L 768.24609 957.19531 z M 611.81836 989.62305 L 545.94531 1007.168 L 562.74414 1104.6074 L 583.74023 1168.5293 L 629.37891 1152.9238 L 655.49609 1035.7988 L 645.41797 1003.793 L 611.81836 989.62305 z " id="path4188-8" inkscape:label="#front" style="display:inline;fill:#0099ff;fill-opacity:1;fill-rule:evenodd;stroke:none;stroke-width:1px;stroke-linecap:butt;stroke-linejoin:miter;stroke-opacity:1" transform="translate(-6.103516e-5,0)"/>
  </g><g id="layer3" inkscape:groupmode="layer" inkscape:label="center_copy_3" transform="translate(-512, 512)">
    <path d="M 1008.4102 539.25977 L 889.94922 635.10352 L 837.875 738.0918 L 878.48242 775.85938 L 942.07422 760.21484 L 1062.6895 661.72656 L 1049.041 548.16992 L 1008.4102 539.25977 z M 860.62695 540.29688 L 804.18164 622.78516 L 854.11914 645.23242 L 919.80469 575.99414 L 860.62695 540.29688 z M 668.94727 602.04492 L 598.83789 715.25195 L 602.59766 715.99219 L 598.54883 715.49609 L 631.29688 777.35156 L 754.97852 616.67773 L 668.94727 602.04492 z M 771.79297 626.51953 L 708.86719 703.00977 L 709.49023 702.82227 L 828.69141 715.95117 L 857.97461 663.66016 L 771.79297 626.51953 z M 612.66602 664.51758 L 576.16406 669.74414 L 561.53125 671.03125 L 522.77734 710.75 L 522.29492 714.12695 L 581.95312 723.85547 L 612.66602 664.51758 z M 714.5293 720.5 L 625.64258 809.04883 L 745.16992 837.14258 L 865.45117 791.79492 L 801.17383 727.86133 L 714.5293 720.5 z M 1014.8711 721.67578 L 943.50195 789.47656 L 964.37695 890.64258 L 1078.3906 908.66406 L 1130.4902 843.71875 L 1106.1348 740.41016 L 1014.8711 721.67578 z M 919.45898 790.10156 L 750.80469 856.92188 L 746.32422 940.0625 L 879.61719 954.88672 L 950.26953 896.85156 L 919.48438 790.11719 L 918.82617 791.35742 L 919.45898 790.10156 z M 642.57617 829.10156 C 642.57617 829.10156 568.8728 945.18316 568.41797 945.29688 C 567.96315 945.41056 583.99414 972.92773 583.99414 972.92773 L 680.6875 984.76172 L 724.2832 950.54688 L 736.0957 854.7207 L 642.57617 829.10156 z M 971.69336 911.875 L 886.76367 965.04492 L 860.53516 1027.627 C 860.91366 1028.1317 909.26563 1063.6406 909.26562 1063.6406 L 982.56836 1055.5859 L 1071.3867 970.2793 L 1058.2031 921.92773 L 1046.7383 925.42188 L 1046.6641 925.42188 L 1058.2031 921.92773 L 971.69336 911.875 z M 768.24609 957.19531 L 670.66797 1008.5801 L 658.51758 1089.8047 L 791.92969 1119.332 L 830.54883 1074.7441 L 863.46875 971.79297 L 768.24609 957.19531 z M 611.81836 989.62305 L 545.94531 1007.168 L 562.74414 1104.6074 L 583.74023 1168.5293 L 629.37891 1152.9238 L 655.49609 1035.7988 L 645.41797 1003.793 L 611.81836 989.62305 z " id="path4188-8" inkscape:label="#front" style="display:inline;fill:#0099ff;fill-opacity:1;fill-rule:evenodd;stroke:none;stroke-width:1px;stroke-linecap:butt;stroke-linejoin:miter;stroke-opacity:1" transform="translate(-6.103516e-5,0)"/>
  </g><g id="layer3" inkscape:groupmode="layer" inkscape:label="center_copy_4" transform="translate(0, -512)">
    <path d="M 1008.4102 539.25977 L 889.94922 635.10352 L 837.875 738.0918 L 878.48242 775.85938 L 942.07422 760.21484 L 1062.6895 661.72656 L 1049.041 548.16992 L 1008.4102 539.25977 z M 860.62695 540.29688 L 804.18164 622.78516 L 854.11914 645.23242 L 919.80469 575.99414 L 860.62695 540.29688 z M 668.94727 602.04492 L 598.83789 715.25195 L 602.59766 715.99219 L 598.54883 715.49609 L 631.29688 777.35156 L 754.97852 616.67773 L 668.94727 602.04492 z M 771.79297 626.51953 L 708.86719 703.00977 L 709.49023 702.82227 L 828.69141 715.95117 L 857.97461 663.66016 L 771.79297 626.51953 z M 612.66602 664.51758 L 576.16406 669.74414 L 561.53125 671.03125 L 522.77734 710.75 L 522.29492 714.12695 L 581.95312 723.85547 L 612.66602 664.51758 z M 714.5293 720.5 L 625.64258 809.04883 L 745.16992 837.14258 L 865.45117 791.79492 L 801.17383 727.86133 L 714.5293 720.5 z M 1014.8711 721.67578 L 943.50195 789.47656 L 964.37695 890.64258 L 1078.3906 908.66406 L 1130.4902 843.71875 L 1106.1348 740.41016 L 1014.8711 721.67578 z M 919.45898 790.10156 L 750.80469 856.92188 L 746.32422 940.0625 L 879.61719 954.88672 L 950.26953 896.85156 L 919.48438 790.11719 L 918.82617 791.35742 L 919.45898 790.10156 z M 642.57617 829.10156 C 642.57617 829.10156 568.8728 945.18316 568.41797 945.29688 C 567.96315 945.41056 583.99414 972.92773 583.99414 972.92773 L 680.6875 984.76172 L 724.2832 950.54688 L 736.0957 854.7207 L 642.57617 829.10156 z M 971.69336 911.875 L 886.76367 965.04492 L 860.53516 1027.627 C 860.91366 1028.1317 909.26563 1063.6406 909.26562 1063.6406 L 982.56836 1055.5859 L 1071.3867 970.2793 L 1058.2031 921.92773 L 1046.7383 925.42188 L 1046.6641 925.42188 L 1058.2031 921.92773 L 971.69336 911.875 z M 768.24609 957.19531 L 670.66797 1008.5801 L 658.51758 1089.8047 L 791.92969 1119.332 L 830.54883 1074.7441 L 863.46875 971.79297 L 768.24609 957.19531 z M 611.81836 989.62305 L 545.94531 1007.168 L 562.74414 1104.6074 L 583.74023 1168.5293 L 629.37891 1152.9238 L 655.49609 1035.7988 L 645.41797 1003.793 L 611.81836 989.62305 z " id="path4188-8" inkscape:label="#front" style="display:inline;fill:#0099ff;fill-opacity:1;fill-rule:evenodd;stroke:none;stroke-width:1px;stroke-linecap:butt;stroke-linejoin:miter;stroke-opacity:1" transform="translate(-6.103516e-5,0)"/>
  </g><g id="layer3" inkscape:groupmode="layer" inkscape:label="center_copy_5" transform="translate(0, 512)">
    <path d="M 1008.4102 539.25977 L 889.94922 635.10352 L 837.875 738.0918 L 878.48242 775.85938 L 942.07422 760.21484 L 1062.6895 661.72656 L 1049.041 548.16992 L 1008.4102 539.25977 z M 860.62695 540.29688 L 804.18164 622.78516 L 854.11914 645.23242 L 919.80469 575.99414 L 860.62695 540.29688 z M 668.94727 602.04492 L 598.83789 715.25195 L 602.59766 715.99219 L 598.54883 715.49609 L 631.29688 777.35156 L 754.97852 616.67773 L 668.94727 602.04492 z M 771.79297 626.51953 L 708.86719 703.00977 L 709.49023 702.82227 L 828.69141 715.95117 L 857.97461 663.66016 L 771.79297 626.51953 z M 612.66602 664.51758 L 576.16406 669.74414 L 561.53125 671.03125 L 522.77734 710.75 L 522.29492 714.12695 L 581.95312 723.85547 L 612.66602 664.51758 z M 714.5293 720.5 L 625.64258 809.04883 L 745.16992 837.14258 L 865.45117 791.79492 L 801.17383 727.86133 L 714.5293 720.5 z M 1014.8711 721.67578 L 943.50195 789.47656 L 964.37695 890.64258 L 1078.3906 908.66406 L 1130.4902 843.71875 L 1106.1348 740.41016 L 1014.8711 721.67578 z M 919.45898 790.10156 L 750.80469 856.92188 L 746.32422 940.0625 L 879.61719 954.88672 L 950.26953 896.85156 L 919.48438 790.11719 L 918.82617 791.35742 L 919.45898 790.10156 z M 642.57617 829.10156 C 642.57617 829.10156 568.8728 945.18316 568.41797 945.29688 C 567.96315 945.41056 583.99414 972.92773 583.99414 972.92773 L 680.6875 984.76172 L 724.2832 950.54688 L 736.0957 854.7207 L 642.57617 829.10156 z M 971.69336 911.875 L 886.76367 965.04492 L 860.53516 1027.627 C 860.91366 1028.1317 909.26563 1063.6406 909.26562 1063.6406 L 982.56836 1055.5859 L 1071.3867 970.2793 L 1058.2031 921.92773 L 1046.7383 925.42188 L 1046.6641 925.42188 L 1058.2031 921.92773 L 971.69336 911.875 z M 768.24609 957.19531 L 670.66797 1008.5801 L 658.51758 1089.8047 L 791.92969 1119.332 L 830.54883 1074.7441 L 863.46875 971.79297 L 768.24609 957.19531 z M 611.81836 989.62305 L 545.94531 1007.168 L 562.74414 1104.6074 L 583.74023 1168.5293 L 629.37891 1152.9238 L 655.49609 1035.7988 L 645.41797 1003.793 L 611.81836 989.62305 z " id="path4188-8" inkscape:label="#front" style="display:inline;fill:#0099ff;fill-opacity:1;fill-rule:evenodd;stroke:none;stroke-width:1px;stroke-linecap:butt;stroke-linejoin:miter;stroke-opacity:1" transform="translate(-6.103516e-5,0)"/>
  </g><g id="layer3" inkscape:groupmode="layer" inkscape:label="center_copy_6" transform="translate(512, -512)">
    <path d="M 1008.4102 539.25977 L 889.94922 635.10352 L 837.875 738.0918 L 878.48242 775.85938 L 942.07422 760.21484 L 1062.6895 661.72656 L 1049.041 548.16992 L 1008.4102 539.25977 z M 860.62695 540.29688 L 804.18164 622.78516 L 854.11914 645.23242 L 919.80469 575.99414 L 860.62695 540.29688 z M 668.94727 602.04492 L 598.83789 715.25195 L 602.59766 715.99219 L 598.54883 715.49609 L 631.29688 777.35156 L 754.97852 616.67773 L 668.94727 602.04492 z M 771.79297 626.51953 L 708.86719 703.00977 L 709.49023 702.82227 L 828.69141 715.95117 L 857.97461 663.66016 L 771.79297 626.51953 z M 612.66602 664.51758 L 576.16406 669.74414 L 561.53125 671.03125 L 522.77734 710.75 L 522.29492 714.12695 L 581.95312 723.85547 L 612.66602 664.51758 z M 714.5293 720.5 L 625.64258 809.04883 L 745.16992 837.14258 L 865.45117 791.79492 L 801.17383 727.86133 L 714.5293 720.5 z M 1014.8711 721.67578 L 943.50195 789.47656 L 964.37695 890.64258 L 1078.3906 908.66406 L 1130.4902 843.71875 L 1106.1348 740.41016 L 1014.8711 721.67578 z M 919.45898 790.10156 L 750.80469 856.92188 L 746.32422 940.0625 L 879.61719 954.88672 L 950.26953 896.85156 L 919.48438 790.11719 L 918.82617 791.35742 L 919.45898 790.10156 z M 642.57617 829.10156 C 642.57617 829.10156 568.8728 945.18316 568.41797 945.29688 C 567.96315 945.41056 583.99414 972.92773 583.99414 972.92773 L 680.6875 984.76172 L 724.2832 950.54688 L 736.0957 854.7207 L 642.57617 829.10156 z M 971.69336 911.875 L 886.76367 965.04492 L 860.53516 1027.627 C 860.91366 1028.1317 909.26563 1063.6406 909.26562 1063.6406 L 982.56836 1055.5859 L 1071.3867 970.2793 L 1058.2031 921.92773 L 1046.7383 925.42188 L 1046.6641 925.42188 L 1058.2031 921.92773 L 971.69336 911.875 z M 768.24609 957.19531 L 670.66797 1008.5801 L 658.51758 1089.8047 L 791.92969 1119.332 L 830.54883 1074.7441 L 863.46875 971.79297 L 768.24609 957.19531 z M 611.81836 989.62305 L 545.94531 1007.168 L 562.74414 1104.6074 L 583.74023 1168.5293 L 629.37891 1152.9238 L 655.49609 1035.7988 L 645.41797 1003.793 L 611.81836 989.62305 z " id="path4188-8" inkscape:label="#front" style="display:inline;fill:#0099ff;fill-opacity:1;fill-rule:evenodd;stroke:none;stroke-width:1px;stroke-linecap:butt;stroke-linejoin:miter;stroke-opacity:1" transform="translate(-6.103516e-5,0)"/>
  </g><g id="layer3" inkscape:groupmode="layer" inkscape:label="center_copy_7" transform="translate(512, 0)">
    <path d="M 1008.4102 539.25977 L 889.94922 635.10352 L 837.875 738.0918 L 878.48242 775.85938 L 942.07422 760.21484 L 1062.6895 661.72656 L 1049.041 548.16992 L 1008.4102 539.25977 z M 860.62695 540.29688 L 804.18164 622.78516 L 854.11914 645.23242 L 919.80469 575.99414 L 860.62695 540.29688 z M 668.94727 602.04492 L 598.83789 715.25195 L 602.59766 715.99219 L 598.54883 715.49609 L 631.29688 777.35156 L 754.97852 616.67773 L 668.94727 602.04492 z M 771.79297 626.51953 L 708.86719 703.00977 L 709.49023 702.82227 L 828.69141 715.95117 L 857.97461 663.66016 L 771.79297 626.51953 z M 612.66602 664.51758 L 576.16406 669.74414 L 561.53125 671.03125 L 522.77734 710.75 L 522.29492 714.12695 L 581.95312 723.85547 L 612.66602 664.51758 z M 714.5293 720.5 L 625.64258 809.04883 L 745.16992 837.14258 L 865.45117 791.79492 L 801.17383 727.86133 L 714.5293 720.5 z M 1014.8711 721.67578 L 943.50195 789.47656 L 964.37695 890.64258 L 1078.3906 908.66406 L 1130.4902 843.71875 L 1106.1348 740.41016 L 1014.8711 721.67578 z M 919.45898 790.10156 L 750.80469 856.92188 L 746.32422 940.0625 L 879.61719 954.88672 L 950.26953 896.85156 L 919.48438 790.11719 L 918.82617 791.35742 L 919.45898 790.10156 z M 642.57617 829.10156 C 642.57617 829.10156 568.8728 945.18316 568.41797 945.29688 C 567.96315 945.41056 583.99414 972.92773 583.99414 972.92773 L 680.6875 984.76172 L 724.2832 950.54688 L 736.0957 854.7207 L 642.57617 829.10156 z M 971.69336 911.875 L 886.76367 965.04492 L 860.53516 1027.627 C 860.91366 1028.1317 909.26563 1063.6406 909.26562 1063.6406 L 982.56836 1055.5859 L 1071.3867 970.2793 L 1058.2031 921.92773 L 1046.7383 925.42188 L 1046.6641 925.42188 L 1058.2031 921.92773 L 971.69336 911.875 z M 768.24609 957.19531 L 670.66797 1008.5801 L 658.51758 1089.8047 L 791.92969 1119.332 L 830.54883 1074.7441 L 863.46875 971.79297 L 768.24609 957.19531 z M 611.81836 989.62305 L 545.94531 1007.168 L 562.74414 1104.6074 L 583.74023 1168.5293 L 629.37891 1152.9238 L 655.49609 1035.7988 L 645.41797 1003.793 L 611.81836 989.62305 z " id="path4188-8" inkscape:label="#front" style="display:inline;fill:#0099ff;fill-opacity:1;fill-rule:evenodd;stroke:none;stroke-width:1px;stroke-linecap:butt;stroke-linejoin:miter;stroke-opacity:1" transform="translate(-6.103516e-5,0)"/>
  </g><g id="layer3" inkscape:groupmode="layer" inkscape:label="center_copy_8" transform="translate(512, 512)">
    <path d="M 1008.4102 539.25977 L 889.94922 635.10352 L 837.875 738.0918 L 878.48242 775.85938 L 942.07422 760.21484 L 1062.6895 661.72656 L 1049.041 548.16992 L 1008.4102 539.25977 z M 860.62695 540.29688 L 804.18164 622.78516 L 854.11914 645.23242 L 919.80469 575.99414 L 860.62695 540.29688 z M 668.94727 602.04492 L 598.83789 715.25195 L 602.59766 715.99219 L 598.54883 715.49609 L 631.29688 777.35156 L 754.97852 616.67773 L 668.94727 602.04492 z M 771.79297 626.51953 L 708.86719 703.00977 L 709.49023 702.82227 L 828.69141 715.95117 L 857.97461 663.66016 L 771.79297 626.51953 z M 612.66602 664.51758 L 576.16406 669.74414 L 561.53125 671.03125 L 522.77734 710.75 L 522.29492 714.12695 L 581.95312 723.85547 L 612.66602 664.51758 z M 714.5293 720.5 L 625.64258 809.04883 L 745.16992 837.14258 L 865.45117 791.79492 L 801.17383 727.86133 L 714.5293 720.5 z M 1014.8711 721.67578 L 943.50195 789.47656 L 964.37695 890.64258 L 1078.3906 908.66406 L 1130.4902 843.71875 L 1106.1348 740.41016 L 1014.8711 721.67578 z M 919.45898 790.10156 L 750.80469 856.92188 L 746.32422 940.0625 L 879.61719 954.88672 L 950.26953 896.85156 L 919.48438 790.11719 L 918.82617 791.35742 L 919.45898 790.10156 z M 642.57617 829.10156 C 642.57617 829.10156 568.8728 945.18316 568.41797 945.29688 C 567.96315 945.41056 583.99414 972.92773 583.99414 972.92773 L 680.6875 984.76172 L 724.2832 950.54688 L 736.0957 854.7207 L 642.57617 829.10156 z M 971.69336 911.875 L 886.76367 965.04492 L 860.53516 1027.627 C 860.91366 1028.1317 909.26563 1063.6406 909.26562 1063.6406 L 982.56836 1055.5859 L 1071.3867 970.2793 L 1058.2031 921.92773 L 1046.7383 925.42188 L 1046.6641 925.42188 L 1058.2031 921.92773 L 971.69336 911.875 z M 768.24609 957.19531 L 670.66797 1008.5801 L 658.51758 1089.8047 L 791.92969 1119.332 L 830.54883 1074.7441 L 863.46875 971.79297 L 768.24609 957.19531 z M 611.81836 989.62305 L 545.94531 1007.168 L 562.74414 1104.6074 L 583.74023 1168.5293 L 629.37891 1152.9238 L 655.49609 1035.7988 L 645.41797 1003.793 L 611.81836 989.62305 z " id="path4188-8" inkscape:label="#front" style="display:inline;fill:#0099ff;fill-opacity:1;fill-rule:evenodd;stroke:none;stroke-width:1px;stroke-linecap:butt;stroke-linejoin:miter;stroke-opacity:1" transform="translate(-6.103516e-5,0)"/>
  </g><g id="layer4" inkscape:groupmode="layer" inkscape:label="border" sodipodi:insensitive="true" style="display:inline">
    <path d="M 1536,-3.0517579e-6 991.84397,544.15608 l -125.7447,8.6383 4.8794,41.47517 -31.71628,-41.47517 -65.87235,12.19858 -219.57448,-14.6383 19.51773,170.78015 -24.39716,139.06387 19.51773,68.3121 53.67377,0 -56.11349,21.9574 -7.31914,39.0355 -558.695074086919,546.49642 0,-1536.0001030517589 z" id="path4177" inkscape:connector-curvature="0" sodipodi:nodetypes="cccccccccccccccc" style="display:inline;opacity:1;fill:#ffffff;fill-opacity:0.06632655;fill-rule:evenodd;stroke:none;stroke-width:1px;stroke-linecap:butt;stroke-linejoin:miter;stroke-opacity:1;filter:url(#filter4291-5)"/>
    <path d="M 1536,-3.0517579e-6 991.84397,544.15608 l 13.31913,129.06382 17.078,8.87943 -17.8581,5.65958 -14.19863,101.68795 13.31913,195.37592 -218.79431,12.8794 -8.87943,-37.4751 -6.09929,37.8156 -143.94327,-10.9788 -67.0922,2.4398 L -7.4086919e-5,1536.0001 1536,1536.0001 Z" id="path4194" inkscape:connector-curvature="0" sodipodi:nodetypes="ccccccccccccccc" style="display:inline;opacity:1;fill:#000000;fill-opacity:0.11224491;fill-rule:evenodd;stroke:none;stroke-width:1px;stroke-linecap:butt;stroke-linejoin:miter;stroke-opacity:1;filter:url(#filter4293-6)"/>
  </g></svg>