<?xml version="1.0" ?><!-- Created with Inkscape (http://www.inkscape.org/) --><svg height="1536" id="svg2" inkscape:export-filename="C:\Users\Michael\Desktop\GFX\stone_restore.png" inkscape:export-xdpi="90" inkscape:export-ydpi="90" inkscape:version="0.91 r13725" sodipodi:docname="stonebrick_base_smooth.svg" version="1.1" viewBox="0 0 1536 1536" width="1536" xmlns="http://www.w3.org/2000/svg" xmlns:cc="http://creativecommons.org/ns#" xmlns:dc="http://purl.org/dc/elements/1.1/" xmlns:inkscape="http://www.inkscape.org/namespaces/inkscape" xmlns:rdf="http://www.w3.org/1999/02/22-rdf-syntax-ns#" xmlns:sodipodi="http://sodipodi.sourceforge.net/DTD/sodipodi-0.dtd" xmlns:svg="http://www.w3.org/2000/svg">
  <defs id="defs4">
    <filter id="filter4383" inkscape:label="filter1" style="color-interpolation-filters:sRGB">
      <feBlend id="feBlend4385" in2="BackgroundImage" mode="multiply"/>
    </filter>
  </defs>
  <sodipodi:namedview bordercolor="#666666" borderopacity="1.0" gridtolerance="10" id="base" inkscape:current-layer="layer1" inkscape:cx="943.57974" inkscape:cy="759.03637" inkscape:document-units="px" inkscape:object-nodes="true" inkscape:object-paths="true" inkscape:pageopacity="0.0" inkscape:pageshadow="2" inkscape:showpageshadow="false" inkscape:snap-bbox="true" inkscape:snap-global="true" inkscape:snap-grids="true" inkscape:snap-intersection-paths="true" inkscape:snap-smooth-nodes="true" inkscape:window-height="937" inkscape:window-maximized="1" inkscape:window-width="1680" inkscape:window-x="-4" inkscape:window-y="-4" inkscape:zoom="1" pagecolor="#ffffff" showborder="true" showgrid="true" showguides="true" units="px">
    <inkscape:grid empspacing="1" id="grid4264" snapvisiblegridlinesonly="true" spacingx="512" spacingy="512" type="xygrid"/>
  </sodipodi:namedview>
  <metadata id="metadata7">
    <rdf:RDF>
      <cc:Work rdf:about="">
        <dc:format>image/svg+xml</dc:format>
        <dc:type rdf:resource="http://purl.org/dc/dcmitype/StillImage"/>
        <dc:title/>
      </cc:Work>
    </rdf:RDF>
  </metadata>
  <g id="layer3" inkscape:groupmode="layer" inkscape:label="BG" sodipodi:insensitive="true" style="display:inline" transform="translate(0,483.63784)">
    <path d="m -89.368153,-580.66499 1733.754253,-5.79295 5.1411,1704.47284 -1741.465916,17.3788 z" id="path5842" inkscape:connector-curvature="0" sodipodi:nodetypes="ccccc" style="display:inline;fill:#0c0c0c;fill-opacity:1;fill-rule:evenodd;stroke:none;stroke-width:0;stroke-linecap:butt;stroke-linejoin:miter;stroke-opacity:1"/>
  </g>
  <g id="layer1" inkscape:groupmode="layer" inkscape:label="center" style="display:inline">
    <path d="m 773.01791,983.30851 0.89468,18.03459 29.18846,22.6168 15.3278,-0.5889 206.18655,-5.5131 56.2864,0.7735 181.8975,4.6979 11.492,-13.8524 1.9528,-28.15783 -252.216,-1.32906 z" id="path4203" inkscape:connector-curvature="0" sodipodi:nodetypes="ccccccccccc" style="display:inline;fill:#000000;fill-opacity:0.17857143;fill-rule:evenodd;stroke:none;stroke-width:1.04184091px;stroke-linecap:butt;stroke-linejoin:miter;stroke-opacity:1;filter:url(#filter4383)"/>
    <path d="m 798.2486,774.90319 -20.59434,14.64817 -4.63635,193.75715 34.32307,26.07519 216.67172,-8.5289 228.7113,10.7462 23.5201,-30.28193 -8.0527,-190.76688 -28.5788,-21.81174 -219.0262,14.88903 z" id="path4201" inkscape:connector-curvature="0" inkscape:label="#dark" sodipodi:nodetypes="ccccccccccc" style="display:inline;fill:#171717;fill-opacity:1;fill-rule:evenodd;stroke:none;stroke-width:1.04184091px;stroke-linecap:butt;stroke-linejoin:miter;stroke-opacity:1"/>
    <path d="m 791.7589,975.58023 20.98943,16.38429 207.53657,-11.78549 224.3649,14.80475 15.4655,-17.66133 -5.0782,-178.25763 -19.8019,-15.42336 -215.4285,17.23698 -210.52558,-6.78907 -16.6312,12.59267 z" id="path4205" inkscape:connector-curvature="0" inkscape:label="#front" sodipodi:nodetypes="ccccccccccc" style="display:inline;fill:#232323;fill-opacity:1;fill-rule:evenodd;stroke:none;stroke-width:1.04184091px;stroke-linecap:butt;stroke-linejoin:miter;stroke-opacity:1"/>
    <path d="m 518.53785,743.59261 1.50656,17.27405 23.31453,13.52444 214.67469,-13.09074 241.39974,15.57889 18.70903,-16.7667 1.4888,-16.2306 -280.98874,-26.78031 -184.18871,27.73439 z" id="path4209" inkscape:connector-curvature="0" sodipodi:nodetypes="cccccccccc" style="display:inline;fill:#000000;fill-opacity:0.18039216;fill-rule:evenodd;stroke:none;stroke-width:1.02233899px;stroke-linecap:butt;stroke-linejoin:miter;stroke-opacity:1;filter:url(#filter4383)"/>
    <path d="m 983.62307,513.7563 38.05173,22.14665 -2.0436,207.979 -25.36783,19.14254 -239.2082,-15.78018 -206.67286,12.54584 -29.84446,-16.19754 10.81415,-127.35559 -10.10702,-73.35732 36.59846,-28.19403 289.828,9.0153 z" id="path4207" inkscape:connector-curvature="0" inkscape:label="#dark" sodipodi:nodetypes="cccccccccccc" style="display:inline;fill:#171717;fill-opacity:1;fill-rule:evenodd;stroke:none;stroke-width:0.99338305px;stroke-linecap:butt;stroke-linejoin:miter;stroke-opacity:1"/>
    <path d="m 563.31621,530.39354 -26.85851,18.89005 11.93734,81.29283 -12.31018,103.88236 14.92132,8.59431 214.49492,-13.5701 222.70613,15.30974 16.57887,-10.85721 -0.2854,-188.94194 -24.40193,-13.369 -138.03352,7.97623 z" id="path4211" inkscape:connector-curvature="0" inkscape:label="#front" sodipodi:nodetypes="cccccccccccc" style="display:inline;fill:#232323;fill-opacity:1;fill-rule:evenodd;stroke:none;stroke-width:1.02233899px;stroke-linecap:butt;stroke-linejoin:miter;stroke-opacity:1"/>
    <path d="M 983.62305 513.75586 L 981.04102 702.84961 L 959.96484 723.25586 L 764.00781 707.82617 L 520.70508 718.07031 L 518.53711 743.5918 L 548.38281 759.79102 L 755.05469 747.24414 L 994.26367 763.02539 L 1019.6309 743.88281 L 1021.6738 535.90234 L 983.62305 513.75586 z " id="path4207-4" style="display:inline;fill:#000000;fill-opacity:0.12244898;fill-rule:evenodd;stroke:none;stroke-width:0.99338305px;stroke-linecap:butt;stroke-linejoin:miter;stroke-opacity:1;filter:url(#filter4383)"/>
    <path d="M 1239.6133 768.74023 L 1229.543 769.42578 L 1237.1777 958.17969 L 1219.9297 975.82617 L 1032.8711 961.70508 L 773.33789 969.93359 L 773.01758 983.30859 L 807.3418 1009.3828 L 1024.0137 1000.8555 L 1252.7246 1011.6016 L 1276.2441 981.31836 L 1268.1914 790.55273 L 1239.6133 768.74023 z " id="path4201-7" style="display:inline;fill:#000000;fill-opacity:0.12244898;fill-rule:evenodd;stroke:none;stroke-width:1.04184091px;stroke-linecap:butt;stroke-linejoin:miter;stroke-opacity:1;filter:url(#filter4383)"/>
    <path d="m 565,670 7,-90.99999 26,-24 235,17 132.99999,-5 L 821,590 l -165,1 -12,25 -19,-32 -29,12 z" id="path4248" inkscape:connector-curvature="0" inkscape:label="#light" sodipodi:nodetypes="ccccccccccc" style="display:inline;fill:#2c2c2c;fill-opacity:1;fill-rule:evenodd;stroke:none;stroke-width:1px;stroke-linecap:butt;stroke-linejoin:miter;stroke-opacity:1"/>
    <path d="m 811.88619,910.62717 3.46424,-76.43898 18.26379,-17.14353 175.53528,5.04221 14.8544,-1.05958 197.2086,-14.06707 -213.0777,33.27863 -152.72044,1.7722 -20.78549,14.36289 z" id="path4265" inkscape:connector-curvature="0" inkscape:label="#light" sodipodi:nodetypes="cccccccccc" style="fill:#2c2c2c;fill-opacity:1;fill-rule:evenodd;stroke:none;stroke-width:1px;stroke-linecap:butt;stroke-linejoin:miter;stroke-opacity:1"/>
  </g>
<g id="layer1" inkscape:groupmode="layer" inkscape:label="center_copy_1" style="display:inline" transform="translate(-512, -512)">
    <path d="m 773.01791,983.30851 0.89468,18.03459 29.18846,22.6168 15.3278,-0.5889 206.18655,-5.5131 56.2864,0.7735 181.8975,4.6979 11.492,-13.8524 1.9528,-28.15783 -252.216,-1.32906 z" id="path4203" inkscape:connector-curvature="0" sodipodi:nodetypes="ccccccccccc" style="display:inline;fill:#000000;fill-opacity:0.17857143;fill-rule:evenodd;stroke:none;stroke-width:1.04184091px;stroke-linecap:butt;stroke-linejoin:miter;stroke-opacity:1;filter:url(#filter4383)"/>
    <path d="m 798.2486,774.90319 -20.59434,14.64817 -4.63635,193.75715 34.32307,26.07519 216.67172,-8.5289 228.7113,10.7462 23.5201,-30.28193 -8.0527,-190.76688 -28.5788,-21.81174 -219.0262,14.88903 z" id="path4201" inkscape:connector-curvature="0" inkscape:label="#dark" sodipodi:nodetypes="ccccccccccc" style="display:inline;fill:#171717;fill-opacity:1;fill-rule:evenodd;stroke:none;stroke-width:1.04184091px;stroke-linecap:butt;stroke-linejoin:miter;stroke-opacity:1"/>
    <path d="m 791.7589,975.58023 20.98943,16.38429 207.53657,-11.78549 224.3649,14.80475 15.4655,-17.66133 -5.0782,-178.25763 -19.8019,-15.42336 -215.4285,17.23698 -210.52558,-6.78907 -16.6312,12.59267 z" id="path4205" inkscape:connector-curvature="0" inkscape:label="#front" sodipodi:nodetypes="ccccccccccc" style="display:inline;fill:#232323;fill-opacity:1;fill-rule:evenodd;stroke:none;stroke-width:1.04184091px;stroke-linecap:butt;stroke-linejoin:miter;stroke-opacity:1"/>
    <path d="m 518.53785,743.59261 1.50656,17.27405 23.31453,13.52444 214.67469,-13.09074 241.39974,15.57889 18.70903,-16.7667 1.4888,-16.2306 -280.98874,-26.78031 -184.18871,27.73439 z" id="path4209" inkscape:connector-curvature="0" sodipodi:nodetypes="cccccccccc" style="display:inline;fill:#000000;fill-opacity:0.18039216;fill-rule:evenodd;stroke:none;stroke-width:1.02233899px;stroke-linecap:butt;stroke-linejoin:miter;stroke-opacity:1;filter:url(#filter4383)"/>
    <path d="m 983.62307,513.7563 38.05173,22.14665 -2.0436,207.979 -25.36783,19.14254 -239.2082,-15.78018 -206.67286,12.54584 -29.84446,-16.19754 10.81415,-127.35559 -10.10702,-73.35732 36.59846,-28.19403 289.828,9.0153 z" id="path4207" inkscape:connector-curvature="0" inkscape:label="#dark" sodipodi:nodetypes="cccccccccccc" style="display:inline;fill:#171717;fill-opacity:1;fill-rule:evenodd;stroke:none;stroke-width:0.99338305px;stroke-linecap:butt;stroke-linejoin:miter;stroke-opacity:1"/>
    <path d="m 563.31621,530.39354 -26.85851,18.89005 11.93734,81.29283 -12.31018,103.88236 14.92132,8.59431 214.49492,-13.5701 222.70613,15.30974 16.57887,-10.85721 -0.2854,-188.94194 -24.40193,-13.369 -138.03352,7.97623 z" id="path4211" inkscape:connector-curvature="0" inkscape:label="#front" sodipodi:nodetypes="cccccccccccc" style="display:inline;fill:#232323;fill-opacity:1;fill-rule:evenodd;stroke:none;stroke-width:1.02233899px;stroke-linecap:butt;stroke-linejoin:miter;stroke-opacity:1"/>
    <path d="M 983.62305 513.75586 L 981.04102 702.84961 L 959.96484 723.25586 L 764.00781 707.82617 L 520.70508 718.07031 L 518.53711 743.5918 L 548.38281 759.79102 L 755.05469 747.24414 L 994.26367 763.02539 L 1019.6309 743.88281 L 1021.6738 535.90234 L 983.62305 513.75586 z " id="path4207-4" style="display:inline;fill:#000000;fill-opacity:0.12244898;fill-rule:evenodd;stroke:none;stroke-width:0.99338305px;stroke-linecap:butt;stroke-linejoin:miter;stroke-opacity:1;filter:url(#filter4383)"/>
    <path d="M 1239.6133 768.74023 L 1229.543 769.42578 L 1237.1777 958.17969 L 1219.9297 975.82617 L 1032.8711 961.70508 L 773.33789 969.93359 L 773.01758 983.30859 L 807.3418 1009.3828 L 1024.0137 1000.8555 L 1252.7246 1011.6016 L 1276.2441 981.31836 L 1268.1914 790.55273 L 1239.6133 768.74023 z " id="path4201-7" style="display:inline;fill:#000000;fill-opacity:0.12244898;fill-rule:evenodd;stroke:none;stroke-width:1.04184091px;stroke-linecap:butt;stroke-linejoin:miter;stroke-opacity:1;filter:url(#filter4383)"/>
    <path d="m 565,670 7,-90.99999 26,-24 235,17 132.99999,-5 L 821,590 l -165,1 -12,25 -19,-32 -29,12 z" id="path4248" inkscape:connector-curvature="0" inkscape:label="#light" sodipodi:nodetypes="ccccccccccc" style="display:inline;fill:#2c2c2c;fill-opacity:1;fill-rule:evenodd;stroke:none;stroke-width:1px;stroke-linecap:butt;stroke-linejoin:miter;stroke-opacity:1"/>
    <path d="m 811.88619,910.62717 3.46424,-76.43898 18.26379,-17.14353 175.53528,5.04221 14.8544,-1.05958 197.2086,-14.06707 -213.0777,33.27863 -152.72044,1.7722 -20.78549,14.36289 z" id="path4265" inkscape:connector-curvature="0" inkscape:label="#light" sodipodi:nodetypes="cccccccccc" style="fill:#2c2c2c;fill-opacity:1;fill-rule:evenodd;stroke:none;stroke-width:1px;stroke-linecap:butt;stroke-linejoin:miter;stroke-opacity:1"/>
  </g><g id="layer1" inkscape:groupmode="layer" inkscape:label="center_copy_2" style="display:inline" transform="translate(-512, 0)">
    <path d="m 773.01791,983.30851 0.89468,18.03459 29.18846,22.6168 15.3278,-0.5889 206.18655,-5.5131 56.2864,0.7735 181.8975,4.6979 11.492,-13.8524 1.9528,-28.15783 -252.216,-1.32906 z" id="path4203" inkscape:connector-curvature="0" sodipodi:nodetypes="ccccccccccc" style="display:inline;fill:#000000;fill-opacity:0.17857143;fill-rule:evenodd;stroke:none;stroke-width:1.04184091px;stroke-linecap:butt;stroke-linejoin:miter;stroke-opacity:1;filter:url(#filter4383)"/>
    <path d="m 798.2486,774.90319 -20.59434,14.64817 -4.63635,193.75715 34.32307,26.07519 216.67172,-8.5289 228.7113,10.7462 23.5201,-30.28193 -8.0527,-190.76688 -28.5788,-21.81174 -219.0262,14.88903 z" id="path4201" inkscape:connector-curvature="0" inkscape:label="#dark" sodipodi:nodetypes="ccccccccccc" style="display:inline;fill:#171717;fill-opacity:1;fill-rule:evenodd;stroke:none;stroke-width:1.04184091px;stroke-linecap:butt;stroke-linejoin:miter;stroke-opacity:1"/>
    <path d="m 791.7589,975.58023 20.98943,16.38429 207.53657,-11.78549 224.3649,14.80475 15.4655,-17.66133 -5.0782,-178.25763 -19.8019,-15.42336 -215.4285,17.23698 -210.52558,-6.78907 -16.6312,12.59267 z" id="path4205" inkscape:connector-curvature="0" inkscape:label="#front" sodipodi:nodetypes="ccccccccccc" style="display:inline;fill:#232323;fill-opacity:1;fill-rule:evenodd;stroke:none;stroke-width:1.04184091px;stroke-linecap:butt;stroke-linejoin:miter;stroke-opacity:1"/>
    <path d="m 518.53785,743.59261 1.50656,17.27405 23.31453,13.52444 214.67469,-13.09074 241.39974,15.57889 18.70903,-16.7667 1.4888,-16.2306 -280.98874,-26.78031 -184.18871,27.73439 z" id="path4209" inkscape:connector-curvature="0" sodipodi:nodetypes="cccccccccc" style="display:inline;fill:#000000;fill-opacity:0.18039216;fill-rule:evenodd;stroke:none;stroke-width:1.02233899px;stroke-linecap:butt;stroke-linejoin:miter;stroke-opacity:1;filter:url(#filter4383)"/>
    <path d="m 983.62307,513.7563 38.05173,22.14665 -2.0436,207.979 -25.36783,19.14254 -239.2082,-15.78018 -206.67286,12.54584 -29.84446,-16.19754 10.81415,-127.35559 -10.10702,-73.35732 36.59846,-28.19403 289.828,9.0153 z" id="path4207" inkscape:connector-curvature="0" inkscape:label="#dark" sodipodi:nodetypes="cccccccccccc" style="display:inline;fill:#171717;fill-opacity:1;fill-rule:evenodd;stroke:none;stroke-width:0.99338305px;stroke-linecap:butt;stroke-linejoin:miter;stroke-opacity:1"/>
    <path d="m 563.31621,530.39354 -26.85851,18.89005 11.93734,81.29283 -12.31018,103.88236 14.92132,8.59431 214.49492,-13.5701 222.70613,15.30974 16.57887,-10.85721 -0.2854,-188.94194 -24.40193,-13.369 -138.03352,7.97623 z" id="path4211" inkscape:connector-curvature="0" inkscape:label="#front" sodipodi:nodetypes="cccccccccccc" style="display:inline;fill:#232323;fill-opacity:1;fill-rule:evenodd;stroke:none;stroke-width:1.02233899px;stroke-linecap:butt;stroke-linejoin:miter;stroke-opacity:1"/>
    <path d="M 983.62305 513.75586 L 981.04102 702.84961 L 959.96484 723.25586 L 764.00781 707.82617 L 520.70508 718.07031 L 518.53711 743.5918 L 548.38281 759.79102 L 755.05469 747.24414 L 994.26367 763.02539 L 1019.6309 743.88281 L 1021.6738 535.90234 L 983.62305 513.75586 z " id="path4207-4" style="display:inline;fill:#000000;fill-opacity:0.12244898;fill-rule:evenodd;stroke:none;stroke-width:0.99338305px;stroke-linecap:butt;stroke-linejoin:miter;stroke-opacity:1;filter:url(#filter4383)"/>
    <path d="M 1239.6133 768.74023 L 1229.543 769.42578 L 1237.1777 958.17969 L 1219.9297 975.82617 L 1032.8711 961.70508 L 773.33789 969.93359 L 773.01758 983.30859 L 807.3418 1009.3828 L 1024.0137 1000.8555 L 1252.7246 1011.6016 L 1276.2441 981.31836 L 1268.1914 790.55273 L 1239.6133 768.74023 z " id="path4201-7" style="display:inline;fill:#000000;fill-opacity:0.12244898;fill-rule:evenodd;stroke:none;stroke-width:1.04184091px;stroke-linecap:butt;stroke-linejoin:miter;stroke-opacity:1;filter:url(#filter4383)"/>
    <path d="m 565,670 7,-90.99999 26,-24 235,17 132.99999,-5 L 821,590 l -165,1 -12,25 -19,-32 -29,12 z" id="path4248" inkscape:connector-curvature="0" inkscape:label="#light" sodipodi:nodetypes="ccccccccccc" style="display:inline;fill:#2c2c2c;fill-opacity:1;fill-rule:evenodd;stroke:none;stroke-width:1px;stroke-linecap:butt;stroke-linejoin:miter;stroke-opacity:1"/>
    <path d="m 811.88619,910.62717 3.46424,-76.43898 18.26379,-17.14353 175.53528,5.04221 14.8544,-1.05958 197.2086,-14.06707 -213.0777,33.27863 -152.72044,1.7722 -20.78549,14.36289 z" id="path4265" inkscape:connector-curvature="0" inkscape:label="#light" sodipodi:nodetypes="cccccccccc" style="fill:#2c2c2c;fill-opacity:1;fill-rule:evenodd;stroke:none;stroke-width:1px;stroke-linecap:butt;stroke-linejoin:miter;stroke-opacity:1"/>
  </g><g id="layer1" inkscape:groupmode="layer" inkscape:label="center_copy_3" style="display:inline" transform="translate(-512, 512)">
    <path d="m 773.01791,983.30851 0.89468,18.03459 29.18846,22.6168 15.3278,-0.5889 206.18655,-5.5131 56.2864,0.7735 181.8975,4.6979 11.492,-13.8524 1.9528,-28.15783 -252.216,-1.32906 z" id="path4203" inkscape:connector-curvature="0" sodipodi:nodetypes="ccccccccccc" style="display:inline;fill:#000000;fill-opacity:0.17857143;fill-rule:evenodd;stroke:none;stroke-width:1.04184091px;stroke-linecap:butt;stroke-linejoin:miter;stroke-opacity:1;filter:url(#filter4383)"/>
    <path d="m 798.2486,774.90319 -20.59434,14.64817 -4.63635,193.75715 34.32307,26.07519 216.67172,-8.5289 228.7113,10.7462 23.5201,-30.28193 -8.0527,-190.76688 -28.5788,-21.81174 -219.0262,14.88903 z" id="path4201" inkscape:connector-curvature="0" inkscape:label="#dark" sodipodi:nodetypes="ccccccccccc" style="display:inline;fill:#171717;fill-opacity:1;fill-rule:evenodd;stroke:none;stroke-width:1.04184091px;stroke-linecap:butt;stroke-linejoin:miter;stroke-opacity:1"/>
    <path d="m 791.7589,975.58023 20.98943,16.38429 207.53657,-11.78549 224.3649,14.80475 15.4655,-17.66133 -5.0782,-178.25763 -19.8019,-15.42336 -215.4285,17.23698 -210.52558,-6.78907 -16.6312,12.59267 z" id="path4205" inkscape:connector-curvature="0" inkscape:label="#front" sodipodi:nodetypes="ccccccccccc" style="display:inline;fill:#232323;fill-opacity:1;fill-rule:evenodd;stroke:none;stroke-width:1.04184091px;stroke-linecap:butt;stroke-linejoin:miter;stroke-opacity:1"/>
    <path d="m 518.53785,743.59261 1.50656,17.27405 23.31453,13.52444 214.67469,-13.09074 241.39974,15.57889 18.70903,-16.7667 1.4888,-16.2306 -280.98874,-26.78031 -184.18871,27.73439 z" id="path4209" inkscape:connector-curvature="0" sodipodi:nodetypes="cccccccccc" style="display:inline;fill:#000000;fill-opacity:0.18039216;fill-rule:evenodd;stroke:none;stroke-width:1.02233899px;stroke-linecap:butt;stroke-linejoin:miter;stroke-opacity:1;filter:url(#filter4383)"/>
    <path d="m 983.62307,513.7563 38.05173,22.14665 -2.0436,207.979 -25.36783,19.14254 -239.2082,-15.78018 -206.67286,12.54584 -29.84446,-16.19754 10.81415,-127.35559 -10.10702,-73.35732 36.59846,-28.19403 289.828,9.0153 z" id="path4207" inkscape:connector-curvature="0" inkscape:label="#dark" sodipodi:nodetypes="cccccccccccc" style="display:inline;fill:#171717;fill-opacity:1;fill-rule:evenodd;stroke:none;stroke-width:0.99338305px;stroke-linecap:butt;stroke-linejoin:miter;stroke-opacity:1"/>
    <path d="m 563.31621,530.39354 -26.85851,18.89005 11.93734,81.29283 -12.31018,103.88236 14.92132,8.59431 214.49492,-13.5701 222.70613,15.30974 16.57887,-10.85721 -0.2854,-188.94194 -24.40193,-13.369 -138.03352,7.97623 z" id="path4211" inkscape:connector-curvature="0" inkscape:label="#front" sodipodi:nodetypes="cccccccccccc" style="display:inline;fill:#232323;fill-opacity:1;fill-rule:evenodd;stroke:none;stroke-width:1.02233899px;stroke-linecap:butt;stroke-linejoin:miter;stroke-opacity:1"/>
    <path d="M 983.62305 513.75586 L 981.04102 702.84961 L 959.96484 723.25586 L 764.00781 707.82617 L 520.70508 718.07031 L 518.53711 743.5918 L 548.38281 759.79102 L 755.05469 747.24414 L 994.26367 763.02539 L 1019.6309 743.88281 L 1021.6738 535.90234 L 983.62305 513.75586 z " id="path4207-4" style="display:inline;fill:#000000;fill-opacity:0.12244898;fill-rule:evenodd;stroke:none;stroke-width:0.99338305px;stroke-linecap:butt;stroke-linejoin:miter;stroke-opacity:1;filter:url(#filter4383)"/>
    <path d="M 1239.6133 768.74023 L 1229.543 769.42578 L 1237.1777 958.17969 L 1219.9297 975.82617 L 1032.8711 961.70508 L 773.33789 969.93359 L 773.01758 983.30859 L 807.3418 1009.3828 L 1024.0137 1000.8555 L 1252.7246 1011.6016 L 1276.2441 981.31836 L 1268.1914 790.55273 L 1239.6133 768.74023 z " id="path4201-7" style="display:inline;fill:#000000;fill-opacity:0.12244898;fill-rule:evenodd;stroke:none;stroke-width:1.04184091px;stroke-linecap:butt;stroke-linejoin:miter;stroke-opacity:1;filter:url(#filter4383)"/>
    <path d="m 565,670 7,-90.99999 26,-24 235,17 132.99999,-5 L 821,590 l -165,1 -12,25 -19,-32 -29,12 z" id="path4248" inkscape:connector-curvature="0" inkscape:label="#light" sodipodi:nodetypes="ccccccccccc" style="display:inline;fill:#2c2c2c;fill-opacity:1;fill-rule:evenodd;stroke:none;stroke-width:1px;stroke-linecap:butt;stroke-linejoin:miter;stroke-opacity:1"/>
    <path d="m 811.88619,910.62717 3.46424,-76.43898 18.26379,-17.14353 175.53528,5.04221 14.8544,-1.05958 197.2086,-14.06707 -213.0777,33.27863 -152.72044,1.7722 -20.78549,14.36289 z" id="path4265" inkscape:connector-curvature="0" inkscape:label="#light" sodipodi:nodetypes="cccccccccc" style="fill:#2c2c2c;fill-opacity:1;fill-rule:evenodd;stroke:none;stroke-width:1px;stroke-linecap:butt;stroke-linejoin:miter;stroke-opacity:1"/>
  </g><g id="layer1" inkscape:groupmode="layer" inkscape:label="center_copy_4" style="display:inline" transform="translate(0, -512)">
    <path d="m 773.01791,983.30851 0.89468,18.03459 29.18846,22.6168 15.3278,-0.5889 206.18655,-5.5131 56.2864,0.7735 181.8975,4.6979 11.492,-13.8524 1.9528,-28.15783 -252.216,-1.32906 z" id="path4203" inkscape:connector-curvature="0" sodipodi:nodetypes="ccccccccccc" style="display:inline;fill:#000000;fill-opacity:0.17857143;fill-rule:evenodd;stroke:none;stroke-width:1.04184091px;stroke-linecap:butt;stroke-linejoin:miter;stroke-opacity:1;filter:url(#filter4383)"/>
    <path d="m 798.2486,774.90319 -20.59434,14.64817 -4.63635,193.75715 34.32307,26.07519 216.67172,-8.5289 228.7113,10.7462 23.5201,-30.28193 -8.0527,-190.76688 -28.5788,-21.81174 -219.0262,14.88903 z" id="path4201" inkscape:connector-curvature="0" inkscape:label="#dark" sodipodi:nodetypes="ccccccccccc" style="display:inline;fill:#171717;fill-opacity:1;fill-rule:evenodd;stroke:none;stroke-width:1.04184091px;stroke-linecap:butt;stroke-linejoin:miter;stroke-opacity:1"/>
    <path d="m 791.7589,975.58023 20.98943,16.38429 207.53657,-11.78549 224.3649,14.80475 15.4655,-17.66133 -5.0782,-178.25763 -19.8019,-15.42336 -215.4285,17.23698 -210.52558,-6.78907 -16.6312,12.59267 z" id="path4205" inkscape:connector-curvature="0" inkscape:label="#front" sodipodi:nodetypes="ccccccccccc" style="display:inline;fill:#232323;fill-opacity:1;fill-rule:evenodd;stroke:none;stroke-width:1.04184091px;stroke-linecap:butt;stroke-linejoin:miter;stroke-opacity:1"/>
    <path d="m 518.53785,743.59261 1.50656,17.27405 23.31453,13.52444 214.67469,-13.09074 241.39974,15.57889 18.70903,-16.7667 1.4888,-16.2306 -280.98874,-26.78031 -184.18871,27.73439 z" id="path4209" inkscape:connector-curvature="0" sodipodi:nodetypes="cccccccccc" style="display:inline;fill:#000000;fill-opacity:0.18039216;fill-rule:evenodd;stroke:none;stroke-width:1.02233899px;stroke-linecap:butt;stroke-linejoin:miter;stroke-opacity:1;filter:url(#filter4383)"/>
    <path d="m 983.62307,513.7563 38.05173,22.14665 -2.0436,207.979 -25.36783,19.14254 -239.2082,-15.78018 -206.67286,12.54584 -29.84446,-16.19754 10.81415,-127.35559 -10.10702,-73.35732 36.59846,-28.19403 289.828,9.0153 z" id="path4207" inkscape:connector-curvature="0" inkscape:label="#dark" sodipodi:nodetypes="cccccccccccc" style="display:inline;fill:#171717;fill-opacity:1;fill-rule:evenodd;stroke:none;stroke-width:0.99338305px;stroke-linecap:butt;stroke-linejoin:miter;stroke-opacity:1"/>
    <path d="m 563.31621,530.39354 -26.85851,18.89005 11.93734,81.29283 -12.31018,103.88236 14.92132,8.59431 214.49492,-13.5701 222.70613,15.30974 16.57887,-10.85721 -0.2854,-188.94194 -24.40193,-13.369 -138.03352,7.97623 z" id="path4211" inkscape:connector-curvature="0" inkscape:label="#front" sodipodi:nodetypes="cccccccccccc" style="display:inline;fill:#232323;fill-opacity:1;fill-rule:evenodd;stroke:none;stroke-width:1.02233899px;stroke-linecap:butt;stroke-linejoin:miter;stroke-opacity:1"/>
    <path d="M 983.62305 513.75586 L 981.04102 702.84961 L 959.96484 723.25586 L 764.00781 707.82617 L 520.70508 718.07031 L 518.53711 743.5918 L 548.38281 759.79102 L 755.05469 747.24414 L 994.26367 763.02539 L 1019.6309 743.88281 L 1021.6738 535.90234 L 983.62305 513.75586 z " id="path4207-4" style="display:inline;fill:#000000;fill-opacity:0.12244898;fill-rule:evenodd;stroke:none;stroke-width:0.99338305px;stroke-linecap:butt;stroke-linejoin:miter;stroke-opacity:1;filter:url(#filter4383)"/>
    <path d="M 1239.6133 768.74023 L 1229.543 769.42578 L 1237.1777 958.17969 L 1219.9297 975.82617 L 1032.8711 961.70508 L 773.33789 969.93359 L 773.01758 983.30859 L 807.3418 1009.3828 L 1024.0137 1000.8555 L 1252.7246 1011.6016 L 1276.2441 981.31836 L 1268.1914 790.55273 L 1239.6133 768.74023 z " id="path4201-7" style="display:inline;fill:#000000;fill-opacity:0.12244898;fill-rule:evenodd;stroke:none;stroke-width:1.04184091px;stroke-linecap:butt;stroke-linejoin:miter;stroke-opacity:1;filter:url(#filter4383)"/>
    <path d="m 565,670 7,-90.99999 26,-24 235,17 132.99999,-5 L 821,590 l -165,1 -12,25 -19,-32 -29,12 z" id="path4248" inkscape:connector-curvature="0" inkscape:label="#light" sodipodi:nodetypes="ccccccccccc" style="display:inline;fill:#2c2c2c;fill-opacity:1;fill-rule:evenodd;stroke:none;stroke-width:1px;stroke-linecap:butt;stroke-linejoin:miter;stroke-opacity:1"/>
    <path d="m 811.88619,910.62717 3.46424,-76.43898 18.26379,-17.14353 175.53528,5.04221 14.8544,-1.05958 197.2086,-14.06707 -213.0777,33.27863 -152.72044,1.7722 -20.78549,14.36289 z" id="path4265" inkscape:connector-curvature="0" inkscape:label="#light" sodipodi:nodetypes="cccccccccc" style="fill:#2c2c2c;fill-opacity:1;fill-rule:evenodd;stroke:none;stroke-width:1px;stroke-linecap:butt;stroke-linejoin:miter;stroke-opacity:1"/>
  </g><g id="layer1" inkscape:groupmode="layer" inkscape:label="center_copy_5" style="display:inline" transform="translate(0, 512)">
    <path d="m 773.01791,983.30851 0.89468,18.03459 29.18846,22.6168 15.3278,-0.5889 206.18655,-5.5131 56.2864,0.7735 181.8975,4.6979 11.492,-13.8524 1.9528,-28.15783 -252.216,-1.32906 z" id="path4203" inkscape:connector-curvature="0" sodipodi:nodetypes="ccccccccccc" style="display:inline;fill:#000000;fill-opacity:0.17857143;fill-rule:evenodd;stroke:none;stroke-width:1.04184091px;stroke-linecap:butt;stroke-linejoin:miter;stroke-opacity:1;filter:url(#filter4383)"/>
    <path d="m 798.2486,774.90319 -20.59434,14.64817 -4.63635,193.75715 34.32307,26.07519 216.67172,-8.5289 228.7113,10.7462 23.5201,-30.28193 -8.0527,-190.76688 -28.5788,-21.81174 -219.0262,14.88903 z" id="path4201" inkscape:connector-curvature="0" inkscape:label="#dark" sodipodi:nodetypes="ccccccccccc" style="display:inline;fill:#171717;fill-opacity:1;fill-rule:evenodd;stroke:none;stroke-width:1.04184091px;stroke-linecap:butt;stroke-linejoin:miter;stroke-opacity:1"/>
    <path d="m 791.7589,975.58023 20.98943,16.38429 207.53657,-11.78549 224.3649,14.80475 15.4655,-17.66133 -5.0782,-178.25763 -19.8019,-15.42336 -215.4285,17.23698 -210.52558,-6.78907 -16.6312,12.59267 z" id="path4205" inkscape:connector-curvature="0" inkscape:label="#front" sodipodi:nodetypes="ccccccccccc" style="display:inline;fill:#232323;fill-opacity:1;fill-rule:evenodd;stroke:none;stroke-width:1.04184091px;stroke-linecap:butt;stroke-linejoin:miter;stroke-opacity:1"/>
    <path d="m 518.53785,743.59261 1.50656,17.27405 23.31453,13.52444 214.67469,-13.09074 241.39974,15.57889 18.70903,-16.7667 1.4888,-16.2306 -280.98874,-26.78031 -184.18871,27.73439 z" id="path4209" inkscape:connector-curvature="0" sodipodi:nodetypes="cccccccccc" style="display:inline;fill:#000000;fill-opacity:0.18039216;fill-rule:evenodd;stroke:none;stroke-width:1.02233899px;stroke-linecap:butt;stroke-linejoin:miter;stroke-opacity:1;filter:url(#filter4383)"/>
    <path d="m 983.62307,513.7563 38.05173,22.14665 -2.0436,207.979 -25.36783,19.14254 -239.2082,-15.78018 -206.67286,12.54584 -29.84446,-16.19754 10.81415,-127.35559 -10.10702,-73.35732 36.59846,-28.19403 289.828,9.0153 z" id="path4207" inkscape:connector-curvature="0" inkscape:label="#dark" sodipodi:nodetypes="cccccccccccc" style="display:inline;fill:#171717;fill-opacity:1;fill-rule:evenodd;stroke:none;stroke-width:0.99338305px;stroke-linecap:butt;stroke-linejoin:miter;stroke-opacity:1"/>
    <path d="m 563.31621,530.39354 -26.85851,18.89005 11.93734,81.29283 -12.31018,103.88236 14.92132,8.59431 214.49492,-13.5701 222.70613,15.30974 16.57887,-10.85721 -0.2854,-188.94194 -24.40193,-13.369 -138.03352,7.97623 z" id="path4211" inkscape:connector-curvature="0" inkscape:label="#front" sodipodi:nodetypes="cccccccccccc" style="display:inline;fill:#232323;fill-opacity:1;fill-rule:evenodd;stroke:none;stroke-width:1.02233899px;stroke-linecap:butt;stroke-linejoin:miter;stroke-opacity:1"/>
    <path d="M 983.62305 513.75586 L 981.04102 702.84961 L 959.96484 723.25586 L 764.00781 707.82617 L 520.70508 718.07031 L 518.53711 743.5918 L 548.38281 759.79102 L 755.05469 747.24414 L 994.26367 763.02539 L 1019.6309 743.88281 L 1021.6738 535.90234 L 983.62305 513.75586 z " id="path4207-4" style="display:inline;fill:#000000;fill-opacity:0.12244898;fill-rule:evenodd;stroke:none;stroke-width:0.99338305px;stroke-linecap:butt;stroke-linejoin:miter;stroke-opacity:1;filter:url(#filter4383)"/>
    <path d="M 1239.6133 768.74023 L 1229.543 769.42578 L 1237.1777 958.17969 L 1219.9297 975.82617 L 1032.8711 961.70508 L 773.33789 969.93359 L 773.01758 983.30859 L 807.3418 1009.3828 L 1024.0137 1000.8555 L 1252.7246 1011.6016 L 1276.2441 981.31836 L 1268.1914 790.55273 L 1239.6133 768.74023 z " id="path4201-7" style="display:inline;fill:#000000;fill-opacity:0.12244898;fill-rule:evenodd;stroke:none;stroke-width:1.04184091px;stroke-linecap:butt;stroke-linejoin:miter;stroke-opacity:1;filter:url(#filter4383)"/>
    <path d="m 565,670 7,-90.99999 26,-24 235,17 132.99999,-5 L 821,590 l -165,1 -12,25 -19,-32 -29,12 z" id="path4248" inkscape:connector-curvature="0" inkscape:label="#light" sodipodi:nodetypes="ccccccccccc" style="display:inline;fill:#2c2c2c;fill-opacity:1;fill-rule:evenodd;stroke:none;stroke-width:1px;stroke-linecap:butt;stroke-linejoin:miter;stroke-opacity:1"/>
    <path d="m 811.88619,910.62717 3.46424,-76.43898 18.26379,-17.14353 175.53528,5.04221 14.8544,-1.05958 197.2086,-14.06707 -213.0777,33.27863 -152.72044,1.7722 -20.78549,14.36289 z" id="path4265" inkscape:connector-curvature="0" inkscape:label="#light" sodipodi:nodetypes="cccccccccc" style="fill:#2c2c2c;fill-opacity:1;fill-rule:evenodd;stroke:none;stroke-width:1px;stroke-linecap:butt;stroke-linejoin:miter;stroke-opacity:1"/>
  </g><g id="layer1" inkscape:groupmode="layer" inkscape:label="center_copy_6" style="display:inline" transform="translate(512, -512)">
    <path d="m 773.01791,983.30851 0.89468,18.03459 29.18846,22.6168 15.3278,-0.5889 206.18655,-5.5131 56.2864,0.7735 181.8975,4.6979 11.492,-13.8524 1.9528,-28.15783 -252.216,-1.32906 z" id="path4203" inkscape:connector-curvature="0" sodipodi:nodetypes="ccccccccccc" style="display:inline;fill:#000000;fill-opacity:0.17857143;fill-rule:evenodd;stroke:none;stroke-width:1.04184091px;stroke-linecap:butt;stroke-linejoin:miter;stroke-opacity:1;filter:url(#filter4383)"/>
    <path d="m 798.2486,774.90319 -20.59434,14.64817 -4.63635,193.75715 34.32307,26.07519 216.67172,-8.5289 228.7113,10.7462 23.5201,-30.28193 -8.0527,-190.76688 -28.5788,-21.81174 -219.0262,14.88903 z" id="path4201" inkscape:connector-curvature="0" inkscape:label="#dark" sodipodi:nodetypes="ccccccccccc" style="display:inline;fill:#171717;fill-opacity:1;fill-rule:evenodd;stroke:none;stroke-width:1.04184091px;stroke-linecap:butt;stroke-linejoin:miter;stroke-opacity:1"/>
    <path d="m 791.7589,975.58023 20.98943,16.38429 207.53657,-11.78549 224.3649,14.80475 15.4655,-17.66133 -5.0782,-178.25763 -19.8019,-15.42336 -215.4285,17.23698 -210.52558,-6.78907 -16.6312,12.59267 z" id="path4205" inkscape:connector-curvature="0" inkscape:label="#front" sodipodi:nodetypes="ccccccccccc" style="display:inline;fill:#232323;fill-opacity:1;fill-rule:evenodd;stroke:none;stroke-width:1.04184091px;stroke-linecap:butt;stroke-linejoin:miter;stroke-opacity:1"/>
    <path d="m 518.53785,743.59261 1.50656,17.27405 23.31453,13.52444 214.67469,-13.09074 241.39974,15.57889 18.70903,-16.7667 1.4888,-16.2306 -280.98874,-26.78031 -184.18871,27.73439 z" id="path4209" inkscape:connector-curvature="0" sodipodi:nodetypes="cccccccccc" style="display:inline;fill:#000000;fill-opacity:0.18039216;fill-rule:evenodd;stroke:none;stroke-width:1.02233899px;stroke-linecap:butt;stroke-linejoin:miter;stroke-opacity:1;filter:url(#filter4383)"/>
    <path d="m 983.62307,513.7563 38.05173,22.14665 -2.0436,207.979 -25.36783,19.14254 -239.2082,-15.78018 -206.67286,12.54584 -29.84446,-16.19754 10.81415,-127.35559 -10.10702,-73.35732 36.59846,-28.19403 289.828,9.0153 z" id="path4207" inkscape:connector-curvature="0" inkscape:label="#dark" sodipodi:nodetypes="cccccccccccc" style="display:inline;fill:#171717;fill-opacity:1;fill-rule:evenodd;stroke:none;stroke-width:0.99338305px;stroke-linecap:butt;stroke-linejoin:miter;stroke-opacity:1"/>
    <path d="m 563.31621,530.39354 -26.85851,18.89005 11.93734,81.29283 -12.31018,103.88236 14.92132,8.59431 214.49492,-13.5701 222.70613,15.30974 16.57887,-10.85721 -0.2854,-188.94194 -24.40193,-13.369 -138.03352,7.97623 z" id="path4211" inkscape:connector-curvature="0" inkscape:label="#front" sodipodi:nodetypes="cccccccccccc" style="display:inline;fill:#232323;fill-opacity:1;fill-rule:evenodd;stroke:none;stroke-width:1.02233899px;stroke-linecap:butt;stroke-linejoin:miter;stroke-opacity:1"/>
    <path d="M 983.62305 513.75586 L 981.04102 702.84961 L 959.96484 723.25586 L 764.00781 707.82617 L 520.70508 718.07031 L 518.53711 743.5918 L 548.38281 759.79102 L 755.05469 747.24414 L 994.26367 763.02539 L 1019.6309 743.88281 L 1021.6738 535.90234 L 983.62305 513.75586 z " id="path4207-4" style="display:inline;fill:#000000;fill-opacity:0.12244898;fill-rule:evenodd;stroke:none;stroke-width:0.99338305px;stroke-linecap:butt;stroke-linejoin:miter;stroke-opacity:1;filter:url(#filter4383)"/>
    <path d="M 1239.6133 768.74023 L 1229.543 769.42578 L 1237.1777 958.17969 L 1219.9297 975.82617 L 1032.8711 961.70508 L 773.33789 969.93359 L 773.01758 983.30859 L 807.3418 1009.3828 L 1024.0137 1000.8555 L 1252.7246 1011.6016 L 1276.2441 981.31836 L 1268.1914 790.55273 L 1239.6133 768.74023 z " id="path4201-7" style="display:inline;fill:#000000;fill-opacity:0.12244898;fill-rule:evenodd;stroke:none;stroke-width:1.04184091px;stroke-linecap:butt;stroke-linejoin:miter;stroke-opacity:1;filter:url(#filter4383)"/>
    <path d="m 565,670 7,-90.99999 26,-24 235,17 132.99999,-5 L 821,590 l -165,1 -12,25 -19,-32 -29,12 z" id="path4248" inkscape:connector-curvature="0" inkscape:label="#light" sodipodi:nodetypes="ccccccccccc" style="display:inline;fill:#2c2c2c;fill-opacity:1;fill-rule:evenodd;stroke:none;stroke-width:1px;stroke-linecap:butt;stroke-linejoin:miter;stroke-opacity:1"/>
    <path d="m 811.88619,910.62717 3.46424,-76.43898 18.26379,-17.14353 175.53528,5.04221 14.8544,-1.05958 197.2086,-14.06707 -213.0777,33.27863 -152.72044,1.7722 -20.78549,14.36289 z" id="path4265" inkscape:connector-curvature="0" inkscape:label="#light" sodipodi:nodetypes="cccccccccc" style="fill:#2c2c2c;fill-opacity:1;fill-rule:evenodd;stroke:none;stroke-width:1px;stroke-linecap:butt;stroke-linejoin:miter;stroke-opacity:1"/>
  </g><g id="layer1" inkscape:groupmode="layer" inkscape:label="center_copy_7" style="display:inline" transform="translate(512, 0)">
    <path d="m 773.01791,983.30851 0.89468,18.03459 29.18846,22.6168 15.3278,-0.5889 206.18655,-5.5131 56.2864,0.7735 181.8975,4.6979 11.492,-13.8524 1.9528,-28.15783 -252.216,-1.32906 z" id="path4203" inkscape:connector-curvature="0" sodipodi:nodetypes="ccccccccccc" style="display:inline;fill:#000000;fill-opacity:0.17857143;fill-rule:evenodd;stroke:none;stroke-width:1.04184091px;stroke-linecap:butt;stroke-linejoin:miter;stroke-opacity:1;filter:url(#filter4383)"/>
    <path d="m 798.2486,774.90319 -20.59434,14.64817 -4.63635,193.75715 34.32307,26.07519 216.67172,-8.5289 228.7113,10.7462 23.5201,-30.28193 -8.0527,-190.76688 -28.5788,-21.81174 -219.0262,14.88903 z" id="path4201" inkscape:connector-curvature="0" inkscape:label="#dark" sodipodi:nodetypes="ccccccccccc" style="display:inline;fill:#171717;fill-opacity:1;fill-rule:evenodd;stroke:none;stroke-width:1.04184091px;stroke-linecap:butt;stroke-linejoin:miter;stroke-opacity:1"/>
    <path d="m 791.7589,975.58023 20.98943,16.38429 207.53657,-11.78549 224.3649,14.80475 15.4655,-17.66133 -5.0782,-178.25763 -19.8019,-15.42336 -215.4285,17.23698 -210.52558,-6.78907 -16.6312,12.59267 z" id="path4205" inkscape:connector-curvature="0" inkscape:label="#front" sodipodi:nodetypes="ccccccccccc" style="display:inline;fill:#232323;fill-opacity:1;fill-rule:evenodd;stroke:none;stroke-width:1.04184091px;stroke-linecap:butt;stroke-linejoin:miter;stroke-opacity:1"/>
    <path d="m 518.53785,743.59261 1.50656,17.27405 23.31453,13.52444 214.67469,-13.09074 241.39974,15.57889 18.70903,-16.7667 1.4888,-16.2306 -280.98874,-26.78031 -184.18871,27.73439 z" id="path4209" inkscape:connector-curvature="0" sodipodi:nodetypes="cccccccccc" style="display:inline;fill:#000000;fill-opacity:0.18039216;fill-rule:evenodd;stroke:none;stroke-width:1.02233899px;stroke-linecap:butt;stroke-linejoin:miter;stroke-opacity:1;filter:url(#filter4383)"/>
    <path d="m 983.62307,513.7563 38.05173,22.14665 -2.0436,207.979 -25.36783,19.14254 -239.2082,-15.78018 -206.67286,12.54584 -29.84446,-16.19754 10.81415,-127.35559 -10.10702,-73.35732 36.59846,-28.19403 289.828,9.0153 z" id="path4207" inkscape:connector-curvature="0" inkscape:label="#dark" sodipodi:nodetypes="cccccccccccc" style="display:inline;fill:#171717;fill-opacity:1;fill-rule:evenodd;stroke:none;stroke-width:0.99338305px;stroke-linecap:butt;stroke-linejoin:miter;stroke-opacity:1"/>
    <path d="m 563.31621,530.39354 -26.85851,18.89005 11.93734,81.29283 -12.31018,103.88236 14.92132,8.59431 214.49492,-13.5701 222.70613,15.30974 16.57887,-10.85721 -0.2854,-188.94194 -24.40193,-13.369 -138.03352,7.97623 z" id="path4211" inkscape:connector-curvature="0" inkscape:label="#front" sodipodi:nodetypes="cccccccccccc" style="display:inline;fill:#232323;fill-opacity:1;fill-rule:evenodd;stroke:none;stroke-width:1.02233899px;stroke-linecap:butt;stroke-linejoin:miter;stroke-opacity:1"/>
    <path d="M 983.62305 513.75586 L 981.04102 702.84961 L 959.96484 723.25586 L 764.00781 707.82617 L 520.70508 718.07031 L 518.53711 743.5918 L 548.38281 759.79102 L 755.05469 747.24414 L 994.26367 763.02539 L 1019.6309 743.88281 L 1021.6738 535.90234 L 983.62305 513.75586 z " id="path4207-4" style="display:inline;fill:#000000;fill-opacity:0.12244898;fill-rule:evenodd;stroke:none;stroke-width:0.99338305px;stroke-linecap:butt;stroke-linejoin:miter;stroke-opacity:1;filter:url(#filter4383)"/>
    <path d="M 1239.6133 768.74023 L 1229.543 769.42578 L 1237.1777 958.17969 L 1219.9297 975.82617 L 1032.8711 961.70508 L 773.33789 969.93359 L 773.01758 983.30859 L 807.3418 1009.3828 L 1024.0137 1000.8555 L 1252.7246 1011.6016 L 1276.2441 981.31836 L 1268.1914 790.55273 L 1239.6133 768.74023 z " id="path4201-7" style="display:inline;fill:#000000;fill-opacity:0.12244898;fill-rule:evenodd;stroke:none;stroke-width:1.04184091px;stroke-linecap:butt;stroke-linejoin:miter;stroke-opacity:1;filter:url(#filter4383)"/>
    <path d="m 565,670 7,-90.99999 26,-24 235,17 132.99999,-5 L 821,590 l -165,1 -12,25 -19,-32 -29,12 z" id="path4248" inkscape:connector-curvature="0" inkscape:label="#light" sodipodi:nodetypes="ccccccccccc" style="display:inline;fill:#2c2c2c;fill-opacity:1;fill-rule:evenodd;stroke:none;stroke-width:1px;stroke-linecap:butt;stroke-linejoin:miter;stroke-opacity:1"/>
    <path d="m 811.88619,910.62717 3.46424,-76.43898 18.26379,-17.14353 175.53528,5.04221 14.8544,-1.05958 197.2086,-14.06707 -213.0777,33.27863 -152.72044,1.7722 -20.78549,14.36289 z" id="path4265" inkscape:connector-curvature="0" inkscape:label="#light" sodipodi:nodetypes="cccccccccc" style="fill:#2c2c2c;fill-opacity:1;fill-rule:evenodd;stroke:none;stroke-width:1px;stroke-linecap:butt;stroke-linejoin:miter;stroke-opacity:1"/>
  </g><g id="layer1" inkscape:groupmode="layer" inkscape:label="center_copy_8" style="display:inline" transform="translate(512, 512)">
    <path d="m 773.01791,983.30851 0.89468,18.03459 29.18846,22.6168 15.3278,-0.5889 206.18655,-5.5131 56.2864,0.7735 181.8975,4.6979 11.492,-13.8524 1.9528,-28.15783 -252.216,-1.32906 z" id="path4203" inkscape:connector-curvature="0" sodipodi:nodetypes="ccccccccccc" style="display:inline;fill:#000000;fill-opacity:0.17857143;fill-rule:evenodd;stroke:none;stroke-width:1.04184091px;stroke-linecap:butt;stroke-linejoin:miter;stroke-opacity:1;filter:url(#filter4383)"/>
    <path d="m 798.2486,774.90319 -20.59434,14.64817 -4.63635,193.75715 34.32307,26.07519 216.67172,-8.5289 228.7113,10.7462 23.5201,-30.28193 -8.0527,-190.76688 -28.5788,-21.81174 -219.0262,14.88903 z" id="path4201" inkscape:connector-curvature="0" inkscape:label="#dark" sodipodi:nodetypes="ccccccccccc" style="display:inline;fill:#171717;fill-opacity:1;fill-rule:evenodd;stroke:none;stroke-width:1.04184091px;stroke-linecap:butt;stroke-linejoin:miter;stroke-opacity:1"/>
    <path d="m 791.7589,975.58023 20.98943,16.38429 207.53657,-11.78549 224.3649,14.80475 15.4655,-17.66133 -5.0782,-178.25763 -19.8019,-15.42336 -215.4285,17.23698 -210.52558,-6.78907 -16.6312,12.59267 z" id="path4205" inkscape:connector-curvature="0" inkscape:label="#front" sodipodi:nodetypes="ccccccccccc" style="display:inline;fill:#232323;fill-opacity:1;fill-rule:evenodd;stroke:none;stroke-width:1.04184091px;stroke-linecap:butt;stroke-linejoin:miter;stroke-opacity:1"/>
    <path d="m 518.53785,743.59261 1.50656,17.27405 23.31453,13.52444 214.67469,-13.09074 241.39974,15.57889 18.70903,-16.7667 1.4888,-16.2306 -280.98874,-26.78031 -184.18871,27.73439 z" id="path4209" inkscape:connector-curvature="0" sodipodi:nodetypes="cccccccccc" style="display:inline;fill:#000000;fill-opacity:0.18039216;fill-rule:evenodd;stroke:none;stroke-width:1.02233899px;stroke-linecap:butt;stroke-linejoin:miter;stroke-opacity:1;filter:url(#filter4383)"/>
    <path d="m 983.62307,513.7563 38.05173,22.14665 -2.0436,207.979 -25.36783,19.14254 -239.2082,-15.78018 -206.67286,12.54584 -29.84446,-16.19754 10.81415,-127.35559 -10.10702,-73.35732 36.59846,-28.19403 289.828,9.0153 z" id="path4207" inkscape:connector-curvature="0" inkscape:label="#dark" sodipodi:nodetypes="cccccccccccc" style="display:inline;fill:#171717;fill-opacity:1;fill-rule:evenodd;stroke:none;stroke-width:0.99338305px;stroke-linecap:butt;stroke-linejoin:miter;stroke-opacity:1"/>
    <path d="m 563.31621,530.39354 -26.85851,18.89005 11.93734,81.29283 -12.31018,103.88236 14.92132,8.59431 214.49492,-13.5701 222.70613,15.30974 16.57887,-10.85721 -0.2854,-188.94194 -24.40193,-13.369 -138.03352,7.97623 z" id="path4211" inkscape:connector-curvature="0" inkscape:label="#front" sodipodi:nodetypes="cccccccccccc" style="display:inline;fill:#232323;fill-opacity:1;fill-rule:evenodd;stroke:none;stroke-width:1.02233899px;stroke-linecap:butt;stroke-linejoin:miter;stroke-opacity:1"/>
    <path d="M 983.62305 513.75586 L 981.04102 702.84961 L 959.96484 723.25586 L 764.00781 707.82617 L 520.70508 718.07031 L 518.53711 743.5918 L 548.38281 759.79102 L 755.05469 747.24414 L 994.26367 763.02539 L 1019.6309 743.88281 L 1021.6738 535.90234 L 983.62305 513.75586 z " id="path4207-4" style="display:inline;fill:#000000;fill-opacity:0.12244898;fill-rule:evenodd;stroke:none;stroke-width:0.99338305px;stroke-linecap:butt;stroke-linejoin:miter;stroke-opacity:1;filter:url(#filter4383)"/>
    <path d="M 1239.6133 768.74023 L 1229.543 769.42578 L 1237.1777 958.17969 L 1219.9297 975.82617 L 1032.8711 961.70508 L 773.33789 969.93359 L 773.01758 983.30859 L 807.3418 1009.3828 L 1024.0137 1000.8555 L 1252.7246 1011.6016 L 1276.2441 981.31836 L 1268.1914 790.55273 L 1239.6133 768.74023 z " id="path4201-7" style="display:inline;fill:#000000;fill-opacity:0.12244898;fill-rule:evenodd;stroke:none;stroke-width:1.04184091px;stroke-linecap:butt;stroke-linejoin:miter;stroke-opacity:1;filter:url(#filter4383)"/>
    <path d="m 565,670 7,-90.99999 26,-24 235,17 132.99999,-5 L 821,590 l -165,1 -12,25 -19,-32 -29,12 z" id="path4248" inkscape:connector-curvature="0" inkscape:label="#light" sodipodi:nodetypes="ccccccccccc" style="display:inline;fill:#2c2c2c;fill-opacity:1;fill-rule:evenodd;stroke:none;stroke-width:1px;stroke-linecap:butt;stroke-linejoin:miter;stroke-opacity:1"/>
    <path d="m 811.88619,910.62717 3.46424,-76.43898 18.26379,-17.14353 175.53528,5.04221 14.8544,-1.05958 197.2086,-14.06707 -213.0777,33.27863 -152.72044,1.7722 -20.78549,14.36289 z" id="path4265" inkscape:connector-curvature="0" inkscape:label="#light" sodipodi:nodetypes="cccccccccc" style="fill:#2c2c2c;fill-opacity:1;fill-rule:evenodd;stroke:none;stroke-width:1px;stroke-linecap:butt;stroke-linejoin:miter;stroke-opacity:1"/>
  </g></svg>