<?xml version="1.0" encoding="UTF-8" standalone="no"?>
<!-- Created with Inkscape (http://www.inkscape.org/) -->

<svg
   xmlns:dc="http://purl.org/dc/elements/1.1/"
   xmlns:cc="http://creativecommons.org/ns#"
   xmlns:rdf="http://www.w3.org/1999/02/22-rdf-syntax-ns#"
   xmlns:svg="http://www.w3.org/2000/svg"
   xmlns="http://www.w3.org/2000/svg"
   xmlns:sodipodi="http://sodipodi.sourceforge.net/DTD/sodipodi-0.dtd"
   xmlns:inkscape="http://www.inkscape.org/namespaces/inkscape"
   width="1536"
   height="1536"
   viewBox="0 0 1536 1536"
   id="svg2"
   version="1.1"
   inkscape:version="0.91 r13725"
   sodipodi:docname="stonebrick_obsidian_smooth.svg"
   inkscape:export-filename="C:\Users\Michael\Desktop\GFX\stone_restore.png"
   inkscape:export-xdpi="90"
   inkscape:export-ydpi="90">
  <defs
     id="defs4">
    <pattern
       y="0"
       x="0"
       height="6"
       width="6"
       patternUnits="userSpaceOnUse"
       id="EMFhbasepattern" />
  </defs>
  <sodipodi:namedview
     id="base"
     pagecolor="#ffffff"
     bordercolor="#666666"
     borderopacity="1.0"
     inkscape:pageopacity="0.0"
     inkscape:pageshadow="2"
     inkscape:zoom="0.25"
     inkscape:cx="2389.5699"
     inkscape:cy="810.79755"
     inkscape:document-units="px"
     inkscape:current-layer="layer1"
     showgrid="true"
     inkscape:snap-bbox="true"
     inkscape:snap-intersection-paths="true"
     inkscape:object-paths="true"
     inkscape:object-nodes="true"
     inkscape:snap-smooth-nodes="true"
     inkscape:snap-global="false"
     inkscape:window-width="1600"
     inkscape:window-height="878"
     inkscape:window-x="-8"
     inkscape:window-y="-8"
     inkscape:window-maximized="1"
     units="px"
     showborder="true"
     inkscape:showpageshadow="false"
     inkscape:snap-grids="true"
     showguides="true">
    <inkscape:grid
       type="xygrid"
       id="grid4264"
       spacingx="512"
       spacingy="512"
       empspacing="1"
       snapvisiblegridlinesonly="true" />
  </sodipodi:namedview>
  <metadata
     id="metadata7">
    <rdf:RDF>
      <cc:Work
         rdf:about="">
        <dc:format>image/svg+xml</dc:format>
        <dc:type
           rdf:resource="http://purl.org/dc/dcmitype/StillImage" />
        <dc:title></dc:title>
      </cc:Work>
    </rdf:RDF>
  </metadata>
  <g
     inkscape:groupmode="layer"
     id="layer2"
     inkscape:label="origin" />
  <g
     inkscape:groupmode="layer"
     id="layer3"
     inkscape:label="BG"
     transform="translate(0,483.63784)"
     style="display:inline">
    <path
       style="display:inline;fill:#101019;fill-opacity:1;fill-rule:evenodd;stroke:none;stroke-width:0;stroke-linecap:butt;stroke-linejoin:miter;stroke-opacity:1"
       d="m 0,-483.63784 1536,0 0,1536.00004 -1536,0 z"
       id="path5842"
       inkscape:connector-curvature="0"
       sodipodi:nodetypes="ccccc" />
  </g>
  <g
     inkscape:groupmode="layer"
     id="layer1"
     inkscape:label="center">
    <path
       style="display:inline;fill:#08080c;fill-opacity:1;fill-rule:evenodd;stroke:none;stroke-width:1.04184091px;stroke-linecap:butt;stroke-linejoin:miter;stroke-opacity:1"
       d="m 772.81008,983.25808 1.10251,18.08502 29.18846,22.6168 15.3278,-0.5889 206.18655,-5.5131 56.2864,0.7735 181.8975,4.6979 11.492,-13.8524 1.7234,-28.15783 -251.9866,-1.32906 z"
       id="path4203"
       inkscape:connector-curvature="0"
       sodipodi:nodetypes="ccccccccccc" />
    <path
       style="display:inline;fill:#231c2e;fill-opacity:1;fill-rule:evenodd;stroke:none;stroke-width:1.04184091px;stroke-linecap:butt;stroke-linejoin:miter;stroke-opacity:1"
       d="m 798.2486,774.90319 -20.59434,14.64817 -4.63635,193.75715 34.32307,26.07519 216.67172,-8.5289 228.7113,10.7462 23.5201,-30.28193 -8.0527,-190.76688 -28.5788,-21.81174 -219.0262,14.88903 z"
       id="path4201"
       inkscape:connector-curvature="0"
       sodipodi:nodetypes="ccccccccccc" />
    <path
       style="display:inline;fill:#312740;fill-opacity:1;fill-rule:evenodd;stroke:none;stroke-width:1.04184091px;stroke-linecap:butt;stroke-linejoin:miter;stroke-opacity:1"
       d="m 791.7589,975.58023 20.98943,16.38429 207.53657,-11.78549 224.3649,14.80475 15.4655,-17.66133 -5.0782,-178.25763 -19.8019,-15.42336 -215.4285,17.23698 -210.52558,-6.78907 -16.6312,12.59267 z"
       id="path4205"
       inkscape:connector-curvature="0"
       sodipodi:nodetypes="ccccccccccc" />
    <path
       style="display:inline;fill:#08080c;fill-opacity:1;fill-rule:evenodd;stroke:none;stroke-width:1.02233899px;stroke-linecap:butt;stroke-linejoin:miter;stroke-opacity:1"
       d="m 518.55227,743.90505 1.49214,16.96161 23.31453,13.52444 214.67469,-13.09074 241.39974,15.57889 18.70903,-16.7667 1.3909,-15.80112 -280.89084,-27.20979 -184.18871,27.73439 z"
       id="path4209"
       inkscape:connector-curvature="0"
       sodipodi:nodetypes="cccccccccc" />
    <path
       style="display:inline;fill:#231c2e;fill-opacity:1;fill-rule:evenodd;stroke:none;stroke-width:0.99338305px;stroke-linecap:butt;stroke-linejoin:miter;stroke-opacity:1"
       d="m 983.62307,513.7563 38.05173,22.14665 -2.0436,207.979 -25.36783,19.14254 -239.2082,-15.78018 -206.67286,12.54584 -29.84446,-16.19754 10.81415,-127.35559 -10.10702,-73.35732 36.59846,-28.19403 289.828,9.0153 z"
       id="path4207"
       inkscape:connector-curvature="0"
       sodipodi:nodetypes="cccccccccccc" />
    <path
       style="display:inline;fill:#312740;fill-opacity:1;fill-rule:evenodd;stroke:none;stroke-width:1.02233899px;stroke-linecap:butt;stroke-linejoin:miter;stroke-opacity:1"
       d="m 563.31621,530.39354 -26.85851,18.89005 11.93734,81.29283 -12.31018,103.88236 14.92132,8.59431 214.49492,-13.5701 222.70613,15.30974 16.57887,-10.85721 -0.2854,-188.94194 -24.40193,-13.369 -138.03352,7.97623 z"
       id="path4211"
       inkscape:connector-curvature="0"
       sodipodi:nodetypes="cccccccccccc" />
    <path
       style="opacity:0.7;fill:#3b2e4c;fill-opacity:1;fill-rule:evenodd;stroke:none;stroke-width:1px;stroke-linecap:butt;stroke-linejoin:miter;stroke-opacity:1"
       d="m 521.15232,717.33946 242.85624,-9.5128 195.95536,15.42984 21.07802,-20.40732 -4.86302,-188.60212 -93.30659,6.64149 -36.96379,2.76064 -3.17094,-0.0933 -286.90901,-8.87203 -36.58644,28.20225 10.10727,73.32877 -0.0274,0.30078 z"
       id="path4244"
       inkscape:connector-curvature="0"
       sodipodi:nodetypes="ccccccccccccc" />
    <path
       style="opacity:0.7;fill:#3b2e4c;fill-opacity:1;fill-rule:evenodd;stroke:none;stroke-width:1px;stroke-linecap:butt;stroke-linejoin:miter;stroke-opacity:1"
       d="m 773.46846,970.71248 259.40244,-9.00688 187.0584,14.12134 17.2491,-17.64776 -7.7408,-188.3506 -208.7856,13.80397 -222.41628,-8.72832 -20.58286,14.65068 z"
       id="path4246"
       inkscape:connector-curvature="0"
       sodipodi:nodetypes="ccccccccc" />
    <path
       style="display:inline;fill:#53446e;fill-opacity:1;fill-rule:evenodd;stroke:none;stroke-width:1px;stroke-linecap:butt;stroke-linejoin:miter;stroke-opacity:1"
       d="m 565,670 7,-90.99999 26,-24 235,17 132.99999,-5 L 821,590 l -165,1 -12,25 -19,-32 -29,12 z"
       id="path4248"
       inkscape:connector-curvature="0"
       sodipodi:nodetypes="ccccccccccc" />
    <path
       style="fill:#53446e;fill-opacity:1;fill-rule:evenodd;stroke:none;stroke-width:1px;stroke-linecap:butt;stroke-linejoin:miter;stroke-opacity:1"
       d="m 811.88619,910.62717 3.46424,-76.43898 18.26379,-17.14353 175.53528,5.04221 14.8544,-1.05958 197.2086,-14.06707 -213.0777,33.27863 -152.72044,1.7722 -20.78549,14.36289 z"
       id="path4265"
       inkscape:connector-curvature="0"
       sodipodi:nodetypes="cccccccccc" />
  </g>
  <g
     inkscape:groupmode="layer"
     id="layer5"
     inkscape:label="left">
    <path
       style="display:inline;fill:#08080c;fill-opacity:1;fill-rule:evenodd;stroke:none;stroke-width:1.04184091px;stroke-linecap:butt;stroke-linejoin:miter;stroke-opacity:1"
       d="m 260.81008,983.25808 1.10251,18.08502 29.18846,22.6168 15.3278,-0.5889 206.18655,-5.5131 56.2864,0.7735 181.8975,4.6979 11.492,-13.8524 1.7234,-28.15783 -251.9866,-1.32906 z"
       id="path4203-4"
       inkscape:connector-curvature="0"
       sodipodi:nodetypes="ccccccccccc" />
    <path
       style="display:inline;fill:#231c2e;fill-opacity:1;fill-rule:evenodd;stroke:none;stroke-width:1.04184091px;stroke-linecap:butt;stroke-linejoin:miter;stroke-opacity:1"
       d="m 286.2486,774.90319 -20.59434,14.64817 -4.63635,193.75715 34.32307,26.07519 216.67172,-8.5289 228.7113,10.7462 23.5201,-30.28193 -8.0527,-190.76688 -28.5788,-21.81174 -219.0262,14.88903 z"
       id="path4201-9"
       inkscape:connector-curvature="0"
       sodipodi:nodetypes="ccccccccccc" />
    <path
       style="display:inline;fill:#312740;fill-opacity:1;fill-rule:evenodd;stroke:none;stroke-width:1.04184091px;stroke-linecap:butt;stroke-linejoin:miter;stroke-opacity:1"
       d="m 279.7589,975.58023 20.98943,16.38429 207.53657,-11.78549 224.3649,14.80475 15.4655,-17.66133 -5.0782,-178.25763 -19.8019,-15.42336 -215.4285,17.23698 -210.52558,-6.78907 -16.6312,12.59267 z"
       id="path4205-5"
       inkscape:connector-curvature="0"
       sodipodi:nodetypes="ccccccccccc" />
    <path
       style="display:inline;fill:#08080c;fill-opacity:1;fill-rule:evenodd;stroke:none;stroke-width:1.02233899px;stroke-linecap:butt;stroke-linejoin:miter;stroke-opacity:1"
       d="m 6.55227,743.90505 1.49214,16.96161 23.31453,13.52444 214.67469,-13.09074 241.39974,15.57889 18.70903,-16.7667 1.3909,-15.80112 -280.89084,-27.20979 -184.18871,27.73439 z"
       id="path4209-2"
       inkscape:connector-curvature="0"
       sodipodi:nodetypes="cccccccccc" />
    <path
       style="display:inline;fill:#231c2e;fill-opacity:1;fill-rule:evenodd;stroke:none;stroke-width:0.99338305px;stroke-linecap:butt;stroke-linejoin:miter;stroke-opacity:1"
       d="m 471.62307,513.7563 38.05173,22.14665 -2.0436,207.979 -25.36783,19.14254 L 243.05517,747.24431 36.38231,759.79015 6.53785,743.59261 17.352,616.23702 7.24498,542.8797 l 36.59846,-28.19403 289.828,9.0153 z"
       id="path4207-6"
       inkscape:connector-curvature="0"
       sodipodi:nodetypes="cccccccccccc" />
    <path
       style="display:inline;fill:#312740;fill-opacity:1;fill-rule:evenodd;stroke:none;stroke-width:1.02233899px;stroke-linecap:butt;stroke-linejoin:miter;stroke-opacity:1"
       d="m 51.31621,530.39354 -26.85851,18.89005 11.93734,81.29283 -12.31018,103.88236 14.92132,8.59431 214.49492,-13.5701 222.70613,15.30974 16.57887,-10.85721 -0.2854,-188.94194 -24.40193,-13.369 -138.03352,7.97623 z"
       id="path4211-1"
       inkscape:connector-curvature="0"
       sodipodi:nodetypes="cccccccccccc" />
    <path
       style="opacity:0.7;fill:#3b2e4c;fill-opacity:1;fill-rule:evenodd;stroke:none;stroke-width:1px;stroke-linecap:butt;stroke-linejoin:miter;stroke-opacity:1"
       d="m 9.15232,717.33946 242.85624,-9.5128 195.95536,15.42984 21.07802,-20.40732 -4.86302,-188.60212 -93.30659,6.64149 -36.96379,2.76064 -3.17094,-0.0933 -286.90901,-8.87203 -36.58644,28.20225 10.10727,73.32877 -0.0274,0.30078 z"
       id="path4244-9"
       inkscape:connector-curvature="0"
       sodipodi:nodetypes="ccccccccccccc" />
    <path
       style="opacity:0.7;fill:#3b2e4c;fill-opacity:1;fill-rule:evenodd;stroke:none;stroke-width:1px;stroke-linecap:butt;stroke-linejoin:miter;stroke-opacity:1"
       d="m 261.46846,970.71248 259.40244,-9.00688 187.0584,14.12134 17.2491,-17.64776 -7.7408,-188.3506 -208.7856,13.80397 -222.41628,-8.72832 -20.58286,14.65068 z"
       id="path4246-6"
       inkscape:connector-curvature="0"
       sodipodi:nodetypes="ccccccccc" />
    <path
       style="display:inline;fill:#53446e;fill-opacity:1;fill-rule:evenodd;stroke:none;stroke-width:1px;stroke-linecap:butt;stroke-linejoin:miter;stroke-opacity:1"
       d="m 53,670 7,-90.99999 26,-24 235,17 132.99999,-5 L 309,590 l -165,1 -12,25 -19,-32 -29,12 z"
       id="path4248-8"
       inkscape:connector-curvature="0"
       sodipodi:nodetypes="ccccccccccc" />
    <path
       style="fill:#53446e;fill-opacity:1;fill-rule:evenodd;stroke:none;stroke-width:1px;stroke-linecap:butt;stroke-linejoin:miter;stroke-opacity:1"
       d="m 299.88619,910.62717 3.46424,-76.43898 18.26379,-17.14353 175.53528,5.04221 14.8544,-1.05958 197.2086,-14.06707 -213.0777,33.27863 -152.72044,1.7722 -20.78549,14.36289 z"
       id="path4265-8"
       inkscape:connector-curvature="0"
       sodipodi:nodetypes="cccccccccc" />
  </g>
  <g
     inkscape:groupmode="layer"
     id="layer6"
     inkscape:label="lefttop">
    <path
       style="display:inline;fill:#08080c;fill-opacity:1;fill-rule:evenodd;stroke:none;stroke-width:1.04184091px;stroke-linecap:butt;stroke-linejoin:miter;stroke-opacity:1"
       d="m 260.81008,471.25808 1.10251,18.08502 29.18846,22.6168 15.3278,-0.5889 206.18655,-5.5131 56.2864,0.7735 181.8975,4.6979 11.492,-13.8524 1.7234,-28.15783 -251.9866,-1.32906 z"
       id="path4203-4-0"
       inkscape:connector-curvature="0"
       sodipodi:nodetypes="ccccccccccc" />
    <path
       style="display:inline;fill:#231c2e;fill-opacity:1;fill-rule:evenodd;stroke:none;stroke-width:1.04184091px;stroke-linecap:butt;stroke-linejoin:miter;stroke-opacity:1"
       d="m 286.2486,262.90319 -20.59434,14.64817 -4.63635,193.75715 34.32307,26.07519 216.67172,-8.5289 228.7113,10.7462 23.5201,-30.28193 -8.0527,-190.76688 -28.5788,-21.81174 -219.0262,14.88903 z"
       id="path4201-9-3"
       inkscape:connector-curvature="0"
       sodipodi:nodetypes="ccccccccccc" />
    <path
       style="display:inline;fill:#312740;fill-opacity:1;fill-rule:evenodd;stroke:none;stroke-width:1.04184091px;stroke-linecap:butt;stroke-linejoin:miter;stroke-opacity:1"
       d="m 279.7589,463.58023 20.98943,16.38429 207.53657,-11.78549 224.3649,14.80475 15.4655,-17.66133 -5.0782,-178.25763 -19.8019,-15.42336 -215.4285,17.23698 -210.52558,-6.78907 -16.6312,12.59267 z"
       id="path4205-5-1"
       inkscape:connector-curvature="0"
       sodipodi:nodetypes="ccccccccccc" />
    <path
       style="display:inline;fill:#08080c;fill-opacity:1;fill-rule:evenodd;stroke:none;stroke-width:1.02233899px;stroke-linecap:butt;stroke-linejoin:miter;stroke-opacity:1"
       d="m 6.55227,231.90505 1.49214,16.96161 23.31453,13.52444 214.67469,-13.09074 241.39974,15.57889 18.70903,-16.7667 1.3909,-15.80112 -280.89084,-27.20979 -184.18871,27.73439 z"
       id="path4209-2-0"
       inkscape:connector-curvature="0"
       sodipodi:nodetypes="cccccccccc" />
    <path
       style="display:inline;fill:#231c2e;fill-opacity:1;fill-rule:evenodd;stroke:none;stroke-width:0.99338305px;stroke-linecap:butt;stroke-linejoin:miter;stroke-opacity:1"
       d="m 471.62307,1.7563 38.05173,22.14665 -2.0436,207.979 -25.36783,19.14254 L 243.05517,235.24431 36.38231,247.79015 6.53785,231.59261 17.352,104.23702 7.24498,30.8797 43.84344,2.68567 l 289.828,9.0153 z"
       id="path4207-6-3"
       inkscape:connector-curvature="0"
       sodipodi:nodetypes="cccccccccccc" />
    <path
       style="display:inline;fill:#312740;fill-opacity:1;fill-rule:evenodd;stroke:none;stroke-width:1.02233899px;stroke-linecap:butt;stroke-linejoin:miter;stroke-opacity:1"
       d="m 51.31621,18.39354 -26.85851,18.89005 11.93734,81.29283 -12.31018,103.88236 14.92132,8.59431 214.49492,-13.5701 222.70613,15.30974 16.57887,-10.85721 -0.2854,-188.94194 -24.40193,-13.369 -138.03352,7.97623 z"
       id="path4211-1-6"
       inkscape:connector-curvature="0"
       sodipodi:nodetypes="cccccccccccc" />
    <path
       style="opacity:0.7;fill:#3b2e4c;fill-opacity:1;fill-rule:evenodd;stroke:none;stroke-width:1px;stroke-linecap:butt;stroke-linejoin:miter;stroke-opacity:1"
       d="m 9.15232,205.33946 242.85624,-9.5128 195.95536,15.42984 21.07802,-20.40732 L 464.17892,2.24706 370.87233,8.88855 333.90854,11.64919 330.7376,11.55589 43.82859,2.68386 7.24215,30.88611 l 10.10727,73.32877 -0.0274,0.30078 z"
       id="path4244-9-6"
       inkscape:connector-curvature="0"
       sodipodi:nodetypes="ccccccccccccc" />
    <path
       style="opacity:0.7;fill:#3b2e4c;fill-opacity:1;fill-rule:evenodd;stroke:none;stroke-width:1px;stroke-linecap:butt;stroke-linejoin:miter;stroke-opacity:1"
       d="m 261.46846,458.71248 259.40244,-9.00688 187.0584,14.12134 17.2491,-17.64776 -7.7408,-188.3506 -208.7856,13.80397 -222.41628,-8.72832 -20.58286,14.65068 z"
       id="path4246-6-1"
       inkscape:connector-curvature="0"
       sodipodi:nodetypes="ccccccccc" />
    <path
       style="display:inline;fill:#53446e;fill-opacity:1;fill-rule:evenodd;stroke:none;stroke-width:1px;stroke-linecap:butt;stroke-linejoin:miter;stroke-opacity:1"
       d="m 53,158 7,-90.99999 26,-24 235,17 132.99999,-5 L 309,78 144,79 132,104 113,72 84,84 Z"
       id="path4248-8-0"
       inkscape:connector-curvature="0"
       sodipodi:nodetypes="ccccccccccc" />
    <path
       style="fill:#53446e;fill-opacity:1;fill-rule:evenodd;stroke:none;stroke-width:1px;stroke-linecap:butt;stroke-linejoin:miter;stroke-opacity:1"
       d="m 299.88619,398.62717 3.46424,-76.43898 18.26379,-17.14353 175.53528,5.04221 14.8544,-1.05958 197.2086,-14.06707 -213.0777,33.27863 -152.72044,1.7722 -20.78549,14.36289 z"
       id="path4265-8-1"
       inkscape:connector-curvature="0"
       sodipodi:nodetypes="cccccccccc" />
  </g>
  <g
     inkscape:groupmode="layer"
     id="layer7"
     inkscape:label="upper">
    <path
       style="display:inline;fill:#08080c;fill-opacity:1;fill-rule:evenodd;stroke:none;stroke-width:1.04184091px;stroke-linecap:butt;stroke-linejoin:miter;stroke-opacity:1"
       d="m 772.81008,471.25808 1.10251,18.08502 29.18846,22.6168 15.3278,-0.5889 206.18655,-5.5131 56.2864,0.7735 181.8975,4.6979 11.492,-13.8524 1.7234,-28.15783 -251.9866,-1.32906 z"
       id="path4203-2"
       inkscape:connector-curvature="0"
       sodipodi:nodetypes="ccccccccccc" />
    <path
       style="display:inline;fill:#231c2e;fill-opacity:1;fill-rule:evenodd;stroke:none;stroke-width:1.04184091px;stroke-linecap:butt;stroke-linejoin:miter;stroke-opacity:1"
       d="m 798.2486,262.90319 -20.59434,14.64817 -4.63635,193.75715 34.32307,26.07519 216.67172,-8.5289 228.7113,10.7462 23.5201,-30.28193 -8.0527,-190.76688 -28.5788,-21.81174 -219.0262,14.88903 z"
       id="path4201-6"
       inkscape:connector-curvature="0"
       sodipodi:nodetypes="ccccccccccc" />
    <path
       style="display:inline;fill:#312740;fill-opacity:1;fill-rule:evenodd;stroke:none;stroke-width:1.04184091px;stroke-linecap:butt;stroke-linejoin:miter;stroke-opacity:1"
       d="m 791.7589,463.58023 20.98943,16.38429 207.53657,-11.78549 224.3649,14.80475 15.4655,-17.66133 -5.0782,-178.25763 -19.8019,-15.42336 -215.4285,17.23698 -210.52558,-6.78907 -16.6312,12.59267 z"
       id="path4205-9"
       inkscape:connector-curvature="0"
       sodipodi:nodetypes="ccccccccccc" />
    <path
       style="display:inline;fill:#08080c;fill-opacity:1;fill-rule:evenodd;stroke:none;stroke-width:1.02233899px;stroke-linecap:butt;stroke-linejoin:miter;stroke-opacity:1"
       d="m 518.55227,231.90505 1.49214,16.96161 23.31453,13.52444 214.67469,-13.09074 241.39974,15.57889 18.70903,-16.7667 1.3909,-15.80112 -280.89084,-27.20979 -184.18871,27.73439 z"
       id="path4209-0"
       inkscape:connector-curvature="0"
       sodipodi:nodetypes="cccccccccc" />
    <path
       style="display:inline;fill:#231c2e;fill-opacity:1;fill-rule:evenodd;stroke:none;stroke-width:0.99338305px;stroke-linecap:butt;stroke-linejoin:miter;stroke-opacity:1"
       d="m 983.62307,1.7563 38.05173,22.14665 -2.0436,207.979 -25.36783,19.14254 L 755.05517,235.24431 548.38231,247.79015 518.53785,231.59261 529.352,104.23702 519.24498,30.8797 555.84344,2.68567 l 289.828,9.0153 z"
       id="path4207-8"
       inkscape:connector-curvature="0"
       sodipodi:nodetypes="cccccccccccc" />
    <path
       style="display:inline;fill:#312740;fill-opacity:1;fill-rule:evenodd;stroke:none;stroke-width:1.02233899px;stroke-linecap:butt;stroke-linejoin:miter;stroke-opacity:1"
       d="m 563.31621,18.39354 -26.85851,18.89005 11.93734,81.29283 -12.31018,103.88236 14.92132,8.59431 214.49492,-13.5701 222.70613,15.30974 16.57887,-10.85721 -0.2854,-188.94194 -24.40193,-13.369 -138.03352,7.97623 z"
       id="path4211-0"
       inkscape:connector-curvature="0"
       sodipodi:nodetypes="cccccccccccc" />
    <path
       style="opacity:0.7;fill:#3b2e4c;fill-opacity:1;fill-rule:evenodd;stroke:none;stroke-width:1px;stroke-linecap:butt;stroke-linejoin:miter;stroke-opacity:1"
       d="m 521.15232,205.33946 242.85624,-9.5128 195.95536,15.42984 21.07802,-20.40732 -4.86302,-188.60212 -93.30659,6.64149 -36.96379,2.76064 -3.17094,-0.0933 -286.90901,-8.87203 -36.58644,28.20225 10.10727,73.32877 -0.0274,0.30078 z"
       id="path4244-2"
       inkscape:connector-curvature="0"
       sodipodi:nodetypes="ccccccccccccc" />
    <path
       style="opacity:0.7;fill:#3b2e4c;fill-opacity:1;fill-rule:evenodd;stroke:none;stroke-width:1px;stroke-linecap:butt;stroke-linejoin:miter;stroke-opacity:1"
       d="m 773.46846,458.71248 259.40244,-9.00688 187.0584,14.12134 17.2491,-17.64776 -7.7408,-188.3506 -208.7856,13.80397 -222.41628,-8.72832 -20.58286,14.65068 z"
       id="path4246-2"
       inkscape:connector-curvature="0"
       sodipodi:nodetypes="ccccccccc" />
    <path
       style="display:inline;fill:#53446e;fill-opacity:1;fill-rule:evenodd;stroke:none;stroke-width:1px;stroke-linecap:butt;stroke-linejoin:miter;stroke-opacity:1"
       d="m 565,158 7,-90.99999 26,-24 235,17 132.99999,-5 L 821,78 656,79 644,104 625,72 596,84 Z"
       id="path4248-6"
       inkscape:connector-curvature="0"
       sodipodi:nodetypes="ccccccccccc" />
    <path
       style="fill:#53446e;fill-opacity:1;fill-rule:evenodd;stroke:none;stroke-width:1px;stroke-linecap:butt;stroke-linejoin:miter;stroke-opacity:1"
       d="m 811.88619,398.62717 3.46424,-76.43898 18.26379,-17.14353 175.53528,5.04221 14.8544,-1.05958 197.2086,-14.06707 -213.0777,33.27863 -152.72044,1.7722 -20.78549,14.36289 z"
       id="path4265-82"
       inkscape:connector-curvature="0"
       sodipodi:nodetypes="cccccccccc" />
  </g>
</svg>
