<?xml version="1.0" ?><!-- Created with Inkscape (http://www.inkscape.org/) --><svg height="1536" id="svg2" inkscape:export-filename="C:\Users\Michael\Desktop\GFX\stone_restore.png" inkscape:export-xdpi="90" inkscape:export-ydpi="90" inkscape:version="0.91 r13725" sodipodi:docname="rock1_union.svg" version="1.1" viewBox="0 0 1536 1536" width="1536" xmlns="http://www.w3.org/2000/svg" xmlns:cc="http://creativecommons.org/ns#" xmlns:dc="http://purl.org/dc/elements/1.1/" xmlns:inkscape="http://www.inkscape.org/namespaces/inkscape" xmlns:rdf="http://www.w3.org/1999/02/22-rdf-syntax-ns#" xmlns:sodipodi="http://sodipodi.sourceforge.net/DTD/sodipodi-0.dtd" xmlns:svg="http://www.w3.org/2000/svg">
  <defs id="defs4">
    <filter id="filter4293" inkscape:label="MULT" style="color-interpolation-filters:sRGB">
      <feBlend id="feBlend4295" in2="BackgroundImage" mode="multiply"/>
    </filter>
    <filter id="filter4291" inkscape:label="SCREEN" style="color-interpolation-filters:sRGB">
      <feBlend id="feBlend4297" in2="BackgroundImage" mode="screen"/>
    </filter>
  </defs>
  <sodipodi:namedview bordercolor="#666666" borderopacity="1.0" gridtolerance="10" id="base" inkscape:current-layer="layer5" inkscape:cx="754.09388" inkscape:cy="773.29606" inkscape:document-units="px" inkscape:object-nodes="true" inkscape:object-paths="true" inkscape:pageopacity="0.0" inkscape:pageshadow="2" inkscape:showpageshadow="false" inkscape:snap-bbox="true" inkscape:snap-global="true" inkscape:snap-grids="true" inkscape:snap-intersection-paths="true" inkscape:snap-smooth-nodes="true" inkscape:window-height="937" inkscape:window-maximized="1" inkscape:window-width="1680" inkscape:window-x="-4" inkscape:window-y="-4" inkscape:zoom="1" pagecolor="#ffffff" showborder="true" showgrid="true" units="px">
    <inkscape:grid empspacing="1" id="grid4264" snapvisiblegridlinesonly="true" spacingx="512" spacingy="512" type="xygrid"/>
  </sodipodi:namedview>
  <metadata id="metadata7">
    <rdf:RDF>
      <cc:Work rdf:about="">
        <dc:format>image/svg+xml</dc:format>
        <dc:type rdf:resource="http://purl.org/dc/dcmitype/StillImage"/>
        <dc:title/>
      </cc:Work>
    </rdf:RDF>
  </metadata>
  <g id="layer3" inkscape:groupmode="layer" inkscape:label="BG" style="display:inline" transform="translate(0,483.63784)">
    <path d="m -89.368153,-580.66499 1733.754253,-5.79295 5.1411,1704.47284 -1741.465916,17.3788 z" id="path5842" inkscape:connector-curvature="0" sodipodi:nodetypes="ccccc" style="display:inline;fill:#6d6864;fill-opacity:1;fill-rule:evenodd;stroke:none;stroke-width:0;stroke-linecap:butt;stroke-linejoin:miter;stroke-opacity:1"/>
  </g>
  <g id="layer5" inkscape:groupmode="layer" inkscape:label="center1" style="display:inline">
    <path d="M 849.46094 533.11523 L 744.57617 559.5918 L 822.98828 636.12109 L 937.60938 649.82422 L 993.48047 622.20312 L 993.51367 590.68359 L 985.68555 567.87109 L 849.46094 533.11523 z M 714.60547 571.32227 L 626.98242 607 L 587.77734 691.77344 L 582.64844 732.88867 L 700.68555 719.81836 L 734.57031 701.68555 L 774.87305 684.49414 L 804.88867 641.80078 L 714.60547 571.32227 z M 1054.8203 609.14453 L 981.05078 653.02734 L 1025.9102 673.34961 L 1079.9902 675.69531 L 1104.1289 654.56055 L 1105.6191 614.07617 L 1054.8203 609.14453 z M 819.61523 653.28711 L 766.48438 709.23828 L 792.63867 741.9043 L 858.06641 758.93359 L 896.66602 728.64258 L 895.86328 675.83789 L 819.61523 653.28711 z M 956.12695 662.20703 L 920.77344 666.51172 L 916.55664 722.82031 L 882.875 766.69336 L 1008.3633 814.90039 L 1083.5332 770.91992 L 1065.25 707.51172 L 956.12695 662.20703 z M 745.5625 718.94141 L 679.99023 741.53125 L 666.60352 773.92383 L 684.38086 826.19727 L 789.37109 838.19141 L 825.94922 828.06641 L 832.63672 788.39062 L 745.5625 718.94141 z M 651.88672 748.20898 L 599.10156 764.43359 L 564.36328 784.85547 L 537.23828 817.74023 L 545.23828 852.61328 L 602.27539 856.86719 L 665.64062 817.0332 L 651.88672 748.20898 z M 860.57812 780.54492 L 821.04883 855.33984 L 882.18359 943.66211 L 976.29492 964.83594 L 991.33203 957.93945 L 1007.1758 921.35156 L 1005.5 854.81445 L 986.43945 830.73242 L 924.5957 799.63281 L 860.57812 780.54492 z M 668.80664 843.65234 L 581.79688 874.90039 L 598.73633 908.78906 L 583.08789 938.62109 L 666.13672 975.81445 L 752.20898 943.03125 L 807.5918 871.62305 L 668.80664 843.65234 z M 1046.8164 851.2207 L 1019.0625 877.42188 L 1013.2383 961.50195 L 1060.6816 977.76367 L 1060.9258 977.89844 L 1061.3594 977.72266 L 1088.418 971.96875 L 1088.5469 946.65039 L 1079.5371 899.94336 L 1070.1465 877.96875 L 1046.8164 851.2207 z M 826.9707 896.38477 L 727.9707 969.55859 L 745.47656 1032.0273 L 812.07812 1042.2461 L 863.4043 1021.4473 L 871.71289 968.35547 L 826.9707 896.38477 z M 587.9082 962.33398 L 554.87695 1025.0723 L 573.56641 1097.5039 L 686.00586 1088.6211 L 699.03906 1072.625 L 729.17969 1060.3242 L 723.54297 1013.543 L 716.23828 980.69141 L 665.57031 992.91211 L 587.9082 962.33398 z M 910.64844 971.43164 L 869.26367 1031.4141 L 920.71875 1053.1074 L 997.25 1058.5059 L 1012.5449 1098.0039 L 1020.6309 1106.4551 L 1061.8125 1103.2559 L 1062.6133 1072.0566 L 1054.4629 1037.5938 L 1056.4141 994.93945 L 910.64844 971.43164 z " id="path5818" inkscape:label="#dark" style="display:inline;fill:#55504e;fill-opacity:1"/>
  </g>
  <g id="layer6" inkscape:groupmode="layer" inkscape:label="center2"/>
  <g id="layer7" inkscape:groupmode="layer" inkscape:label="center3" style="display:inline;opacity:1"/>
  
<g id="layer5" inkscape:groupmode="layer" inkscape:label="center1_copy_1" style="display:inline" transform="translate(-512, -512)">
    <path d="M 849.46094 533.11523 L 744.57617 559.5918 L 822.98828 636.12109 L 937.60938 649.82422 L 993.48047 622.20312 L 993.51367 590.68359 L 985.68555 567.87109 L 849.46094 533.11523 z M 714.60547 571.32227 L 626.98242 607 L 587.77734 691.77344 L 582.64844 732.88867 L 700.68555 719.81836 L 734.57031 701.68555 L 774.87305 684.49414 L 804.88867 641.80078 L 714.60547 571.32227 z M 1054.8203 609.14453 L 981.05078 653.02734 L 1025.9102 673.34961 L 1079.9902 675.69531 L 1104.1289 654.56055 L 1105.6191 614.07617 L 1054.8203 609.14453 z M 819.61523 653.28711 L 766.48438 709.23828 L 792.63867 741.9043 L 858.06641 758.93359 L 896.66602 728.64258 L 895.86328 675.83789 L 819.61523 653.28711 z M 956.12695 662.20703 L 920.77344 666.51172 L 916.55664 722.82031 L 882.875 766.69336 L 1008.3633 814.90039 L 1083.5332 770.91992 L 1065.25 707.51172 L 956.12695 662.20703 z M 745.5625 718.94141 L 679.99023 741.53125 L 666.60352 773.92383 L 684.38086 826.19727 L 789.37109 838.19141 L 825.94922 828.06641 L 832.63672 788.39062 L 745.5625 718.94141 z M 651.88672 748.20898 L 599.10156 764.43359 L 564.36328 784.85547 L 537.23828 817.74023 L 545.23828 852.61328 L 602.27539 856.86719 L 665.64062 817.0332 L 651.88672 748.20898 z M 860.57812 780.54492 L 821.04883 855.33984 L 882.18359 943.66211 L 976.29492 964.83594 L 991.33203 957.93945 L 1007.1758 921.35156 L 1005.5 854.81445 L 986.43945 830.73242 L 924.5957 799.63281 L 860.57812 780.54492 z M 668.80664 843.65234 L 581.79688 874.90039 L 598.73633 908.78906 L 583.08789 938.62109 L 666.13672 975.81445 L 752.20898 943.03125 L 807.5918 871.62305 L 668.80664 843.65234 z M 1046.8164 851.2207 L 1019.0625 877.42188 L 1013.2383 961.50195 L 1060.6816 977.76367 L 1060.9258 977.89844 L 1061.3594 977.72266 L 1088.418 971.96875 L 1088.5469 946.65039 L 1079.5371 899.94336 L 1070.1465 877.96875 L 1046.8164 851.2207 z M 826.9707 896.38477 L 727.9707 969.55859 L 745.47656 1032.0273 L 812.07812 1042.2461 L 863.4043 1021.4473 L 871.71289 968.35547 L 826.9707 896.38477 z M 587.9082 962.33398 L 554.87695 1025.0723 L 573.56641 1097.5039 L 686.00586 1088.6211 L 699.03906 1072.625 L 729.17969 1060.3242 L 723.54297 1013.543 L 716.23828 980.69141 L 665.57031 992.91211 L 587.9082 962.33398 z M 910.64844 971.43164 L 869.26367 1031.4141 L 920.71875 1053.1074 L 997.25 1058.5059 L 1012.5449 1098.0039 L 1020.6309 1106.4551 L 1061.8125 1103.2559 L 1062.6133 1072.0566 L 1054.4629 1037.5938 L 1056.4141 994.93945 L 910.64844 971.43164 z " id="path5818" inkscape:label="#dark" style="display:inline;fill:#55504e;fill-opacity:1"/>
  </g><g id="layer5" inkscape:groupmode="layer" inkscape:label="center1_copy_2" style="display:inline" transform="translate(-512, 0)">
    <path d="M 849.46094 533.11523 L 744.57617 559.5918 L 822.98828 636.12109 L 937.60938 649.82422 L 993.48047 622.20312 L 993.51367 590.68359 L 985.68555 567.87109 L 849.46094 533.11523 z M 714.60547 571.32227 L 626.98242 607 L 587.77734 691.77344 L 582.64844 732.88867 L 700.68555 719.81836 L 734.57031 701.68555 L 774.87305 684.49414 L 804.88867 641.80078 L 714.60547 571.32227 z M 1054.8203 609.14453 L 981.05078 653.02734 L 1025.9102 673.34961 L 1079.9902 675.69531 L 1104.1289 654.56055 L 1105.6191 614.07617 L 1054.8203 609.14453 z M 819.61523 653.28711 L 766.48438 709.23828 L 792.63867 741.9043 L 858.06641 758.93359 L 896.66602 728.64258 L 895.86328 675.83789 L 819.61523 653.28711 z M 956.12695 662.20703 L 920.77344 666.51172 L 916.55664 722.82031 L 882.875 766.69336 L 1008.3633 814.90039 L 1083.5332 770.91992 L 1065.25 707.51172 L 956.12695 662.20703 z M 745.5625 718.94141 L 679.99023 741.53125 L 666.60352 773.92383 L 684.38086 826.19727 L 789.37109 838.19141 L 825.94922 828.06641 L 832.63672 788.39062 L 745.5625 718.94141 z M 651.88672 748.20898 L 599.10156 764.43359 L 564.36328 784.85547 L 537.23828 817.74023 L 545.23828 852.61328 L 602.27539 856.86719 L 665.64062 817.0332 L 651.88672 748.20898 z M 860.57812 780.54492 L 821.04883 855.33984 L 882.18359 943.66211 L 976.29492 964.83594 L 991.33203 957.93945 L 1007.1758 921.35156 L 1005.5 854.81445 L 986.43945 830.73242 L 924.5957 799.63281 L 860.57812 780.54492 z M 668.80664 843.65234 L 581.79688 874.90039 L 598.73633 908.78906 L 583.08789 938.62109 L 666.13672 975.81445 L 752.20898 943.03125 L 807.5918 871.62305 L 668.80664 843.65234 z M 1046.8164 851.2207 L 1019.0625 877.42188 L 1013.2383 961.50195 L 1060.6816 977.76367 L 1060.9258 977.89844 L 1061.3594 977.72266 L 1088.418 971.96875 L 1088.5469 946.65039 L 1079.5371 899.94336 L 1070.1465 877.96875 L 1046.8164 851.2207 z M 826.9707 896.38477 L 727.9707 969.55859 L 745.47656 1032.0273 L 812.07812 1042.2461 L 863.4043 1021.4473 L 871.71289 968.35547 L 826.9707 896.38477 z M 587.9082 962.33398 L 554.87695 1025.0723 L 573.56641 1097.5039 L 686.00586 1088.6211 L 699.03906 1072.625 L 729.17969 1060.3242 L 723.54297 1013.543 L 716.23828 980.69141 L 665.57031 992.91211 L 587.9082 962.33398 z M 910.64844 971.43164 L 869.26367 1031.4141 L 920.71875 1053.1074 L 997.25 1058.5059 L 1012.5449 1098.0039 L 1020.6309 1106.4551 L 1061.8125 1103.2559 L 1062.6133 1072.0566 L 1054.4629 1037.5938 L 1056.4141 994.93945 L 910.64844 971.43164 z " id="path5818" inkscape:label="#dark" style="display:inline;fill:#55504e;fill-opacity:1"/>
  </g><g id="layer5" inkscape:groupmode="layer" inkscape:label="center1_copy_3" style="display:inline" transform="translate(-512, 512)">
    <path d="M 849.46094 533.11523 L 744.57617 559.5918 L 822.98828 636.12109 L 937.60938 649.82422 L 993.48047 622.20312 L 993.51367 590.68359 L 985.68555 567.87109 L 849.46094 533.11523 z M 714.60547 571.32227 L 626.98242 607 L 587.77734 691.77344 L 582.64844 732.88867 L 700.68555 719.81836 L 734.57031 701.68555 L 774.87305 684.49414 L 804.88867 641.80078 L 714.60547 571.32227 z M 1054.8203 609.14453 L 981.05078 653.02734 L 1025.9102 673.34961 L 1079.9902 675.69531 L 1104.1289 654.56055 L 1105.6191 614.07617 L 1054.8203 609.14453 z M 819.61523 653.28711 L 766.48438 709.23828 L 792.63867 741.9043 L 858.06641 758.93359 L 896.66602 728.64258 L 895.86328 675.83789 L 819.61523 653.28711 z M 956.12695 662.20703 L 920.77344 666.51172 L 916.55664 722.82031 L 882.875 766.69336 L 1008.3633 814.90039 L 1083.5332 770.91992 L 1065.25 707.51172 L 956.12695 662.20703 z M 745.5625 718.94141 L 679.99023 741.53125 L 666.60352 773.92383 L 684.38086 826.19727 L 789.37109 838.19141 L 825.94922 828.06641 L 832.63672 788.39062 L 745.5625 718.94141 z M 651.88672 748.20898 L 599.10156 764.43359 L 564.36328 784.85547 L 537.23828 817.74023 L 545.23828 852.61328 L 602.27539 856.86719 L 665.64062 817.0332 L 651.88672 748.20898 z M 860.57812 780.54492 L 821.04883 855.33984 L 882.18359 943.66211 L 976.29492 964.83594 L 991.33203 957.93945 L 1007.1758 921.35156 L 1005.5 854.81445 L 986.43945 830.73242 L 924.5957 799.63281 L 860.57812 780.54492 z M 668.80664 843.65234 L 581.79688 874.90039 L 598.73633 908.78906 L 583.08789 938.62109 L 666.13672 975.81445 L 752.20898 943.03125 L 807.5918 871.62305 L 668.80664 843.65234 z M 1046.8164 851.2207 L 1019.0625 877.42188 L 1013.2383 961.50195 L 1060.6816 977.76367 L 1060.9258 977.89844 L 1061.3594 977.72266 L 1088.418 971.96875 L 1088.5469 946.65039 L 1079.5371 899.94336 L 1070.1465 877.96875 L 1046.8164 851.2207 z M 826.9707 896.38477 L 727.9707 969.55859 L 745.47656 1032.0273 L 812.07812 1042.2461 L 863.4043 1021.4473 L 871.71289 968.35547 L 826.9707 896.38477 z M 587.9082 962.33398 L 554.87695 1025.0723 L 573.56641 1097.5039 L 686.00586 1088.6211 L 699.03906 1072.625 L 729.17969 1060.3242 L 723.54297 1013.543 L 716.23828 980.69141 L 665.57031 992.91211 L 587.9082 962.33398 z M 910.64844 971.43164 L 869.26367 1031.4141 L 920.71875 1053.1074 L 997.25 1058.5059 L 1012.5449 1098.0039 L 1020.6309 1106.4551 L 1061.8125 1103.2559 L 1062.6133 1072.0566 L 1054.4629 1037.5938 L 1056.4141 994.93945 L 910.64844 971.43164 z " id="path5818" inkscape:label="#dark" style="display:inline;fill:#55504e;fill-opacity:1"/>
  </g><g id="layer5" inkscape:groupmode="layer" inkscape:label="center1_copy_4" style="display:inline" transform="translate(0, -512)">
    <path d="M 849.46094 533.11523 L 744.57617 559.5918 L 822.98828 636.12109 L 937.60938 649.82422 L 993.48047 622.20312 L 993.51367 590.68359 L 985.68555 567.87109 L 849.46094 533.11523 z M 714.60547 571.32227 L 626.98242 607 L 587.77734 691.77344 L 582.64844 732.88867 L 700.68555 719.81836 L 734.57031 701.68555 L 774.87305 684.49414 L 804.88867 641.80078 L 714.60547 571.32227 z M 1054.8203 609.14453 L 981.05078 653.02734 L 1025.9102 673.34961 L 1079.9902 675.69531 L 1104.1289 654.56055 L 1105.6191 614.07617 L 1054.8203 609.14453 z M 819.61523 653.28711 L 766.48438 709.23828 L 792.63867 741.9043 L 858.06641 758.93359 L 896.66602 728.64258 L 895.86328 675.83789 L 819.61523 653.28711 z M 956.12695 662.20703 L 920.77344 666.51172 L 916.55664 722.82031 L 882.875 766.69336 L 1008.3633 814.90039 L 1083.5332 770.91992 L 1065.25 707.51172 L 956.12695 662.20703 z M 745.5625 718.94141 L 679.99023 741.53125 L 666.60352 773.92383 L 684.38086 826.19727 L 789.37109 838.19141 L 825.94922 828.06641 L 832.63672 788.39062 L 745.5625 718.94141 z M 651.88672 748.20898 L 599.10156 764.43359 L 564.36328 784.85547 L 537.23828 817.74023 L 545.23828 852.61328 L 602.27539 856.86719 L 665.64062 817.0332 L 651.88672 748.20898 z M 860.57812 780.54492 L 821.04883 855.33984 L 882.18359 943.66211 L 976.29492 964.83594 L 991.33203 957.93945 L 1007.1758 921.35156 L 1005.5 854.81445 L 986.43945 830.73242 L 924.5957 799.63281 L 860.57812 780.54492 z M 668.80664 843.65234 L 581.79688 874.90039 L 598.73633 908.78906 L 583.08789 938.62109 L 666.13672 975.81445 L 752.20898 943.03125 L 807.5918 871.62305 L 668.80664 843.65234 z M 1046.8164 851.2207 L 1019.0625 877.42188 L 1013.2383 961.50195 L 1060.6816 977.76367 L 1060.9258 977.89844 L 1061.3594 977.72266 L 1088.418 971.96875 L 1088.5469 946.65039 L 1079.5371 899.94336 L 1070.1465 877.96875 L 1046.8164 851.2207 z M 826.9707 896.38477 L 727.9707 969.55859 L 745.47656 1032.0273 L 812.07812 1042.2461 L 863.4043 1021.4473 L 871.71289 968.35547 L 826.9707 896.38477 z M 587.9082 962.33398 L 554.87695 1025.0723 L 573.56641 1097.5039 L 686.00586 1088.6211 L 699.03906 1072.625 L 729.17969 1060.3242 L 723.54297 1013.543 L 716.23828 980.69141 L 665.57031 992.91211 L 587.9082 962.33398 z M 910.64844 971.43164 L 869.26367 1031.4141 L 920.71875 1053.1074 L 997.25 1058.5059 L 1012.5449 1098.0039 L 1020.6309 1106.4551 L 1061.8125 1103.2559 L 1062.6133 1072.0566 L 1054.4629 1037.5938 L 1056.4141 994.93945 L 910.64844 971.43164 z " id="path5818" inkscape:label="#dark" style="display:inline;fill:#55504e;fill-opacity:1"/>
  </g><g id="layer5" inkscape:groupmode="layer" inkscape:label="center1_copy_5" style="display:inline" transform="translate(0, 512)">
    <path d="M 849.46094 533.11523 L 744.57617 559.5918 L 822.98828 636.12109 L 937.60938 649.82422 L 993.48047 622.20312 L 993.51367 590.68359 L 985.68555 567.87109 L 849.46094 533.11523 z M 714.60547 571.32227 L 626.98242 607 L 587.77734 691.77344 L 582.64844 732.88867 L 700.68555 719.81836 L 734.57031 701.68555 L 774.87305 684.49414 L 804.88867 641.80078 L 714.60547 571.32227 z M 1054.8203 609.14453 L 981.05078 653.02734 L 1025.9102 673.34961 L 1079.9902 675.69531 L 1104.1289 654.56055 L 1105.6191 614.07617 L 1054.8203 609.14453 z M 819.61523 653.28711 L 766.48438 709.23828 L 792.63867 741.9043 L 858.06641 758.93359 L 896.66602 728.64258 L 895.86328 675.83789 L 819.61523 653.28711 z M 956.12695 662.20703 L 920.77344 666.51172 L 916.55664 722.82031 L 882.875 766.69336 L 1008.3633 814.90039 L 1083.5332 770.91992 L 1065.25 707.51172 L 956.12695 662.20703 z M 745.5625 718.94141 L 679.99023 741.53125 L 666.60352 773.92383 L 684.38086 826.19727 L 789.37109 838.19141 L 825.94922 828.06641 L 832.63672 788.39062 L 745.5625 718.94141 z M 651.88672 748.20898 L 599.10156 764.43359 L 564.36328 784.85547 L 537.23828 817.74023 L 545.23828 852.61328 L 602.27539 856.86719 L 665.64062 817.0332 L 651.88672 748.20898 z M 860.57812 780.54492 L 821.04883 855.33984 L 882.18359 943.66211 L 976.29492 964.83594 L 991.33203 957.93945 L 1007.1758 921.35156 L 1005.5 854.81445 L 986.43945 830.73242 L 924.5957 799.63281 L 860.57812 780.54492 z M 668.80664 843.65234 L 581.79688 874.90039 L 598.73633 908.78906 L 583.08789 938.62109 L 666.13672 975.81445 L 752.20898 943.03125 L 807.5918 871.62305 L 668.80664 843.65234 z M 1046.8164 851.2207 L 1019.0625 877.42188 L 1013.2383 961.50195 L 1060.6816 977.76367 L 1060.9258 977.89844 L 1061.3594 977.72266 L 1088.418 971.96875 L 1088.5469 946.65039 L 1079.5371 899.94336 L 1070.1465 877.96875 L 1046.8164 851.2207 z M 826.9707 896.38477 L 727.9707 969.55859 L 745.47656 1032.0273 L 812.07812 1042.2461 L 863.4043 1021.4473 L 871.71289 968.35547 L 826.9707 896.38477 z M 587.9082 962.33398 L 554.87695 1025.0723 L 573.56641 1097.5039 L 686.00586 1088.6211 L 699.03906 1072.625 L 729.17969 1060.3242 L 723.54297 1013.543 L 716.23828 980.69141 L 665.57031 992.91211 L 587.9082 962.33398 z M 910.64844 971.43164 L 869.26367 1031.4141 L 920.71875 1053.1074 L 997.25 1058.5059 L 1012.5449 1098.0039 L 1020.6309 1106.4551 L 1061.8125 1103.2559 L 1062.6133 1072.0566 L 1054.4629 1037.5938 L 1056.4141 994.93945 L 910.64844 971.43164 z " id="path5818" inkscape:label="#dark" style="display:inline;fill:#55504e;fill-opacity:1"/>
  </g><g id="layer5" inkscape:groupmode="layer" inkscape:label="center1_copy_6" style="display:inline" transform="translate(512, -512)">
    <path d="M 849.46094 533.11523 L 744.57617 559.5918 L 822.98828 636.12109 L 937.60938 649.82422 L 993.48047 622.20312 L 993.51367 590.68359 L 985.68555 567.87109 L 849.46094 533.11523 z M 714.60547 571.32227 L 626.98242 607 L 587.77734 691.77344 L 582.64844 732.88867 L 700.68555 719.81836 L 734.57031 701.68555 L 774.87305 684.49414 L 804.88867 641.80078 L 714.60547 571.32227 z M 1054.8203 609.14453 L 981.05078 653.02734 L 1025.9102 673.34961 L 1079.9902 675.69531 L 1104.1289 654.56055 L 1105.6191 614.07617 L 1054.8203 609.14453 z M 819.61523 653.28711 L 766.48438 709.23828 L 792.63867 741.9043 L 858.06641 758.93359 L 896.66602 728.64258 L 895.86328 675.83789 L 819.61523 653.28711 z M 956.12695 662.20703 L 920.77344 666.51172 L 916.55664 722.82031 L 882.875 766.69336 L 1008.3633 814.90039 L 1083.5332 770.91992 L 1065.25 707.51172 L 956.12695 662.20703 z M 745.5625 718.94141 L 679.99023 741.53125 L 666.60352 773.92383 L 684.38086 826.19727 L 789.37109 838.19141 L 825.94922 828.06641 L 832.63672 788.39062 L 745.5625 718.94141 z M 651.88672 748.20898 L 599.10156 764.43359 L 564.36328 784.85547 L 537.23828 817.74023 L 545.23828 852.61328 L 602.27539 856.86719 L 665.64062 817.0332 L 651.88672 748.20898 z M 860.57812 780.54492 L 821.04883 855.33984 L 882.18359 943.66211 L 976.29492 964.83594 L 991.33203 957.93945 L 1007.1758 921.35156 L 1005.5 854.81445 L 986.43945 830.73242 L 924.5957 799.63281 L 860.57812 780.54492 z M 668.80664 843.65234 L 581.79688 874.90039 L 598.73633 908.78906 L 583.08789 938.62109 L 666.13672 975.81445 L 752.20898 943.03125 L 807.5918 871.62305 L 668.80664 843.65234 z M 1046.8164 851.2207 L 1019.0625 877.42188 L 1013.2383 961.50195 L 1060.6816 977.76367 L 1060.9258 977.89844 L 1061.3594 977.72266 L 1088.418 971.96875 L 1088.5469 946.65039 L 1079.5371 899.94336 L 1070.1465 877.96875 L 1046.8164 851.2207 z M 826.9707 896.38477 L 727.9707 969.55859 L 745.47656 1032.0273 L 812.07812 1042.2461 L 863.4043 1021.4473 L 871.71289 968.35547 L 826.9707 896.38477 z M 587.9082 962.33398 L 554.87695 1025.0723 L 573.56641 1097.5039 L 686.00586 1088.6211 L 699.03906 1072.625 L 729.17969 1060.3242 L 723.54297 1013.543 L 716.23828 980.69141 L 665.57031 992.91211 L 587.9082 962.33398 z M 910.64844 971.43164 L 869.26367 1031.4141 L 920.71875 1053.1074 L 997.25 1058.5059 L 1012.5449 1098.0039 L 1020.6309 1106.4551 L 1061.8125 1103.2559 L 1062.6133 1072.0566 L 1054.4629 1037.5938 L 1056.4141 994.93945 L 910.64844 971.43164 z " id="path5818" inkscape:label="#dark" style="display:inline;fill:#55504e;fill-opacity:1"/>
  </g><g id="layer5" inkscape:groupmode="layer" inkscape:label="center1_copy_7" style="display:inline" transform="translate(512, 0)">
    <path d="M 849.46094 533.11523 L 744.57617 559.5918 L 822.98828 636.12109 L 937.60938 649.82422 L 993.48047 622.20312 L 993.51367 590.68359 L 985.68555 567.87109 L 849.46094 533.11523 z M 714.60547 571.32227 L 626.98242 607 L 587.77734 691.77344 L 582.64844 732.88867 L 700.68555 719.81836 L 734.57031 701.68555 L 774.87305 684.49414 L 804.88867 641.80078 L 714.60547 571.32227 z M 1054.8203 609.14453 L 981.05078 653.02734 L 1025.9102 673.34961 L 1079.9902 675.69531 L 1104.1289 654.56055 L 1105.6191 614.07617 L 1054.8203 609.14453 z M 819.61523 653.28711 L 766.48438 709.23828 L 792.63867 741.9043 L 858.06641 758.93359 L 896.66602 728.64258 L 895.86328 675.83789 L 819.61523 653.28711 z M 956.12695 662.20703 L 920.77344 666.51172 L 916.55664 722.82031 L 882.875 766.69336 L 1008.3633 814.90039 L 1083.5332 770.91992 L 1065.25 707.51172 L 956.12695 662.20703 z M 745.5625 718.94141 L 679.99023 741.53125 L 666.60352 773.92383 L 684.38086 826.19727 L 789.37109 838.19141 L 825.94922 828.06641 L 832.63672 788.39062 L 745.5625 718.94141 z M 651.88672 748.20898 L 599.10156 764.43359 L 564.36328 784.85547 L 537.23828 817.74023 L 545.23828 852.61328 L 602.27539 856.86719 L 665.64062 817.0332 L 651.88672 748.20898 z M 860.57812 780.54492 L 821.04883 855.33984 L 882.18359 943.66211 L 976.29492 964.83594 L 991.33203 957.93945 L 1007.1758 921.35156 L 1005.5 854.81445 L 986.43945 830.73242 L 924.5957 799.63281 L 860.57812 780.54492 z M 668.80664 843.65234 L 581.79688 874.90039 L 598.73633 908.78906 L 583.08789 938.62109 L 666.13672 975.81445 L 752.20898 943.03125 L 807.5918 871.62305 L 668.80664 843.65234 z M 1046.8164 851.2207 L 1019.0625 877.42188 L 1013.2383 961.50195 L 1060.6816 977.76367 L 1060.9258 977.89844 L 1061.3594 977.72266 L 1088.418 971.96875 L 1088.5469 946.65039 L 1079.5371 899.94336 L 1070.1465 877.96875 L 1046.8164 851.2207 z M 826.9707 896.38477 L 727.9707 969.55859 L 745.47656 1032.0273 L 812.07812 1042.2461 L 863.4043 1021.4473 L 871.71289 968.35547 L 826.9707 896.38477 z M 587.9082 962.33398 L 554.87695 1025.0723 L 573.56641 1097.5039 L 686.00586 1088.6211 L 699.03906 1072.625 L 729.17969 1060.3242 L 723.54297 1013.543 L 716.23828 980.69141 L 665.57031 992.91211 L 587.9082 962.33398 z M 910.64844 971.43164 L 869.26367 1031.4141 L 920.71875 1053.1074 L 997.25 1058.5059 L 1012.5449 1098.0039 L 1020.6309 1106.4551 L 1061.8125 1103.2559 L 1062.6133 1072.0566 L 1054.4629 1037.5938 L 1056.4141 994.93945 L 910.64844 971.43164 z " id="path5818" inkscape:label="#dark" style="display:inline;fill:#55504e;fill-opacity:1"/>
  </g><g id="layer5" inkscape:groupmode="layer" inkscape:label="center1_copy_8" style="display:inline" transform="translate(512, 512)">
    <path d="M 849.46094 533.11523 L 744.57617 559.5918 L 822.98828 636.12109 L 937.60938 649.82422 L 993.48047 622.20312 L 993.51367 590.68359 L 985.68555 567.87109 L 849.46094 533.11523 z M 714.60547 571.32227 L 626.98242 607 L 587.77734 691.77344 L 582.64844 732.88867 L 700.68555 719.81836 L 734.57031 701.68555 L 774.87305 684.49414 L 804.88867 641.80078 L 714.60547 571.32227 z M 1054.8203 609.14453 L 981.05078 653.02734 L 1025.9102 673.34961 L 1079.9902 675.69531 L 1104.1289 654.56055 L 1105.6191 614.07617 L 1054.8203 609.14453 z M 819.61523 653.28711 L 766.48438 709.23828 L 792.63867 741.9043 L 858.06641 758.93359 L 896.66602 728.64258 L 895.86328 675.83789 L 819.61523 653.28711 z M 956.12695 662.20703 L 920.77344 666.51172 L 916.55664 722.82031 L 882.875 766.69336 L 1008.3633 814.90039 L 1083.5332 770.91992 L 1065.25 707.51172 L 956.12695 662.20703 z M 745.5625 718.94141 L 679.99023 741.53125 L 666.60352 773.92383 L 684.38086 826.19727 L 789.37109 838.19141 L 825.94922 828.06641 L 832.63672 788.39062 L 745.5625 718.94141 z M 651.88672 748.20898 L 599.10156 764.43359 L 564.36328 784.85547 L 537.23828 817.74023 L 545.23828 852.61328 L 602.27539 856.86719 L 665.64062 817.0332 L 651.88672 748.20898 z M 860.57812 780.54492 L 821.04883 855.33984 L 882.18359 943.66211 L 976.29492 964.83594 L 991.33203 957.93945 L 1007.1758 921.35156 L 1005.5 854.81445 L 986.43945 830.73242 L 924.5957 799.63281 L 860.57812 780.54492 z M 668.80664 843.65234 L 581.79688 874.90039 L 598.73633 908.78906 L 583.08789 938.62109 L 666.13672 975.81445 L 752.20898 943.03125 L 807.5918 871.62305 L 668.80664 843.65234 z M 1046.8164 851.2207 L 1019.0625 877.42188 L 1013.2383 961.50195 L 1060.6816 977.76367 L 1060.9258 977.89844 L 1061.3594 977.72266 L 1088.418 971.96875 L 1088.5469 946.65039 L 1079.5371 899.94336 L 1070.1465 877.96875 L 1046.8164 851.2207 z M 826.9707 896.38477 L 727.9707 969.55859 L 745.47656 1032.0273 L 812.07812 1042.2461 L 863.4043 1021.4473 L 871.71289 968.35547 L 826.9707 896.38477 z M 587.9082 962.33398 L 554.87695 1025.0723 L 573.56641 1097.5039 L 686.00586 1088.6211 L 699.03906 1072.625 L 729.17969 1060.3242 L 723.54297 1013.543 L 716.23828 980.69141 L 665.57031 992.91211 L 587.9082 962.33398 z M 910.64844 971.43164 L 869.26367 1031.4141 L 920.71875 1053.1074 L 997.25 1058.5059 L 1012.5449 1098.0039 L 1020.6309 1106.4551 L 1061.8125 1103.2559 L 1062.6133 1072.0566 L 1054.4629 1037.5938 L 1056.4141 994.93945 L 910.64844 971.43164 z " id="path5818" inkscape:label="#dark" style="display:inline;fill:#55504e;fill-opacity:1"/>
  </g><g id="layer6" inkscape:groupmode="layer" inkscape:label="center2_copy_1" transform="translate(-512, -512)"/><g id="layer6" inkscape:groupmode="layer" inkscape:label="center2_copy_2" transform="translate(-512, 0)"/><g id="layer6" inkscape:groupmode="layer" inkscape:label="center2_copy_3" transform="translate(-512, 512)"/><g id="layer6" inkscape:groupmode="layer" inkscape:label="center2_copy_4" transform="translate(0, -512)"/><g id="layer6" inkscape:groupmode="layer" inkscape:label="center2_copy_5" transform="translate(0, 512)"/><g id="layer6" inkscape:groupmode="layer" inkscape:label="center2_copy_6" transform="translate(512, -512)"/><g id="layer6" inkscape:groupmode="layer" inkscape:label="center2_copy_7" transform="translate(512, 0)"/><g id="layer6" inkscape:groupmode="layer" inkscape:label="center2_copy_8" transform="translate(512, 512)"/><g id="layer7" inkscape:groupmode="layer" inkscape:label="center3_copy_1" style="display:inline;opacity:1" transform="translate(-512, -512)"/><g id="layer7" inkscape:groupmode="layer" inkscape:label="center3_copy_2" style="display:inline;opacity:1" transform="translate(-512, 0)"/><g id="layer7" inkscape:groupmode="layer" inkscape:label="center3_copy_3" style="display:inline;opacity:1" transform="translate(-512, 512)"/><g id="layer7" inkscape:groupmode="layer" inkscape:label="center3_copy_4" style="display:inline;opacity:1" transform="translate(0, -512)"/><g id="layer7" inkscape:groupmode="layer" inkscape:label="center3_copy_5" style="display:inline;opacity:1" transform="translate(0, 512)"/><g id="layer7" inkscape:groupmode="layer" inkscape:label="center3_copy_6" style="display:inline;opacity:1" transform="translate(512, -512)"/><g id="layer7" inkscape:groupmode="layer" inkscape:label="center3_copy_7" style="display:inline;opacity:1" transform="translate(512, 0)"/><g id="layer7" inkscape:groupmode="layer" inkscape:label="center3_copy_8" style="display:inline;opacity:1" transform="translate(512, 512)"/><g id="layer1" inkscape:groupmode="layer" inkscape:label="border" style="display:inline">
    <path d="m 1536,0 -544.15603,544.15605 -125.74468,8.6383 4.87943,41.47517 -31.71631,-41.47517 -65.87234,12.19858 -219.57447,-14.6383 19.51773,170.78014 -24.39716,139.06383 19.51773,68.31206 53.67376,0 -56.11348,21.95745 -7.31914,39.03546 L 0,1536 0,0 Z" id="path4177" inkscape:connector-curvature="0" sodipodi:nodetypes="cccccccccccccccc" style="display:inline;opacity:1;fill:#ffffff;fill-opacity:0.06632655;fill-rule:evenodd;stroke:none;stroke-width:1px;stroke-linecap:butt;stroke-linejoin:miter;stroke-opacity:1;filter:url(#filter4291)"/>
    <path d="m 1536,0 -544.15603,544.15605 13.31913,129.06381 17.078,8.87943 -17.8581,5.65958 -14.1986,101.68794 13.3191,195.37589 -218.79428,12.8794 -8.87943,-37.47515 -6.09929,37.8156 -143.94327,-10.97872 -67.09219,2.43974 L 0,1536 l 1536,0 z" id="path4194" inkscape:connector-curvature="0" sodipodi:nodetypes="ccccccccccccccc" style="display:inline;opacity:1;fill:#000000;fill-opacity:0.11224491;fill-rule:evenodd;stroke:none;stroke-width:1px;stroke-linecap:butt;stroke-linejoin:miter;stroke-opacity:1;filter:url(#filter4293)"/>
  </g></svg>